<svg id="Ebene_1" data-name="Ebene 1" xmlns="http://www.w3.org/2000/svg" width="511.5131" height="206.7502" viewBox="0 0 511.5131 206.7502">
  <defs>
    <style>
      .cls-1 {
        fill: #1d1d1b;
      }

      .cls-2, .cls-3, .cls-4 {
        fill: none;
      }

      .cls-2 {
        stroke: #fcbe24;
      }

      .cls-2, .cls-3, .cls-4, .cls-5, .cls-6 {
        stroke-miterlimit: 10;
        stroke-width: 4px;
      }

      .cls-3 {
        stroke: #9693b5;
      }

      .cls-4 {
        stroke: #686eb2;
      }

      .cls-5 {
        fill: #fcbe24;
        stroke: #434d9c;
      }

      .cls-6 {
        fill: #9693b5;
        stroke: #e94b4d;
      }
    </style>
  </defs>
  <g>
    <path class="cls-1" d="M.7393.3954H5.061c2.2408,0,3.4414,1.2646,3.4414,3.2012A2.6786,2.6786,0,0,1,7.3979,5.869,2.7779,2.7779,0,0,1,8.7744,8.3661C8.7744,10.3671,7.59,11.6,5.333,11.6H.7393ZM2.4517,2.0917v3.01H5.061c1.0406,0,1.6968-.5283,1.6968-1.5048S6.1016,2.0917,5.061,2.0917Zm0,4.706V9.9032H5.333c1.0723,0,1.6968-.5283,1.6968-1.5527S6.4053,6.7977,5.333,6.7977Z"/>
    <path class="cls-1" d="M10.8516,6.5419A3.1787,3.1787,0,0,1,14.293,3.1161a3.1785,3.1785,0,0,1,3.4409,3.4258V8.3348A3.1782,3.1782,0,0,1,14.293,11.76a3.1783,3.1783,0,0,1-3.4414-3.4248Zm5.2016.0322a1.6322,1.6322,0,0,0-1.76-1.8408,1.6323,1.6323,0,0,0-1.7608,1.8408V8.3026a1.6323,1.6323,0,0,0,1.7608,1.8408,1.6321,1.6321,0,0,0,1.76-1.8408Z"/>
    <path class="cls-1" d="M25.9409,4.8134A1.62,1.62,0,0,0,24.18,6.6376V9.9833h3.2173V11.6H19.8906V9.9833H22.5V4.9569H20.6909V3.3407H24.18v.8a2.3073,2.3073,0,0,1,1.9209-.9443h2.0967V4.8134Z"/>
    <path class="cls-1" d="M30.2422,6.5419a3.18,3.18,0,0,1,3.2817-3.4258,2.3058,2.3058,0,0,1,1.92.9443V.3954H37.125V11.6H35.4443v-.7842a2.2424,2.2424,0,0,1-1.92.9443,3.1788,3.1788,0,0,1-3.2817-3.4248Zm1.6807,1.7607c0,1.2647.7045,1.8242,1.6489,1.8242a1.7,1.7,0,0,0,1.8725-1.8242V6.5741a1.7618,1.7618,0,1,0-3.5214,0Z"/>
    <path class="cls-1" d="M43.5073,10.1434A1.6066,1.6066,0,0,0,45.188,8.9745h1.7129a3.1638,3.1638,0,0,1-3.41,2.7851A3.1785,3.1785,0,0,1,40.05,8.3348V6.5419a3.1789,3.1789,0,0,1,3.4414-3.4258,3.1787,3.1787,0,0,1,3.4414,3.4258V8.03H41.7305v.2724a1.6325,1.6325,0,0,0,1.7607,1.8408ZM41.7466,6.5253v.0166h3.5215V6.5253a1.761,1.761,0,1,0-3.5215,0Z"/>
    <path class="cls-1" d="M55.1235,4.8134a1.62,1.62,0,0,0-1.7607,1.8242V9.9833H56.58V11.6H49.0732V9.9833h2.6089V4.9569H49.8735V3.3407h3.4893v.8a2.3073,2.3073,0,0,1,1.9209-.9443H57.38V4.8134Z"/>
    <path class="cls-1" d="M59.6489,8.9589h1.729c.128.8164.9121,1.1845,1.8086,1.1845.72,0,1.36-.1767,1.36-.8642,0-.5606-.48-.7364-1.04-.8643l-1.5688-.4a2.392,2.392,0,0,1-2.0967-2.4814c0-1.6162,1.3125-2.4326,2.9932-2.4326,1.7925,0,2.9931.7841,3.1694,2.6406H64.2432c-.1285-.72-.7525-1.0244-1.521-1.0244-.5122,0-1.1841.1924-1.1841.8486,0,.4961.48.6719.9282.7842l1.5205.3838c1.4888.3847,2.2569,1.0088,2.2569,2.5937,0,1.6162-1.2964,2.4326-3.0733,2.4326C61.2656,11.76,59.729,10.8475,59.6489,8.9589Z"/>
    <path class="cls-1" d="M78.88,6.5419a3.18,3.18,0,0,1,3.2817-3.4258,2.3058,2.3058,0,0,1,1.92.9443V.3954h1.6807V11.6H84.082v-.7842a2.2424,2.2424,0,0,1-1.92.9443A3.1788,3.1788,0,0,1,78.88,8.3348Zm1.6806,1.7607c0,1.2647.7046,1.8242,1.649,1.8242A1.7,1.7,0,0,0,84.082,8.3026V6.5741a1.7619,1.7619,0,1,0-3.5215,0Z"/>
    <path class="cls-1" d="M92.145,10.1434a1.6066,1.6066,0,0,0,1.6807-1.1689h1.7129a3.4587,3.4587,0,0,1-6.8511-.64V6.5419a3.4414,3.4414,0,0,1,6.8828,0V8.03H90.3682v.2724a1.6325,1.6325,0,0,0,1.7607,1.8408ZM90.3843,6.5253v.0166h3.5215V6.5253a1.761,1.761,0,1,0-3.5215,0Z"/>
    <path class="cls-1" d="M98.8955.3954h3.7935V9.9833h2.9131V11.6H98.0952V9.9833h2.9131V2.0116H98.8955Z"/>
    <path class="cls-1" d="M108.6709,3.3407h3.7935V9.9833h2.913V11.6h-7.5068V9.9833h2.9131V4.9569h-2.1128Zm1.873-2.9453h2.0806v2.081h-2.0806Z"/>
    <path class="cls-1" d="M118.9907,5.4852V11.6H117.31V3.3407h1.6806v.3682a1.2984,1.2984,0,0,1,1.1206-.5127,1.4666,1.4666,0,0,1,1.2163.5761,2.093,2.093,0,0,1,1.5689-.6562,2.2081,2.2081,0,0,1,2.417,2.3691V11.6h-1.6807V5.4852a.7363.7363,0,1,0-1.4726,0V11.6H120.48V5.4852a.7364.7364,0,0,0-1.4727,0Z"/>
    <path class="cls-1" d="M128.126,3.3407h3.7934V9.9833h2.9131V11.6h-7.5068V9.9833h2.9131V4.9569H128.126ZM129.999.3954H132.08v2.081H129.999Z"/>
    <path class="cls-1" d="M140.8149,9.1991c0,.624.1119.7842.7681.7842h2.7051V11.6H141.103a1.715,1.715,0,0,1-1.9687-1.9688V4.9247h-2.3531V3.3407h2.3531V1.4677h1.6806v1.873h3.4732v1.584h-3.4732Z"/>
    <path class="cls-1" d="M147.5811,3.3407h3.7934V9.9833h2.9131V11.6h-7.5068V9.9833h2.913V4.9569h-2.1127Zm1.873-2.9453h2.0806v2.081h-2.0806Z"/>
    <path class="cls-1" d="M158.4771,11.6h-1.6807V3.3407h1.6807v.72a2.3075,2.3075,0,0,1,1.9208-.9443,3.18,3.18,0,0,1,3.2813,3.4258V11.6h-1.6807V6.5741a1.7618,1.7618,0,1,0-3.5214,0Z"/>
    <path class="cls-1" d="M169.8535,13.0887a1.6325,1.6325,0,0,0,1.7608-1.8408v-.9131a2.2437,2.2437,0,0,1-1.9209.9444,3.1786,3.1786,0,0,1-3.2813-3.4248V6.5419a3.18,3.18,0,0,1,3.2813-3.4258,2.3079,2.3079,0,0,1,1.9209.9443v-.72h1.6806v7.9385a3.435,3.435,0,0,1-6.8349.48h1.6967a1.5778,1.5778,0,0,0,1.7124,1.3291Zm-1.7607-5.2666a1.7619,1.7619,0,1,0,3.5215,0V6.5741a1.7619,1.7619,0,1,0-3.5215,0Z"/>
    <path class="cls-1" d="M189.4526,9.1991c0,.624.1119.7842.7681.7842h2.7051V11.6h-3.1851a1.715,1.715,0,0,1-1.9687-1.9688V4.9247h-2.3531V3.3407h2.3531V1.4677h1.6806v1.873h3.4732v1.584h-3.4732Z"/>
    <path class="cls-1" d="M197.3872,11.6h-1.6807V.3954h1.6807V4.06a2.3077,2.3077,0,0,1,1.9209-.9443,3.18,3.18,0,0,1,3.2813,3.4258V11.6h-1.6807V6.5741a1.7619,1.7619,0,1,0-3.5215,0Z"/>
    <path class="cls-1" d="M208.876,10.1434a1.6068,1.6068,0,0,0,1.6806-1.1689h1.712a3.4585,3.4585,0,0,1-6.8506-.64V6.5419a3.4414,3.4414,0,0,1,6.8828,0V8.03h-5.2022v.2724a1.6325,1.6325,0,0,0,1.7608,1.8408Zm-1.7608-3.6181v.0166h3.5215V6.5253a1.761,1.761,0,1,0-3.5215,0Z"/>
    <path class="cls-1" d="M217.6738,9.9188h1.6807V11.6h-1.6807Zm3.2491,0h1.6806V11.6h-1.6806Zm3.249,0h1.6806V11.6h-1.6806Z"/>
  </g>
  <g>
    <path class="cls-1" d="M67.46,34.4862h1.6811v1.6807H67.46Zm3.25,0H72.39v1.6807H70.71Zm3.2495,0H75.64v1.6807H73.959Z"/>
    <path class="cls-1" d="M83.0615,29.6688h3.7774v1.6963H83.0615v3.1055H87.96v1.6963H81.3486V24.9628H87.96v1.6963h-4.898Z"/>
    <path class="cls-1" d="M94.2139,33.2059l-1.937,2.961H90.42l2.8013-4.2412-2.6729-4.0176h1.8565l1.8091,2.7529,1.8086-2.7529h1.8564l-2.6728,4.0176,2.8012,4.2412H96.15Z"/>
    <path class="cls-1" d="M107.4307,33.35a3.4413,3.4413,0,0,1-6.8511-.4473V31.1093a3.4413,3.4413,0,0,1,6.8511-.4483h-1.7129a1.59,1.59,0,0,0-1.7124-1.36,1.6323,1.6323,0,0,0-1.7608,1.8408V32.87a1.6323,1.6323,0,0,0,1.7608,1.8408,1.6059,1.6059,0,0,0,1.7285-1.3613Z"/>
    <path class="cls-1" d="M110.7236,24.9628h3.7935v9.5879H117.43v1.6162h-7.5069V34.5507h2.9131V26.579h-2.1128Z"/>
    <path class="cls-1" d="M121.6514,32.87a1.7162,1.7162,0,1,0,3.4257,0V27.9081h1.6807v8.2588h-1.6807v-.7842a2.2434,2.2434,0,0,1-1.9209.9443,3.176,3.176,0,0,1-3.1855-3.4248V27.9081h1.6807Z"/>
    <path class="cls-1" d="M129.8423,33.5262h1.729c.1279.8165.9121,1.1846,1.8086,1.1846.72,0,1.36-.1767,1.36-.8642,0-.5606-.48-.7364-1.04-.8643l-1.5689-.4a2.392,2.392,0,0,1-2.0966-2.4814c0-1.6162,1.3125-2.4327,2.9931-2.4327,1.7925,0,2.9932.7842,3.1695,2.6407h-1.7608c-.1284-.72-.7524-1.0244-1.521-1.0244-.5122,0-1.1841.1923-1.1841.8486,0,.4961.48.6719.9283.7842l1.5205.3838c1.4887.3847,2.2568,1.0088,2.2568,2.5937,0,1.6162-1.2964,2.4326-3.0732,2.4326C131.459,36.327,129.9224,35.4149,129.8423,33.5262Z"/>
    <path class="cls-1" d="M139.9541,27.9081h3.7935v6.6426h2.913v1.6162h-7.5068V34.5507h2.9131V29.5243h-2.1128Zm1.873-2.9453h2.0806v2.081h-2.0806Z"/>
    <path class="cls-1" d="M154.6436,27.9081h1.7446l-2.9771,8.2588h-1.6645L148.77,27.9081h1.7447l2.0649,5.874Z"/>
    <path class="cls-1" d="M162.3384,34.7108a1.6064,1.6064,0,0,0,1.6806-1.1689h1.7129a3.4587,3.4587,0,0,1-6.851-.64V31.1093a3.4414,3.4414,0,0,1,6.8828,0v1.4882h-5.2022V32.87a1.6325,1.6325,0,0,0,1.7608,1.8408Zm-1.7608-3.6181v.0166h3.5215v-.0166a1.761,1.761,0,1,0-3.5215,0Z"/>
    <path class="cls-1" d="M180.3369,29.6688h3.7774v1.6963h-3.7774v3.1055h4.898v1.6963H178.624V24.9628h6.6109v1.6963h-4.898Z"/>
    <path class="cls-1" d="M194.9785,33.35a3.4413,3.4413,0,0,1-6.8511-.4473V31.1093a3.4413,3.4413,0,0,1,6.8511-.4483h-1.7129a1.59,1.59,0,0,0-1.7124-1.36,1.6323,1.6323,0,0,0-1.7607,1.8408V32.87a1.6323,1.6323,0,0,0,1.7607,1.8408,1.6058,1.6058,0,0,0,1.7285-1.3613Z"/>
    <path class="cls-1" d="M197.7754,31.1093a3.4412,3.4412,0,0,1,6.8823,0v1.7929a3.4412,3.4412,0,0,1-6.8823,0Zm5.2017.0322a1.7623,1.7623,0,1,0-3.521,0V32.87a1.7623,1.7623,0,1,0,3.521,0Z"/>
    <path class="cls-1" d="M209.2153,36.1669h-1.6806V27.9081h1.6806v.72a2.3076,2.3076,0,0,1,1.9209-.9443,3.18,3.18,0,0,1,3.2813,3.4258v5.0576h-1.6807V31.1415a1.7619,1.7619,0,1,0-3.5215,0Z"/>
    <path class="cls-1" d="M217.2305,31.1093a3.4412,3.4412,0,0,1,6.8823,0v1.7929a3.4412,3.4412,0,0,1-6.8823,0Zm5.2016.0322a1.7623,1.7623,0,1,0-3.521,0V32.87a1.7623,1.7623,0,1,0,3.521,0Z"/>
    <path class="cls-1" d="M228.0942,30.0526v6.1143h-1.6806V27.9081h1.6806v.3681a1.2986,1.2986,0,0,1,1.1206-.5126,1.4667,1.4667,0,0,1,1.2164.5761A2.0927,2.0927,0,0,1,232,27.6835a2.208,2.208,0,0,1,2.417,2.3691v6.1143h-1.6807V30.0526a.7363.7363,0,0,0-1.4726,0v6.1143H229.583V30.0526a.7363.7363,0,1,0-1.4726,0Z"/>
    <path class="cls-1" d="M237.23,27.9081h3.7934v6.6426h2.9131v1.6162h-7.5068V34.5507h2.9131V29.5243H237.23Zm1.873-2.9453h2.0806v2.081h-2.0806Z"/>
    <path class="cls-1" d="M253.3438,33.35a3.4413,3.4413,0,0,1-6.8511-.4473V31.1093a3.4413,3.4413,0,0,1,6.8511-.4483h-1.7129a1.59,1.59,0,0,0-1.7124-1.36,1.6323,1.6323,0,0,0-1.7608,1.8408V32.87a1.6323,1.6323,0,0,0,1.7608,1.8408,1.6067,1.6067,0,0,0,1.729-1.3613Z"/>
    <path class="cls-1" d="M265.18,36.1669V34.4706l5.9551-7.8115H265.26V24.9628h7.955v1.6963l-5.9541,7.8115h6.0342v1.6963Z"/>
    <path class="cls-1" d="M275.5957,31.1093a3.4414,3.4414,0,0,1,6.8828,0v1.7929a3.4414,3.4414,0,0,1-6.8828,0Zm5.2022.0322a1.7625,1.7625,0,1,0-3.5215,0V32.87a1.7625,1.7625,0,1,0,3.5215,0Z"/>
    <path class="cls-1" d="M287.0361,36.1669h-1.6806V27.9081h1.6806v.72a2.3056,2.3056,0,0,1,1.92-.9443,3.18,3.18,0,0,1,3.2822,3.4258v5.0576h-1.6807V31.1415a1.7619,1.7619,0,1,0-3.5215,0Z"/>
    <path class="cls-1" d="M298.5244,34.7108a1.607,1.607,0,0,0,1.6807-1.1689h1.7119a3.4585,3.4585,0,0,1-6.8506-.64V31.1093a3.4414,3.4414,0,0,1,6.8828,0v1.4882h-5.2021V32.87a1.6325,1.6325,0,0,0,1.7607,1.8408Zm-1.7607-3.6181v.0166h3.5205v-.0166a1.7605,1.7605,0,1,0-3.5205,0Z"/>
    <path class="cls-1" d="M313.7549,24.9628h3.6015v.6718h-2.914V36.9677h2.914V37.64h-3.6015Z"/>
    <path class="cls-1" d="M322.041,30.5653a3.1974,3.1974,0,0,1-1.2158-2.5293,3.2329,3.2329,0,1,1,6.4658,0,4.0762,4.0762,0,0,1-1.3281,2.8975l-3.585,4.081h4.9131v1.1524h-6.4658V35.0145l4.2891-4.8818a3.07,3.07,0,0,0,.9765-2.0967,2.0333,2.0333,0,1,0-4.0654,0,2.056,2.056,0,0,0,.8,1.6328Z"/>
    <path class="cls-1" d="M336.668,33.0936a3.2334,3.2334,0,1,1-6.4668,0V28.036a3.2334,3.2334,0,0,1,6.4668,0Zm-5.2666-1.0078,4.0654-4.082a2.033,2.033,0,1,0-4.0654.0322Zm4.0654-3.0576-4.0654,4.082a2.0331,2.0331,0,1,0,4.0654-.0166Z"/>
    <path class="cls-1" d="M346.0752,33.0936a3.2334,3.2334,0,0,1-6.4668,0V28.036a3.2334,3.2334,0,0,1,6.4668,0Zm-5.2666-1.0078,4.0654-4.082a2.033,2.033,0,1,0-4.0654.0322Zm4.0654-3.0576-4.0654,4.082a2.0331,2.0331,0,1,0,4.0654-.0166Z"/>
    <path class="cls-1" d="M365.2744,36.1669H364.042l-4.7695-8.8194v8.8194h-1.2334V24.9628h1.2334l4.7695,8.8193V24.9628h1.2324Z"/>
    <path class="cls-1" d="M370.9844,28.82a1.8785,1.8785,0,0,0-1.9854,1.6006h-1.2324a2.9576,2.9576,0,0,1,3.2178-2.753,2.992,2.992,0,0,1,3.2334,3.2334v5.25h-1.2012v-.8486a3.0991,3.0991,0,0,1-2.5762,1.0088,2.4443,2.4443,0,0,1-2.7373-2.4492,2.3279,2.3279,0,0,1,1.792-2.3526,19.2468,19.2468,0,0,1,3.5215-.4648v-.1436a1.9383,1.9383,0,0,0-2.0322-2.0654Zm2.0322,3.2812a9.9464,9.9464,0,0,0-3.3926.544,1.1462,1.1462,0,0,0-.7207,1.1846c0,.7529.5762,1.3291,1.793,1.3291a2.05,2.05,0,0,0,2.32-1.9854Z"/>
    <path class="cls-1" d="M377.2539,33.1415V27.9081h1.2012v5.1533a1.9871,1.9871,0,1,0,3.9687.0488V27.9081h1.2012v8.2588h-1.2012v-.8477A2.4623,2.4623,0,0,1,380.44,36.327,2.9892,2.9892,0,0,1,377.2539,33.1415Z"/>
    <path class="cls-1" d="M389.7031,34.2948c0,.5273.1924.72.7686.72h2.7051v1.1524h-2.7051c-1.5362,0-1.9688-.56-1.9688-1.9688V29.06H386.15V27.9081h2.3525V26.035h1.2v1.8731h3.4737V29.06h-3.4737Z"/>
    <path class="cls-1" d="M396.63,27.9081h3.3135v7.1064h2.913v1.1524h-7.0273V35.0145h2.9131V29.06H396.63Zm1.7129-2.9453h1.7607v1.7607h-1.7607Z"/>
    <path class="cls-1" d="M411.9756,30.5165h-1.2168a1.9119,1.9119,0,0,0-2.001-1.6807,1.9382,1.9382,0,0,0-2.0322,2.0654V33.11a1.938,1.938,0,0,0,2.0322,2.0645,1.9112,1.9112,0,0,0,2.001-1.6807h1.2168a3.2466,3.2466,0,0,1-6.4668-.4V30.9169a3.2466,3.2466,0,0,1,6.4668-.4Z"/>
    <path class="cls-1" d="M418.0225,28.82a1.8785,1.8785,0,0,0-1.9854,1.6006h-1.2324a2.9576,2.9576,0,0,1,3.2178-2.753,2.992,2.992,0,0,1,3.2334,3.2334v5.25h-1.2012v-.8486a3.0992,3.0992,0,0,1-2.5762,1.0088,2.4443,2.4443,0,0,1-2.7373-2.4492,2.3279,2.3279,0,0,1,1.792-2.3526,19.2456,19.2456,0,0,1,3.5215-.4648v-.1436a1.9383,1.9383,0,0,0-2.0322-2.0654Zm2.0322,3.2812a9.9464,9.9464,0,0,0-3.3926.544,1.1462,1.1462,0,0,0-.7207,1.1846c0,.7529.5762,1.3291,1.793,1.3291a2.05,2.05,0,0,0,2.32-1.9854Z"/>
    <path class="cls-1" d="M424.8047,24.9628h3.3135V35.0145h2.913v1.1524h-7.0273V35.0145h2.9131V26.1151h-2.1123Z"/>
    <path class="cls-1" d="M448.6768,24.9628h1.2646V36.1669h-1.1846V27.828l-1.8086,5.33H445.7l-1.81-5.33v8.3389h-1.1845V24.9628h1.2646l2.3535,6.8183Z"/>
    <path class="cls-1" d="M453.0752,27.9081h3.3135v7.1064h2.9131v1.1524h-7.0274V35.0145h2.9131V29.06h-2.1123Zm1.7129-2.9453h1.7607v1.7607h-1.7607Z"/>
    <path class="cls-1" d="M462.4346,24.9628h3.3134V35.0145h2.9131v1.1524h-7.0273V35.0145h2.9131V26.1151h-2.1123Z"/>
    <path class="cls-1" d="M476.5479,33.5741H477.78a2.9575,2.9575,0,0,1-3.2178,2.7529,2.9919,2.9919,0,0,1-3.2334-3.2334V30.9169a3.2334,3.2334,0,0,1,6.4668,0V32.31H472.53V33.11a1.938,1.938,0,0,0,2.0322,2.0645A1.8786,1.8786,0,0,0,476.5479,33.5741Zm.0478-2.6729a2.033,2.033,0,1,0-4.0654,0v.3038h4.0654Z"/>
    <path class="cls-1" d="M486.8838,30.2928h-1.2324a1.6484,1.6484,0,0,0-1.8086-1.4882c-.8965,0-1.5528.4472-1.5528,1.2,0,.6884.4483.9922,1.1368,1.1679l1.5527.3848a2.3289,2.3289,0,0,1,2.1123,2.4492c0,1.6319-1.2324,2.3047-2.9131,2.3047-1.7285,0-3.1855-.8164-3.3135-2.8018h1.2325a1.8209,1.8209,0,0,0,2.081,1.65c1.1524,0,1.6807-.4649,1.6973-1.1846,0-.5283-.24-.9766-1.1524-1.2168l-1.6172-.4a2.323,2.323,0,0,1-2.0332-2.2725,2.5027,2.5027,0,0,1,2.7852-2.4013,2.6921,2.6921,0,0,1,3.0254,2.6416Z"/>
    <path class="cls-1" d="M494.2266,37.64H490.625v-.6718h2.9131V25.6346H490.625v-.6718h3.6016Z"/>
    <path class="cls-1" d="M67.46,61.6864h1.6811v1.6807H67.46Zm3.25,0H72.39v1.6807H70.71Zm3.2495,0H75.64v1.6807H73.959Z"/>
    <path class="cls-1" d="M88.5518,59.8934a4.0191,4.0191,0,0,1-8.0191-.32V55.9559a4.0191,4.0191,0,0,1,8.0191-.32H86.8389a2.3126,2.3126,0,0,0-4.5938.32v3.6172a2.3126,2.3126,0,0,0,4.5938.32Z"/>
    <path class="cls-1" d="M90.7725,58.3085a3.4412,3.4412,0,0,1,6.8823,0v1.7929a3.4412,3.4412,0,0,1-6.8823,0Zm5.2016.0322a1.7623,1.7623,0,1,0-3.521,0v1.7285a1.7623,1.7623,0,1,0,3.521,0Z"/>
    <path class="cls-1" d="M102.2124,63.3671h-1.6807v-8.26h1.6807v.7207a2.3052,2.3052,0,0,1,1.9209-.9443,3.1789,3.1789,0,0,1,3.2813,3.4248v5.0586h-1.6807V58.3407a1.7619,1.7619,0,1,0-3.5215,0Z"/>
    <path class="cls-1" d="M113.7329,60.9657c0,.624.1118.7842.7681.7842h2.7051v1.6172H114.021a1.7155,1.7155,0,0,1-1.9688-1.9688v-4.706h-2.353v-1.585h2.353v-1.873h1.6807v1.873h3.4732v1.585h-3.4732Z"/>
    <path class="cls-1" d="M120.499,55.1073h3.7935V61.75h2.9131v1.6172h-7.5069V61.75h2.9131V56.7245H120.499Zm1.8731-2.9453h2.0805v2.081h-2.0805Z"/>
    <path class="cls-1" d="M133.0439,64.8553a1.6325,1.6325,0,0,0,1.7608-1.8408v-.9121a2.2436,2.2436,0,0,1-1.9209.9444,3.18,3.18,0,0,1-3.2813-3.4258V58.3085a3.1786,3.1786,0,0,1,3.2813-3.4248,2.3052,2.3052,0,0,1,1.9209.9443v-.7207h1.6807v7.9395a3.4351,3.4351,0,0,1-6.835.48h1.6968a1.5769,1.5769,0,0,0,1.7124,1.3281ZM131.2832,59.59a1.7619,1.7619,0,1,0,3.5215,0v-1.249a1.7619,1.7619,0,1,0-3.5215,0Z"/>
    <path class="cls-1" d="M141.1064,60.0692a1.7164,1.7164,0,1,0,3.4258,0V55.1073h1.6807v8.26h-1.6807v-.7842a2.2458,2.2458,0,0,1-1.9209.9443,3.1768,3.1768,0,0,1-3.1855-3.4258V55.1073h1.6806Z"/>
    <path class="cls-1" d="M149.1377,58.3085a3.4412,3.4412,0,0,1,6.8823,0v1.7929a3.4412,3.4412,0,0,1-6.8823,0Zm5.2017.0322a1.7623,1.7623,0,1,0-3.521,0v1.7285a1.7623,1.7623,0,1,0,3.521,0Z"/>
    <path class="cls-1" d="M160.5615,60.0692a1.7164,1.7164,0,1,0,3.4258,0V55.1073h1.6807v8.26h-1.6807v-.7842a2.2458,2.2458,0,0,1-1.9209.9443,3.1768,3.1768,0,0,1-3.1855-3.4258V55.1073h1.6806Z"/>
    <path class="cls-1" d="M168.7524,60.7255h1.729c.128.8164.9122,1.1845,1.8086,1.1845.72,0,1.36-.1757,1.36-.8642,0-.5606-.48-.7363-1.04-.8643l-1.5689-.4a2.391,2.391,0,0,1-2.0967-2.48c0-1.6172,1.3125-2.4336,2.9932-2.4336,1.7925,0,2.9932.7841,3.1694,2.6416h-1.7607c-.1284-.7207-.7525-1.0244-1.521-1.0244-.5122,0-1.1841.1914-1.1841.8476,0,.4971.48.6729.9282.7852l1.5205.3838c1.4888.3837,2.2569,1.0087,2.2569,2.5927,0,1.6172-1.2964,2.4336-3.0733,2.4336C170.3691,63.5272,168.8325,62.6141,168.7524,60.7255Z"/>
    <path class="cls-1" d="M187.3594,63.3671V61.67l5.9546-7.8105H187.44V52.162h7.955v1.6973L189.44,61.67h6.0342v1.6973Z"/>
    <path class="cls-1" d="M197.7754,58.3085a3.4412,3.4412,0,0,1,6.8823,0v1.7929a3.4412,3.4412,0,0,1-6.8823,0Zm5.2017.0322a1.7623,1.7623,0,1,0-3.521,0v1.7285a1.7623,1.7623,0,1,0,3.521,0Z"/>
    <path class="cls-1" d="M209.2153,63.3671h-1.6806v-8.26h1.6806v.7207a2.3053,2.3053,0,0,1,1.9209-.9443,3.1789,3.1789,0,0,1,3.2813,3.4248v5.0586h-1.6807V58.3407a1.7619,1.7619,0,1,0-3.5215,0Z"/>
    <path class="cls-1" d="M220.7036,61.91a1.6059,1.6059,0,0,0,1.6807-1.1679h1.7129a3.4587,3.4587,0,0,1-6.8511-.6407V58.3085a3.4414,3.4414,0,0,1,6.8828,0v1.4892h-5.2021v.2715a1.6325,1.6325,0,0,0,1.7607,1.8408Zm-1.7607-3.6172v.0157h3.5215v-.0157a1.761,1.761,0,1,0-3.5215,0Z"/>
    <path class="cls-1" d="M235.9346,53.8114c0-1.0566.3364-1.6494,1.7129-1.6494h1.8886v.6728h-1.8886c-.8487,0-1.0245.32-1.0245.9766V63.19c0,.6563.1758.9766,1.0245.9766h1.8886V64.84h-1.8886c-1.3765,0-1.7129-.5927-1.7129-1.6494Z"/>
    <path class="cls-1" d="M244.5425,57.7645a3.1951,3.1951,0,0,1-1.2168-2.5293,3.2334,3.2334,0,1,1,6.4668,0,4.0752,4.0752,0,0,1-1.3286,2.8975l-3.5855,4.082h4.9141v1.1524h-6.4668V62.2147l4.29-4.8828a3.0715,3.0715,0,0,0,.9761-2.0967,2.0332,2.0332,0,1,0-4.0654,0,2.055,2.055,0,0,0,.8,1.6328Z"/>
    <path class="cls-1" d="M253.7256,59.1893H257.44V56.66h1.2v2.5293h1.169v1.1524H258.64v3.0254h-1.2V60.3417h-5.1377V59.1893l5.2011-7.1074.9287.6885Z"/>
    <path class="cls-1" d="M279.3271,63.3671h-1.2324l-4.7695-8.8194v8.8194h-1.2324V52.162h1.2324l4.7695,8.82v-8.82h1.2324Z"/>
    <path class="cls-1" d="M285.3574,56.0194a1.8793,1.8793,0,0,0-1.9853,1.6016H282.14a2.9577,2.9577,0,0,1,3.2178-2.7539,2.9924,2.9924,0,0,1,3.2334,3.2334v5.25H287.39v-.8477a3.1015,3.1015,0,0,1-2.5761,1.0078,2.4443,2.4443,0,0,1-2.7373-2.4492,2.3283,2.3283,0,0,1,1.792-2.3525,19.1567,19.1567,0,0,1,3.5214-.4639v-.1445a1.938,1.938,0,0,0-2.0322-2.0645Zm2.0322,3.2822a9.92,9.92,0,0,0-3.3925.544,1.1455,1.1455,0,0,0-.7207,1.1846c0,.7519.5761,1.3281,1.7929,1.3281a2.05,2.05,0,0,0,2.32-1.9844Z"/>
    <path class="cls-1" d="M291.9473,60.3417V55.1073h1.2011v5.1543a1.9872,1.9872,0,1,0,3.9688.0479V55.1073h1.2012v8.26h-1.2012v-.8487a2.4636,2.4636,0,0,1-1.9844,1.0088A2.9892,2.9892,0,0,1,291.9473,60.3417Z"/>
    <path class="cls-1" d="M304.7158,61.494c0,.5283.1924.7207.7686.7207H308.19v1.1524h-2.7051c-1.5362,0-1.9688-.5606-1.9688-1.9688V56.26h-2.3525V55.1073h2.3525v-1.873h1.2v1.873H308.19V56.26h-3.4737Z"/>
    <path class="cls-1" d="M311.9629,55.1073h3.3135v7.1074H318.19v1.1524h-7.0274V62.2147h2.9131V56.26h-2.1123Zm1.7129-2.9453h1.7607v1.7607h-1.7607Z"/>
    <path class="cls-1" d="M327.6289,57.7167h-1.2168a1.9112,1.9112,0,0,0-2.001-1.6807,1.938,1.938,0,0,0-2.0322,2.0645V60.31a1.9383,1.9383,0,0,0,2.0322,2.0654,1.9119,1.9119,0,0,0,2.001-1.6807h1.2168a3.2466,3.2466,0,0,1-6.4668-.4V58.1171a3.2466,3.2466,0,0,1,6.4668-.4Z"/>
    <path class="cls-1" d="M333.9951,56.0194A1.8792,1.8792,0,0,0,332.01,57.621h-1.2325a2.9577,2.9577,0,0,1,3.2178-2.7539,2.9924,2.9924,0,0,1,3.2334,3.2334v5.25h-1.2012v-.8477a3.1015,3.1015,0,0,1-2.5761,1.0078,2.4443,2.4443,0,0,1-2.7373-2.4492,2.3283,2.3283,0,0,1,1.792-2.3525,19.1567,19.1567,0,0,1,3.5214-.4639v-.1445a1.938,1.938,0,0,0-2.0322-2.0645Zm2.0322,3.2822a9.92,9.92,0,0,0-3.3925.544,1.1455,1.1455,0,0,0-.7207,1.1846c0,.7519.5761,1.3281,1.7929,1.3281a2.05,2.05,0,0,0,2.32-1.9844Z"/>
    <path class="cls-1" d="M341.0977,52.162h3.3134V62.2147h2.9131v1.1524h-7.0273V62.2147H343.21v-8.9h-2.1123Z"/>
    <path class="cls-1" d="M365.61,52.162h1.2646V63.3671H365.69v-8.34l-1.8086,5.33h-1.248l-1.81-5.33v8.34H359.64V52.162h1.2647l2.3535,6.8193Z"/>
    <path class="cls-1" d="M370.3281,55.1073h3.3135v7.1074h2.9131v1.1524h-7.0274V62.2147H372.44V56.26h-2.1123Zm1.7129-2.9453h1.7608v1.7607H372.041Z"/>
    <path class="cls-1" d="M380.0078,52.162h3.3135V62.2147h2.9131v1.1524H379.207V62.2147H382.12v-8.9h-2.1123Z"/>
    <path class="cls-1" d="M394.4414,60.7733h1.2324a2.9576,2.9576,0,0,1-3.2177,2.7539,2.9924,2.9924,0,0,1-3.2334-3.2334V58.1171a3.2334,3.2334,0,0,1,6.4668,0V59.51h-5.2657v.8a1.9383,1.9383,0,0,0,2.0323,2.0654A1.8793,1.8793,0,0,0,394.4414,60.7733Zm.0479-2.6728a2.033,2.033,0,1,0-4.0655,0v.3047h4.0655Z"/>
    <path class="cls-1" d="M405.0967,57.4921h-1.2324a1.6491,1.6491,0,0,0-1.8086-1.4883c-.8965,0-1.5528.4482-1.5528,1.2,0,.6885.4483.9931,1.1367,1.1689l1.5528.3838a2.33,2.33,0,0,1,2.1123,2.4492c0,1.6328-1.2324,2.3047-2.9131,2.3047-1.7285,0-3.1855-.8164-3.3135-2.8008h1.2324a1.821,1.821,0,0,0,2.0811,1.6485c1.1523,0,1.6807-.4639,1.6973-1.1846,0-.5283-.24-.9766-1.1524-1.2158l-1.6172-.4a2.324,2.324,0,0,1-2.0332-2.2734,2.502,2.502,0,0,1,2.7852-2.4,2.6913,2.6913,0,0,1,3.0254,2.6406Z"/>
    <path class="cls-1" d="M412.76,64.84h-3.6016v-.6728h2.9131V52.8348h-2.9131V52.162H412.76Z"/>
    <path class="cls-1" d="M67.46,88.8866h1.6811v1.6807H67.46Zm3.25,0H72.39v1.6807H70.71Zm3.2495,0H75.64v1.6807H73.959Z"/>
    <path class="cls-1" d="M85.3506,81.06v9.5078H83.6377V81.06H80.4844V79.3622h8.02V81.06Z"/>
    <path class="cls-1" d="M94.2456,89.11a1.6059,1.6059,0,0,0,1.6807-1.1679h1.7129a3.4587,3.4587,0,0,1-6.8511-.6407V85.5087a3.4414,3.4414,0,0,1,6.8828,0v1.4892H92.4688v.2715A1.6325,1.6325,0,0,0,94.23,89.11ZM92.4849,85.493v.0157h3.5214V85.493a1.761,1.761,0,1,0-3.5214,0Z"/>
    <path class="cls-1" d="M105.8618,83.78a1.62,1.62,0,0,0-1.7607,1.8251V88.95h3.2173v1.6172H99.8115V88.95H102.42V83.9247h-1.8086V82.3075h3.4893v.8008a2.3048,2.3048,0,0,1,1.9209-.9444h2.0967V83.78Z"/>
    <path class="cls-1" d="M115.5894,83.78a1.62,1.62,0,0,0-1.7608,1.8251V88.95h3.2173v1.6172h-7.5068V88.95h2.6088V83.9247h-1.8085V82.3075h3.4892v.8008a2.305,2.305,0,0,1,1.9209-.9444h2.0967V83.78Z"/>
    <path class="cls-1" d="M120.499,82.3075h3.7935V88.95h2.9131v1.6172h-7.5069V88.95h2.9131V83.9247H120.499Zm1.8731-2.9453h2.0805v2.081h-2.0805Z"/>
    <path class="cls-1" d="M133.188,88.1659c0,.624.1118.7842.7681.7842h2.705v1.6172h-3.185a1.7155,1.7155,0,0,1-1.9688-1.9688v-4.706h-2.353v-1.585h2.353v-1.873h1.6807v1.873h3.4731v1.585H133.188Z"/>
    <path class="cls-1" d="M139.41,85.5087a3.4412,3.4412,0,0,1,6.8823,0v1.7929a3.4412,3.4412,0,0,1-6.8823,0Zm5.2016.0322a1.7623,1.7623,0,1,0-3.521,0v1.7285a1.7623,1.7623,0,1,0,3.521,0Z"/>
    <path class="cls-1" d="M154.5,83.78a1.62,1.62,0,0,0-1.7607,1.8251V88.95h3.2173v1.6172h-7.5069V88.95h2.6089V83.9247H149.25V82.3075h3.4893v.8008a2.3048,2.3048,0,0,1,1.9209-.9444h2.0966V83.78Z"/>
    <path class="cls-1" d="M159.4092,82.3075h3.7934V88.95h2.9131v1.6172h-7.5068V88.95h2.9131V83.9247h-2.1128Zm1.873-2.9453h2.0806v2.081h-2.0806Z"/>
    <path class="cls-1" d="M171.938,83.7323a1.6056,1.6056,0,0,0-1.6807,1.168h-1.7129a3.4587,3.4587,0,0,1,6.8511.6406V90.6h-1.6807v-.7852a3.04,3.04,0,0,1-2.4653.9444c-1.4883,0-2.8169-.7364-2.8169-2.4483a2.503,2.503,0,0,1,1.7925-2.497,16.488,16.488,0,0,1,3.4736-.4961,1.62,1.62,0,0,0-.0639-.4A1.5615,1.5615,0,0,0,171.97,83.7Zm-.4321,5.3945c.96,0,2.1928-.3047,2.1928-1.8408v-.4648a8.5654,8.5654,0,0,0-3.2016.5761.8179.8179,0,0,0-.4.7686c0,.6885.5122.9766,1.4087.9766Z"/>
    <path class="cls-1" d="M178.8164,79.3622H182.61V88.95h2.913v1.6172h-7.5068V88.95h2.9131V80.9794h-2.1128Z"/>
    <path class="cls-1" d="M201.3447,90.7108a3.7767,3.7767,0,0,1-4.13-3.6328H198.96a2.2463,2.2463,0,0,0,2.4331,1.9365c1.1523,0,1.8886-.5439,1.8886-1.4248,0-.832-.4482-1.3447-1.5844-1.6162l-1.9849-.4805a2.9945,2.9945,0,0,1-2.3047-3.1377c0-2.16,1.6324-3.1689,3.6172-3.1689a3.5122,3.5122,0,0,1,3.81,3.1533h-1.8247a1.8631,1.8631,0,0,0-1.9849-1.457c-1.3447,0-1.8887.625-1.8887,1.4726A1.4435,1.4435,0,0,0,200.4,83.86l1.92.4639a3.11,3.11,0,0,1,2.69,3.3135c0,1.7929-1.3287,3.09-3.6656,3.09Z"/>
    <path class="cls-1" d="M210.9761,89.11a1.6058,1.6058,0,0,0,1.6806-1.1679H214.37a3.4587,3.4587,0,0,1-6.851-.6407V85.5087a3.4414,3.4414,0,0,1,6.8828,0v1.4892h-5.2022v.2715A1.6325,1.6325,0,0,0,210.96,89.11Zm-1.7608-3.6172v.0157h3.5215V85.493a1.761,1.761,0,1,0-3.5215,0Z"/>
    <path class="cls-1" d="M220.5757,83.7323A1.6056,1.6056,0,0,0,218.895,84.9h-1.7129a3.4587,3.4587,0,0,1,6.8511.6406V90.6h-1.6807v-.7852a3.04,3.04,0,0,1-2.4653.9444c-1.4883,0-2.8169-.7364-2.8169-2.4483a2.503,2.503,0,0,1,1.7925-2.497,16.488,16.488,0,0,1,3.4736-.4961,1.62,1.62,0,0,0-.0639-.4A1.5615,1.5615,0,0,0,220.6074,83.7Zm-.4321,5.3945c.96,0,2.1928-.3047,2.1928-1.8408v-.4648a8.5654,8.5654,0,0,0-3.2016.5761.8179.8179,0,0,0-.4.7686c0,.6885.5122.9766,1.4087.9766Z"/>
    <path class="cls-1" d="M235.9346,81.0116c0-1.0566.3364-1.6494,1.7129-1.6494h1.8886v.6728h-1.8886c-.8487,0-1.0245.32-1.0245.9766v9.3789c0,.6563.1758.9766,1.0245.9766h1.8886V92.04h-1.8886c-1.3765,0-1.7129-.5928-1.7129-1.6494Z"/>
    <path class="cls-1" d="M246.1909,89.4149V81.0116L244.43,82.7723l-.8164-.833,2.5771-2.5771h1.2007V89.4149h2.9131v1.1524h-7.0269V89.4149Z"/>
    <path class="cls-1" d="M254.2705,84.9647a3.1939,3.1939,0,0,1-1.2168-2.5293,3.2334,3.2334,0,0,1,6.4668,0,4.0739,4.0739,0,0,1-1.3291,2.8975l-3.585,4.082h4.9141v1.1524h-6.4668V89.4149l4.29-4.8828a3.0733,3.0733,0,0,0,.9755-2.0967,2.0328,2.0328,0,1,0-3.2646,1.6328Z"/>
    <path class="cls-1" d="M279.3271,90.5673h-1.2324l-4.7695-8.8194v8.8194h-1.2324V79.3622h1.2324l4.7695,8.82v-8.82h1.2324Z"/>
    <path class="cls-1" d="M285.3574,83.22a1.8793,1.8793,0,0,0-1.9853,1.6016H282.14a2.9577,2.9577,0,0,1,3.2178-2.7539,2.9924,2.9924,0,0,1,3.2334,3.2334v5.25H287.39V89.703a3.1015,3.1015,0,0,1-2.5761,1.0078,2.4443,2.4443,0,0,1-2.7373-2.4492,2.3283,2.3283,0,0,1,1.792-2.3525,19.1567,19.1567,0,0,1,3.5214-.4639v-.1445a1.938,1.938,0,0,0-2.0322-2.0645Zm2.0322,3.2822a9.92,9.92,0,0,0-3.3925.544,1.1455,1.1455,0,0,0-.7207,1.1845c0,.752.5761,1.3282,1.7929,1.3282a2.05,2.05,0,0,0,2.32-1.9844Z"/>
    <path class="cls-1" d="M291.9473,87.5419V82.3075h1.2011v5.1543a1.9872,1.9872,0,1,0,3.9688.0478V82.3075h1.2012v8.26h-1.2012v-.8487a2.4636,2.4636,0,0,1-1.9844,1.0088A2.9892,2.9892,0,0,1,291.9473,87.5419Z"/>
    <path class="cls-1" d="M304.7158,88.6942c0,.5283.1924.7207.7686.7207H308.19v1.1524h-2.7051c-1.5362,0-1.9688-.5606-1.9688-1.9688V83.46h-2.3525V82.3075h2.3525v-1.873h1.2v1.873H308.19V83.46h-3.4737Z"/>
    <path class="cls-1" d="M311.9629,82.3075h3.3135v7.1074H318.19v1.1524h-7.0274V89.4149h2.9131V83.46h-2.1123Zm1.7129-2.9453h1.7607v1.7607h-1.7607Z"/>
    <path class="cls-1" d="M327.6289,84.9169h-1.2168a1.9112,1.9112,0,0,0-2.001-1.6807,1.938,1.938,0,0,0-2.0322,2.0645V87.51a1.9383,1.9383,0,0,0,2.0322,2.0655,1.9119,1.9119,0,0,0,2.001-1.6807h1.2168a3.2466,3.2466,0,0,1-6.4668-.4V85.3173a3.2466,3.2466,0,0,1,6.4668-.4Z"/>
    <path class="cls-1" d="M333.9951,83.22a1.8792,1.8792,0,0,0-1.9853,1.6016h-1.2325a2.9577,2.9577,0,0,1,3.2178-2.7539,2.9924,2.9924,0,0,1,3.2334,3.2334v5.25h-1.2012V89.703a3.1015,3.1015,0,0,1-2.5761,1.0078,2.4443,2.4443,0,0,1-2.7373-2.4492,2.3283,2.3283,0,0,1,1.792-2.3525,19.1567,19.1567,0,0,1,3.5214-.4639v-.1445a1.938,1.938,0,0,0-2.0322-2.0645Zm2.0322,3.2822a9.92,9.92,0,0,0-3.3925.544,1.1455,1.1455,0,0,0-.7207,1.1845c0,.752.5761,1.3282,1.7929,1.3282a2.05,2.05,0,0,0,2.32-1.9844Z"/>
    <path class="cls-1" d="M341.0977,79.3622h3.3134V89.4149h2.9131v1.1524h-7.0273V89.4149H343.21v-8.9h-2.1123Z"/>
    <path class="cls-1" d="M365.61,79.3622h1.2646V90.5673H365.69v-8.34l-1.8086,5.33h-1.248l-1.81-5.33v8.34H359.64V79.3622h1.2647l2.3535,6.8193Z"/>
    <path class="cls-1" d="M370.3281,82.3075h3.3135v7.1074h2.9131v1.1524h-7.0274V89.4149H372.44V83.46h-2.1123Zm1.7129-2.9453h1.7608v1.7607H372.041Z"/>
    <path class="cls-1" d="M380.0078,79.3622h3.3135V89.4149h2.9131v1.1524H379.207V89.4149H382.12v-8.9h-2.1123Z"/>
    <path class="cls-1" d="M394.4414,87.9735h1.2324a2.9576,2.9576,0,0,1-3.2177,2.7539,2.9924,2.9924,0,0,1-3.2334-3.2334V85.3173a3.2334,3.2334,0,0,1,6.4668,0V86.71h-5.2657v.8a1.9383,1.9383,0,0,0,2.0323,2.0655A1.8793,1.8793,0,0,0,394.4414,87.9735Zm.0479-2.6728a2.033,2.033,0,1,0-4.0655,0v.3046h4.0655Z"/>
    <path class="cls-1" d="M405.0967,84.6923h-1.2324a1.6491,1.6491,0,0,0-1.8086-1.4883c-.8965,0-1.5528.4482-1.5528,1.2,0,.6885.4483.9931,1.1367,1.1689l1.5528.3838a2.33,2.33,0,0,1,2.1123,2.4492c0,1.6328-1.2324,2.3047-2.9131,2.3047-1.7285,0-3.1855-.8164-3.3135-2.8008h1.2324a1.821,1.821,0,0,0,2.0811,1.6485c1.1523,0,1.6807-.4639,1.6973-1.1846,0-.5283-.24-.9766-1.1524-1.2158l-1.6172-.4a2.324,2.324,0,0,1-2.0332-2.2734,2.502,2.502,0,0,1,2.7852-2.4,2.6913,2.6913,0,0,1,3.0254,2.6406Z"/>
    <path class="cls-1" d="M412.76,92.04h-3.6016v-.6728h2.9131V80.035h-2.9131v-.6728H412.76Z"/>
  </g>
  <line class="cls-2" x1="1.9525" y1="33.9288" x2="56.4476" y2="33.9288"/>
  <line class="cls-3" x1="1.9525" y1="61.9288" x2="56.4476" y2="61.9288"/>
  <line class="cls-4" x1="1.9525" y1="88.9288" x2="56.4476" y2="88.9288"/>
  <g>
    <path class="cls-1" d="M1.54,128.3954H3.252v9.5078H8.15V139.6H1.54Z"/>
    <path class="cls-1" d="M11.3955,131.3407H15.189v6.6426h2.9131V139.6H10.5952v-1.6162h2.9131v-5.0264H11.3955Zm1.8731-2.9453h2.0805v2.081H13.2686Z"/>
    <path class="cls-1" d="M22.2915,139.6H20.6108v-8.2588h1.6807v.72a2.3077,2.3077,0,0,1,1.9209-.9443,3.18,3.18,0,0,1,3.2813,3.4258V139.6H25.813v-5.0254a1.62,1.62,0,0,0-1.7608-1.8252,1.62,1.62,0,0,0-1.7607,1.8252Z"/>
    <path class="cls-1" d="M33.78,138.1434a1.6064,1.6064,0,0,0,1.6806-1.1689h1.7129a3.1637,3.1637,0,0,1-3.41,2.7851,3.1785,3.1785,0,0,1-3.4414-3.4248v-1.7929a3.1788,3.1788,0,0,1,3.4414-3.4258,3.1787,3.1787,0,0,1,3.4414,3.4258V136.03H32.0029v.2724a1.6325,1.6325,0,0,0,1.7608,1.8408Zm-1.7608-3.6181v.0166h3.5215v-.0166a1.761,1.761,0,1,0-3.5215,0Z"/>
    <path class="cls-1" d="M40.1938,136.9589h1.7291c.1279.8164.9121,1.1845,1.8085,1.1845.72,0,1.36-.1767,1.36-.8642,0-.5606-.48-.7364-1.04-.8643l-1.5689-.4a2.392,2.392,0,0,1-2.0967-2.4814c0-1.6162,1.3125-2.4326,2.9932-2.4326,1.7925,0,2.9932.7841,3.1694,2.6406H44.7881c-.1284-.72-.7525-1.0244-1.521-1.0244-.5122,0-1.1841.1924-1.1841.8486,0,.4961.48.6719.9282.7842l1.52.3838c1.4888.3847,2.2569,1.0088,2.2569,2.5937,0,1.6162-1.2964,2.4326-3.0733,2.4326C41.8105,139.76,40.2739,138.8475,40.1938,136.9589Z"/>
    <path class="cls-1" d="M64.8511,132.8134a1.62,1.62,0,0,0-1.7608,1.8242v3.3457h3.2173V139.6H58.8008v-1.6162H61.41v-5.0264H59.6011v-1.6162H63.09v.8a2.3076,2.3076,0,0,1,1.9209-.9443h2.0967v1.6172Z"/>
    <path class="cls-1" d="M72.69,138.1434a1.6065,1.6065,0,0,0,1.6807-1.1689h1.7129a3.4587,3.4587,0,0,1-6.8511-.64v-1.7929a3.4414,3.4414,0,0,1,6.8828,0V136.03H70.9131v.2724a1.6325,1.6325,0,0,0,1.7607,1.8408Zm-1.7607-3.6181v.0166h3.5215v-.0166a1.761,1.761,0,1,0-3.5215,0Z"/>
    <path class="cls-1" d="M85.8911,136.3348a3.1788,3.1788,0,0,1-3.2817,3.4248,2.2424,2.2424,0,0,1-1.92-.9443v3.73H79.0083V131.3407H80.689v.72a2.3058,2.3058,0,0,1,1.92-.9443,3.18,3.18,0,0,1,3.2817,3.4258ZM84.21,134.5741a1.7618,1.7618,0,1,0-3.5214,0v1.7285a1.7618,1.7618,0,1,0,3.5214,0Z"/>
    <path class="cls-1" d="M94.0337,132.8134a1.62,1.62,0,0,0-1.7608,1.8242v3.3457H95.49V139.6H87.9834v-1.6162h2.6089v-5.0264H88.7837v-1.6162h3.4892v.8a2.3076,2.3076,0,0,1,1.9209-.9443h2.0967v1.6172Z"/>
    <path class="cls-1" d="M101.8726,138.1434a1.6064,1.6064,0,0,0,1.6806-1.1689h1.7129a3.4587,3.4587,0,0,1-6.8511-.64v-1.7929a3.4415,3.4415,0,0,1,6.8829,0V136.03h-5.2022v.2724a1.6325,1.6325,0,0,0,1.7607,1.8408Zm-1.7608-3.6181v.0166h3.5215v-.0166a1.761,1.761,0,1,0-3.5215,0Z"/>
    <path class="cls-1" d="M108.2866,136.9589h1.729c.128.8164.9121,1.1845,1.8086,1.1845.72,0,1.36-.1767,1.36-.8642,0-.5606-.48-.7364-1.04-.8643l-1.5688-.4a2.392,2.392,0,0,1-2.0967-2.4814c0-1.6162,1.3125-2.4326,2.9932-2.4326,1.7924,0,2.9931.7841,3.1694,2.6406h-1.7607c-.1285-.72-.7525-1.0244-1.521-1.0244-.5122,0-1.1841.1924-1.1841.8486,0,.4961.48.6719.9282.7842l1.52.3838c1.4888.3847,2.2568,1.0088,2.2568,2.5937,0,1.6162-1.2963,2.4326-3.0732,2.4326C109.9033,139.76,108.3667,138.8475,108.2866,136.9589Z"/>
    <path class="cls-1" d="M121.3276,138.1434a1.6065,1.6065,0,0,0,1.6807-1.1689h1.7129a3.4587,3.4587,0,0,1-6.8511-.64v-1.7929a3.4414,3.4414,0,0,1,6.8828,0V136.03h-5.2021v.2724a1.6325,1.6325,0,0,0,1.7607,1.8408Zm-1.7607-3.6181v.0166h3.5215v-.0166a1.761,1.761,0,1,0-3.5215,0Z"/>
    <path class="cls-1" d="M129.2944,139.6h-1.6806v-8.2588h1.6806v.72a2.3079,2.3079,0,0,1,1.9209-.9443,3.18,3.18,0,0,1,3.2813,3.4258V139.6h-1.6807v-5.0254a1.7619,1.7619,0,1,0-3.5215,0Z"/>
    <path class="cls-1" d="M140.8149,137.1991c0,.624.1119.7842.7681.7842h2.7051V139.6H141.103a1.715,1.715,0,0,1-1.9687-1.9688v-4.706h-2.3531v-1.584h2.3531v-1.873h1.6806v1.873h3.4732v1.584h-3.4732Z"/>
    <path class="cls-1" d="M147.5811,131.3407h3.7934v6.6426h2.9131V139.6h-7.5068v-1.6162h2.913v-5.0264h-2.1127Zm1.873-2.9453h2.0806v2.081h-2.0806Z"/>
    <path class="cls-1" d="M158.4771,139.6h-1.6807v-8.2588h1.6807v.72a2.3075,2.3075,0,0,1,1.9208-.9443,3.18,3.18,0,0,1,3.2813,3.4258V139.6h-1.6807v-5.0254a1.7618,1.7618,0,1,0-3.5214,0Z"/>
    <path class="cls-1" d="M169.8535,141.0887a1.6325,1.6325,0,0,0,1.7608-1.8408v-.9131a2.2437,2.2437,0,0,1-1.9209.9444,3.1786,3.1786,0,0,1-3.2813-3.4248v-1.3125a3.18,3.18,0,0,1,3.2813-3.4258,2.3079,2.3079,0,0,1,1.9209.9443v-.72h1.6806v7.9385a3.435,3.435,0,0,1-6.8349.48h1.6967a1.5778,1.5778,0,0,0,1.7124,1.3291Zm-1.7607-5.2666a1.7619,1.7619,0,1,0,3.5215,0v-1.248a1.7619,1.7619,0,1,0-3.5215,0Z"/>
    <path class="cls-1" d="M185.291,137.9188h1.6807V139.6H185.291Zm3.249,0h1.6807V139.6H188.54Zm3.25,0H193.47V139.6H191.79Z"/>
  </g>
  <g>
    <path class="cls-1" d="M67.46,162.4862h1.6811v1.6807H67.46Zm3.25,0H72.39v1.6807H70.71Zm3.2495,0H75.64v1.6807H73.959Z"/>
    <path class="cls-1" d="M88.5039,164.1669H86.791l-4.61-8.0352v8.0352H80.4683V152.9628h1.7129l4.61,8.0351v-8.0351h1.7129Z"/>
    <path class="cls-1" d="M90.7725,159.1093a3.4412,3.4412,0,0,1,6.8823,0v1.7929a3.4412,3.4412,0,0,1-6.8823,0Zm5.2016.0322a1.7623,1.7623,0,1,0-3.521,0V160.87a1.7623,1.7623,0,1,0,3.521,0Z"/>
    <path class="cls-1" d="M105.8618,157.3807a1.62,1.62,0,0,0-1.7607,1.8243v3.3457h3.2173v1.6162H99.8115v-1.6162H102.42v-5.0264h-1.8086v-1.6162h3.4893v.8a2.3073,2.3073,0,0,1,1.9209-.9443h2.0967v1.6171Z"/>
    <path class="cls-1" d="M111.3638,158.0526v6.1143h-1.6807v-8.2588h1.6807v.3681a1.2984,1.2984,0,0,1,1.1206-.5126,1.4667,1.4667,0,0,1,1.2163.5761,2.093,2.093,0,0,1,1.5688-.6562,2.208,2.208,0,0,1,2.417,2.3691v6.1143h-1.6806v-6.1143a.7364.7364,0,0,0-1.4727,0v6.1143h-1.6807v-6.1143a.7363.7363,0,0,0-1.4726,0Z"/>
    <path class="cls-1" d="M123.3,157.3319a1.6063,1.6063,0,0,0-1.6807,1.169h-1.7129a3.4587,3.4587,0,0,1,6.8511.6406v5.0576h-1.6807v-.7842a3.0406,3.0406,0,0,1-2.4653.9444c-1.4883,0-2.8169-.7364-2.8169-2.4493a2.5046,2.5046,0,0,1,1.7925-2.497,16.62,16.62,0,0,1,3.4736-.4961,1.6281,1.6281,0,0,0-.0639-.4,1.5608,1.5608,0,0,0-1.6651-1.2158Zm-.4321,5.3945c.96,0,2.1928-.3037,2.1928-1.8408v-.4638a8.5654,8.5654,0,0,0-3.2016.5761.8157.8157,0,0,0-.4.7686c0,.6875.5122.9756,1.4087.9756Z"/>
    <path class="cls-1" d="M130.1787,152.9628h3.7935v9.5879h2.9131v1.6162h-7.5069v-1.6162h2.9131V154.579h-2.1128Z"/>
    <path class="cls-1" d="M149.1377,159.1093a3.4412,3.4412,0,0,1,6.8823,0v1.7929a3.4412,3.4412,0,0,1-6.8823,0Zm5.2017.0322a1.7623,1.7623,0,1,0-3.521,0V160.87a1.7623,1.7623,0,1,0,3.521,0Z"/>
    <path class="cls-1" d="M164.2271,157.3807a1.62,1.62,0,0,0-1.7608,1.8243v3.3457h3.2173v1.6162h-7.5068v-1.6162h2.6088v-5.0264h-1.8085v-1.6162h3.4892v.8a2.3075,2.3075,0,0,1,1.9209-.9443h2.0967v1.6171Z"/>
    <path class="cls-1" d="M181.89,164.3114a3.7773,3.7773,0,0,1-4.13-3.6338h1.7446a2.2455,2.2455,0,0,0,2.4331,1.9365c1.1523,0,1.8887-.5439,1.8887-1.4238,0-.833-.4483-1.3447-1.5845-1.6172l-1.9849-.48a2.9936,2.9936,0,0,1-2.3047-3.1368c0-2.1611,1.6324-3.1689,3.6172-3.1689a3.5121,3.5121,0,0,1,3.81,3.1523h-1.8247a1.8623,1.8623,0,0,0-1.9849-1.456c-1.3447,0-1.8886.624-1.8886,1.4726a1.4448,1.4448,0,0,0,1.2646,1.5049l1.92.4639a3.11,3.11,0,0,1,2.69,3.3135c0,1.7929-1.3286,3.0888-3.6656,3.0888Z"/>
    <path class="cls-1" d="M191.5532,161.7665c0,.624.1118.7842.7681.7842h2.7051v1.6162h-3.1851a1.715,1.715,0,0,1-1.9687-1.9688v-4.706H187.52v-1.584h2.3531V154.035h1.6806v1.8731h3.4732v1.584h-3.4732Z"/>
    <path class="cls-1" d="M203.1372,157.3807a1.62,1.62,0,0,0-1.7607,1.8243v3.3457h3.2173v1.6162h-7.5069v-1.6162h2.6089v-5.0264h-1.8086v-1.6162h3.4893v.8a2.3073,2.3073,0,0,1,1.9209-.9443h2.0966v1.6171Z"/>
    <path class="cls-1" d="M210.8481,157.3319a1.6062,1.6062,0,0,0-1.6806,1.169h-1.7129a3.4587,3.4587,0,0,1,6.8511.6406v5.0576H212.625v-.7842a3.0408,3.0408,0,0,1-2.4653.9444c-1.4883,0-2.8169-.7364-2.8169-2.4493a2.5045,2.5045,0,0,1,1.7925-2.497,16.62,16.62,0,0,1,3.4736-.4961,1.6234,1.6234,0,0,0-.064-.4,1.5607,1.5607,0,0,0-1.665-1.2158Zm-.4321,5.3945c.96,0,2.1929-.3037,2.1929-1.8408v-.4638a8.5656,8.5656,0,0,0-3.2017.5761.8157.8157,0,0,0-.4.7686c0,.6875.5122.9756,1.4087.9756Z"/>
    <path class="cls-1" d="M217.7744,155.9081h3.7935v6.6426h2.9131v1.6162h-7.5069v-1.6162h2.9131v-5.0264h-2.1128Zm1.8731-2.9453h2.0805v2.081h-2.0805Z"/>
    <path class="cls-1" d="M230.3193,165.6561a1.6325,1.6325,0,0,0,1.7608-1.8408v-.9131a2.2436,2.2436,0,0,1-1.9209.9444,3.1786,3.1786,0,0,1-3.2813-3.4248v-1.3125a3.1794,3.1794,0,0,1,3.2813-3.4258,2.3075,2.3075,0,0,1,1.9209.9443v-.72h1.6806v7.9385a3.435,3.435,0,0,1-6.8349.48h1.6968a1.5777,1.5777,0,0,0,1.7124,1.3291Zm-1.7607-5.2666a1.7619,1.7619,0,1,0,3.5215,0v-1.248a1.7619,1.7619,0,1,0-3.5215,0Z"/>
    <path class="cls-1" d="M238.3979,164.1669h-1.6806V152.9628h1.6806v3.665a2.3076,2.3076,0,0,1,1.9209-.9443,3.18,3.18,0,0,1,3.2813,3.4258v5.0576h-1.6807v-5.0254a1.7619,1.7619,0,1,0-3.5215,0Z"/>
    <path class="cls-1" d="M249.9185,161.7665c0,.624.1118.7842.768.7842h2.7051v1.6162h-3.1851a1.7151,1.7151,0,0,1-1.9687-1.9688v-4.706h-2.353v-1.584h2.353V154.035h1.6807v1.8731h3.4731v1.584h-3.4731Z"/>
    <path class="cls-1" d="M265.4844,152.9628h4.3213c2.2412,0,3.4414,1.2646,3.4414,3.2011a2.6777,2.6777,0,0,1-1.1045,2.2725,2.7786,2.7786,0,0,1,1.376,2.4971c0,2.001-1.1836,3.2334-3.44,3.2334h-4.5937Zm1.7119,1.6963v3.01h2.6094c1.04,0,1.6972-.5283,1.6972-1.5049s-.6572-1.5048-1.6972-1.5048Zm0,4.706v3.1055h2.8818c1.0723,0,1.6963-.5283,1.6963-1.5528s-.624-1.5527-1.6963-1.5527Z"/>
    <path class="cls-1" d="M278.94,157.3319a1.6069,1.6069,0,0,0-1.6806,1.169h-1.7119a3.4584,3.4584,0,0,1,6.85.6406v5.0576h-1.6806v-.7842a3.04,3.04,0,0,1-2.4649.9444c-1.4892,0-2.8174-.7364-2.8174-2.4493a2.5039,2.5039,0,0,1,1.793-2.497,16.61,16.61,0,0,1,3.4727-.4961,1.6094,1.6094,0,0,0-.0635-.4,1.56,1.56,0,0,0-1.665-1.2158Zm-.4316,5.3945c.96,0,2.1924-.3037,2.1924-1.8408v-.4638a8.56,8.56,0,0,0-3.2012.5761.816.816,0,0,0-.4.7686c0,.6875.5127.9756,1.4092.9756Z"/>
    <path class="cls-1" d="M285.4834,161.5262h1.7285c.1279.8165.9121,1.1846,1.8086,1.1846.7207,0,1.36-.1767,1.36-.8642,0-.5606-.4805-.7364-1.04-.8643l-1.5683-.4a2.3924,2.3924,0,0,1-2.0977-2.4814c0-1.6162,1.3125-2.4327,2.9932-2.4327,1.7929,0,2.9931.7842,3.17,2.6407h-1.7608c-.1279-.72-.7529-1.0244-1.52-1.0244-.5127,0-1.1845.1923-1.1845.8486,0,.4961.48.6719.9277.7842l1.5215.3838c1.4883.3847,2.2568,1.0088,2.2568,2.5937,0,1.6162-1.2969,2.4326-3.0732,2.4326C287.1,164.327,285.5635,163.4149,285.4834,161.5262Z"/>
    <path class="cls-1" d="M298.5244,162.7108a1.607,1.607,0,0,0,1.6807-1.1689h1.7119a3.4585,3.4585,0,0,1-6.8506-.64v-1.7929a3.4414,3.4414,0,0,1,6.8828,0v1.4882h-5.2021v.2725a1.6325,1.6325,0,0,0,1.7607,1.8408Zm-1.7607-3.6181v.0166h3.5205v-.0166a1.7605,1.7605,0,1,0-3.5205,0Z"/>
    <path class="cls-1" d="M305.2744,152.9628h3.793v9.5879h2.914v1.6162h-7.5078v-1.6162h2.9131V154.579h-2.1123Z"/>
    <path class="cls-1" d="M315.05,155.9081h3.794v6.6426h2.913v1.6162H314.25v-1.6162h2.9131v-5.0264H315.05Zm1.8731-2.9453h2.081v2.081h-2.081Z"/>
    <path class="cls-1" d="M325.9463,164.1669h-1.6807v-8.2588h1.6807v.72a2.3053,2.3053,0,0,1,1.92-.9443,3.18,3.18,0,0,1,3.2822,3.4258v5.0576h-1.6806v-5.0254a1.7619,1.7619,0,1,0-3.5215,0Z"/>
    <path class="cls-1" d="M337.4346,162.7108a1.6068,1.6068,0,0,0,1.6806-1.1689h1.7119a3.4584,3.4584,0,0,1-6.85-.64v-1.7929a3.4414,3.4414,0,0,1,6.8828,0v1.4882h-5.2022v.2725a1.6325,1.6325,0,0,0,1.7608,1.8408Zm-1.7608-3.6181v.0166h3.52v-.0166a1.7605,1.7605,0,1,0-3.52,0Z"/>
    <path class="cls-1" d="M343.8486,161.5262h1.7285c.128.8165.9122,1.1846,1.8086,1.1846.7207,0,1.36-.1767,1.36-.8642,0-.5606-.4805-.7364-1.04-.8643l-1.5684-.4a2.3924,2.3924,0,0,1-2.0977-2.4814c0-1.6162,1.3125-2.4327,2.9932-2.4327,1.793,0,2.9932.7842,3.17,2.6407h-1.7607c-.1279-.72-.7529-1.0244-1.5205-1.0244-.5127,0-1.1846.1923-1.1846.8486,0,.4961.4795.6719.9277.7842l1.5215.3838c1.4883.3847,2.2569,1.0088,2.2569,2.5937,0,1.6162-1.2969,2.4326-3.0733,2.4326C345.4648,164.327,343.9287,163.4149,343.8486,161.5262Z"/>
    <path class="cls-1" d="M67.46,189.6864h1.6811v1.6807H67.46Zm3.25,0H72.39v1.6807H70.71Zm3.2495,0H75.64v1.6807H73.959Z"/>
    <path class="cls-1" d="M86.791,180.162h1.7129v7.4111a4.0183,4.0183,0,0,1-8.0356,0V180.162h1.7129v7.4111a2.3054,2.3054,0,0,0,4.61,0Z"/>
    <path class="cls-1" d="M92.4849,191.3671H90.8042v-8.26h1.6807v.7207a2.305,2.305,0,0,1,1.9209-.9443,3.1788,3.1788,0,0,1,3.2812,3.4248v5.0586H96.0063v-5.0264a1.7618,1.7618,0,1,0-3.5214,0Z"/>
    <path class="cls-1" d="M100.66,188.7255h1.729c.1279.8164.9121,1.1845,1.8086,1.1845.72,0,1.36-.1757,1.36-.8642,0-.5606-.48-.7363-1.04-.8643l-1.5689-.4a2.391,2.391,0,0,1-2.0966-2.48c0-1.6172,1.3125-2.4336,2.9931-2.4336,1.7925,0,2.9932.7841,3.1694,2.6416h-1.7607c-.1284-.7207-.7524-1.0244-1.521-1.0244-.5122,0-1.1841.1914-1.1841.8476,0,.4971.48.6729.9283.7852l1.5205.3838c1.4887.3837,2.2568,1.0087,2.2568,2.5927,0,1.6172-1.2964,2.4336-3.0732,2.4336C102.2764,191.5272,100.74,190.6141,100.66,188.7255Z"/>
    <path class="cls-1" d="M113.7007,189.91a1.6058,1.6058,0,0,0,1.6806-1.1679h1.7129a3.4587,3.4587,0,0,1-6.851-.6407v-1.7929a3.4414,3.4414,0,0,1,6.8828,0v1.4892h-5.2022v.2715a1.6325,1.6325,0,0,0,1.7608,1.8408Zm-1.7608-3.6172v.0157h3.5215v-.0157a1.761,1.761,0,1,0-3.5215,0Z"/>
    <path class="cls-1" d="M123.46,188.9657c0,.624.1119.7842.7681.7842h2.7051v1.6172h-3.1851a1.7155,1.7155,0,0,1-1.9687-1.9688v-4.706h-2.353v-1.585h2.353v-1.873H123.46v1.873h3.4732v1.585H123.46Z"/>
    <path class="cls-1" d="M133.188,188.9657c0,.624.1118.7842.7681.7842h2.705v1.6172h-3.185a1.7155,1.7155,0,0,1-1.9688-1.9688v-4.706h-2.353v-1.585h2.353v-1.873h1.6807v1.873h3.4731v1.585H133.188Z"/>
    <path class="cls-1" d="M139.9062,180.162H143.7V189.75h2.9131v1.6172H139.106V189.75h2.913v-7.9707h-2.1128Z"/>
    <path class="cls-1" d="M152.6108,189.91a1.6058,1.6058,0,0,0,1.6807-1.1679h1.7129a3.4587,3.4587,0,0,1-6.8511-.6407v-1.7929a3.4414,3.4414,0,0,1,6.8828,0v1.4892H150.834v.2715a1.6325,1.6325,0,0,0,1.7607,1.8408Zm-1.7607-3.6172v.0157h3.5215v-.0157a1.761,1.761,0,1,0-3.5215,0Z"/>
    <path class="cls-1" d="M158.8008,186.3085a3.1789,3.1789,0,0,1,3.2817-3.4248,2.3033,2.3033,0,0,1,1.92.9443v-3.666h1.6807v11.2051h-1.6807v-.7842a2.2448,2.2448,0,0,1-1.92.9443,3.18,3.18,0,0,1-3.2817-3.4258Zm1.6806,1.7607c0,1.2647.7046,1.8252,1.649,1.8252a1.7012,1.7012,0,0,0,1.8725-1.8252v-1.7285a1.7619,1.7619,0,1,0-3.5215,0Z"/>
    <path class="cls-1" d="M178.32,186.3085a3.4412,3.4412,0,0,1,6.8823,0v1.7929a3.4412,3.4412,0,0,1-6.8823,0Zm5.2017.0322a1.7623,1.7623,0,1,0-3.521,0v1.7285a1.7623,1.7623,0,1,0,3.521,0Z"/>
    <path class="cls-1" d="M193.41,184.58a1.62,1.62,0,0,0-1.7608,1.8252V189.75h3.2173v1.6172h-7.5068V189.75h2.6089v-5.0254H188.16v-1.6172h3.4892v.8008a2.3051,2.3051,0,0,1,1.9209-.9444h2.0967V184.58Z"/>
    <path class="cls-1" d="M206.9907,191.3671V180.162h4.0176a3.7479,3.7479,0,0,1,4.0176,3.9541v3.2969a3.7479,3.7479,0,0,1-4.0176,3.9541Zm4.0176-1.6973a2.19,2.19,0,0,0,2.3047-2.2891v-3.2324a2.19,2.19,0,0,0-2.3047-2.289h-2.3052V189.67Z"/>
    <path class="cls-1" d="M217.7744,183.1073h3.7935V189.75h2.9131v1.6172h-7.5069V189.75h2.9131v-5.0254h-2.1128Zm1.8731-2.9453h2.0805v2.081h-2.0805Z"/>
    <path class="cls-1" d="M227.1177,188.7255h1.729c.1279.8164.9121,1.1845,1.8086,1.1845.72,0,1.36-.1757,1.36-.8642,0-.5606-.48-.7363-1.04-.8643l-1.5689-.4a2.391,2.391,0,0,1-2.0966-2.48c0-1.6172,1.3125-2.4336,2.9931-2.4336,1.7925,0,2.9932.7841,3.1695,2.6416h-1.7608c-.1284-.7207-.7524-1.0244-1.521-1.0244-.5122,0-1.1841.1914-1.1841.8476,0,.4971.48.6729.9283.7852l1.52.3838c1.4887.3837,2.2568,1.0087,2.2568,2.5927,0,1.6172-1.2964,2.4336-3.0732,2.4336C228.7344,191.5272,227.1978,190.6141,227.1177,188.7255Z"/>
    <path class="cls-1" d="M243.6323,188.1014a3.18,3.18,0,0,1-3.2817,3.4258,2.2448,2.2448,0,0,1-1.92-.9443v3.73H236.75V183.1073H238.43v.7207a2.3033,2.3033,0,0,1,1.92-.9443,3.1789,3.1789,0,0,1,3.2817,3.4248Zm-1.6806-1.7607a1.7619,1.7619,0,1,0-3.5215,0v1.7285a1.7619,1.7619,0,1,0,3.5215,0Z"/>
    <path class="cls-1" d="M248.1094,188.0692a1.7164,1.7164,0,1,0,3.4258,0v-4.9619h1.6806v8.26h-1.6806v-.7842a2.2454,2.2454,0,0,1-1.9209.9443,3.1769,3.1769,0,0,1-3.1856-3.4258v-4.9941h1.6807Z"/>
    <path class="cls-1" d="M259.6465,188.9657c0,.624.1113.7842.7676.7842h2.705v1.6172h-3.1845a1.7155,1.7155,0,0,1-1.9688-1.9688v-4.706h-2.3535v-1.585h2.3535v-1.873h1.6807v1.873h3.4726v1.585h-3.4726Z"/>
    <path class="cls-1" d="M269.3418,189.91a1.6063,1.6063,0,0,0,1.6807-1.1679h1.7129a3.459,3.459,0,0,1-6.8516-.6407v-1.7929a3.4414,3.4414,0,0,1,6.8828,0v1.4892h-5.2021v.2715a1.6325,1.6325,0,0,0,1.7607,1.8408Zm-1.7607-3.6172v.0157h3.5214v-.0157a1.761,1.761,0,1,0-3.5214,0Z"/>
    <path class="cls-1" d="M275.5312,186.3085a3.1791,3.1791,0,0,1,3.2813-3.4248,2.3037,2.3037,0,0,1,1.9209.9443v-3.666h1.6807v11.2051h-1.6807v-.7842a2.2452,2.2452,0,0,1-1.9209.9443,3.18,3.18,0,0,1-3.2813-3.4258Zm1.6807,1.7607c0,1.2647.7041,1.8252,1.6485,1.8252a1.7014,1.7014,0,0,0,1.873-1.8252v-1.7285a1.7619,1.7619,0,1,0-3.5215,0Z"/>
    <path class="cls-1" d="M294.5381,191.3671V180.162h4.0176a3.7476,3.7476,0,0,1,4.0175,3.9541v3.2969a3.7476,3.7476,0,0,1-4.0175,3.9541Zm4.0176-1.6973a2.19,2.19,0,0,0,2.3056-2.2891v-3.2324a2.19,2.19,0,0,0-2.3056-2.289H296.251V189.67Z"/>
    <path class="cls-1" d="M308.252,189.91a1.6061,1.6061,0,0,0,1.6806-1.1679h1.7119a3.4585,3.4585,0,0,1-6.8506-.6407v-1.7929a3.4415,3.4415,0,0,1,6.8829,0v1.4892h-5.2022v.2715a1.6325,1.6325,0,0,0,1.7608,1.8408Zm-1.7608-3.6172v.0157h3.5215v-.0157a1.761,1.761,0,1,0-3.5215,0Z"/>
    <path class="cls-1" d="M315.002,180.162h3.7929V189.75h2.9141v1.6172h-7.5078V189.75h2.9131v-7.9707H315.002Z"/>
    <path class="cls-1" d="M324.7773,183.1073h3.794V189.75h2.9131v1.6172h-7.5069V189.75h2.9131v-5.0254h-2.1133Zm1.8731-2.9453h2.081v2.081H326.65Z"/>
    <path class="cls-1" d="M335.0967,185.2528v6.1143H333.416v-8.26h1.6807v.3682a1.298,1.298,0,0,1,1.1211-.5118,1.469,1.469,0,0,1,1.2168.5762,2.09,2.09,0,0,1,1.5683-.6562,2.2083,2.2083,0,0,1,2.417,2.3691v6.1143h-1.6806v-6.1143a.7364.7364,0,0,0-1.4727,0v6.1143h-1.6807v-6.1143a.7363.7363,0,1,0-1.4726,0Z"/>
    <path class="cls-1" d="M344.2324,183.1073h3.794V189.75H350.94v1.6172h-7.5069V189.75h2.9131v-5.0254h-2.1133Zm1.8731-2.9453h2.081v2.081h-2.081Z"/>
    <path class="cls-1" d="M356.9209,188.9657c0,.624.1123.7842.7686.7842h2.705v1.6172H357.209a1.7155,1.7155,0,0,1-1.9688-1.9688v-4.706h-2.3525v-1.585H355.24v-1.873h1.6807v1.873h3.4736v1.585h-3.4736Z"/>
    <path class="cls-1" d="M366.4883,184.5321a1.6062,1.6062,0,0,0-1.6807,1.168h-1.7119a3.4585,3.4585,0,0,1,6.8506.6406v5.0586h-1.6807v-.7852a3.04,3.04,0,0,1-2.4648.9444c-1.4893,0-2.8174-.7364-2.8174-2.4483a2.5023,2.5023,0,0,1,1.793-2.497,16.4777,16.4777,0,0,1,3.4726-.4961,1.5929,1.5929,0,0,0-.0635-.4,1.5612,1.5612,0,0,0-1.665-1.2168Zm-.4317,5.3945c.96,0,2.1924-.3046,2.1924-1.8408v-.4648a8.56,8.56,0,0,0-3.2011.5761.8181.8181,0,0,0-.4.7686c0,.6885.5127.9766,1.4091.9766Z"/>
    <path class="cls-1" d="M376.376,188.9657c0,.624.1123.7842.7685.7842H379.85v1.6172h-3.1855a1.7155,1.7155,0,0,1-1.9688-1.9688v-4.706h-2.3525v-1.585h2.3525v-1.873h1.6807v1.873H379.85v1.585H376.376Z"/>
    <path class="cls-1" d="M383.1426,183.1073h3.7939V189.75H389.85v1.6172h-7.5068V189.75h2.9131v-5.0254h-2.1133Zm1.873-2.9453h2.0811v2.081h-2.0811Z"/>
    <path class="cls-1" d="M392.3262,186.3085a3.4414,3.4414,0,0,1,6.8828,0v1.7929a3.4414,3.4414,0,0,1-6.8828,0Zm5.2021.0322a1.7625,1.7625,0,1,0-3.5215,0v1.7285a1.7625,1.7625,0,1,0,3.5215,0Z"/>
    <path class="cls-1" d="M403.7666,191.3671h-1.6807v-8.26h1.6807v.7207a2.3031,2.3031,0,0,1,1.92-.9443,3.1793,3.1793,0,0,1,3.2823,3.4248v5.0586h-1.6807v-5.0264a1.7619,1.7619,0,1,0-3.5215,0Z"/>
    <path class="cls-1" d="M411.9414,188.7255H413.67c.128.8164.9121,1.1845,1.8086,1.1845.7207,0,1.36-.1757,1.36-.8642,0-.5606-.4805-.7363-1.04-.8643l-1.5683-.4a2.3914,2.3914,0,0,1-2.0977-2.48c0-1.6172,1.3125-2.4336,2.9932-2.4336,1.7929,0,2.9931.7841,3.17,2.6416h-1.7607c-.128-.7207-.753-1.0244-1.5206-1.0244-.5126,0-1.1845.1914-1.1845.8476,0,.4971.4795.6729.9277.7852l1.5215.3838c1.4883.3837,2.2568,1.0087,2.2568,2.5927,0,1.6172-1.2968,2.4336-3.0732,2.4336C413.5576,191.5272,412.0215,190.6141,411.9414,188.7255Z"/>
  </g>
  <line class="cls-5" x1="1.9525" y1="161.9288" x2="56.4476" y2="161.9288"/>
  <line class="cls-6" x1="1.9525" y1="189.9288" x2="56.4476" y2="189.9288"/>
</svg>
