<svg id="Ebene_1" data-name="Ebene 1" xmlns="http://www.w3.org/2000/svg" width="369.112" height="108.6308" viewBox="0 0 369.112 108.6308">
  <defs>
    <style>
      .cls-1 {
        fill: #1f9bd8;
      }

      .cls-2 {
        fill: #1d1d1b;
      }

      .cls-3 {
        fill: #3fa635;
      }

      .cls-4 {
        fill: #e52520;
      }
    </style>
  </defs>
  <rect class="cls-1" x="1.6918" y="27.7402" width="67.8956" height="12.42"/>
  <g>
    <path class="cls-2" d="M2.644,11.5993H.9312V.3952H5.189A3.4477,3.4477,0,0,1,8.9663,4.06,3.448,3.448,0,0,1,5.189,7.7263H2.644Zm0-9.54v3.97H5.189A1.8361,1.8361,0,0,0,7.2217,4.0446,1.8368,1.8368,0,0,0,5.189,2.0593Z"/>
    <path class="cls-2" d="M10.8516,6.5417A3.1787,3.1787,0,0,1,14.293,3.1159a3.1785,3.1785,0,0,1,3.4409,3.4258v1.793A3.1782,3.1782,0,0,1,14.293,11.76a3.1784,3.1784,0,0,1-3.4414-3.4248Zm5.2016.0322a1.6322,1.6322,0,0,0-1.76-1.8408,1.6323,1.6323,0,0,0-1.7608,1.8408V8.3024a1.6324,1.6324,0,0,0,1.7608,1.8409,1.6322,1.6322,0,0,0,1.76-1.8409Z"/>
    <path class="cls-2" d="M21.0752.3952h3.7935V9.9831h2.913v1.6162H20.2749V9.9831H23.188V2.0114H21.0752Z"/>
    <path class="cls-2" d="M30.8506,3.3405H34.644V9.9831h2.9131v1.6162H30.05V9.9831h2.9131V4.9567H30.8506ZM32.7236.3952h2.0806V2.4763H32.7236Z"/>
    <path class="cls-2" d="M46.9648,8.7819a3.1494,3.1494,0,0,1-3.41,2.9776,3.1786,3.1786,0,0,1-3.4414-3.4248V6.5417a3.1788,3.1788,0,0,1,3.4414-3.4258,3.1494,3.1494,0,0,1,3.41,2.9776H45.252a1.59,1.59,0,0,0-1.7124-1.36,1.6323,1.6323,0,0,0-1.7608,1.8408V8.3024A1.6324,1.6324,0,0,0,43.54,10.1433a1.606,1.606,0,0,0,1.7285-1.3614Z"/>
    <path class="cls-2" d="M50.3057,3.3405h3.7934V9.9831h2.9131v1.6162H49.5054V9.9831h2.9131V4.9567H50.3057ZM52.1787.3952h2.0806V2.4763H52.1787Z"/>
    <path class="cls-2" d="M62.9624,10.1433a1.6067,1.6067,0,0,0,1.6807-1.169H66.356a3.4587,3.4587,0,0,1-6.8511-.64V6.5417a3.4414,3.4414,0,0,1,6.8828,0V8.03H61.1855v.2724a1.6326,1.6326,0,0,0,1.7608,1.8409ZM61.2017,6.5251v.0166h3.5214V6.5251a1.761,1.761,0,1,0-3.5214,0Z"/>
    <path class="cls-2" d="M69.3765,8.9587h1.729c.1279.8164.9121,1.1846,1.8086,1.1846.72,0,1.36-.1768,1.36-.8643,0-.56-.48-.7363-1.04-.8643l-1.5689-.4a2.3921,2.3921,0,0,1-2.0967-2.4815c0-1.6162,1.3125-2.4326,2.9932-2.4326,1.7925,0,2.9932.7842,3.1694,2.6406H73.9707c-.1284-.72-.7524-1.0244-1.521-1.0244-.5122,0-1.1841.1924-1.1841.8486,0,.4961.48.6719.9282.7842l1.5206.3838c1.4887.3848,2.2568,1.0088,2.2568,2.5938,0,1.6162-1.2964,2.4326-3.0733,2.4326C70.9932,11.76,69.4565,10.8474,69.3765,8.9587Z"/>
    <path class="cls-2" d="M89.2158,3.3405h3.7935V9.9831h2.9131v1.6162H88.4155V9.9831h2.9131V4.9567H89.2158ZM91.0889.3952h2.0805V2.4763H91.0889Z"/>
    <path class="cls-2" d="M100.1118,11.5993H98.4312V3.3405h1.6806v.72a2.3077,2.3077,0,0,1,1.9209-.9443,3.18,3.18,0,0,1,3.2813,3.4258v5.0576h-1.6807V6.5739a1.7619,1.7619,0,1,0-3.5215,0Z"/>
    <path class="cls-2" d="M123.2163,4.8132a1.62,1.62,0,0,0-1.7607,1.8242V9.9831h3.2173v1.6162H117.166V9.9831h2.6089V4.9567h-1.8086V3.3405h3.4893v.8a2.3076,2.3076,0,0,1,1.9209-.9443h2.0966V4.8132Z"/>
    <path class="cls-2" d="M131.0552,10.1433a1.6065,1.6065,0,0,0,1.6806-1.169h1.7129a3.4587,3.4587,0,0,1-6.851-.64V6.5417a3.4414,3.4414,0,0,1,6.8828,0V8.03h-5.2022v.2724a1.6326,1.6326,0,0,0,1.7608,1.8409Zm-1.7608-3.6182v.0166h3.5215V6.5251a1.761,1.761,0,1,0-3.5215,0Z"/>
    <path class="cls-2" d="M140.6709,13.0886a1.6325,1.6325,0,0,0,1.7607-1.8409v-.913a2.2436,2.2436,0,0,1-1.9209.9443A3.1785,3.1785,0,0,1,137.23,7.8542V6.5417a3.1794,3.1794,0,0,1,3.2812-3.4258,2.3076,2.3076,0,0,1,1.9209.9443v-.72h1.6807V11.279a3.4351,3.4351,0,0,1-6.835.48h1.6968a1.5778,1.5778,0,0,0,1.7124,1.3291ZM138.91,7.822a1.7618,1.7618,0,1,0,3.5214,0V6.5739a1.7618,1.7618,0,1,0-3.5214,0Z"/>
    <path class="cls-2" d="M150.3823,4.7644a1.6061,1.6061,0,0,0-1.6806,1.1689h-1.7129a3.4587,3.4587,0,0,1,6.851.6406v5.0576h-1.6806v-.7841a3.0408,3.0408,0,0,1-2.4654.9443c-1.4882,0-2.8168-.7363-2.8168-2.4492a2.5046,2.5046,0,0,1,1.7924-2.4971,16.6208,16.6208,0,0,1,3.4737-.4961,1.6249,1.6249,0,0,0-.064-.4,1.5607,1.5607,0,0,0-1.665-1.2158Zm-.4321,5.3945c.96,0,2.1929-.3037,2.1929-1.8408V7.8542a8.5631,8.5631,0,0,0-3.2017.5762.8154.8154,0,0,0-.4.7685c0,.6875.5122.9756,1.4087.9756Z"/>
    <path class="cls-2" d="M162.1265,4.8132a1.62,1.62,0,0,0-1.7608,1.8242V9.9831h3.2173v1.6162h-7.5068V9.9831h2.6089V4.9567h-1.8086V3.3405h3.4892v.8a2.3077,2.3077,0,0,1,1.9209-.9443h2.0967V4.8132Z"/>
    <path class="cls-2" d="M166.4277,6.5417A3.18,3.18,0,0,1,169.71,3.1159a2.3061,2.3061,0,0,1,1.92.9443V.3952h1.6806V11.5993H171.63v-.7842a2.2426,2.2426,0,0,1-1.92.9444,3.179,3.179,0,0,1-3.2818-3.4248Zm1.6807,1.7607c0,1.2647.7046,1.8243,1.6489,1.8243A1.7006,1.7006,0,0,0,171.63,8.3024V6.5739a1.7619,1.7619,0,1,0-3.5215,0Z"/>
    <path class="cls-2" d="M185.9473,6.5417a3.4412,3.4412,0,0,1,6.8823,0v1.793a3.4412,3.4412,0,0,1-6.8823,0Zm5.2016.0322a1.7623,1.7623,0,1,0-3.521,0V8.3024a1.7623,1.7623,0,1,0,3.521,0Z"/>
    <path class="cls-2" d="M200.0444,2.0114c-.6562,0-.7685.16-.7685.7842v.5449H202.75v1.584h-3.4736v6.6748h-1.6807V4.9245h-2.353V3.3405h2.353V2.364A1.7151,1.7151,0,0,1,199.564.3952H202.75V2.0114Z"/>
    <path class="cls-2" d="M207.9463,9.9186h1.6807v1.6807h-1.6807Zm3.249,0h1.6807v1.6807h-1.6807Zm3.249,0h1.6807v1.6807h-1.6807Z"/>
  </g>
  <g>
    <path class="cls-2" d="M75.46,37.486h1.6811v1.6807H75.46Zm3.25,0H80.39v1.6807H78.71Zm3.2495,0H83.64v1.6807H81.959Z"/>
    <path class="cls-2" d="M91.0615,32.6686h3.7774v1.6963H91.0615V37.47H95.96v1.6963H89.3486V27.9626H95.96v1.6963h-4.898Z"/>
    <path class="cls-2" d="M105.7031,36.3493a3.4412,3.4412,0,0,1-6.851-.4473V34.1091a3.4412,3.4412,0,0,1,6.851-.4483H103.99a1.59,1.59,0,0,0-1.7124-1.36,1.6323,1.6323,0,0,0-1.7607,1.8408V35.87a1.6323,1.6323,0,0,0,1.7607,1.8408,1.6058,1.6058,0,0,0,1.7285-1.3613Z"/>
    <path class="cls-2" d="M108.5,34.1091a3.4412,3.4412,0,0,1,6.8823,0V35.902a3.4412,3.4412,0,0,1-6.8823,0Zm5.2017.0322a1.7623,1.7623,0,1,0-3.521,0V35.87a1.7623,1.7623,0,1,0,3.521,0Z"/>
    <path class="cls-2" d="M119.94,39.1667h-1.6806V30.9079H119.94v.72a2.3079,2.3079,0,0,1,1.9209-.9443,3.18,3.18,0,0,1,3.2813,3.4258v5.0576h-1.6807V34.1413a1.7619,1.7619,0,1,0-3.5215,0Z"/>
    <path class="cls-2" d="M127.9551,34.1091a3.4412,3.4412,0,0,1,6.8823,0V35.902a3.4412,3.4412,0,0,1-6.8823,0Zm5.2016.0322a1.7623,1.7623,0,1,0-3.521,0V35.87a1.7623,1.7623,0,1,0,3.521,0Z"/>
    <path class="cls-2" d="M138.8188,33.0524v6.1143h-1.6806V30.9079h1.6806v.3682a1.2985,1.2985,0,0,1,1.1207-.5127,1.4667,1.4667,0,0,1,1.2163.5761,2.0928,2.0928,0,0,1,1.5688-.6562,2.2081,2.2081,0,0,1,2.417,2.3691v6.1143h-1.6807V33.0524a.7363.7363,0,0,0-1.4726,0v6.1143h-1.6807V33.0524a.7363.7363,0,0,0-1.4726,0Z"/>
    <path class="cls-2" d="M147.9541,30.9079h3.7935v6.6426h2.913v1.6162h-7.5068V37.5505h2.9131V32.5241h-2.1128Zm1.873-2.9453h2.0806v2.081h-2.0806Z"/>
    <path class="cls-2" d="M164.0684,36.3493a3.4413,3.4413,0,0,1-6.8511-.4473V34.1091a3.4413,3.4413,0,0,1,6.8511-.4483h-1.7129a1.59,1.59,0,0,0-1.7124-1.36,1.6323,1.6323,0,0,0-1.7608,1.8408V35.87a1.6323,1.6323,0,0,0,1.7608,1.8408,1.6059,1.6059,0,0,0,1.7285-1.3613Z"/>
    <path class="cls-2" d="M178.1133,39.1667H176.4V27.9626h4.2578a3.4477,3.4477,0,0,1,3.7773,3.665,3.4479,3.4479,0,0,1-3.7773,3.666h-2.5449Zm0-9.54v3.97h2.5449a1.8361,1.8361,0,0,0,2.0327-1.9844,1.8367,1.8367,0,0,0-2.0327-1.9853Z"/>
    <path class="cls-2" d="M188.0166,35.87a1.7163,1.7163,0,1,0,3.4258,0V30.9079h1.6806v8.2588h-1.6806v-.7842a2.2436,2.2436,0,0,1-1.9209.9444,3.1761,3.1761,0,0,1-3.1856-3.4249V30.9079h1.6807Z"/>
    <path class="cls-2" d="M201.41,32.3806a1.62,1.62,0,0,0-1.7608,1.8242v3.3457h3.2173v1.6162h-7.5068V37.5505h2.6089V32.5241H196.16V30.9079h3.4892v.8a2.3076,2.3076,0,0,1,1.9209-.9443h2.0967v1.6172Z"/>
    <path class="cls-2" d="M212.7222,35.902a3.179,3.179,0,0,1-3.2818,3.4249,2.2426,2.2426,0,0,1-1.92-.9444v3.73h-1.6806V30.9079H207.52v.72a2.3061,2.3061,0,0,1,1.92-.9443,3.18,3.18,0,0,1,3.2818,3.4258Zm-1.6807-1.7607a1.7619,1.7619,0,1,0-3.5215,0V35.87a1.7619,1.7619,0,1,0,3.5215,0Z"/>
    <path class="cls-2" d="M215.5029,34.1091a3.4412,3.4412,0,0,1,6.8824,0V35.902a3.4412,3.4412,0,0,1-6.8824,0Zm5.2017.0322a1.7623,1.7623,0,1,0-3.521,0V35.87a1.7623,1.7623,0,1,0,3.521,0Z"/>
    <path class="cls-2" d="M225.39,36.5261h1.729c.128.8164.9121,1.1845,1.8086,1.1845.72,0,1.36-.1767,1.36-.8642,0-.5606-.48-.7363-1.04-.8643l-1.5688-.4A2.392,2.392,0,0,1,225.5825,33.1c0-1.6162,1.3125-2.4326,2.9932-2.4326,1.7925,0,2.9931.7842,3.1694,2.6406h-1.7607c-.1284-.72-.7525-1.0244-1.521-1.0244-.5122,0-1.1841.1924-1.1841.8486,0,.4961.48.6719.9282.7842l1.52.3838c1.4888.3847,2.2569,1.0088,2.2569,2.5937,0,1.6162-1.2964,2.4327-3.0733,2.4327C227.0068,39.3269,225.47,38.4147,225.39,36.5261Z"/>
    <path class="cls-2" d="M238.4312,37.7106a1.6064,1.6064,0,0,0,1.6806-1.1689h1.7129a3.4587,3.4587,0,0,1-6.8511-.64V34.1091a3.4414,3.4414,0,0,1,6.8828,0v1.4883h-5.2021V35.87a1.6325,1.6325,0,0,0,1.7607,1.8408ZM236.67,34.0925v.0166h3.5215v-.0166a1.761,1.761,0,1,0-3.5215,0Z"/>
    <path class="cls-2" d="M244.8452,36.5261h1.729c.1279.8164.9121,1.1845,1.8086,1.1845.72,0,1.36-.1767,1.36-.8642,0-.5606-.48-.7363-1.04-.8643l-1.5688-.4A2.392,2.392,0,0,1,245.0376,33.1c0-1.6162,1.3125-2.4326,2.9932-2.4326,1.7924,0,2.9936.7842,3.1694,2.6406H249.44c-.1285-.72-.7525-1.0244-1.521-1.0244-.5123,0-1.1841.1924-1.1841.8486,0,.4961.48.6719.9282.7842l1.52.3838c1.4888.3847,2.2573,1.0088,2.2573,2.5937,0,1.6162-1.2968,2.4327-3.0737,2.4327C246.4619,39.3269,244.9253,38.4147,244.8452,36.5261Z"/>
    <path class="cls-2" d="M75.46,64.6862h1.6811v1.6807H75.46Zm3.25,0H80.39v1.6807H78.71Zm3.2495,0H83.64v1.6807H81.959Z"/>
    <path class="cls-2" d="M91.0615,59.8679h3.7774v1.6972H91.0615V64.67H95.96v1.6973H89.3486V55.1618H95.96v1.6973h-4.898Z"/>
    <path class="cls-2" d="M100.4849,66.3669H98.8042v-8.26h1.6807v.7207a2.305,2.305,0,0,1,1.9209-.9443,3.1788,3.1788,0,0,1,3.2812,3.4248v5.0586h-1.6807V61.3405a1.7618,1.7618,0,1,0-3.5214,0Z"/>
    <path class="cls-2" d="M114.0059,58.1071h1.7446l-2.9771,8.26h-1.6645l-2.9771-8.26h1.7447l2.0649,5.875Z"/>
    <path class="cls-2" d="M118.7715,58.1071h3.7934V64.75h2.9131v1.6172h-7.5068V64.75h2.9131V59.7243h-2.1128Zm1.873-2.9453h2.0806v2.0811h-2.0806Z"/>
    <path class="cls-2" d="M133.3169,59.58a1.62,1.62,0,0,0-1.7607,1.8252V64.75h3.2172v1.6172h-7.5068V64.75h2.6089V59.7243h-1.8086V58.1071h3.4893v.8008a2.305,2.305,0,0,1,1.9209-.9443h2.0966V59.58Z"/>
    <path class="cls-2" d="M137.6826,61.3083a3.4412,3.4412,0,0,1,6.8823,0v1.793a3.4412,3.4412,0,0,1-6.8823,0Zm5.2017.0322a1.7623,1.7623,0,1,0-3.521,0V63.069a1.7623,1.7623,0,1,0,3.521,0Z"/>
    <path class="cls-2" d="M149.1226,66.3669h-1.6807v-8.26h1.6807v.7207a2.305,2.305,0,0,1,1.9209-.9443,3.1788,3.1788,0,0,1,3.2812,3.4248v5.0586H152.644V61.3405a1.7618,1.7618,0,1,0-3.5214,0Z"/>
    <path class="cls-2" d="M158.2739,60.2526v6.1143h-1.6806v-8.26h1.6806v.3682a1.2977,1.2977,0,0,1,1.1206-.5117,1.4666,1.4666,0,0,1,1.2163.5761,2.093,2.093,0,0,1,1.5689-.6562,2.2081,2.2081,0,0,1,2.417,2.3691v6.1143H162.916V60.2526a.7363.7363,0,1,0-1.4726,0v6.1143h-1.6807V60.2526a.7364.7364,0,0,0-1.4727,0Z"/>
    <path class="cls-2" d="M170.3384,64.91a1.6057,1.6057,0,0,0,1.6806-1.168h1.7129a3.4587,3.4587,0,0,1-6.851-.6406v-1.793a3.4414,3.4414,0,0,1,6.8828,0v1.4893h-5.2022v.2714a1.6326,1.6326,0,0,0,1.7608,1.8409Zm-1.7608-3.6172v.0156h3.5215v-.0156a1.761,1.761,0,1,0-3.5215,0Z"/>
    <path class="cls-2" d="M178.3052,66.3669h-1.6807v-8.26h1.6807v.7207a2.305,2.305,0,0,1,1.9209-.9443,3.1788,3.1788,0,0,1,3.2812,3.4248v5.0586h-1.6806V61.3405a1.7619,1.7619,0,1,0-3.5215,0Z"/>
    <path class="cls-2" d="M189.8257,63.9655c0,.624.1118.7842.7681.7842h2.705v1.6172h-3.185a1.7155,1.7155,0,0,1-1.9688-1.9688v-4.706h-2.353v-1.585h2.353v-1.873h1.6807v1.873h3.4731v1.585h-3.4731Z"/>
    <path class="cls-2" d="M199.3931,59.5319a1.6054,1.6054,0,0,0-1.6807,1.168H196a3.4587,3.4587,0,0,1,6.8511.6406v5.0586H201.17V65.614a3.0406,3.0406,0,0,1-2.4653.9443c-1.4883,0-2.8169-.7363-2.8169-2.4482A2.503,2.503,0,0,1,197.68,61.613a16.488,16.488,0,0,1,3.4736-.4961,1.6166,1.6166,0,0,0-.064-.4,1.5615,1.5615,0,0,0-1.665-1.2168Zm-.4322,5.3946c.96,0,2.1929-.3047,2.1929-1.8409v-.4648a8.564,8.564,0,0,0-3.2017.5762.8177.8177,0,0,0-.4.7685c0,.6885.5123.9766,1.4087.9766Z"/>
    <path class="cls-2" d="M206.2715,55.1618h3.7934V64.75h2.9131v1.6172h-7.5068V64.75h2.9131V56.779h-2.1128Z"/>
    <path class="cls-2" d="M226.751,66.3669h-1.7129V55.1618h4.2578a3.6672,3.6672,0,1,1,0,7.3311H226.751Zm0-9.54v3.97h2.5449a1.9854,1.9854,0,1,0,0-3.97Z"/>
    <path class="cls-2" d="M240.32,59.58a1.62,1.62,0,0,0-1.7607,1.8252V64.75h3.2173v1.6172H234.27V64.75h2.6089V59.7243H235.07V58.1071h3.4893v.8008a2.305,2.305,0,0,1,1.9209-.9443h2.0967V59.58Z"/>
    <path class="cls-2" d="M244.6855,61.3083a3.4415,3.4415,0,0,1,6.8829,0v1.793a3.4415,3.4415,0,0,1-6.8829,0Zm5.2017.0322a1.7623,1.7623,0,1,0-3.521,0V63.069a1.7623,1.7623,0,1,0,3.521,0Z"/>
    <path class="cls-2" d="M257.9189,63.9655c0,.624.1114.7842.7676.7842h2.7051v1.6172H258.207a1.7155,1.7155,0,0,1-1.9687-1.9688v-4.706h-2.3535v-1.585h2.3535v-1.873h1.6806v1.873h3.4727v1.585h-3.4727Z"/>
    <path class="cls-2" d="M267.6143,64.91a1.6061,1.6061,0,0,0,1.6806-1.168h1.7129a3.459,3.459,0,0,1-6.8516-.6406v-1.793a3.4415,3.4415,0,0,1,6.8829,0v1.4893h-5.2022v.2714a1.6326,1.6326,0,0,0,1.7608,1.8409Zm-1.7608-3.6172v.0156h3.5215v-.0156a1.761,1.761,0,1,0-3.5215,0Z"/>
    <path class="cls-2" d="M280.7988,63.55a3.441,3.441,0,0,1-6.8506-.4482v-1.793a3.4411,3.4411,0,0,1,6.8506-.4482h-1.7129a1.59,1.59,0,0,0-1.7119-1.36,1.6321,1.6321,0,0,0-1.7607,1.8408V63.069A1.6321,1.6321,0,0,0,277.374,64.91a1.6065,1.6065,0,0,0,1.7285-1.36Z"/>
    <path class="cls-2" d="M287.1006,63.9655c0,.624.1123.7842.7685.7842h2.7051v1.6172h-3.1855a1.7155,1.7155,0,0,1-1.9688-1.9688v-4.706h-2.3525v-1.585H285.42v-1.873h1.6807v1.873h3.4736v1.585h-3.4736Z"/>
    <path class="cls-2" d="M293.8672,58.1071h3.7939V64.75h2.9131v1.6172h-7.5068V64.75h2.9131V59.7243h-2.1133Zm1.873-2.9453h2.0811v2.0811H295.74Z"/>
    <path class="cls-2" d="M303.0508,61.3083a3.4414,3.4414,0,0,1,6.8828,0v1.793a3.4414,3.4414,0,0,1-6.8828,0Zm5.2021.0322a1.7625,1.7625,0,1,0-3.5215,0V63.069a1.7625,1.7625,0,1,0,3.5215,0Z"/>
    <path class="cls-2" d="M314.4912,66.3669h-1.6807v-8.26h1.6807v.7207a2.3031,2.3031,0,0,1,1.92-.9443,3.1793,3.1793,0,0,1,3.2823,3.4248v5.0586h-1.6807V61.3405a1.7619,1.7619,0,1,0-3.5215,0Z"/>
    <path class="cls-2" d="M75.46,91.8864h1.6811v1.6807H75.46Zm3.25,0H80.39v1.6807H78.71Zm3.2495,0H83.64v1.6807H81.959Z"/>
    <path class="cls-2" d="M92.6143,93.7106a3.7766,3.7766,0,0,1-4.13-3.6328H90.229a2.2464,2.2464,0,0,0,2.4331,1.9366c1.1524,0,1.8887-.544,1.8887-1.4249,0-.832-.4483-1.3447-1.5845-1.6162l-1.9849-.48a2.9945,2.9945,0,0,1-2.3046-3.1377c0-2.16,1.6323-3.169,3.6171-3.169a3.5122,3.5122,0,0,1,3.81,3.1533H94.2788a1.8631,1.8631,0,0,0-1.9849-1.457c-1.3447,0-1.8886.625-1.8886,1.4727A1.4436,1.4436,0,0,0,91.67,86.86l1.92.4638A3.11,3.11,0,0,1,96.28,90.6374c0,1.793-1.3286,3.09-3.6655,3.09Z"/>
    <path class="cls-2" d="M102.1177,86.7321A1.6056,1.6056,0,0,0,100.437,87.9H98.7241a3.4587,3.4587,0,0,1,6.8511.6406v5.0586h-1.6807v-.7851a3.0406,3.0406,0,0,1-2.4653.9443c-1.4883,0-2.8169-.7363-2.8169-2.4483a2.503,2.503,0,0,1,1.7925-2.497,16.488,16.488,0,0,1,3.4736-.4961,1.6212,1.6212,0,0,0-.0639-.4A1.5616,1.5616,0,0,0,102.1494,86.7Zm-.4322,5.3946c.96,0,2.1929-.3047,2.1929-1.8409V89.821a8.563,8.563,0,0,0-3.2016.5762.8177.8177,0,0,0-.4.7685c0,.6885.5122.9766,1.4086.9766Z"/>
    <path class="cls-2" d="M112.87,83.9792c-.6562,0-.7685.16-.7685.7842v.5439h3.4736v1.585h-3.4736v6.6748H110.42V86.8923h-2.353v-1.585h2.353v-.9765a1.7155,1.7155,0,0,1,1.9688-1.9688h3.1855v1.6172Z"/>
    <path class="cls-2" d="M121.7007,92.11a1.6057,1.6057,0,0,0,1.6806-1.168h1.7129a3.4587,3.4587,0,0,1-6.851-.6406v-1.793a3.4414,3.4414,0,0,1,6.8828,0v1.4892h-5.2022v.2715a1.6326,1.6326,0,0,0,1.7608,1.8409ZM119.94,88.4929v.0156h3.5215v-.0156a1.761,1.761,0,1,0-3.5215,0Z"/>
    <path class="cls-2" d="M131.46,91.1657c0,.624.1119.7842.7681.7842h2.7051v1.6172h-3.1851a1.7155,1.7155,0,0,1-1.9687-1.9688v-4.706h-2.353v-1.585h2.353v-1.873H131.46v1.873h3.4732v1.585H131.46Z"/>
    <path class="cls-2" d="M141.2681,95.4714a1.6954,1.6954,0,0,1-1.8252,1.041h-1.12V94.8952h.5922c.8,0,.8643-.1435,1.12-.832l.2241-.6084-2.9448-8.1475h1.7446l2.0649,5.875,2.0645-5.875h1.7446Z"/>
  </g>
  <rect class="cls-3" x="1.6918" y="54.7402" width="67.8956" height="12.42"/>
  <rect class="cls-4" x="1.6918" y="81.7402" width="67.8956" height="12.42"/>
</svg>
