<svg id="Ebene_1" data-name="Ebene 1" xmlns="http://www.w3.org/2000/svg" width="369.112" height="191.6344" viewBox="0 0 369.112 191.6344">
  <defs>
    <style>
      .cls-1 {
        fill: #3db49c;
      }

      .cls-2 {
        fill: #a1d3c4;
      }

      .cls-3 {
        fill: #e3f1ed;
      }

      .cls-4 {
        fill: #1d1d1b;
      }

      .cls-5 {
        fill: #9166a9;
      }

      .cls-6 {
        fill: #bba3ce;
      }
    </style>
  </defs>
  <circle class="cls-1" cx="12.304" cy="34.4801" r="10.6801"/>
  <circle class="cls-2" cx="12.304" cy="62.6038" r="10.6801"/>
  <circle class="cls-3" cx="12.304" cy="90.7276" r="10.6801"/>
  <g>
    <path class="cls-1" d="M4.6929,11.7437A3.7771,3.7771,0,0,1,.563,8.11H2.3076a2.246,2.246,0,0,0,2.4331,1.9365c1.1524,0,1.8887-.544,1.8887-1.4243,0-.8326-.4482-1.3448-1.5845-1.6167L3.06,6.5254A2.9939,2.9939,0,0,1,.7554,3.3882c0-2.1607,1.6323-3.169,3.6172-3.169a3.5121,3.5121,0,0,1,3.81,3.1529H6.3574A1.8627,1.8627,0,0,0,4.3726,1.9155c-1.3443,0-1.8887.6245-1.8887,1.4727A1.4442,1.4442,0,0,0,3.7485,4.8931l1.92.4638A3.11,3.11,0,0,1,8.3584,8.67c0,1.793-1.3286,3.0894-3.6655,3.0894Z"/>
    <path class="cls-1" d="M14.3569,9.1987c0,.6241.1119.7842.7681.7842H17.83V11.6H14.645a1.7152,1.7152,0,0,1-1.9687-1.9687V4.9248H10.3232V3.34h2.3531V1.4673h1.6806V3.34H17.83V4.9248H14.3569Z"/>
    <path class="cls-1" d="M23.9243,4.7646a1.6058,1.6058,0,0,0-1.6806,1.1685H20.5308a3.1637,3.1637,0,0,1,3.41-2.7847,3.1784,3.1784,0,0,1,3.4414,3.4253v5.0581H25.7012v-.7846a3.0408,3.0408,0,0,1-2.4654.9443c-1.4882,0-2.8169-.7363-2.8169-2.4487a2.504,2.504,0,0,1,1.7925-2.4971A16.5547,16.5547,0,0,1,25.6851,6.35a1.63,1.63,0,0,0-.064-.4,1.5611,1.5611,0,0,0-1.665-1.2163Zm-.4321,5.3946c.96,0,2.1929-.3042,2.1929-1.8408V7.854a8.5631,8.5631,0,0,0-3.2017.5762.8166.8166,0,0,0-.4.7685c0,.688.5122.9761,1.4087.9761Z"/>
    <path class="cls-1" d="M33.812,9.1987c0,.6241.1118.7842.7681.7842h2.7051V11.6H34.1a1.7153,1.7153,0,0,1-1.9688-1.9687V4.9248h-2.353V3.34h2.353V1.4673H33.812V3.34h3.4732V4.9248H33.812Z"/>
    <path class="cls-1" d="M43.5073,10.1431A1.6062,1.6062,0,0,0,45.188,8.9746h1.7129a3.1642,3.1642,0,0,1-3.41,2.7852A3.1787,3.1787,0,0,1,40.05,8.3345V6.5415a3.1787,3.1787,0,0,1,3.4414-3.4253,3.1785,3.1785,0,0,1,3.4414,3.4253V8.03H41.7305v.2719a1.6325,1.6325,0,0,0,1.7607,1.8409ZM41.7466,6.5254v.0161h3.5215V6.5254a1.761,1.761,0,1,0-3.5215,0Z"/>
    <path class="cls-1" d="M49.9214,8.9585H51.65c.1279.8164.9121,1.1846,1.8086,1.1846.72,0,1.36-.1763,1.36-.8643,0-.5605-.48-.7363-1.04-.8642l-1.5689-.4a2.3916,2.3916,0,0,1-2.0966-2.481c0-1.6167,1.3125-2.4331,2.9931-2.4331,1.7925,0,2.9932.7842,3.1695,2.6411H54.5156c-.1284-.72-.7524-1.0244-1.521-1.0244-.5122,0-1.1841.1919-1.1841.8481,0,.4966.48.6724.9283.7847l1.5205.3838c1.4887.3843,2.2568,1.0088,2.2568,2.5933,0,1.6167-1.2964,2.4331-3.0732,2.4331C51.5381,11.76,50.0015,10.8472,49.9214,8.9585Z"/>
    <path class="cls-1" d="M69.2168,6.5415a3.4412,3.4412,0,0,1,6.8823,0v1.793a3.4412,3.4412,0,0,1-6.8823,0Zm5.2017.0322a1.7623,1.7623,0,1,0-3.521,0V8.3022a1.7623,1.7623,0,1,0,3.521,0Z"/>
    <path class="cls-1" d="M83.314,2.0117c-.6563,0-.7686.16-.7686.7842V3.34H86.019V4.9248H82.5454V11.6H80.8647V4.9248h-2.353V3.34h2.353V2.3638A1.7153,1.7153,0,0,1,82.8335.395H86.019V2.0117Z"/>
    <path class="cls-1" d="M101.9048,9.1987c0,.6241.1118.7842.7681.7842h2.705V11.6h-3.185a1.7153,1.7153,0,0,1-1.9688-1.9687V4.9248h-2.353V3.34h2.353V1.4673h1.6807V3.34h3.4731V4.9248h-3.4731Z"/>
    <path class="cls-1" d="M109.8394,11.6h-1.6807V.395h1.6807V4.0605a2.3063,2.3063,0,0,1,1.9209-.9443,3.1792,3.1792,0,0,1,3.2812,3.4253V11.6h-1.6807V6.5737a1.7618,1.7618,0,1,0-3.5214,0Z"/>
    <path class="cls-1" d="M121.3276,10.1431a1.6062,1.6062,0,0,0,1.6807-1.1685h1.7129a3.4587,3.4587,0,0,1-6.8511-.64V6.5415a3.4414,3.4414,0,0,1,6.8828,0V8.03h-5.2021v.2719a1.6325,1.6325,0,0,0,1.7607,1.8409Zm-1.7607-3.6177v.0161h3.5215V6.5254a1.761,1.761,0,1,0-3.5215,0Z"/>
    <path class="cls-1" d="M144.7842,3.82h-1.7124a2.3173,2.3173,0,0,0-4.5938.3682V7.8062a2.3055,2.3055,0,0,0,4.61,0v-.72h-2.3052V5.437H144.8V7.8062a4.0181,4.0181,0,0,1-8.0352,0V4.1885a4.0217,4.0217,0,0,1,8.0191-.3682Z"/>
    <path class="cls-1" d="M147.5332.395h3.7935V9.9829h2.913V11.6h-7.5068V9.9829h2.9131V2.0117h-2.1128Z"/>
    <path class="cls-1" d="M156.7646,6.5415a3.4412,3.4412,0,0,1,6.8824,0v1.793a3.4412,3.4412,0,0,1-6.8824,0Zm5.2017.0322a1.7623,1.7623,0,1,0-3.521,0V8.3022a1.7623,1.7623,0,1,0,3.521,0Z"/>
    <path class="cls-1" d="M173.439,8.3345a3.1794,3.1794,0,0,1-3.2818,3.4253,2.2438,2.2438,0,0,1-1.92-.9444V11.6h-1.6806V.395h1.6806V4.0605a2.3048,2.3048,0,0,1,1.92-.9443,3.1794,3.1794,0,0,1,3.2818,3.4253Zm-1.6807-1.7608a1.7619,1.7619,0,1,0-3.5215,0V8.3022a1.7619,1.7619,0,1,0,3.5215,0Z"/>
    <path class="cls-1" d="M179.5649,4.7646a1.6058,1.6058,0,0,0-1.6806,1.1685h-1.7129a3.4588,3.4588,0,0,1,6.8511.6406v5.0581h-1.6807v-.7846a3.0407,3.0407,0,0,1-2.4653.9443c-1.4883,0-2.8169-.7363-2.8169-2.4487a2.5039,2.5039,0,0,1,1.7925-2.4971,16.5536,16.5536,0,0,1,3.4736-.4961,1.62,1.62,0,0,0-.064-.4,1.5611,1.5611,0,0,0-1.665-1.2163Zm-.4321,5.3946c.96,0,2.1929-.3042,2.1929-1.8408V7.854a8.5631,8.5631,0,0,0-3.2017.5762.8166.8166,0,0,0-.4.7685c0,.688.5122.9761,1.4087.9761Z"/>
    <path class="cls-1" d="M186.4434.395h3.7934V9.9829H193.15V11.6h-7.5068V9.9829h2.9131V2.0117h-2.1128Z"/>
    <path class="cls-1" d="M212.8613,11.6h-1.7129l-4.6093-8.0351V11.6h-1.7134V.395h1.7134L211.1484,8.43V.395h1.7129Z"/>
    <path class="cls-1" d="M215.13,6.5415a3.4414,3.4414,0,0,1,6.8828,0v1.793a3.4414,3.4414,0,0,1-6.8828,0Zm5.2021.0322a1.7625,1.7625,0,1,0-3.5215,0V8.3022a1.7625,1.7625,0,1,0,3.5215,0Z"/>
    <path class="cls-1" d="M230.22,4.813a1.62,1.62,0,0,0-1.7607,1.8247V9.9829h3.2168V11.6h-7.5069V9.9829h2.6094V4.957h-1.81V3.34h3.49v.8a2.3048,2.3048,0,0,1,1.9209-.9443h2.0967V4.813Z"/>
    <path class="cls-1" d="M238.09,9.1987c0,.6241.1123.7842.7686.7842h2.7051V11.6h-3.1856a1.7152,1.7152,0,0,1-1.9687-1.9687V4.9248h-2.3526V3.34h2.3526V1.4673H238.09V3.34h3.4737V4.9248H238.09Z"/>
    <path class="cls-1" d="M246.0254,11.6h-1.6807V.395h1.6807V4.0605a2.3043,2.3043,0,0,1,1.92-.9443,3.18,3.18,0,0,1,3.2822,3.4253V11.6h-1.6806V6.5737a1.7619,1.7619,0,1,0-3.5215,0Z"/>
    <path class="cls-1" d="M256.584,9.9189h1.6806V11.6H256.584Zm3.249,0h1.6807V11.6H259.833Zm3.249,0h1.6807V11.6H263.082Z"/>
  </g>
  <g>
    <path class="cls-4" d="M32.46,37.4863h1.6811V39.167H32.46Zm3.2495,0H37.39V39.167H35.71Zm3.25,0H40.64V39.167H38.959Z"/>
    <path class="cls-4" d="M49.4863,34.189l-1.1845,4.978H46.749L45.42,30.9077H47.085l.7524,5.666.9282-4.3857h1.4409l.9283,4.3857.7524-5.666h1.6646L52.2231,39.167H50.67Z"/>
    <path class="cls-4" d="M56.3164,30.9077H60.11V37.55h2.913V39.167H55.5161V37.55h2.9131V32.5244H56.3164ZM58.19,27.9624H60.27v2.0811H58.19Z"/>
    <path class="cls-4" d="M69.0054,36.7661c0,.624.1118.7842.768.7842h2.7051V39.167h-3.185a1.7153,1.7153,0,0,1-1.9688-1.9688v-4.706h-2.353V30.9077h2.353v-1.873h1.6807v1.873h3.4731v1.5845H69.0054Z"/>
    <path class="cls-4" d="M76.94,39.167H75.2593V27.9624H76.94v3.6655a2.3066,2.3066,0,0,1,1.9209-.9443,3.1792,3.1792,0,0,1,3.2813,3.4253V39.167H80.4614V34.1411a1.7619,1.7619,0,1,0-3.5215,0Z"/>
    <path class="cls-4" d="M102.19,35.6934a4.0191,4.0191,0,0,1-8.0191-.32V31.7559a4.0191,4.0191,0,0,1,8.0191-.32h-1.7129a2.3126,2.3126,0,0,0-4.5938.32v3.6176a2.3126,2.3126,0,0,0,4.5938.32Z"/>
    <path class="cls-4" d="M104.9062,27.9624H108.7V37.55h2.9131V39.167H104.106V37.55h2.913V29.5791h-2.1128Z"/>
    <path class="cls-4" d="M117.4829,32.332a1.6059,1.6059,0,0,0-1.6807,1.1685h-1.7128a3.4587,3.4587,0,0,1,6.851.6406v5.0581H119.26v-.7846a3.0409,3.0409,0,0,1-2.4654.9443c-1.4882,0-2.8169-.7363-2.8169-2.4487a2.5039,2.5039,0,0,1,1.7925-2.4971,16.5547,16.5547,0,0,1,3.4737-.4961,1.629,1.629,0,0,0-.064-.4A1.5612,1.5612,0,0,0,117.5146,32.3Zm-.4321,5.3946c.96,0,2.1929-.3042,2.1929-1.8409v-.4643a8.5631,8.5631,0,0,0-3.2017.5762.8166.8166,0,0,0-.4.7685c0,.688.5122.9761,1.4087.9761Z"/>
    <path class="cls-4" d="M124.4092,30.9077h3.7934V37.55h2.9131V39.167h-7.5068V37.55h2.9131V32.5244h-2.1128Zm1.873-2.9453h2.0806v2.0811h-2.0806Z"/>
    <path class="cls-4" d="M134.729,33.0527V39.167h-1.6807V30.9077h1.6807v.3682a1.2979,1.2979,0,0,1,1.1206-.5122,1.4667,1.4667,0,0,1,1.2163.5761,2.093,2.093,0,0,1,1.5689-.6562,2.2081,2.2081,0,0,1,2.417,2.3691V39.167h-1.6807V33.0527a.7364.7364,0,0,0-1.4727,0V39.167h-1.6806V33.0527a.7364.7364,0,0,0-1.4727,0Z"/>
    <path class="cls-4" d="M143.48,36.5259h1.729c.1279.8164.9121,1.1845,1.8086,1.1845.72,0,1.36-.1762,1.36-.8642,0-.5606-.48-.7363-1.04-.8643l-1.5689-.4a2.3914,2.3914,0,0,1-2.0966-2.4809c0-1.6167,1.3125-2.4331,2.9931-2.4331,1.7925,0,2.9932.7842,3.1695,2.6411h-1.7608c-.1284-.72-.7524-1.0244-1.521-1.0244-.5122,0-1.1841.1919-1.1841.8481,0,.4966.48.6724.9283.7847l1.52.3838c1.4887.3843,2.2568,1.0088,2.2568,2.5932,0,1.6167-1.2964,2.4331-3.0732,2.4331C145.0967,39.3271,143.56,38.4146,143.48,36.5259Z"/>
    <path class="cls-4" d="M32.46,64.686h1.6811v1.6807H32.46Zm3.2495,0H37.39v1.6807H35.71Zm3.25,0H40.64v1.6807H38.959Z"/>
    <path class="cls-4" d="M49.4863,61.3887l-1.1845,4.978H46.749L45.42,58.1074H47.085l.7524,5.666.9282-4.3857h1.4409l.9283,4.3857.7524-5.666h1.6646l-1.3287,8.2593H50.67Z"/>
    <path class="cls-4" d="M56.3164,58.1074H60.11V64.75h2.913v1.6167H55.5161V64.75h2.9131V59.7241H56.3164ZM58.19,55.1621H60.27v2.0811H58.19Z"/>
    <path class="cls-4" d="M69.0054,63.9658c0,.624.1118.7842.768.7842h2.7051v1.6167h-3.185a1.7153,1.7153,0,0,1-1.9688-1.9688v-4.706h-2.353V58.1074h2.353v-1.873h1.6807v1.873h3.4731v1.5845H69.0054Z"/>
    <path class="cls-4" d="M76.94,66.3667H75.2593V55.1621H76.94v3.6655a2.3066,2.3066,0,0,1,1.9209-.9443,3.1792,3.1792,0,0,1,3.2813,3.4253v5.0581H80.4614V61.3408a1.7619,1.7619,0,1,0-3.5215,0Z"/>
    <path class="cls-4" d="M84.9551,61.3086a3.4412,3.4412,0,0,1,6.8823,0v1.793a3.4412,3.4412,0,0,1-6.8823,0Zm5.2016.0322a1.7623,1.7623,0,1,0-3.521,0v1.7285a1.7623,1.7623,0,1,0,3.521,0Z"/>
    <path class="cls-4" d="M96.3789,63.0693a1.7163,1.7163,0,1,0,3.4258,0V58.1074h1.6807v8.2593H99.8047v-.7842a2.2448,2.2448,0,0,1-1.9209.9444,3.1765,3.1765,0,0,1-3.1856-3.4253V58.1074h1.6807Z"/>
    <path class="cls-4" d="M107.9155,63.9658c0,.624.1118.7842.7681.7842h2.7051v1.6167h-3.1851a1.7152,1.7152,0,0,1-1.9687-1.9688v-4.706h-2.3531V58.1074h2.3531v-1.873h1.6806v1.873h3.4732v1.5845h-3.4732Z"/>
    <path class="cls-4" d="M131.3721,62.8931a4.0191,4.0191,0,0,1-8.0191-.32V58.9556a4.0191,4.0191,0,0,1,8.0191-.32h-1.7129a2.3126,2.3126,0,0,0-4.5938.32v3.6176a2.3126,2.3126,0,0,0,4.5938.32Z"/>
    <path class="cls-4" d="M134.0889,55.1621h3.7934V64.75h2.9131v1.6167h-7.5068V64.75h2.9131V56.7788h-2.1128Z"/>
    <path class="cls-4" d="M146.6655,59.5317A1.6058,1.6058,0,0,0,144.9849,60.7H143.272a3.4587,3.4587,0,0,1,6.851.6406v5.0581h-1.6806v-.7846a3.0407,3.0407,0,0,1-2.4653.9443c-1.4883,0-2.8169-.7363-2.8169-2.4487a2.5038,2.5038,0,0,1,1.7924-2.4971,16.5547,16.5547,0,0,1,3.4737-.4961,1.62,1.62,0,0,0-.064-.4,1.5611,1.5611,0,0,0-1.665-1.2163Zm-.4321,5.3946c.96,0,2.1929-.3042,2.1929-1.8409v-.4643a8.5631,8.5631,0,0,0-3.2017.5762.8166.8166,0,0,0-.4.7685c0,.688.5122.9761,1.4087.9761Z"/>
    <path class="cls-4" d="M153.5918,58.1074h3.7935V64.75h2.913v1.6167h-7.5068V64.75h2.9131V59.7241h-2.1128Zm1.873-2.9453h2.0806v2.0811h-2.0806Z"/>
    <path class="cls-4" d="M163.9116,60.2524v6.1143H162.231V58.1074h1.6806v.3682a1.2981,1.2981,0,0,1,1.1206-.5122,1.4664,1.4664,0,0,1,1.2163.5762,2.0928,2.0928,0,0,1,1.5689-.6563,2.2081,2.2081,0,0,1,2.417,2.3691v6.1143h-1.6807V60.2524a.7363.7363,0,1,0-1.4726,0v6.1143H165.4V60.2524a.7364.7364,0,0,0-1.4727,0Z"/>
    <path class="cls-4" d="M172.6626,63.7256h1.729c.1279.8164.9121,1.1846,1.8086,1.1846.72,0,1.36-.1763,1.36-.8643,0-.5605-.48-.7363-1.04-.8643l-1.5688-.4A2.3911,2.3911,0,0,1,172.855,60.3c0-1.6167,1.3125-2.4331,2.9931-2.4331,1.7925,0,2.9932.7842,3.1695,2.6411h-1.7608c-.1284-.72-.7524-1.0244-1.521-1.0244-.5122,0-1.184.1919-1.184.8481,0,.4966.48.6724.9282.7847l1.52.3843c1.4888.3838,2.2568,1.0083,2.2568,2.5928,0,1.6166-1.2964,2.4331-3.0732,2.4331C174.2793,66.5269,172.7427,65.6143,172.6626,63.7256Z"/>
    <path class="cls-4" d="M32.46,91.8862h1.6811v1.6807H32.46Zm3.2495,0H37.39v1.6807H35.71Zm3.25,0H40.64v1.6807H38.959Z"/>
    <path class="cls-4" d="M49.4863,88.5889l-1.1845,4.978H46.749L45.42,85.3076H47.085l.7524,5.666.9282-4.3857h1.4409l.9283,4.3857.7524-5.666h1.6646l-1.3287,8.2593H50.67Z"/>
    <path class="cls-4" d="M57.4849,93.5669H55.8042V82.3623h1.6807v3.6655a2.3063,2.3063,0,0,1,1.9209-.9443,3.1792,3.1792,0,0,1,3.2812,3.4253v5.0581H61.0063V88.541a1.7618,1.7618,0,1,0-3.5214,0Z"/>
    <path class="cls-4" d="M66.0439,85.3076h3.7935V91.95h2.9131v1.6167H65.2437V91.95h2.913V86.9243H66.0439Zm1.8731-2.9453h2.0806v2.0811H67.917Z"/>
    <path class="cls-4" d="M82.1582,90.75a3.4413,3.4413,0,0,1-6.8511-.4482v-1.793a3.4413,3.4413,0,0,1,6.8511-.4483H80.4453a1.59,1.59,0,0,0-1.7124-1.36,1.6323,1.6323,0,0,0-1.7607,1.8408V90.27A1.6323,1.6323,0,0,0,78.7329,92.11a1.6059,1.6059,0,0,0,1.7285-1.36Z"/>
    <path class="cls-4" d="M86.6675,93.5669H84.9868V82.3623h1.6807v3.6655a2.3063,2.3063,0,0,1,1.9209-.9443A3.1792,3.1792,0,0,1,91.87,88.5088v5.0581H90.189V88.541a1.7619,1.7619,0,1,0-3.5215,0Z"/>
    <path class="cls-4" d="M104.3457,88.5088a3.1793,3.1793,0,0,1,3.2817-3.4253,2.3049,2.3049,0,0,1,1.9205.9443V82.3623h1.6806V93.5669h-1.6806v-.7842a2.244,2.244,0,0,1-1.9205.9444,3.1793,3.1793,0,0,1-3.2817-3.4253Zm1.6807,1.7607c0,1.2647.7046,1.8247,1.6489,1.8247a1.7009,1.7009,0,0,0,1.8726-1.8247V88.541a1.7619,1.7619,0,1,0-3.5215,0Z"/>
    <path class="cls-4" d="M114.6816,85.3076h3.7935V91.95h2.9131v1.6167h-7.5069V91.95h2.9131V86.9243h-2.1128Zm1.8731-2.9453h2.0806v2.0811h-2.0806Z"/>
    <path class="cls-4" d="M123.8008,88.5088a3.1793,3.1793,0,0,1,3.2817-3.4253,2.3046,2.3046,0,0,1,1.92.9443V82.3623h1.6807V93.5669h-1.6807v-.7842a2.2436,2.2436,0,0,1-1.92.9444,3.1793,3.1793,0,0,1-3.2817-3.4253Zm1.6806,1.7607c0,1.2647.7046,1.8247,1.649,1.8247a1.7009,1.7009,0,0,0,1.8725-1.8247V88.541a1.7619,1.7619,0,1,0-3.5215,0Z"/>
    <path class="cls-4" d="M145.0327,93.5669h-1.6806V85.3076h1.6806v.72a2.3064,2.3064,0,0,1,1.9209-.9443,3.1793,3.1793,0,0,1,3.2813,3.4253v5.0581h-1.6807V88.541a1.7619,1.7619,0,1,0-3.5215,0Z"/>
    <path class="cls-4" d="M153.0479,88.5088a3.4412,3.4412,0,0,1,6.8823,0v1.793a3.4412,3.4412,0,0,1-6.8823,0Zm5.2016.0322a1.7623,1.7623,0,1,0-3.521,0V90.27a1.7623,1.7623,0,1,0,3.521,0Z"/>
    <path class="cls-4" d="M166.2808,91.166c0,.624.1118.7842.768.7842h2.7051v1.6167h-3.1851A1.7153,1.7153,0,0,1,164.6,91.5981v-4.706h-2.353V85.3076H164.6v-1.873h1.6807v1.873h3.4731v1.5845h-3.4731Z"/>
    <path class="cls-4" d="M187.5923,86.78a1.62,1.62,0,0,0-1.7608,1.8247V91.95h3.2173v1.6167H181.542V91.95h2.6089V86.9243h-1.8086V85.3076h3.4892v.8a2.3066,2.3066,0,0,1,1.9209-.9443h2.0967V86.78Z"/>
    <path class="cls-4" d="M195.3032,86.7319A1.6058,1.6058,0,0,0,193.6226,87.9H191.91a3.4587,3.4587,0,0,1,6.851.6406v5.0581H197.08v-.7846a3.0408,3.0408,0,0,1-2.4654.9443c-1.4882,0-2.8168-.7363-2.8168-2.4487A2.5038,2.5038,0,0,1,193.59,88.813a16.5547,16.5547,0,0,1,3.4737-.4961,1.62,1.62,0,0,0-.064-.4A1.5611,1.5611,0,0,0,195.335,86.7Zm-.4321,5.3946c.96,0,2.1929-.3042,2.1929-1.8409v-.4643a8.5631,8.5631,0,0,0-3.2017.5762.8166.8166,0,0,0-.4.7685c0,.688.5122.9761,1.4087.9761Z"/>
    <path class="cls-4" d="M205.1909,91.166c0,.624.1118.7842.7681.7842h2.7051v1.6167H205.479a1.7152,1.7152,0,0,1-1.9687-1.9688v-4.706h-2.3531V85.3076H203.51v-1.873h1.6806v1.873h3.4732v1.5845h-3.4732Z"/>
    <path class="cls-4" d="M211.957,85.3076h3.7935V91.95h2.9131v1.6167h-7.5069V91.95H214.07V86.9243H211.957Zm1.8731-2.9453h2.0805v2.0811H213.83Z"/>
    <path class="cls-4" d="M225.51,83.979c-.6563,0-.7686.16-.7686.7842v.5444h3.4736v1.5845h-3.4736v6.6748H223.061V86.8921h-2.353V85.3076h2.353v-.9765a1.7153,1.7153,0,0,1,1.9688-1.9688h3.1855V83.979Z"/>
    <path class="cls-4" d="M234.4536,95.4717a1.695,1.695,0,0,1-1.8252,1.0405h-1.12V94.8955h.5923c.8,0,.8642-.144,1.12-.8325l.2241-.6079L230.5,85.3076h1.7446l2.065,5.8745,2.0644-5.8745h1.7451Z"/>
    <path class="cls-4" d="M253.8281,91.166c0,.624.1123.7842.7686.7842h2.7051v1.6167h-3.1856a1.7152,1.7152,0,0,1-1.9687-1.9688v-4.706h-2.3526V85.3076h2.3526v-1.873h1.6806v1.873h3.4737v1.5845h-3.4737Z"/>
    <path class="cls-4" d="M261.7637,93.5669H260.083V82.3623h1.6807v3.6655a2.3043,2.3043,0,0,1,1.92-.9443,3.18,3.18,0,0,1,3.2822,3.4253v5.0581h-1.6816V88.541a1.7614,1.7614,0,1,0-3.5205,0Z"/>
    <path class="cls-4" d="M273.252,92.11a1.6065,1.6065,0,0,0,1.6806-1.1685h1.7119a3.4585,3.4585,0,0,1-6.8506-.64v-1.793a3.4415,3.4415,0,0,1,6.8829,0v1.4888h-5.2022V90.27a1.6326,1.6326,0,0,0,1.7608,1.8409Zm-1.7608-3.6177v.0161h3.5215v-.0161a1.761,1.761,0,1,0-3.5215,0Z"/>
    <path class="cls-4" d="M294.98,82.3623h1.7129v7.4111a4.0181,4.0181,0,0,1-8.0352,0V82.3623H290.37v7.4111a2.3052,2.3052,0,0,0,4.6094,0Z"/>
    <path class="cls-4" d="M306.42,93.5669H304.707l-4.61-8.0352v8.0352h-1.7119V82.3623h1.7119l4.61,8.0352V82.3623H306.42Z"/>
    <path class="cls-4" d="M316.1953,90.0933a4.0193,4.0193,0,0,1-8.0195-.32V86.1558a4.0193,4.0193,0,0,1,8.0195-.32h-1.7129a2.3125,2.3125,0,0,0-4.5937.32v3.6176a2.3125,2.3125,0,0,0,4.5937.32Z"/>
    <path class="cls-4" d="M318.832,82.3623h1.7129V91.87h4.8975v1.6968h-6.61Z"/>
    <path class="cls-4" d="M327.5674,86.1558a4.0181,4.0181,0,0,1,8.0351,0v3.6176a4.0181,4.0181,0,0,1-8.0351,0Zm6.3222,0a2.3052,2.3052,0,0,0-4.6093,0v3.6176a2.3052,2.3052,0,0,0,4.6093,0Z"/>
    <path class="cls-4" d="M341.44,93.7109a3.7768,3.7768,0,0,1-4.13-3.6333h1.7452a2.2458,2.2458,0,0,0,2.4326,1.9366c1.1523,0,1.8887-.544,1.8887-1.4244,0-.8325-.4483-1.3447-1.585-1.6167l-1.9844-.48a2.994,2.994,0,0,1-2.3047-3.1372c0-2.1607,1.6328-3.169,3.6172-3.169a3.5125,3.5125,0,0,1,3.81,3.1529h-1.8252a1.8612,1.8612,0,0,0-1.9844-1.4566c-1.3447,0-1.8887.6245-1.8887,1.4727a1.444,1.444,0,0,0,1.2647,1.5049l1.9209.4638a3.11,3.11,0,0,1,2.6885,3.3135c0,1.793-1.3282,3.0894-3.6651,3.0894Z"/>
  </g>
  <circle class="cls-5" cx="12.304" cy="149.4801" r="10.6801"/>
  <circle class="cls-6" cx="12.304" cy="177.6038" r="10.6801"/>
  <g>
    <path class="cls-5" d="M4.6929,126.7441A3.7774,3.7774,0,0,1,.563,123.11H2.3076a2.2457,2.2457,0,0,0,2.4331,1.9365c1.1524,0,1.8887-.544,1.8887-1.4239,0-.833-.4482-1.3447-1.5845-1.6171l-1.9848-.48a2.9934,2.9934,0,0,1-2.3047-3.1367c0-2.1612,1.6323-3.169,3.6172-3.169a3.512,3.512,0,0,1,3.81,3.1524H6.3574a1.8624,1.8624,0,0,0-1.9848-1.4561c-1.3443,0-1.8887.624-1.8887,1.4727a1.4449,1.4449,0,0,0,1.2646,1.5049l1.92.4638a3.11,3.11,0,0,1,2.69,3.3135c0,1.793-1.3286,3.0889-3.6655,3.0889Z"/>
    <path class="cls-5" d="M14.3569,124.1992c0,.624.1119.7842.7681.7842H17.83V126.6H14.645a1.715,1.715,0,0,1-1.9687-1.9687v-4.7061H10.3232v-1.584h2.3531v-1.873h1.6806v1.873H17.83v1.584H14.3569Z"/>
    <path class="cls-5" d="M23.9243,119.7646a1.6062,1.6062,0,0,0-1.6806,1.169H20.5308a3.1638,3.1638,0,0,1,3.41-2.7852,3.1788,3.1788,0,0,1,3.4414,3.4258v5.0576H25.7012v-.7841a3.0408,3.0408,0,0,1-2.4654.9443c-1.4882,0-2.8169-.7363-2.8169-2.4492a2.5047,2.5047,0,0,1,1.7925-2.4971,16.6208,16.6208,0,0,1,3.4737-.4961,1.6336,1.6336,0,0,0-.064-.4,1.5607,1.5607,0,0,0-1.665-1.2158Zm-.4321,5.3946c.96,0,2.1929-.3037,2.1929-1.8408v-.4639a8.5631,8.5631,0,0,0-3.2017.5762.8154.8154,0,0,0-.4.7685c0,.6875.5122.9756,1.4087.9756Z"/>
    <path class="cls-5" d="M33.812,124.1992c0,.624.1118.7842.7681.7842h2.7051V126.6H34.1a1.7151,1.7151,0,0,1-1.9688-1.9687v-4.7061h-2.353v-1.584h2.353v-1.873H33.812v1.873h3.4732v1.584H33.812Z"/>
    <path class="cls-5" d="M43.5073,125.1436a1.6066,1.6066,0,0,0,1.6807-1.169h1.7129a3.1638,3.1638,0,0,1-3.41,2.7852A3.1786,3.1786,0,0,1,40.05,123.335v-1.793a3.1789,3.1789,0,0,1,3.4414-3.4258,3.1787,3.1787,0,0,1,3.4414,3.4258V123.03H41.7305v.2724a1.6325,1.6325,0,0,0,1.7607,1.8409Zm-1.7607-3.6182v.0166h3.5215v-.0166a1.761,1.761,0,1,0-3.5215,0Z"/>
    <path class="cls-5" d="M49.9214,123.959H51.65c.1279.8164.9121,1.1846,1.8086,1.1846.72,0,1.36-.1768,1.36-.8643,0-.5605-.48-.7363-1.04-.8643l-1.5689-.4a2.392,2.392,0,0,1-2.0966-2.4814c0-1.6162,1.3125-2.4326,2.9931-2.4326,1.7925,0,2.9932.7842,3.1695,2.6406H54.5156c-.1284-.72-.7524-1.0244-1.521-1.0244-.5122,0-1.1841.1924-1.1841.8486,0,.4961.48.6719.9283.7842l1.5205.3838c1.4887.3848,2.2568,1.0088,2.2568,2.5937,0,1.6163-1.2964,2.4327-3.0732,2.4327C51.5381,126.76,50.0015,125.8477,49.9214,123.959Z"/>
    <path class="cls-5" d="M69.2168,121.542a3.4412,3.4412,0,0,1,6.8823,0v1.793a3.4412,3.4412,0,0,1-6.8823,0Zm5.2017.0322a1.7623,1.7623,0,1,0-3.521,0v1.7285a1.7623,1.7623,0,1,0,3.521,0Z"/>
    <path class="cls-5" d="M83.314,117.0117c-.6563,0-.7686.16-.7686.7842v.5449H86.019v1.584H82.5454V126.6H80.8647v-6.6748h-2.353v-1.584h2.353v-.9765a1.7151,1.7151,0,0,1,1.9688-1.9688H86.019v1.6162Z"/>
    <path class="cls-5" d="M101.9048,124.1992c0,.624.1118.7842.7681.7842h2.705V126.6h-3.185a1.7151,1.7151,0,0,1-1.9688-1.9687v-4.7061h-2.353v-1.584h2.353v-1.873h1.6807v1.873h3.4731v1.584h-3.4731Z"/>
    <path class="cls-5" d="M109.8394,126.6h-1.6807V115.3955h1.6807v3.665a2.3076,2.3076,0,0,1,1.9209-.9443,3.18,3.18,0,0,1,3.2812,3.4258V126.6h-1.6807v-5.0254a1.7618,1.7618,0,1,0-3.5214,0Z"/>
    <path class="cls-5" d="M121.3276,125.1436a1.6066,1.6066,0,0,0,1.6807-1.169h1.7129a3.4587,3.4587,0,0,1-6.8511-.64v-1.793a3.4414,3.4414,0,0,1,6.8828,0V123.03h-5.2021v.2724a1.6325,1.6325,0,0,0,1.7607,1.8409Zm-1.7607-3.6182v.0166h3.5215v-.0166a1.761,1.761,0,1,0-3.5215,0Z"/>
    <path class="cls-5" d="M144.7842,118.82h-1.7124a2.3173,2.3173,0,0,0-4.5938.3682v3.6181a2.3055,2.3055,0,0,0,4.61,0v-.7207h-2.3052v-1.6484H144.8v2.3691a4.0181,4.0181,0,0,1-8.0352,0v-3.6181a4.0217,4.0217,0,0,1,8.0191-.3682Z"/>
    <path class="cls-5" d="M147.5332,115.3955h3.7935v9.5879h2.913V126.6h-7.5068v-1.6162h2.9131v-7.9717h-2.1128Z"/>
    <path class="cls-5" d="M156.7646,121.542a3.4412,3.4412,0,0,1,6.8824,0v1.793a3.4412,3.4412,0,0,1-6.8824,0Zm5.2017.0322a1.7623,1.7623,0,1,0-3.521,0v1.7285a1.7623,1.7623,0,1,0,3.521,0Z"/>
    <path class="cls-5" d="M173.439,123.335a3.179,3.179,0,0,1-3.2818,3.4248,2.2426,2.2426,0,0,1-1.92-.9444V126.6h-1.6806V115.3955h1.6806v3.665a2.3061,2.3061,0,0,1,1.92-.9443,3.18,3.18,0,0,1,3.2818,3.4258Zm-1.6807-1.7608a1.7619,1.7619,0,1,0-3.5215,0v1.7285a1.7619,1.7619,0,1,0,3.5215,0Z"/>
    <path class="cls-5" d="M179.5649,119.7646a1.6062,1.6062,0,0,0-1.6806,1.169h-1.7129a3.4587,3.4587,0,0,1,6.8511.6406v5.0576h-1.6807v-.7841a3.0407,3.0407,0,0,1-2.4653.9443c-1.4883,0-2.8169-.7363-2.8169-2.4492a2.5046,2.5046,0,0,1,1.7925-2.4971,16.62,16.62,0,0,1,3.4736-.4961,1.6242,1.6242,0,0,0-.064-.4,1.5607,1.5607,0,0,0-1.665-1.2158Zm-.4321,5.3946c.96,0,2.1929-.3037,2.1929-1.8408v-.4639a8.5631,8.5631,0,0,0-3.2017.5762.8154.8154,0,0,0-.4.7685c0,.6875.5122.9756,1.4087.9756Z"/>
    <path class="cls-5" d="M186.4434,115.3955h3.7934v9.5879H193.15V126.6h-7.5068v-1.6162h2.9131v-7.9717h-2.1128Z"/>
    <path class="cls-5" d="M208.9717,126.7441a3.7774,3.7774,0,0,1-4.13-3.6337h1.7451a2.2454,2.2454,0,0,0,2.4326,1.9365c1.1524,0,1.8887-.544,1.8887-1.4239,0-.833-.4482-1.3447-1.585-1.6171l-1.9843-.48a2.9934,2.9934,0,0,1-2.3047-3.1367c0-2.1612,1.6328-3.169,3.6172-3.169a3.5123,3.5123,0,0,1,3.81,3.1524h-1.8242a1.8626,1.8626,0,0,0-1.9853-1.4561c-1.3448,0-1.8887.624-1.8887,1.4727a1.4445,1.4445,0,0,0,1.2646,1.5049l1.9209.4638a3.11,3.11,0,0,1,2.6885,3.3135c0,1.793-1.3281,3.0889-3.665,3.0889Z"/>
    <path class="cls-5" d="M215.13,121.542a3.4414,3.4414,0,0,1,6.8828,0v1.793a3.4414,3.4414,0,0,1-6.8828,0Zm5.2021.0322a1.7625,1.7625,0,1,0-3.5215,0v1.7285a1.7625,1.7625,0,1,0,3.5215,0Z"/>
    <path class="cls-5" d="M226.5537,123.3027a1.7163,1.7163,0,1,0,3.4258,0v-4.9619H231.66V126.6H229.98v-.7842a2.2429,2.2429,0,0,1-1.9209.9444,3.1761,3.1761,0,0,1-3.1856-3.4248v-4.9942h1.6807Z"/>
    <path class="cls-5" d="M238.09,124.1992c0,.624.1123.7842.7686.7842h2.7051V126.6h-3.1856a1.7151,1.7151,0,0,1-1.9687-1.9687v-4.7061h-2.3526v-1.584h2.3526v-1.873H238.09v1.873h3.4737v1.584H238.09Z"/>
    <path class="cls-5" d="M246.0254,126.6h-1.6807V115.3955h1.6807v3.665a2.3055,2.3055,0,0,1,1.92-.9443,3.18,3.18,0,0,1,3.2822,3.4258V126.6h-1.6806v-5.0254a1.7619,1.7619,0,1,0-3.5215,0Z"/>
    <path class="cls-5" d="M256.584,124.9189h1.6806V126.6H256.584Zm3.249,0h1.6807V126.6H259.833Zm3.249,0h1.6807V126.6H263.082Z"/>
  </g>
  <g>
    <path class="cls-4" d="M32.46,152.4863h1.6811v1.6807H32.46Zm3.2495,0H37.39v1.6807H35.71Zm3.25,0H40.64v1.6807H38.959Z"/>
    <path class="cls-4" d="M49.4863,149.19l-1.1845,4.9775H46.749L45.42,145.9082H47.085l.7524,5.666.9282-4.3857h1.4409l.9283,4.3857.7524-5.666h1.6646l-1.3287,8.2588H50.67Z"/>
    <path class="cls-4" d="M56.3164,145.9082H60.11v6.6426h2.913v1.6162H55.5161v-1.6162h2.9131v-5.0264H56.3164Zm1.8731-2.9453H60.27v2.081H58.19Z"/>
    <path class="cls-4" d="M69.0054,151.7666c0,.624.1118.7842.768.7842h2.7051v1.6162h-3.185a1.7151,1.7151,0,0,1-1.9688-1.9688v-4.706h-2.353v-1.584h2.353v-1.873h1.6807v1.873h3.4731v1.584H69.0054Z"/>
    <path class="cls-4" d="M76.94,154.167H75.2593V142.9629H76.94v3.665a2.3079,2.3079,0,0,1,1.9209-.9443,3.18,3.18,0,0,1,3.2813,3.4258v5.0576H80.4614v-5.0254a1.7619,1.7619,0,1,0-3.5215,0Z"/>
    <path class="cls-4" d="M102.19,150.6934a4.0191,4.0191,0,0,1-8.0191-.3194v-3.6181a4.0191,4.0191,0,0,1,8.0191-.3194h-1.7129a2.3125,2.3125,0,0,0-4.5938.3194v3.6181a2.3125,2.3125,0,0,0,4.5938.3194Z"/>
    <path class="cls-4" d="M104.9062,142.9629H108.7v9.5879h2.9131v1.6162H104.106v-1.6162h2.913v-7.9717h-2.1128Z"/>
    <path class="cls-4" d="M117.4829,147.332a1.6063,1.6063,0,0,0-1.6807,1.169h-1.7128a3.4587,3.4587,0,0,1,6.851.6406v5.0576H119.26v-.7842a3.0407,3.0407,0,0,1-2.4654.9444c-1.4882,0-2.8169-.7364-2.8169-2.4492a2.5047,2.5047,0,0,1,1.7925-2.4971,16.6208,16.6208,0,0,1,3.4737-.4961,1.6328,1.6328,0,0,0-.064-.4,1.5608,1.5608,0,0,0-1.6651-1.2158Zm-.4321,5.3946c.96,0,2.1929-.3037,2.1929-1.8409v-.4638a8.5656,8.5656,0,0,0-3.2017.5761.8157.8157,0,0,0-.4.7686c0,.6875.5122.9756,1.4087.9756Z"/>
    <path class="cls-4" d="M124.4092,145.9082h3.7934v6.6426h2.9131v1.6162h-7.5068v-1.6162h2.9131v-5.0264h-2.1128Zm1.873-2.9453h2.0806v2.081h-2.0806Z"/>
    <path class="cls-4" d="M134.729,148.0527v6.1143h-1.6807v-8.2588h1.6807v.3682a1.2983,1.2983,0,0,1,1.1206-.5127,1.4667,1.4667,0,0,1,1.2163.5761,2.093,2.093,0,0,1,1.5689-.6562,2.2081,2.2081,0,0,1,2.417,2.3691v6.1143h-1.6807v-6.1143a.7364.7364,0,0,0-1.4727,0v6.1143h-1.6806v-6.1143a.7364.7364,0,0,0-1.4727,0Z"/>
    <path class="cls-4" d="M143.48,151.5264h1.729c.1279.8164.9121,1.1845,1.8086,1.1845.72,0,1.36-.1767,1.36-.8642,0-.5606-.48-.7363-1.04-.8643l-1.5689-.4a2.392,2.392,0,0,1-2.0966-2.4814c0-1.6162,1.3125-2.4326,2.9931-2.4326,1.7925,0,2.9932.7841,3.1695,2.6406h-1.7608c-.1284-.72-.7524-1.0244-1.521-1.0244-.5122,0-1.1841.1924-1.1841.8486,0,.4961.48.6719.9283.7842l1.52.3838c1.4887.3847,2.2568,1.0088,2.2568,2.5937,0,1.6162-1.2964,2.4326-3.0732,2.4326C145.0967,154.3271,143.56,153.415,143.48,151.5264Z"/>
    <path class="cls-4" d="M32.46,179.6865h1.6811v1.6807H32.46Zm3.2495,0H37.39v1.6807H35.71Zm3.25,0H40.64v1.6807H38.959Z"/>
    <path class="cls-4" d="M49.4863,176.3887l-1.1845,4.9785H46.749l-1.3286-8.26H47.085l.7524,5.666.9282-4.3857h1.4409l.9283,4.3857.7524-5.666h1.6646l-1.3287,8.26H50.67Z"/>
    <path class="cls-4" d="M56.3164,173.1074H60.11V179.75h2.913v1.6172H55.5161V179.75h2.9131v-5.0254H56.3164Zm1.8731-2.9453H60.27v2.0811H58.19Z"/>
    <path class="cls-4" d="M69.0054,178.9658c0,.624.1118.7842.768.7842h2.7051v1.6172h-3.185a1.7155,1.7155,0,0,1-1.9688-1.9688v-4.706h-2.353v-1.585h2.353v-1.873h1.6807v1.873h3.4731v1.585H69.0054Z"/>
    <path class="cls-4" d="M76.94,181.3672H75.2593V170.1621H76.94v3.666a2.3053,2.3053,0,0,1,1.9209-.9443,3.1788,3.1788,0,0,1,3.2813,3.4248v5.0586H80.4614v-5.0264a1.7619,1.7619,0,1,0-3.5215,0Z"/>
    <path class="cls-4" d="M84.9551,176.3086a3.4412,3.4412,0,0,1,6.8823,0v1.793a3.4412,3.4412,0,0,1-6.8823,0Zm5.2016.0322a1.7623,1.7623,0,1,0-3.521,0v1.7285a1.7623,1.7623,0,1,0,3.521,0Z"/>
    <path class="cls-4" d="M96.3789,178.0693a1.7164,1.7164,0,1,0,3.4258,0v-4.9619h1.6807v8.26H99.8047v-.7842a2.2459,2.2459,0,0,1-1.9209.9443,3.1769,3.1769,0,0,1-3.1856-3.4257v-4.9942h1.6807Z"/>
    <path class="cls-4" d="M107.9155,178.9658c0,.624.1118.7842.7681.7842h2.7051v1.6172h-3.1851a1.7154,1.7154,0,0,1-1.9687-1.9688v-4.706h-2.3531v-1.585h2.3531v-1.873h1.6806v1.873h3.4732v1.585h-3.4732Z"/>
    <path class="cls-4" d="M131.3721,177.8936a4.0191,4.0191,0,0,1-8.0191-.32v-3.6171a4.0191,4.0191,0,0,1,8.0191-.32h-1.7129a2.3126,2.3126,0,0,0-4.5938.32v3.6171a2.3126,2.3126,0,0,0,4.5938.32Z"/>
    <path class="cls-4" d="M134.0889,170.1621h3.7934V179.75h2.9131v1.6172h-7.5068V179.75h2.9131v-7.9707h-2.1128Z"/>
    <path class="cls-4" d="M146.6655,174.5322a1.6054,1.6054,0,0,0-1.6806,1.168H143.272a3.4587,3.4587,0,0,1,6.851.6406v5.0586h-1.6806v-.7851a3.0407,3.0407,0,0,1-2.4653.9443c-1.4883,0-2.8169-.7363-2.8169-2.4482a2.5031,2.5031,0,0,1,1.7924-2.4971,16.4891,16.4891,0,0,1,3.4737-.4961,1.6166,1.6166,0,0,0-.064-.4,1.5615,1.5615,0,0,0-1.665-1.2168Zm-.4321,5.3946c.96,0,2.1929-.3047,2.1929-1.8409v-.4648a8.5631,8.5631,0,0,0-3.2017.5762.8177.8177,0,0,0-.4.7685c0,.6885.5122.9766,1.4087.9766Z"/>
    <path class="cls-4" d="M153.5918,173.1074h3.7935V179.75h2.913v1.6172h-7.5068V179.75h2.9131v-5.0254h-2.1128Zm1.873-2.9453h2.0806v2.0811h-2.0806Z"/>
    <path class="cls-4" d="M163.9116,175.2529v6.1143H162.231v-8.26h1.6806v.3682a1.2977,1.2977,0,0,1,1.1206-.5117,1.4666,1.4666,0,0,1,1.2163.5761,2.093,2.093,0,0,1,1.5689-.6562,2.2081,2.2081,0,0,1,2.417,2.3691v6.1143h-1.6807v-6.1143a.7363.7363,0,1,0-1.4726,0v6.1143H165.4v-6.1143a.7364.7364,0,0,0-1.4727,0Z"/>
    <path class="cls-4" d="M172.6626,178.7256h1.729c.1279.8164.9121,1.1846,1.8086,1.1846.72,0,1.36-.1758,1.36-.8643,0-.56-.48-.7363-1.04-.8643l-1.5688-.4a2.3909,2.3909,0,0,1-2.0967-2.48c0-1.6172,1.3125-2.4336,2.9931-2.4336,1.7925,0,2.9932.7842,3.1695,2.6416h-1.7608c-.1284-.7207-.7524-1.0244-1.521-1.0244-.5122,0-1.184.1914-1.184.8476,0,.4971.48.6729.9282.7852l1.52.3838c1.4888.3838,2.2568,1.0088,2.2568,2.5928,0,1.6171-1.2964,2.4335-3.0732,2.4335C174.2793,181.5273,172.7427,180.6143,172.6626,178.7256Z"/>
  </g>
</svg>
