<?xml version="1.0" encoding="utf-8"?>
<!-- Generator: Adobe Illustrator 16.0.0, SVG Export Plug-In . SVG Version: 6.00 Build 0)  -->
<!DOCTYPE svg PUBLIC "-//W3C//DTD SVG 1.1//EN" "http://www.w3.org/Graphics/SVG/1.1/DTD/svg11.dtd">
<svg version="1.1" id="Layer_1" xmlns="http://www.w3.org/2000/svg" xmlns:xlink="http://www.w3.org/1999/xlink" x="0px" y="0px"
	 width="60.066px" height="60.937px" viewBox="1064.5 0 60.066 60.937" enable-background="new 1064.5 0 60.066 60.937"
	 xml:space="preserve">
<rect x="1064.5" fill="#0D0D0D" stroke="#0D0D0D" stroke-width="0.9961" stroke-miterlimit="10" width="60.066" height="60.937"/>
<g>
	<g>
		<circle fill="#D93644" cx="1093.797" cy="32.284" r="2.567"/>
		<circle fill="#0C59F2" cx="1098.682" cy="27.975" r="2.566"/>
		<circle fill="#D93644" cx="1092.362" cy="26.25" r="2.566"/>
		<circle fill="#0C59F2" cx="1096.958" cy="21.08" r="2.567"/>
		<circle fill="#0C59F2" cx="1086.902" cy="29.988" r="2.564"/>
		<path fill="#D93644" d="M1086.041,26.229c-1.417,0-2.569-1.146-2.569-2.562c0-1.42,1.152-2.566,2.569-2.566
			c1.413,0,2.565,1.146,2.565,2.566C1088.606,25.083,1087.454,26.229,1086.041,26.229z"/>
		<circle fill="#0C59F2" cx="1090.637" cy="19.931" r="2.564"/>
		<circle fill="#D93644" cx="1102.988" cy="23.665" r="2.564"/>
		<circle fill="#0C59F2" cx="1104.139" cy="30.561" r="2.565"/>
		<circle fill="#D93644" cx="1099.543" cy="35.444" r="2.565"/>
		<circle fill="#D93644" cx="1088.05" cy="36.018" r="2.566"/>
		<circle fill="#0C59F2" cx="1093.797" cy="38.03" r="2.566"/>
		<circle fill="none" stroke="#F2F2F2" stroke-width="0.2873" stroke-miterlimit="10" cx="1094.79" cy="28.953" r="18.961"/>
		<circle fill="none" stroke="#F2F2F2" stroke-width="0.2873" stroke-miterlimit="10" cx="1094.644" cy="28.811" r="26.577"/>
		<circle fill="#268C16" cx="1111.323" cy="38.03" r="2.566"/>
		<circle fill="#268C16" cx="1100.406" cy="54.695" r="2.567"/>
		<circle fill="#268C16" cx="1094.662" cy="9.875" r="2.567"/>
		<circle fill="#268C16" cx="1116.782" cy="14.758" r="2.566"/>
		<circle fill="#268C16" cx="1079.718" cy="40.615" r="2.566"/>
		<circle fill="#268C16" cx="1069.953" cy="18.494" r="2.564"/>
	</g>
</g>
</svg>
