<?xml version="1.0" encoding="utf-8"?>
<!-- Generator: Adobe Illustrator 16.0.0, SVG Export Plug-In . SVG Version: 6.00 Build 0)  -->
<!DOCTYPE svg PUBLIC "-//W3C//DTD SVG 1.1//EN" "http://www.w3.org/Graphics/SVG/1.1/DTD/svg11.dtd">
<svg version="1.1" xmlns="http://www.w3.org/2000/svg" xmlns:xlink="http://www.w3.org/1999/xlink" x="0px" y="0px" width="1152px"
	 height="300px" viewBox="0 0 1152 300" enable-background="new 0 0 1152 300" xml:space="preserve">
<pattern  x="-3516" width="72" height="72" patternUnits="userSpaceOnUse" id="Grid_1_pica_Lines" viewBox="72.25 -144.25 72 72" overflow="visible">
	<g>
		<polygon fill="none" points="72.25,-144.25 144.25,-144.25 144.25,-72.25 72.25,-72.25 		"/>
		<g>
			<line fill="none" stroke="#231F20" stroke-width="0.3" x1="78.25" y1="-72.5" x2="78.25" y2="0"/>
			<line fill="none" stroke="#231F20" stroke-width="0.3" x1="102.25" y1="-72.5" x2="102.25" y2="0"/>
			<line fill="none" stroke="#231F20" stroke-width="0.3" x1="126.25" y1="-72.5" x2="126.25" y2="0"/>
			<line fill="none" stroke="#231F20" stroke-width="0.3" x1="90.25" y1="-72.5" x2="90.25" y2="0"/>
			<line fill="none" stroke="#231F20" stroke-width="0.3" x1="114.25" y1="-72.5" x2="114.25" y2="0"/>
			<line fill="none" stroke="#231F20" stroke-width="0.3" x1="138.25" y1="-72.5" x2="138.25" y2="0"/>
		</g>
		<g>
			<line fill="none" stroke="#231F20" stroke-width="0.3" x1="144" y1="-78.25" x2="216.5" y2="-78.25"/>
			<line fill="none" stroke="#231F20" stroke-width="0.3" x1="144" y1="-102.25" x2="216.5" y2="-102.25"/>
			<line fill="none" stroke="#231F20" stroke-width="0.3" x1="144" y1="-126.25" x2="216.5" y2="-126.25"/>
			<line fill="none" stroke="#231F20" stroke-width="0.3" x1="144" y1="-90.25" x2="216.5" y2="-90.25"/>
			<line fill="none" stroke="#231F20" stroke-width="0.3" x1="144" y1="-114.25" x2="216.5" y2="-114.25"/>
			<line fill="none" stroke="#231F20" stroke-width="0.3" x1="144" y1="-138.25" x2="216.5" y2="-138.25"/>
		</g>
		<g>
			<line fill="none" stroke="#231F20" stroke-width="0.3" x1="78.25" y1="-144.5" x2="78.25" y2="-72"/>
			<line fill="none" stroke="#231F20" stroke-width="0.3" x1="102.25" y1="-144.5" x2="102.25" y2="-72"/>
			<line fill="none" stroke="#231F20" stroke-width="0.3" x1="126.25" y1="-144.5" x2="126.25" y2="-72"/>
			<line fill="none" stroke="#231F20" stroke-width="0.3" x1="72" y1="-78.25" x2="144.5" y2="-78.25"/>
			<line fill="none" stroke="#231F20" stroke-width="0.3" x1="72" y1="-102.25" x2="144.5" y2="-102.25"/>
			<line fill="none" stroke="#231F20" stroke-width="0.3" x1="72" y1="-126.25" x2="144.5" y2="-126.25"/>
			<line fill="none" stroke="#231F20" stroke-width="0.3" x1="72" y1="-90.25" x2="144.5" y2="-90.25"/>
			<line fill="none" stroke="#231F20" stroke-width="0.3" x1="72" y1="-114.25" x2="144.5" y2="-114.25"/>
			<line fill="none" stroke="#231F20" stroke-width="0.3" x1="72" y1="-138.25" x2="144.5" y2="-138.25"/>
			<line fill="none" stroke="#231F20" stroke-width="0.3" x1="90.25" y1="-144.5" x2="90.25" y2="-72"/>
			<line fill="none" stroke="#231F20" stroke-width="0.3" x1="114.25" y1="-144.5" x2="114.25" y2="-72"/>
			<line fill="none" stroke="#231F20" stroke-width="0.3" x1="138.25" y1="-144.5" x2="138.25" y2="-72"/>
		</g>
		<g>
			<line fill="none" stroke="#231F20" stroke-width="0.3" x1="0" y1="-78.25" x2="72.5" y2="-78.25"/>
			<line fill="none" stroke="#231F20" stroke-width="0.3" x1="0" y1="-102.25" x2="72.5" y2="-102.25"/>
			<line fill="none" stroke="#231F20" stroke-width="0.3" x1="0" y1="-126.25" x2="72.5" y2="-126.25"/>
			<line fill="none" stroke="#231F20" stroke-width="0.3" x1="0" y1="-90.25" x2="72.5" y2="-90.25"/>
			<line fill="none" stroke="#231F20" stroke-width="0.3" x1="0" y1="-114.25" x2="72.5" y2="-114.25"/>
			<line fill="none" stroke="#231F20" stroke-width="0.3" x1="0" y1="-138.25" x2="72.5" y2="-138.25"/>
		</g>
		<g>
			<line fill="none" stroke="#231F20" stroke-width="0.3" x1="78.25" y1="-216.5" x2="78.25" y2="-144"/>
			<line fill="none" stroke="#231F20" stroke-width="0.3" x1="102.25" y1="-216.5" x2="102.25" y2="-144"/>
			<line fill="none" stroke="#231F20" stroke-width="0.3" x1="126.25" y1="-216.5" x2="126.25" y2="-144"/>
			<line fill="none" stroke="#231F20" stroke-width="0.3" x1="90.25" y1="-216.5" x2="90.25" y2="-144"/>
			<line fill="none" stroke="#231F20" stroke-width="0.3" x1="114.25" y1="-216.5" x2="114.25" y2="-144"/>
			<line fill="none" stroke="#231F20" stroke-width="0.3" x1="138.25" y1="-216.5" x2="138.25" y2="-144"/>
		</g>
	</g>
</pattern>
<g id="Layer_1">
	<rect x="1" y="33" fill="#0D0D0D" width="1098" height="236"/>
</g>
<g id="Layer_2">
</g>
<g id="Layer_3" display="none">
</g>
<g id="Layer_4">
</g>
<g id="Layer_5">
	<rect x="13.5" y="38.5" fill="#0D0D0D" stroke="#BDCCD4" stroke-miterlimit="10" width="226" height="226"/>
	<rect x="88.5" y="114.5" fill="url(#Grid_1_pica_Lines)" stroke="#F2F2F2" stroke-miterlimit="10" width="76" height="76"/>
	<rect x="87.5" y="445.5" display="none" fill="none" stroke="#F2F2F2" stroke-miterlimit="10" width="76" height="76"/>
	<g>
		<circle fill="#268C16" cx="104.602" cy="129.344" r="4.208"/>
		<circle fill="#268C16" cx="115.521" cy="129.344" r="4.209"/>
		<circle fill="#268C16" cx="126.439" cy="129.344" r="4.208"/>
	</g>
	<g>
		<g>
			<rect x="262" y="85" fill="none" width="133" height="133"/>
		</g>
		<line fill="none" stroke="#F2F2F2" stroke-miterlimit="10" x1="261" y1="153.5" x2="1060" y2="153.5"/>
		<g>
			<g>
				<path fill="#268C16" d="M268.508,130.941c0.105,4.065,3.483,7.279,7.551,7.176c4.064-0.104,7.275-3.483,7.17-7.549
					c-0.104-4.065-3.479-7.277-7.543-7.175C271.617,123.497,268.408,126.875,268.508,130.941z"/>
			</g>
			
				<line fill="none" stroke="#268C16" stroke-width="1.7498" stroke-miterlimit="10" x1="275.676" y1="130.158" x2="276.253" y2="152.899"/>
		</g>
		<g>
			<rect x="395" y="85" fill="none" width="133" height="133"/>
		</g>
		<g>
			<g>
				<path fill="#268C16" d="M401.498,130.941c0.104,4.065,3.479,7.279,7.546,7.176c4.065-0.104,7.275-3.483,7.175-7.549
					c-0.104-4.065-3.482-7.277-7.547-7.175C404.604,123.497,401.393,126.875,401.498,130.941z"/>
			</g>
			
				<line fill="none" stroke="#268C16" stroke-width="1.7498" stroke-miterlimit="10" x1="408.662" y1="130.158" x2="409.24" y2="152.899"/>
		</g>
		<g>
			<rect x="528" y="85" fill="none" width="133" height="133"/>
		</g>
		<g>
			<g>
				<path fill="#268C16" d="M534.483,130.941c0.104,4.065,3.48,7.279,7.55,7.176c4.063-0.104,7.274-3.483,7.172-7.549
					c-0.104-4.065-3.48-7.277-7.549-7.175C537.592,123.497,534.381,126.875,534.483,130.941z"/>
			</g>
			
				<line fill="none" stroke="#268C16" stroke-width="1.7498" stroke-miterlimit="10" x1="541.648" y1="130.158" x2="542.227" y2="152.899"/>
		</g>
		<g>
			<rect x="661" y="85" fill="none" width="133" height="133"/>
		</g>
		<g>
			<g>
				<path fill="#268C16" d="M667.469,130.941c0.105,4.065,3.483,7.279,7.552,7.176c4.063-0.104,7.274-3.483,7.169-7.549
					c-0.104-4.065-3.479-7.277-7.543-7.175C670.579,123.497,667.367,126.875,667.469,130.941z"/>
			</g>
			
				<line fill="none" stroke="#268C16" stroke-width="1.7498" stroke-miterlimit="10" x1="674.637" y1="130.158" x2="675.215" y2="152.899"/>
		</g>
		<g>
			<rect x="794" y="85" fill="none" width="133" height="133"/>
		</g>
		<g>
			<g>
				<circle fill="#268C16" cx="807.817" cy="130.754" r="7.363"/>
			</g>
			
				<line fill="none" stroke="#268C16" stroke-width="1.7498" stroke-miterlimit="10" x1="807.625" y1="130.158" x2="808.201" y2="152.899"/>
		</g>
		<g>
			<rect x="927" y="85" fill="none" width="133" height="133"/>
		</g>
		<g>
			<g>
				<path fill="#268C16" d="M933.444,130.941c0.104,4.065,3.48,7.279,7.55,7.176c4.063-0.104,7.274-3.483,7.172-7.549
					c-0.104-4.065-3.48-7.277-7.546-7.175C936.551,123.497,933.342,126.875,933.444,130.941z"/>
			</g>
			
				<line fill="none" stroke="#268C16" stroke-width="1.7498" stroke-miterlimit="10" x1="940.61" y1="130.158" x2="941.188" y2="152.899"/>
		</g>
		<g>
			<g>
				<g>
					<g>
						<g>
							<g>
								<rect x="379.99" y="86.013" fill="none" width="26.246" height="22.165"/>
							</g>
							<rect x="391.417" y="102.426" fill-rule="evenodd" clip-rule="evenodd" fill="#231F20" width="2.624" height="4.114"/>
							<rect x="391.417" y="95.047" fill-rule="evenodd" clip-rule="evenodd" fill="#231F20" width="2.624" height="4.114"/>
							<rect x="391.417" y="87.692" fill-rule="evenodd" clip-rule="evenodd" fill="#231F20" width="2.624" height="4.114"/>
						</g>
					</g>
					<g>
						<g>
							<g>
								<rect x="379.99" y="108.178" fill="none" width="26.246" height="22.165"/>
							</g>
							<rect x="391.417" y="124.59" fill-rule="evenodd" clip-rule="evenodd" fill="#231F20" width="2.624" height="4.114"/>
							<rect x="391.417" y="117.212" fill-rule="evenodd" clip-rule="evenodd" fill="#231F20" width="2.624" height="4.114"/>
							<rect x="391.417" y="109.857" fill-rule="evenodd" clip-rule="evenodd" fill="#231F20" width="2.624" height="4.114"/>
						</g>
					</g>
					<g>
						<g>
							<g>
								<rect x="379.99" y="130.342" fill="none" width="26.246" height="22.165"/>
							</g>
							<rect x="391.417" y="146.755" fill-rule="evenodd" clip-rule="evenodd" fill="#231F20" width="2.624" height="4.114"/>
							<rect x="391.417" y="139.376" fill-rule="evenodd" clip-rule="evenodd" fill="#231F20" width="2.624" height="4.114"/>
							<rect x="391.417" y="132.021" fill-rule="evenodd" clip-rule="evenodd" fill="#231F20" width="2.624" height="4.114"/>
						</g>
					</g>
					<g>
						<g>
							<g>
								<rect x="379.99" y="152.507" fill="none" width="26.246" height="22.164"/>
							</g>
							<rect x="391.417" y="168.919" fill-rule="evenodd" clip-rule="evenodd" fill="#231F20" width="2.624" height="4.114"/>
							<rect x="391.417" y="161.541" fill-rule="evenodd" clip-rule="evenodd" fill="#231F20" width="2.624" height="4.114"/>
							<rect x="391.417" y="154.186" fill-rule="evenodd" clip-rule="evenodd" fill="#231F20" width="2.624" height="4.114"/>
						</g>
					</g>
					<g>
						<g>
							<g>
								<rect x="379.99" y="174.671" fill="none" width="26.246" height="22.165"/>
							</g>
							<rect x="391.417" y="191.084" fill-rule="evenodd" clip-rule="evenodd" fill="#231F20" width="2.624" height="4.114"/>
							<rect x="391.417" y="183.705" fill-rule="evenodd" clip-rule="evenodd" fill="#231F20" width="2.624" height="4.114"/>
							<rect x="391.417" y="176.351" fill-rule="evenodd" clip-rule="evenodd" fill="#231F20" width="2.624" height="4.114"/>
						</g>
					</g>
					<g>
						<g>
							<g>
								<rect x="379.99" y="196.835" fill="none" width="26.246" height="22.165"/>
							</g>
							<rect x="391.417" y="213.249" fill-rule="evenodd" clip-rule="evenodd" fill="#231F20" width="2.624" height="4.114"/>
							<rect x="391.417" y="205.87" fill-rule="evenodd" clip-rule="evenodd" fill="#231F20" width="2.624" height="4.114"/>
							<rect x="391.417" y="198.515" fill-rule="evenodd" clip-rule="evenodd" fill="#231F20" width="2.624" height="4.114"/>
						</g>
					</g>
				</g>
			</g>
		</g>
		<g>
			<g>
				<g>
					<g>
						<g>
							<g>
								<rect x="514.727" y="86.013" fill="none" width="26.246" height="22.165"/>
							</g>
							<rect x="526.153" y="102.426" fill-rule="evenodd" clip-rule="evenodd" fill="#231F20" width="2.624" height="4.114"/>
							<rect x="526.153" y="95.047" fill-rule="evenodd" clip-rule="evenodd" fill="#231F20" width="2.624" height="4.114"/>
							<rect x="526.153" y="87.692" fill-rule="evenodd" clip-rule="evenodd" fill="#231F20" width="2.624" height="4.114"/>
						</g>
					</g>
					<g>
						<g>
							<g>
								<rect x="514.727" y="108.178" fill="none" width="26.246" height="22.165"/>
							</g>
							<rect x="526.153" y="124.59" fill-rule="evenodd" clip-rule="evenodd" fill="#231F20" width="2.624" height="4.114"/>
							<rect x="526.153" y="117.212" fill-rule="evenodd" clip-rule="evenodd" fill="#231F20" width="2.624" height="4.114"/>
							<rect x="526.153" y="109.857" fill-rule="evenodd" clip-rule="evenodd" fill="#231F20" width="2.624" height="4.114"/>
						</g>
					</g>
					<g>
						<g>
							<g>
								<rect x="514.727" y="130.342" fill="none" width="26.246" height="22.165"/>
							</g>
							<rect x="526.153" y="146.755" fill-rule="evenodd" clip-rule="evenodd" fill="#231F20" width="2.624" height="4.114"/>
							<rect x="526.153" y="139.376" fill-rule="evenodd" clip-rule="evenodd" fill="#231F20" width="2.624" height="4.114"/>
							<rect x="526.153" y="132.021" fill-rule="evenodd" clip-rule="evenodd" fill="#231F20" width="2.624" height="4.114"/>
						</g>
					</g>
					<g>
						<g>
							<g>
								<rect x="514.727" y="152.507" fill="none" width="26.246" height="22.164"/>
							</g>
							<rect x="526.153" y="168.919" fill-rule="evenodd" clip-rule="evenodd" fill="#231F20" width="2.624" height="4.114"/>
							<rect x="526.153" y="161.541" fill-rule="evenodd" clip-rule="evenodd" fill="#231F20" width="2.624" height="4.114"/>
							<rect x="526.153" y="154.186" fill-rule="evenodd" clip-rule="evenodd" fill="#231F20" width="2.624" height="4.114"/>
						</g>
					</g>
					<g>
						<g>
							<g>
								<rect x="514.727" y="174.671" fill="none" width="26.246" height="22.165"/>
							</g>
							<rect x="526.153" y="191.084" fill-rule="evenodd" clip-rule="evenodd" fill="#231F20" width="2.624" height="4.114"/>
							<rect x="526.153" y="183.705" fill-rule="evenodd" clip-rule="evenodd" fill="#231F20" width="2.624" height="4.114"/>
							<rect x="526.153" y="176.351" fill-rule="evenodd" clip-rule="evenodd" fill="#231F20" width="2.624" height="4.114"/>
						</g>
					</g>
					<g>
						<g>
							<g>
								<rect x="514.727" y="196.835" fill="none" width="26.246" height="22.165"/>
							</g>
							<rect x="526.153" y="213.249" fill-rule="evenodd" clip-rule="evenodd" fill="#231F20" width="2.624" height="4.114"/>
							<rect x="526.153" y="205.87" fill-rule="evenodd" clip-rule="evenodd" fill="#231F20" width="2.624" height="4.114"/>
							<rect x="526.153" y="198.515" fill-rule="evenodd" clip-rule="evenodd" fill="#231F20" width="2.624" height="4.114"/>
						</g>
					</g>
				</g>
			</g>
		</g>
		<g>
			<g>
				<g>
					<g>
						<g>
							<g>
								<rect x="647.713" y="86.013" fill="none" width="26.246" height="22.165"/>
							</g>
							<rect x="659.14" y="102.426" fill-rule="evenodd" clip-rule="evenodd" fill="#231F20" width="2.624" height="4.114"/>
							<rect x="659.14" y="95.047" fill-rule="evenodd" clip-rule="evenodd" fill="#231F20" width="2.624" height="4.114"/>
							<rect x="659.14" y="87.692" fill-rule="evenodd" clip-rule="evenodd" fill="#231F20" width="2.624" height="4.114"/>
						</g>
					</g>
					<g>
						<g>
							<g>
								<rect x="647.713" y="108.178" fill="none" width="26.246" height="22.165"/>
							</g>
							<rect x="659.14" y="124.59" fill-rule="evenodd" clip-rule="evenodd" fill="#231F20" width="2.624" height="4.114"/>
							<rect x="659.14" y="117.212" fill-rule="evenodd" clip-rule="evenodd" fill="#231F20" width="2.624" height="4.114"/>
							<rect x="659.14" y="109.857" fill-rule="evenodd" clip-rule="evenodd" fill="#231F20" width="2.624" height="4.114"/>
						</g>
					</g>
					<g>
						<g>
							<g>
								<rect x="647.713" y="130.342" fill="none" width="26.246" height="22.165"/>
							</g>
							<rect x="659.14" y="146.755" fill-rule="evenodd" clip-rule="evenodd" fill="#231F20" width="2.624" height="4.114"/>
							<rect x="659.14" y="139.376" fill-rule="evenodd" clip-rule="evenodd" fill="#231F20" width="2.624" height="4.114"/>
							<rect x="659.14" y="132.021" fill-rule="evenodd" clip-rule="evenodd" fill="#231F20" width="2.624" height="4.114"/>
						</g>
					</g>
					<g>
						<g>
							<g>
								<rect x="647.713" y="152.507" fill="none" width="26.246" height="22.164"/>
							</g>
							<rect x="659.14" y="168.919" fill-rule="evenodd" clip-rule="evenodd" fill="#231F20" width="2.624" height="4.114"/>
							<rect x="659.14" y="161.541" fill-rule="evenodd" clip-rule="evenodd" fill="#231F20" width="2.624" height="4.114"/>
							<rect x="659.14" y="154.186" fill-rule="evenodd" clip-rule="evenodd" fill="#231F20" width="2.624" height="4.114"/>
						</g>
					</g>
					<g>
						<g>
							<g>
								<rect x="647.713" y="174.671" fill="none" width="26.246" height="22.165"/>
							</g>
							<rect x="659.14" y="191.084" fill-rule="evenodd" clip-rule="evenodd" fill="#231F20" width="2.624" height="4.114"/>
							<rect x="659.14" y="183.705" fill-rule="evenodd" clip-rule="evenodd" fill="#231F20" width="2.624" height="4.114"/>
							<rect x="659.14" y="176.351" fill-rule="evenodd" clip-rule="evenodd" fill="#231F20" width="2.624" height="4.114"/>
						</g>
					</g>
					<g>
						<g>
							<g>
								<rect x="647.713" y="196.835" fill="none" width="26.246" height="22.165"/>
							</g>
							<rect x="659.14" y="213.249" fill-rule="evenodd" clip-rule="evenodd" fill="#231F20" width="2.624" height="4.114"/>
							<rect x="659.14" y="205.87" fill-rule="evenodd" clip-rule="evenodd" fill="#231F20" width="2.624" height="4.114"/>
							<rect x="659.14" y="198.515" fill-rule="evenodd" clip-rule="evenodd" fill="#231F20" width="2.624" height="4.114"/>
						</g>
					</g>
				</g>
			</g>
		</g>
		<g>
			<g>
				<g>
					<g>
						<g>
							<g>
								<rect x="780.701" y="86.013" fill="none" width="26.246" height="22.165"/>
							</g>
							<rect x="792.128" y="102.426" fill-rule="evenodd" clip-rule="evenodd" fill="#231F20" width="2.624" height="4.114"/>
							<rect x="792.128" y="95.047" fill-rule="evenodd" clip-rule="evenodd" fill="#231F20" width="2.624" height="4.114"/>
							<rect x="792.128" y="87.692" fill-rule="evenodd" clip-rule="evenodd" fill="#231F20" width="2.624" height="4.114"/>
						</g>
					</g>
					<g>
						<g>
							<g>
								<rect x="780.701" y="108.178" fill="none" width="26.246" height="22.165"/>
							</g>
							<rect x="792.128" y="124.59" fill-rule="evenodd" clip-rule="evenodd" fill="#231F20" width="2.624" height="4.114"/>
							<rect x="792.128" y="117.212" fill-rule="evenodd" clip-rule="evenodd" fill="#231F20" width="2.624" height="4.114"/>
							<rect x="792.128" y="109.857" fill-rule="evenodd" clip-rule="evenodd" fill="#231F20" width="2.624" height="4.114"/>
						</g>
					</g>
					<g>
						<g>
							<g>
								<rect x="780.701" y="130.342" fill="none" width="26.246" height="22.165"/>
							</g>
							<rect x="792.128" y="146.755" fill-rule="evenodd" clip-rule="evenodd" fill="#231F20" width="2.624" height="4.114"/>
							<rect x="792.128" y="139.376" fill-rule="evenodd" clip-rule="evenodd" fill="#231F20" width="2.624" height="4.114"/>
							<rect x="792.128" y="132.021" fill-rule="evenodd" clip-rule="evenodd" fill="#231F20" width="2.624" height="4.114"/>
						</g>
					</g>
					<g>
						<g>
							<g>
								<rect x="780.701" y="152.507" fill="none" width="26.246" height="22.164"/>
							</g>
							<rect x="792.128" y="168.919" fill-rule="evenodd" clip-rule="evenodd" fill="#231F20" width="2.624" height="4.114"/>
							<rect x="792.128" y="161.541" fill-rule="evenodd" clip-rule="evenodd" fill="#231F20" width="2.624" height="4.114"/>
							<rect x="792.128" y="154.186" fill-rule="evenodd" clip-rule="evenodd" fill="#231F20" width="2.624" height="4.114"/>
						</g>
					</g>
					<g>
						<g>
							<g>
								<rect x="780.701" y="174.671" fill="none" width="26.246" height="22.165"/>
							</g>
							<rect x="792.128" y="191.084" fill-rule="evenodd" clip-rule="evenodd" fill="#231F20" width="2.624" height="4.114"/>
							<rect x="792.128" y="183.705" fill-rule="evenodd" clip-rule="evenodd" fill="#231F20" width="2.624" height="4.114"/>
							<rect x="792.128" y="176.351" fill-rule="evenodd" clip-rule="evenodd" fill="#231F20" width="2.624" height="4.114"/>
						</g>
					</g>
					<g>
						<g>
							<g>
								<rect x="780.701" y="196.835" fill="none" width="26.246" height="22.165"/>
							</g>
							<rect x="792.128" y="213.249" fill-rule="evenodd" clip-rule="evenodd" fill="#231F20" width="2.624" height="4.114"/>
							<rect x="792.128" y="205.87" fill-rule="evenodd" clip-rule="evenodd" fill="#231F20" width="2.624" height="4.114"/>
							<rect x="792.128" y="198.515" fill-rule="evenodd" clip-rule="evenodd" fill="#231F20" width="2.624" height="4.114"/>
						</g>
					</g>
				</g>
			</g>
		</g>
		<g>
			<g>
				<g>
					<g>
						<g>
							<g>
								<rect x="913.688" y="86.013" fill="none" width="26.246" height="22.165"/>
							</g>
							<rect x="925.114" y="102.426" fill-rule="evenodd" clip-rule="evenodd" fill="#231F20" width="2.624" height="4.114"/>
							<rect x="925.114" y="95.047" fill-rule="evenodd" clip-rule="evenodd" fill="#231F20" width="2.624" height="4.114"/>
							<rect x="925.114" y="87.692" fill-rule="evenodd" clip-rule="evenodd" fill="#231F20" width="2.624" height="4.114"/>
						</g>
					</g>
					<g>
						<g>
							<g>
								<rect x="913.688" y="108.178" fill="none" width="26.246" height="22.165"/>
							</g>
							<rect x="925.114" y="124.59" fill-rule="evenodd" clip-rule="evenodd" fill="#231F20" width="2.624" height="4.114"/>
							<rect x="925.114" y="117.212" fill-rule="evenodd" clip-rule="evenodd" fill="#231F20" width="2.624" height="4.114"/>
							<rect x="925.114" y="109.857" fill-rule="evenodd" clip-rule="evenodd" fill="#231F20" width="2.624" height="4.114"/>
						</g>
					</g>
					<g>
						<g>
							<g>
								<rect x="913.688" y="130.342" fill="none" width="26.246" height="22.165"/>
							</g>
							<rect x="925.114" y="146.755" fill-rule="evenodd" clip-rule="evenodd" fill="#231F20" width="2.624" height="4.114"/>
							<rect x="925.114" y="139.376" fill-rule="evenodd" clip-rule="evenodd" fill="#231F20" width="2.624" height="4.114"/>
							<rect x="925.114" y="132.021" fill-rule="evenodd" clip-rule="evenodd" fill="#231F20" width="2.624" height="4.114"/>
						</g>
					</g>
					<g>
						<g>
							<g>
								<rect x="913.688" y="152.507" fill="none" width="26.246" height="22.164"/>
							</g>
							<rect x="925.114" y="168.919" fill-rule="evenodd" clip-rule="evenodd" fill="#231F20" width="2.624" height="4.114"/>
							<rect x="925.114" y="161.541" fill-rule="evenodd" clip-rule="evenodd" fill="#231F20" width="2.624" height="4.114"/>
							<rect x="925.114" y="154.186" fill-rule="evenodd" clip-rule="evenodd" fill="#231F20" width="2.624" height="4.114"/>
						</g>
					</g>
					<g>
						<g>
							<g>
								<rect x="913.688" y="174.671" fill="none" width="26.246" height="22.165"/>
							</g>
							<rect x="925.114" y="191.084" fill-rule="evenodd" clip-rule="evenodd" fill="#231F20" width="2.624" height="4.114"/>
							<rect x="925.114" y="183.705" fill-rule="evenodd" clip-rule="evenodd" fill="#231F20" width="2.624" height="4.114"/>
							<rect x="925.114" y="176.351" fill-rule="evenodd" clip-rule="evenodd" fill="#231F20" width="2.624" height="4.114"/>
						</g>
					</g>
					<g>
						<g>
							<g>
								<rect x="913.688" y="196.835" fill="none" width="26.246" height="22.165"/>
							</g>
							<rect x="925.114" y="213.249" fill-rule="evenodd" clip-rule="evenodd" fill="#231F20" width="2.624" height="4.114"/>
							<rect x="925.114" y="205.87" fill-rule="evenodd" clip-rule="evenodd" fill="#231F20" width="2.624" height="4.114"/>
							<rect x="925.114" y="198.515" fill-rule="evenodd" clip-rule="evenodd" fill="#231F20" width="2.624" height="4.114"/>
						</g>
					</g>
				</g>
			</g>
		</g>
		<g>
			<g>
				<g>
					<g>
						<g>
							<g>
								<rect x="1046.674" y="86.013" fill="none" width="26.246" height="22.165"/>
							</g>
							<rect x="1058.101" y="102.426" fill-rule="evenodd" clip-rule="evenodd" fill="#231F20" width="2.624" height="4.114"/>
							<rect x="1058.101" y="95.047" fill-rule="evenodd" clip-rule="evenodd" fill="#231F20" width="2.624" height="4.114"/>
							<rect x="1058.101" y="87.692" fill-rule="evenodd" clip-rule="evenodd" fill="#231F20" width="2.624" height="4.114"/>
						</g>
					</g>
					<g>
						<g>
							<g>
								<rect x="1046.674" y="108.178" fill="none" width="26.246" height="22.165"/>
							</g>
							<rect x="1058.101" y="124.59" fill-rule="evenodd" clip-rule="evenodd" fill="#231F20" width="2.624" height="4.114"/>
							<rect x="1058.101" y="117.212" fill-rule="evenodd" clip-rule="evenodd" fill="#231F20" width="2.624" height="4.114"/>
							<rect x="1058.101" y="109.857" fill-rule="evenodd" clip-rule="evenodd" fill="#231F20" width="2.624" height="4.114"/>
						</g>
					</g>
					<g>
						<g>
							<g>
								<rect x="1046.674" y="130.342" fill="none" width="26.246" height="22.165"/>
							</g>
							<rect x="1058.101" y="146.755" fill-rule="evenodd" clip-rule="evenodd" fill="#231F20" width="2.624" height="4.114"/>
							<rect x="1058.101" y="139.376" fill-rule="evenodd" clip-rule="evenodd" fill="#231F20" width="2.624" height="4.114"/>
							<rect x="1058.101" y="132.021" fill-rule="evenodd" clip-rule="evenodd" fill="#231F20" width="2.624" height="4.114"/>
						</g>
					</g>
					<g>
						<g>
							<g>
								<rect x="1046.674" y="152.507" fill="none" width="26.246" height="22.164"/>
							</g>
							<rect x="1058.101" y="168.919" fill-rule="evenodd" clip-rule="evenodd" fill="#231F20" width="2.624" height="4.114"/>
							<rect x="1058.101" y="161.541" fill-rule="evenodd" clip-rule="evenodd" fill="#231F20" width="2.624" height="4.114"/>
							<rect x="1058.101" y="154.186" fill-rule="evenodd" clip-rule="evenodd" fill="#231F20" width="2.624" height="4.114"/>
						</g>
					</g>
					<g>
						<g>
							<g>
								<rect x="1046.674" y="174.671" fill="none" width="26.246" height="22.165"/>
							</g>
							<rect x="1058.101" y="191.084" fill-rule="evenodd" clip-rule="evenodd" fill="#231F20" width="2.624" height="4.114"/>
							<rect x="1058.101" y="183.705" fill-rule="evenodd" clip-rule="evenodd" fill="#231F20" width="2.624" height="4.114"/>
							<rect x="1058.101" y="176.351" fill-rule="evenodd" clip-rule="evenodd" fill="#231F20" width="2.624" height="4.114"/>
						</g>
					</g>
					<g>
						<g>
							<g>
								<rect x="1046.674" y="196.835" fill="none" width="26.246" height="22.165"/>
							</g>
							<rect x="1058.101" y="213.249" fill-rule="evenodd" clip-rule="evenodd" fill="#231F20" width="2.624" height="4.114"/>
							<rect x="1058.101" y="205.87" fill-rule="evenodd" clip-rule="evenodd" fill="#231F20" width="2.624" height="4.114"/>
							<rect x="1058.101" y="198.515" fill-rule="evenodd" clip-rule="evenodd" fill="#231F20" width="2.624" height="4.114"/>
						</g>
					</g>
				</g>
			</g>
		</g>
	</g>
</g>
<g id="Layer_6">
</g>
</svg>
