<?xml version="1.0" encoding="utf-8"?>
<!-- Generator: Adobe Illustrator 16.0.0, SVG Export Plug-In . SVG Version: 6.00 Build 0)  -->
<!DOCTYPE svg PUBLIC "-//W3C//DTD SVG 1.1//EN" "http://www.w3.org/Graphics/SVG/1.1/DTD/svg11.dtd">
<svg version="1.1" xmlns="http://www.w3.org/2000/svg" xmlns:xlink="http://www.w3.org/1999/xlink" x="0px" y="0px"
	 width="49.425px" height="105.488px" viewBox="0 0 49.425 105.488" enable-background="new 0 0 49.425 105.488"
	 xml:space="preserve">
<g id="Layer_1">
	<rect fill="#0D0D0D" width="49" height="105"/>
</g>
<g id="Layer_2">
	<g>
		<path fill-rule="evenodd" clip-rule="evenodd" fill="#0D0D0D" d="M35.884,36.802c-0.161,0-0.27,0-0.471,0
			c0,0.709-0.002,1.399,0,2.089c0.004,3.248,0.011,6.496,0.014,9.744c0.002,2.936,0.004,5.873,0.002,8.809
			c-0.007,9.488-0.016,18.977-0.021,28.465c-0.003,2.58,0.008,5.16-0.01,7.74c-0.01,1.821-0.627,3.394-2.055,4.577
			c-2.469,2.047-6.119,1.13-7.521-1.874c-0.403-0.863-0.578-1.771-0.578-2.721c0.002-7.235,0.002-14.47,0.002-21.705
			c0-3.22,0.002-6.44,0.002-9.661c0-0.071,0.016-0.146-0.004-0.211c-0.034-0.119-0.088-0.231-0.134-0.347
			c-0.044,0.116-0.127,0.232-0.128,0.348c-0.007,3.561-0.006,7.121-0.005,10.682c0.001,6.979,0.006,13.959-0.003,20.939
			c-0.002,2.191-0.863,3.955-2.797,5.062c-2.434,1.394-5.521,0.27-6.772-2.407c-0.423-0.904-0.581-1.862-0.581-2.85
			c0.002-8.1,0.011-16.2,0.011-24.3c-0.001-8.199-0.009-16.398-0.015-24.599c0-2.383,0-4.766,0-7.149c0-0.197,0-0.393,0-0.619
			c-0.15-0.012-0.27-0.022-0.389-0.032c-0.025,0.058-0.057,0.095-0.058,0.133c-0.009,0.212-0.014,0.425-0.014,0.638
			c-0.001,6.128,0,12.257-0.003,18.385c0,0.878,0.036,1.762-0.041,2.634c-0.156,1.775-1.666,3.196-3.443,3.211
			c-1.975,0.017-3.693-1.449-3.74-3.325c-0.057-2.268-0.029-4.539-0.031-6.809c-0.004-3.957,0-7.916-0.004-11.873
			c-0.002-3.045-0.02-6.091-0.012-9.137c0.001-0.564,0.037-1.14,0.158-1.688c0.24-1.1,0.995-1.68,2.129-1.711
			c0.581-0.016,1.162-0.005,1.744-0.005c8.427,0.002,16.854,0.005,25.28,0.007c1.206,0,2.411-0.01,3.616-0.008
			c1.574,0.002,2.602,0.823,2.899,2.377c0.132,0.691,0.224,1.401,0.225,2.103c0.015,8.767,0.011,17.534,0.009,26.301
			c0,1.972-1.234,3.432-3.143,3.741c-1.936,0.314-3.928-1.235-4.095-3.188c-0.018-0.211-0.024-0.424-0.024-0.637
			c0-5.872,0-11.745,0-17.618C35.885,39.153,35.884,37.994,35.884,36.802z M15.849,65.324c0.014,0,0.027,0,0.041,0
			c0,1.873,0.001,3.745,0,5.618c-0.002,7.547-0.004,15.095-0.01,22.642c-0.002,1.062,0.23,2.05,0.834,2.938
			c1.496,2.198,4.383,2.371,6.113,0.357c0.795-0.923,1.112-2.014,1.111-3.22c-0.004-10.627-0.002-21.253-0.002-31.88
			c0-0.185,0-0.37,0.003-0.554c0.009-0.357,0.198-0.553,0.55-0.57c0.326-0.016,0.652-0.012,0.979-0.008
			c0.687,0.007,0.818,0.14,0.818,0.825c0.002,3.149,0.002,6.298,0.002,9.447c0,7.547-0.003,15.095,0.004,22.642
			c0,0.409,0.036,0.822,0.101,1.226c0.286,1.771,1.794,3.277,3.456,3.469c2.035,0.235,4.008-1.203,4.342-3.347
			c0.209-1.347,0.18-2.737,0.197-4.108c0.025-1.783-0.02-3.566-0.019-5.35c0.005-8.297,0.015-16.594,0.022-24.893
			c0.006-7.219,0.014-14.438,0.021-21.658c0.001-0.878-0.001-1.756,0.016-2.634c0.005-0.322,0.206-0.481,0.527-0.485
			c0.354-0.005,0.71,0.003,1.063-0.017c0.756-0.044,0.908,0.09,0.908,0.847c-0.002,5.49-0.004,10.981-0.005,16.471
			c-0.001,1.674,0.009,3.348-0.001,5.021c-0.004,0.87,0.326,1.574,1.008,2.098c0.828,0.636,1.746,0.734,2.686,0.293
			c1.013-0.475,1.482-1.327,1.496-2.426c0.015-1.361,0.004-2.723,0.004-4.085c0-7.518,0.004-15.038-0.011-22.556
			c-0.001-0.559-0.096-1.128-0.224-1.674c-0.252-1.066-0.814-1.483-1.914-1.489c-1.063-0.005-2.127-0.001-3.191-0.001
			c-8.186,0-16.371,0-24.558,0c-0.923,0-1.845-0.009-2.767,0.009c-0.73,0.015-1.09,0.29-1.21,0.999
			c-0.095,0.555-0.121,1.127-0.122,1.692c0,2.579,0.029,5.158,0.029,7.738c0.006,6.483,0,12.967,0.004,19.45
			c0,1.263,0.874,2.326,2.076,2.551c1.235,0.232,2.459-0.383,2.869-1.578c0.199-0.582,0.203-1.25,0.203-1.879
			c0.014-6.88,0.008-13.761,0.008-20.642c0-0.084-0.004-0.17,0.002-0.255c0.025-0.385,0.215-0.602,0.619-0.599
			c0.355,0.003,0.709-0.001,1.064-0.001c0.77,0,0.867,0.092,0.866,0.849c-0.003,2.837-0.011,5.674-0.011,8.511
			C15.847,51.848,15.849,58.586,15.849,65.324z"/>
		<path fill-rule="evenodd" clip-rule="evenodd" fill="#0D0D0D" d="M15.029,16.223c0.216-5.674,5.067-9.992,10.642-9.615
			c5.756,0.389,9.75,5.361,9.35,10.721c-0.41,5.498-5.084,9.489-10.373,9.284C18.967,26.392,14.796,21.562,15.029,16.223z
			 M34.017,16.534c-0.104-5.311-4.456-9.035-9.188-8.905c-5.051,0.139-8.912,4.261-8.757,9.32c0.149,4.855,4.316,8.858,9.399,8.618
			C30.064,25.349,34.016,21.548,34.017,16.534z"/>
		<path fill-rule="evenodd" clip-rule="evenodd" fill="#D93644" d="M15.849,65.324c0-6.738-0.002-13.476,0-20.215
			c0-2.837,0.008-5.674,0.011-8.511c0.001-0.757-0.097-0.849-0.866-0.849c-0.355,0-0.709,0.004-1.064,0.001
			c-0.404-0.003-0.594,0.213-0.619,0.599c-0.006,0.085-0.002,0.17-0.002,0.255c0,6.881,0.006,13.762-0.008,20.642
			c0,0.629-0.004,1.297-0.203,1.879c-0.41,1.195-1.634,1.811-2.869,1.578c-1.202-0.226-2.076-1.288-2.076-2.551
			c-0.004-6.483,0.002-12.967-0.004-19.45c0-2.58-0.029-5.159-0.029-7.738c0.001-0.565,0.027-1.137,0.122-1.692
			c0.12-0.709,0.479-0.983,1.21-0.999c0.922-0.018,1.844-0.009,2.767-0.009c8.187,0,16.372,0,24.558,0
			c1.064,0,2.128-0.004,3.191,0.001c1.1,0.006,1.662,0.423,1.914,1.489c0.128,0.546,0.223,1.116,0.224,1.674
			c0.015,7.518,0.011,15.038,0.011,22.556c0,1.362,0.011,2.724-0.004,4.085c-0.014,1.099-0.483,1.951-1.496,2.426
			c-0.939,0.44-1.857,0.342-2.686-0.293c-0.682-0.524-1.012-1.228-1.008-2.098c0.01-1.674,0-3.348,0.001-5.021
			c0.001-5.49,0.003-10.981,0.005-16.471c0-0.756-0.152-0.891-0.908-0.847c-0.354,0.021-0.709,0.012-1.063,0.017
			c-0.321,0.004-0.522,0.164-0.527,0.485c-0.017,0.878-0.015,1.756-0.016,2.634c-0.007,7.219-0.015,14.438-0.021,21.658
			c-0.008,8.298-0.018,16.595-0.022,24.893c-0.001,1.783,0.044,3.567,0.019,5.35c-0.018,1.371,0.012,2.761-0.197,4.108
			c-0.334,2.144-2.307,3.582-4.342,3.347c-1.662-0.192-3.17-1.698-3.456-3.469c-0.064-0.404-0.101-0.817-0.101-1.226
			c-0.007-7.547-0.004-15.095-0.004-22.642c0-3.148,0-6.298-0.002-9.447c0-0.685-0.132-0.817-0.818-0.825
			c-0.326-0.004-0.652-0.008-0.979,0.008c-0.352,0.017-0.541,0.213-0.55,0.57c-0.003,0.184-0.003,0.369-0.003,0.554
			c0,10.626-0.002,21.253,0.002,31.88c0.001,1.206-0.316,2.296-1.111,3.22c-1.73,2.014-4.617,1.841-6.113-0.357
			c-0.604-0.888-0.836-1.876-0.834-2.938c0.006-7.547,0.008-15.095,0.01-22.642c0.001-1.873,0-3.745,0-5.618
			C15.876,65.324,15.862,65.324,15.849,65.324z"/>
		<path fill-rule="evenodd" clip-rule="evenodd" fill="#D93644" d="M34.017,16.534c-0.001,5.014-3.952,8.815-8.545,9.033
			c-5.083,0.241-9.25-3.763-9.399-8.618c-0.155-5.059,3.706-9.181,8.757-9.32C29.561,7.5,33.913,11.224,34.017,16.534z"/>
	</g>
</g>
</svg>
