<?xml version="1.0" encoding="utf-8"?>
<!-- Generator: Adobe Illustrator 16.0.0, SVG Export Plug-In . SVG Version: 6.00 Build 0)  -->
<!DOCTYPE svg PUBLIC "-//W3C//DTD SVG 1.1//EN" "http://www.w3.org/Graphics/SVG/1.1/DTD/svg11.dtd">
<svg version="1.1" xmlns="http://www.w3.org/2000/svg" xmlns:xlink="http://www.w3.org/1999/xlink" x="0px" y="0px" width="1152px"
	 height="300px" viewBox="0 0 1152 300" enable-background="new 0 0 1152 300" xml:space="preserve">
<g id="Layer_1" display="none">
	<rect x="1" y="1" display="inline" fill="#0D0D0D" width="1152" height="300"/>
</g>
<g id="Layer_2">
</g>
<g id="Layer_3" display="none">
</g>
<g id="Layer_4">
</g>
<g id="Layer_5">
	<rect x="10" y="33" fill="#0D0D0D" width="1133" height="236"/>
	<g>
		<g>
			<g>
				<g>
					<circle fill="#268C16" cx="473.006" cy="37.344" r="4.208"/>
					<circle fill="#268C16" cx="473.006" cy="48.731" r="4.208"/>
					<circle fill="#268C16" cx="473.006" cy="60.118" r="4.208"/>
					<circle fill="#268C16" cx="473.006" cy="71.506" r="4.208"/>
					<circle fill="#268C16" cx="473.006" cy="82.893" r="4.208"/>
					<circle fill="#268C16" cx="483.924" cy="37.344" r="4.208"/>
					<circle fill="#268C16" cx="483.924" cy="48.731" r="4.208"/>
					<circle fill="#268C16" cx="483.924" cy="60.118" r="4.208"/>
					<circle fill="#268C16" cx="483.924" cy="71.506" r="4.208"/>
					<circle fill="#268C16" cx="483.924" cy="82.893" r="4.208"/>
					<circle fill="#268C16" cx="494.844" cy="37.344" r="4.209"/>
					<circle fill="#268C16" cx="494.844" cy="48.731" r="4.209"/>
					<circle fill="#268C16" cx="494.844" cy="60.118" r="4.209"/>
					<circle fill="#268C16" cx="494.844" cy="71.506" r="4.209"/>
					<circle fill="#268C16" cx="494.844" cy="82.893" r="4.209"/>
					<circle fill="#268C16" cx="505.763" cy="37.344" r="4.209"/>
					<circle fill="#268C16" cx="505.763" cy="48.731" r="4.209"/>
					<circle fill="#268C16" cx="505.763" cy="60.118" r="4.209"/>
					<circle fill="#268C16" cx="505.763" cy="71.506" r="4.209"/>
					<circle fill="#268C16" cx="505.763" cy="82.893" r="4.209"/>
					<circle fill="#268C16" cx="516.682" cy="37.344" r="4.208"/>
					<circle fill="#268C16" cx="516.682" cy="48.731" r="4.208"/>
					<circle fill="#268C16" cx="516.682" cy="60.118" r="4.208"/>
					<circle fill="#268C16" cx="516.682" cy="71.506" r="4.208"/>
					<circle fill="#268C16" cx="516.682" cy="82.893" r="4.208"/>
				</g>
				<g>
					<circle fill="#268C16" cx="527.602" cy="37.344" r="4.208"/>
					<circle fill="#268C16" cx="527.602" cy="48.731" r="4.208"/>
					<circle fill="#268C16" cx="527.602" cy="60.118" r="4.208"/>
					<circle fill="#268C16" cx="527.602" cy="71.506" r="4.208"/>
					<circle fill="#268C16" cx="527.602" cy="82.893" r="4.208"/>
					<circle fill="#268C16" cx="538.521" cy="37.344" r="4.209"/>
					<circle fill="#268C16" cx="538.521" cy="48.731" r="4.209"/>
					<circle fill="#268C16" cx="538.521" cy="60.118" r="4.209"/>
					<circle fill="#268C16" cx="538.521" cy="71.506" r="4.209"/>
					<circle fill="#268C16" cx="538.521" cy="82.893" r="4.209"/>
					<circle fill="#268C16" cx="549.439" cy="37.344" r="4.208"/>
					<circle fill="#268C16" cx="549.439" cy="48.731" r="4.208"/>
					<circle fill="#268C16" cx="549.439" cy="60.118" r="4.208"/>
					<circle fill="#268C16" cx="549.439" cy="71.506" r="4.208"/>
					<circle fill="#268C16" cx="549.439" cy="82.893" r="4.208"/>
					<circle fill="#268C16" cx="560.359" cy="37.344" r="4.208"/>
					<circle fill="#268C16" cx="560.359" cy="48.731" r="4.208"/>
					<circle fill="#268C16" cx="560.359" cy="60.118" r="4.208"/>
					<circle fill="#268C16" cx="560.359" cy="71.506" r="4.208"/>
					<circle fill="#268C16" cx="560.359" cy="82.893" r="4.208"/>
					<circle fill="#268C16" cx="571.278" cy="37.344" r="4.208"/>
					<circle fill="#268C16" cx="571.278" cy="48.731" r="4.208"/>
					<circle fill="#268C16" cx="571.278" cy="60.118" r="4.208"/>
					<circle fill="#268C16" cx="571.278" cy="71.506" r="4.208"/>
					<circle fill="#268C16" cx="571.278" cy="82.893" r="4.208"/>
				</g>
				<g>
					<circle fill="#268C16" cx="473.006" cy="94.215" r="4.208"/>
					<circle fill="#268C16" cx="473.006" cy="105.603" r="4.208"/>
					<circle fill="#268C16" cx="473.006" cy="116.989" r="4.208"/>
					<circle fill="#268C16" cx="473.006" cy="128.377" r="4.208"/>
					<circle fill="#268C16" cx="473.006" cy="139.764" r="4.208"/>
					<circle fill="#268C16" cx="483.924" cy="94.215" r="4.208"/>
					<circle fill="#268C16" cx="483.924" cy="105.603" r="4.208"/>
					<circle fill="#268C16" cx="483.924" cy="116.989" r="4.208"/>
					<circle fill="#268C16" cx="483.924" cy="128.377" r="4.208"/>
					<circle fill="#268C16" cx="483.924" cy="139.764" r="4.208"/>
					<circle fill="#268C16" cx="494.844" cy="94.215" r="4.209"/>
					<circle fill="#268C16" cx="494.844" cy="105.603" r="4.209"/>
					<circle fill="#268C16" cx="494.844" cy="116.989" r="4.209"/>
					<circle fill="#268C16" cx="494.844" cy="128.377" r="4.209"/>
					<circle fill="#268C16" cx="494.844" cy="139.764" r="4.209"/>
					<circle fill="#268C16" cx="505.763" cy="94.215" r="4.209"/>
					<circle fill="#268C16" cx="505.763" cy="105.603" r="4.209"/>
					<circle fill="#268C16" cx="505.763" cy="116.989" r="4.209"/>
					<circle fill="#268C16" cx="505.763" cy="128.377" r="4.209"/>
					<circle fill="#268C16" cx="505.763" cy="139.764" r="4.209"/>
					<circle fill="#268C16" cx="516.682" cy="94.215" r="4.208"/>
					<circle fill="#268C16" cx="516.682" cy="105.603" r="4.208"/>
					<circle fill="#268C16" cx="516.682" cy="116.989" r="4.208"/>
					<circle fill="#268C16" cx="516.682" cy="128.377" r="4.208"/>
					<circle fill="#268C16" cx="516.682" cy="139.764" r="4.208"/>
				</g>
				<g>
					<circle fill="#268C16" cx="527.602" cy="94.215" r="4.208"/>
					<circle fill="#268C16" cx="527.602" cy="105.603" r="4.208"/>
					<circle fill="#268C16" cx="527.602" cy="116.989" r="4.208"/>
					<circle fill="#268C16" cx="527.602" cy="128.377" r="4.208"/>
					<circle fill="#268C16" cx="527.602" cy="139.764" r="4.208"/>
					<circle fill="#268C16" cx="538.521" cy="94.215" r="4.209"/>
					<circle fill="#268C16" cx="538.521" cy="105.603" r="4.209"/>
					<circle fill="#268C16" cx="538.521" cy="116.989" r="4.209"/>
					<circle fill="#268C16" cx="538.521" cy="128.377" r="4.209"/>
					<circle fill="#268C16" cx="538.521" cy="139.764" r="4.209"/>
					<circle fill="#268C16" cx="549.439" cy="94.215" r="4.208"/>
					<circle fill="#268C16" cx="549.439" cy="105.603" r="4.208"/>
					<circle fill="#268C16" cx="549.439" cy="116.989" r="4.208"/>
					<circle fill="#268C16" cx="549.439" cy="128.377" r="4.208"/>
					<circle fill="#268C16" cx="549.439" cy="139.764" r="4.208"/>
					<circle fill="#268C16" cx="560.359" cy="94.215" r="4.208"/>
					<circle fill="#268C16" cx="560.359" cy="105.603" r="4.208"/>
					<circle fill="#268C16" cx="560.359" cy="116.989" r="4.208"/>
					<circle fill="#268C16" cx="560.359" cy="128.377" r="4.208"/>
					<circle fill="#268C16" cx="560.359" cy="139.764" r="4.208"/>
					<circle fill="#268C16" cx="571.278" cy="94.215" r="4.208"/>
					<circle fill="#268C16" cx="571.278" cy="105.603" r="4.208"/>
					<circle fill="#268C16" cx="571.278" cy="116.989" r="4.208"/>
					<circle fill="#268C16" cx="571.278" cy="128.377" r="4.208"/>
					<circle fill="#268C16" cx="571.278" cy="139.764" r="4.208"/>
				</g>
				<g>
					<circle fill="#268C16" cx="473.006" cy="151.215" r="4.208"/>
					<circle fill="#268C16" cx="473.006" cy="162.603" r="4.208"/>
					<circle fill="#268C16" cx="473.006" cy="173.989" r="4.208"/>
					<circle fill="#268C16" cx="473.006" cy="185.377" r="4.208"/>
					<circle fill="#268C16" cx="473.006" cy="196.764" r="4.208"/>
					<circle fill="#268C16" cx="483.924" cy="151.215" r="4.208"/>
					<circle fill="#268C16" cx="483.924" cy="162.603" r="4.208"/>
					<circle fill="#268C16" cx="483.924" cy="173.989" r="4.208"/>
					<circle fill="#268C16" cx="483.924" cy="185.377" r="4.208"/>
					<circle fill="#268C16" cx="483.924" cy="196.764" r="4.208"/>
					<circle fill="#268C16" cx="494.844" cy="151.215" r="4.209"/>
					<circle fill="#268C16" cx="494.844" cy="162.603" r="4.209"/>
					<circle fill="#268C16" cx="494.844" cy="173.989" r="4.209"/>
					<circle fill="#268C16" cx="494.844" cy="185.377" r="4.209"/>
					<circle fill="#268C16" cx="494.844" cy="196.764" r="4.209"/>
					<circle fill="#268C16" cx="505.763" cy="151.215" r="4.209"/>
					<circle fill="#268C16" cx="505.763" cy="162.603" r="4.209"/>
					<circle fill="#268C16" cx="505.763" cy="173.989" r="4.209"/>
					<circle fill="#268C16" cx="505.763" cy="185.377" r="4.209"/>
					<circle fill="#268C16" cx="505.763" cy="196.764" r="4.209"/>
					<circle fill="#268C16" cx="516.682" cy="151.215" r="4.208"/>
					<circle fill="#268C16" cx="516.682" cy="162.603" r="4.208"/>
					<circle fill="#268C16" cx="516.682" cy="173.989" r="4.208"/>
					<circle fill="#268C16" cx="516.682" cy="185.377" r="4.208"/>
					<circle fill="#268C16" cx="516.682" cy="196.764" r="4.208"/>
				</g>
				<g>
					<circle fill="#268C16" cx="527.602" cy="151.215" r="4.208"/>
					<circle fill="#268C16" cx="527.602" cy="162.603" r="4.208"/>
					<circle fill="#268C16" cx="527.602" cy="173.989" r="4.208"/>
					<circle fill="#268C16" cx="527.602" cy="185.377" r="4.208"/>
					<circle fill="#268C16" cx="527.602" cy="196.764" r="4.208"/>
					<circle fill="#268C16" cx="538.521" cy="151.215" r="4.209"/>
					<circle fill="#268C16" cx="538.521" cy="162.603" r="4.209"/>
					<circle fill="#268C16" cx="538.521" cy="173.989" r="4.209"/>
					<circle fill="#268C16" cx="538.521" cy="185.377" r="4.209"/>
					<circle fill="#268C16" cx="538.521" cy="196.764" r="4.209"/>
					<circle fill="#268C16" cx="549.439" cy="151.215" r="4.208"/>
					<circle fill="#268C16" cx="549.439" cy="162.603" r="4.208"/>
					<circle fill="#268C16" cx="549.439" cy="173.989" r="4.208"/>
					<circle fill="#268C16" cx="549.439" cy="185.377" r="4.208"/>
					<circle fill="#268C16" cx="549.439" cy="196.764" r="4.208"/>
					<circle fill="#268C16" cx="560.359" cy="151.215" r="4.208"/>
					<circle fill="#268C16" cx="560.359" cy="162.603" r="4.208"/>
					<circle fill="#268C16" cx="560.359" cy="173.989" r="4.208"/>
					<circle fill="#268C16" cx="560.359" cy="185.377" r="4.208"/>
					<circle fill="#268C16" cx="560.359" cy="196.764" r="4.208"/>
					<circle fill="#268C16" cx="571.278" cy="151.215" r="4.208"/>
					<circle fill="#268C16" cx="571.278" cy="162.603" r="4.208"/>
					<circle fill="#268C16" cx="571.278" cy="173.989" r="4.208"/>
					<circle fill="#268C16" cx="571.278" cy="185.377" r="4.208"/>
					<circle fill="#268C16" cx="571.278" cy="196.764" r="4.208"/>
				</g>
				<g>
					<circle fill="#268C16" cx="473.006" cy="208.215" r="4.208"/>
					<circle fill="#268C16" cx="473.006" cy="219.603" r="4.208"/>
					<circle fill="#268C16" cx="473.006" cy="230.989" r="4.208"/>
					<circle fill="#268C16" cx="473.006" cy="242.377" r="4.208"/>
					<circle fill="#268C16" cx="473.006" cy="253.764" r="4.208"/>
					<circle fill="#268C16" cx="483.924" cy="208.215" r="4.208"/>
					<circle fill="#268C16" cx="483.924" cy="219.603" r="4.208"/>
					<circle fill="#268C16" cx="483.924" cy="230.989" r="4.208"/>
					<circle fill="#268C16" cx="483.924" cy="242.377" r="4.208"/>
					<circle fill="#268C16" cx="483.924" cy="253.764" r="4.208"/>
					<circle fill="#268C16" cx="494.844" cy="208.215" r="4.209"/>
					<circle fill="#268C16" cx="494.844" cy="219.603" r="4.209"/>
					<circle fill="#268C16" cx="494.844" cy="230.989" r="4.209"/>
					<circle fill="#268C16" cx="494.844" cy="242.377" r="4.209"/>
					<circle fill="#268C16" cx="494.844" cy="253.764" r="4.209"/>
					<circle fill="#268C16" cx="505.763" cy="208.215" r="4.209"/>
					<circle fill="#268C16" cx="505.763" cy="219.603" r="4.209"/>
					<circle fill="#268C16" cx="505.763" cy="230.989" r="4.209"/>
					<circle fill="#268C16" cx="505.763" cy="242.377" r="4.209"/>
					<circle fill="#268C16" cx="505.763" cy="253.764" r="4.209"/>
					<circle fill="#268C16" cx="516.682" cy="208.215" r="4.208"/>
					<circle fill="#268C16" cx="516.682" cy="219.603" r="4.208"/>
					<circle fill="#268C16" cx="516.682" cy="230.989" r="4.208"/>
					<circle fill="#268C16" cx="516.682" cy="242.377" r="4.208"/>
					<circle fill="#268C16" cx="516.682" cy="253.764" r="4.208"/>
				</g>
				<g>
					<circle fill="#268C16" cx="527.602" cy="208.215" r="4.208"/>
					<circle fill="#268C16" cx="527.602" cy="219.603" r="4.208"/>
					<circle fill="#268C16" cx="527.602" cy="230.989" r="4.208"/>
					<circle fill="#268C16" cx="527.602" cy="242.377" r="4.208"/>
					<circle fill="#268C16" cx="527.602" cy="253.764" r="4.208"/>
					<circle fill="#268C16" cx="538.521" cy="208.215" r="4.209"/>
					<circle fill="#268C16" cx="538.521" cy="219.603" r="4.209"/>
					<circle fill="#268C16" cx="538.521" cy="230.989" r="4.209"/>
					<circle fill="#268C16" cx="538.521" cy="242.377" r="4.209"/>
					<circle fill="#268C16" cx="538.521" cy="253.764" r="4.209"/>
					<circle fill="#268C16" cx="549.439" cy="208.215" r="4.208"/>
					<circle fill="#268C16" cx="549.439" cy="219.603" r="4.208"/>
					<circle fill="#268C16" cx="549.439" cy="230.989" r="4.208"/>
					<circle fill="#268C16" cx="549.439" cy="242.377" r="4.208"/>
					<circle fill="#268C16" cx="549.439" cy="253.764" r="4.208"/>
					<circle fill="#268C16" cx="560.359" cy="208.215" r="4.208"/>
					<circle fill="#268C16" cx="560.359" cy="219.603" r="4.208"/>
					<circle fill="#268C16" cx="560.359" cy="230.989" r="4.208"/>
					<circle fill="#268C16" cx="560.359" cy="242.377" r="4.208"/>
					<circle fill="#268C16" cx="560.359" cy="253.764" r="4.208"/>
					<circle fill="#268C16" cx="571.278" cy="208.215" r="4.208"/>
					<circle fill="#268C16" cx="571.278" cy="219.603" r="4.208"/>
					<circle fill="#268C16" cx="571.278" cy="230.989" r="4.208"/>
					<circle fill="#268C16" cx="571.278" cy="242.377" r="4.208"/>
					<circle fill="#268C16" cx="571.278" cy="253.764" r="4.208"/>
				</g>
				<g>
					<circle fill="#268C16" cx="473.006" cy="265.215" r="4.208"/>
					<circle fill="#268C16" cx="483.924" cy="265.215" r="4.208"/>
					<circle fill="#268C16" cx="494.844" cy="265.215" r="4.209"/>
					<circle fill="#268C16" cx="505.763" cy="265.215" r="4.209"/>
					<circle fill="#268C16" cx="516.682" cy="265.215" r="4.208"/>
				</g>
				<g>
					<circle fill="#268C16" cx="527.602" cy="265.215" r="4.208"/>
					<circle fill="#268C16" cx="538.521" cy="265.215" r="4.209"/>
					<circle fill="#268C16" cx="549.439" cy="265.215" r="4.208"/>
					<circle fill="#268C16" cx="560.359" cy="265.215" r="4.208"/>
					<circle fill="#268C16" cx="571.278" cy="265.215" r="4.208"/>
				</g>
			</g>
			<g>
				<g>
					<circle fill="#268C16" cx="582.006" cy="37.344" r="4.208"/>
					<circle fill="#268C16" cx="582.006" cy="48.731" r="4.208"/>
					<circle fill="#268C16" cx="582.006" cy="60.118" r="4.208"/>
					<circle fill="#268C16" cx="582.006" cy="71.506" r="4.208"/>
					<circle fill="#268C16" cx="582.006" cy="82.893" r="4.208"/>
					<circle fill="#268C16" cx="592.924" cy="37.344" r="4.208"/>
					<circle fill="#268C16" cx="592.924" cy="48.731" r="4.208"/>
					<circle fill="#268C16" cx="592.924" cy="60.118" r="4.208"/>
					<circle fill="#268C16" cx="592.924" cy="71.506" r="4.208"/>
					<circle fill="#268C16" cx="592.924" cy="82.893" r="4.208"/>
					<circle fill="#268C16" cx="603.844" cy="37.344" r="4.209"/>
					<circle fill="#268C16" cx="603.844" cy="48.731" r="4.209"/>
					<circle fill="#268C16" cx="603.844" cy="60.118" r="4.209"/>
					<circle fill="#268C16" cx="603.844" cy="71.506" r="4.209"/>
					<circle fill="#268C16" cx="603.844" cy="82.893" r="4.209"/>
					<circle fill="#268C16" cx="614.763" cy="37.344" r="4.209"/>
					<circle fill="#268C16" cx="614.763" cy="48.731" r="4.209"/>
					<circle fill="#268C16" cx="614.763" cy="60.118" r="4.209"/>
					<circle fill="#268C16" cx="614.763" cy="71.506" r="4.209"/>
					<circle fill="#268C16" cx="614.763" cy="82.893" r="4.209"/>
					<circle fill="#268C16" cx="625.682" cy="37.344" r="4.208"/>
					<circle fill="#268C16" cx="625.682" cy="48.731" r="4.208"/>
					<circle fill="#268C16" cx="625.682" cy="60.118" r="4.208"/>
					<circle fill="#268C16" cx="625.682" cy="71.506" r="4.208"/>
					<circle fill="#268C16" cx="625.682" cy="82.893" r="4.208"/>
				</g>
				<g>
					<circle fill="#268C16" cx="636.602" cy="37.344" r="4.208"/>
					<circle fill="#268C16" cx="636.602" cy="48.731" r="4.208"/>
					<circle fill="#268C16" cx="636.602" cy="60.118" r="4.208"/>
					<circle fill="#268C16" cx="636.602" cy="71.506" r="4.208"/>
					<circle fill="#268C16" cx="636.602" cy="82.893" r="4.208"/>
					<circle fill="#268C16" cx="647.521" cy="37.344" r="4.209"/>
					<circle fill="#268C16" cx="647.521" cy="48.731" r="4.209"/>
					<circle fill="#268C16" cx="647.521" cy="60.118" r="4.209"/>
					<circle fill="#268C16" cx="647.521" cy="71.506" r="4.209"/>
					<circle fill="#268C16" cx="647.521" cy="82.893" r="4.209"/>
					<circle fill="#268C16" cx="658.439" cy="37.344" r="4.208"/>
					<circle fill="#268C16" cx="658.439" cy="48.731" r="4.208"/>
					<circle fill="#268C16" cx="658.439" cy="60.118" r="4.208"/>
					<circle fill="#268C16" cx="658.439" cy="71.506" r="4.208"/>
					<circle fill="#268C16" cx="658.439" cy="82.893" r="4.208"/>
					<circle fill="#268C16" cx="669.359" cy="37.344" r="4.208"/>
					<circle fill="#268C16" cx="669.359" cy="48.731" r="4.208"/>
					<circle fill="#268C16" cx="669.359" cy="60.118" r="4.208"/>
					<circle fill="#268C16" cx="669.359" cy="71.506" r="4.208"/>
					<circle fill="#268C16" cx="669.359" cy="82.893" r="4.208"/>
					<circle fill="#268C16" cx="680.278" cy="37.344" r="4.208"/>
					<circle fill="#268C16" cx="680.278" cy="48.731" r="4.208"/>
					<circle fill="#268C16" cx="680.278" cy="60.118" r="4.208"/>
					<circle fill="#268C16" cx="680.278" cy="71.506" r="4.208"/>
					<circle fill="#268C16" cx="680.278" cy="82.893" r="4.208"/>
				</g>
				<g>
					<circle fill="#268C16" cx="582.006" cy="94.215" r="4.208"/>
					<circle fill="#268C16" cx="582.006" cy="105.603" r="4.208"/>
					<circle fill="#268C16" cx="582.006" cy="116.989" r="4.208"/>
					<circle fill="#268C16" cx="582.006" cy="128.377" r="4.208"/>
					<circle fill="#268C16" cx="582.006" cy="139.764" r="4.208"/>
					<circle fill="#268C16" cx="592.924" cy="94.215" r="4.208"/>
					<circle fill="#268C16" cx="592.924" cy="105.603" r="4.208"/>
					<circle fill="#268C16" cx="592.924" cy="116.989" r="4.208"/>
					<circle fill="#268C16" cx="592.924" cy="128.377" r="4.208"/>
					<circle fill="#268C16" cx="592.924" cy="139.764" r="4.208"/>
					<circle fill="#268C16" cx="603.844" cy="94.215" r="4.209"/>
					<circle fill="#268C16" cx="603.844" cy="105.603" r="4.209"/>
					<circle fill="#268C16" cx="603.844" cy="116.989" r="4.209"/>
					<circle fill="#268C16" cx="603.844" cy="128.377" r="4.209"/>
					<circle fill="#268C16" cx="603.844" cy="139.764" r="4.209"/>
					<circle fill="#268C16" cx="614.763" cy="94.215" r="4.209"/>
					<circle fill="#268C16" cx="614.763" cy="105.603" r="4.209"/>
					<circle fill="#268C16" cx="614.763" cy="116.989" r="4.209"/>
					<circle fill="#268C16" cx="614.763" cy="128.377" r="4.209"/>
					<circle fill="#268C16" cx="614.763" cy="139.764" r="4.209"/>
					<circle fill="#268C16" cx="625.682" cy="94.215" r="4.208"/>
					<circle fill="#268C16" cx="625.682" cy="105.603" r="4.208"/>
					<circle fill="#268C16" cx="625.682" cy="116.989" r="4.208"/>
					<circle fill="#268C16" cx="625.682" cy="128.377" r="4.208"/>
					<circle fill="#268C16" cx="625.682" cy="139.764" r="4.208"/>
				</g>
				<g>
					<circle fill="#268C16" cx="636.602" cy="94.215" r="4.208"/>
					<circle fill="#268C16" cx="636.602" cy="105.603" r="4.208"/>
					<circle fill="#268C16" cx="636.602" cy="116.989" r="4.208"/>
					<circle fill="#268C16" cx="636.602" cy="128.377" r="4.208"/>
					<circle fill="#268C16" cx="636.602" cy="139.764" r="4.208"/>
					<circle fill="#268C16" cx="647.521" cy="94.215" r="4.209"/>
					<circle fill="#268C16" cx="647.521" cy="105.603" r="4.209"/>
					<circle fill="#268C16" cx="647.521" cy="116.989" r="4.209"/>
					<circle fill="#268C16" cx="647.521" cy="128.377" r="4.209"/>
					<circle fill="#268C16" cx="647.521" cy="139.764" r="4.209"/>
					<circle fill="#268C16" cx="658.439" cy="94.215" r="4.208"/>
					<circle fill="#268C16" cx="658.439" cy="105.603" r="4.208"/>
					<circle fill="#268C16" cx="658.439" cy="116.989" r="4.208"/>
					<circle fill="#268C16" cx="658.439" cy="128.377" r="4.208"/>
					<circle fill="#268C16" cx="658.439" cy="139.764" r="4.208"/>
					<circle fill="#268C16" cx="669.359" cy="94.215" r="4.208"/>
					<circle fill="#268C16" cx="669.359" cy="105.603" r="4.208"/>
					<circle fill="#268C16" cx="669.359" cy="116.989" r="4.208"/>
					<circle fill="#268C16" cx="669.359" cy="128.377" r="4.208"/>
					<circle fill="#268C16" cx="669.359" cy="139.764" r="4.208"/>
					<circle fill="#268C16" cx="680.278" cy="94.215" r="4.208"/>
					<circle fill="#268C16" cx="680.278" cy="105.603" r="4.208"/>
					<circle fill="#268C16" cx="680.278" cy="116.989" r="4.208"/>
					<circle fill="#268C16" cx="680.278" cy="128.377" r="4.208"/>
					<circle fill="#268C16" cx="680.278" cy="139.764" r="4.208"/>
				</g>
				<g>
					<circle fill="#268C16" cx="582.006" cy="151.215" r="4.208"/>
					<circle fill="#268C16" cx="582.006" cy="162.603" r="4.208"/>
					<circle fill="#268C16" cx="582.006" cy="173.989" r="4.208"/>
					<circle fill="#268C16" cx="582.006" cy="185.377" r="4.208"/>
					<circle fill="#268C16" cx="582.006" cy="196.764" r="4.208"/>
					<circle fill="#268C16" cx="592.924" cy="151.215" r="4.208"/>
					<circle fill="#268C16" cx="592.924" cy="162.603" r="4.208"/>
					<circle fill="#268C16" cx="592.924" cy="173.989" r="4.208"/>
					<circle fill="#268C16" cx="592.924" cy="185.377" r="4.208"/>
					<circle fill="#268C16" cx="592.924" cy="196.764" r="4.208"/>
					<circle fill="#268C16" cx="603.844" cy="151.215" r="4.209"/>
					<circle fill="#268C16" cx="603.844" cy="162.603" r="4.209"/>
					<circle fill="#268C16" cx="603.844" cy="173.989" r="4.209"/>
					<circle fill="#268C16" cx="603.844" cy="185.377" r="4.209"/>
					<circle fill="#268C16" cx="603.844" cy="196.764" r="4.209"/>
					<circle fill="#268C16" cx="614.763" cy="151.215" r="4.209"/>
					<circle fill="#268C16" cx="614.763" cy="162.603" r="4.209"/>
					<circle fill="#268C16" cx="614.763" cy="173.989" r="4.209"/>
					<circle fill="#268C16" cx="614.763" cy="185.377" r="4.209"/>
					<circle fill="#268C16" cx="614.763" cy="196.764" r="4.209"/>
					<circle fill="#268C16" cx="625.682" cy="151.215" r="4.208"/>
					<circle fill="#268C16" cx="625.682" cy="162.603" r="4.208"/>
					<circle fill="#268C16" cx="625.682" cy="173.989" r="4.208"/>
					<circle fill="#268C16" cx="625.682" cy="185.377" r="4.208"/>
					<circle fill="#268C16" cx="625.682" cy="196.764" r="4.208"/>
				</g>
				<g>
					<circle fill="#268C16" cx="636.602" cy="151.215" r="4.208"/>
					<circle fill="#268C16" cx="636.602" cy="162.603" r="4.208"/>
					<circle fill="#268C16" cx="636.602" cy="173.989" r="4.208"/>
					<circle fill="#268C16" cx="636.602" cy="185.377" r="4.208"/>
					<circle fill="#268C16" cx="636.602" cy="196.764" r="4.208"/>
					<circle fill="#268C16" cx="647.521" cy="151.215" r="4.209"/>
					<circle fill="#268C16" cx="647.521" cy="162.603" r="4.209"/>
					<circle fill="#268C16" cx="647.521" cy="173.989" r="4.209"/>
					<circle fill="#268C16" cx="647.521" cy="185.377" r="4.209"/>
					<circle fill="#268C16" cx="647.521" cy="196.764" r="4.209"/>
					<circle fill="#268C16" cx="658.439" cy="151.215" r="4.208"/>
					<circle fill="#268C16" cx="658.439" cy="162.603" r="4.208"/>
					<circle fill="#268C16" cx="658.439" cy="173.989" r="4.208"/>
					<circle fill="#268C16" cx="658.439" cy="185.377" r="4.208"/>
					<circle fill="#268C16" cx="658.439" cy="196.764" r="4.208"/>
					<circle fill="#268C16" cx="669.359" cy="151.215" r="4.208"/>
					<circle fill="#268C16" cx="669.359" cy="162.603" r="4.208"/>
					<circle fill="#268C16" cx="669.359" cy="173.989" r="4.208"/>
					<circle fill="#268C16" cx="669.359" cy="185.377" r="4.208"/>
					<circle fill="#268C16" cx="669.359" cy="196.764" r="4.208"/>
					<circle fill="#268C16" cx="680.278" cy="151.215" r="4.208"/>
					<circle fill="#268C16" cx="680.278" cy="162.603" r="4.208"/>
					<circle fill="#268C16" cx="680.278" cy="173.989" r="4.208"/>
					<circle fill="#268C16" cx="680.278" cy="185.377" r="4.208"/>
					<circle fill="#268C16" cx="680.278" cy="196.764" r="4.208"/>
				</g>
				<g>
					<circle fill="#268C16" cx="582.006" cy="208.215" r="4.208"/>
					<circle fill="#268C16" cx="582.006" cy="219.603" r="4.208"/>
					<circle fill="#268C16" cx="582.006" cy="230.989" r="4.208"/>
					<circle fill="#268C16" cx="582.006" cy="242.377" r="4.208"/>
					<circle fill="#268C16" cx="582.006" cy="253.764" r="4.208"/>
					<circle fill="#268C16" cx="592.924" cy="208.215" r="4.208"/>
					<circle fill="#268C16" cx="592.924" cy="219.603" r="4.208"/>
					<circle fill="#268C16" cx="592.924" cy="230.989" r="4.208"/>
					<circle fill="#268C16" cx="592.924" cy="242.377" r="4.208"/>
					<circle fill="#268C16" cx="592.924" cy="253.764" r="4.208"/>
					<circle fill="#268C16" cx="603.844" cy="208.215" r="4.209"/>
					<circle fill="#268C16" cx="603.844" cy="219.603" r="4.209"/>
					<circle fill="#268C16" cx="603.844" cy="230.989" r="4.209"/>
					<circle fill="#268C16" cx="603.844" cy="242.377" r="4.209"/>
					<circle fill="#268C16" cx="603.844" cy="253.764" r="4.209"/>
					<circle fill="#268C16" cx="614.763" cy="208.215" r="4.209"/>
					<circle fill="#268C16" cx="614.763" cy="219.603" r="4.209"/>
					<circle fill="#268C16" cx="614.763" cy="230.989" r="4.209"/>
					<circle fill="#268C16" cx="614.763" cy="242.377" r="4.209"/>
					<circle fill="#268C16" cx="614.763" cy="253.764" r="4.209"/>
					<circle fill="#268C16" cx="625.682" cy="208.215" r="4.208"/>
					<circle fill="#268C16" cx="625.682" cy="219.603" r="4.208"/>
					<circle fill="#268C16" cx="625.682" cy="230.989" r="4.208"/>
					<circle fill="#268C16" cx="625.682" cy="242.377" r="4.208"/>
					<circle fill="#268C16" cx="625.682" cy="253.764" r="4.208"/>
				</g>
				<g>
					<circle fill="#268C16" cx="636.602" cy="208.215" r="4.208"/>
					<circle fill="#268C16" cx="636.602" cy="219.603" r="4.208"/>
					<circle fill="#268C16" cx="636.602" cy="230.989" r="4.208"/>
					<circle fill="#268C16" cx="636.602" cy="242.377" r="4.208"/>
					<circle fill="#268C16" cx="636.602" cy="253.764" r="4.208"/>
					<circle fill="#268C16" cx="647.521" cy="208.215" r="4.209"/>
					<circle fill="#268C16" cx="647.521" cy="219.603" r="4.209"/>
					<circle fill="#268C16" cx="647.521" cy="230.989" r="4.209"/>
					<circle fill="#268C16" cx="647.521" cy="242.377" r="4.209"/>
					<circle fill="#268C16" cx="647.521" cy="253.764" r="4.209"/>
					<circle fill="#268C16" cx="658.439" cy="208.215" r="4.208"/>
					<circle fill="#268C16" cx="658.439" cy="219.603" r="4.208"/>
					<circle fill="#268C16" cx="658.439" cy="230.989" r="4.208"/>
					<circle fill="#268C16" cx="658.439" cy="242.377" r="4.208"/>
					<circle fill="#268C16" cx="658.439" cy="253.764" r="4.208"/>
					<circle fill="#268C16" cx="669.359" cy="208.215" r="4.208"/>
					<circle fill="#268C16" cx="669.359" cy="219.603" r="4.208"/>
					<circle fill="#268C16" cx="669.359" cy="230.989" r="4.208"/>
					<circle fill="#268C16" cx="669.359" cy="242.377" r="4.208"/>
					<circle fill="#268C16" cx="669.359" cy="253.764" r="4.208"/>
					<circle fill="#268C16" cx="680.278" cy="208.215" r="4.208"/>
					<circle fill="#268C16" cx="680.278" cy="219.603" r="4.208"/>
					<circle fill="#268C16" cx="680.278" cy="230.989" r="4.208"/>
					<circle fill="#268C16" cx="680.278" cy="242.377" r="4.208"/>
					<circle fill="#268C16" cx="680.278" cy="253.764" r="4.208"/>
				</g>
				<g>
					<circle fill="#268C16" cx="582.006" cy="265.215" r="4.208"/>
					<circle fill="#268C16" cx="592.924" cy="265.215" r="4.208"/>
					<circle fill="#268C16" cx="603.844" cy="265.215" r="4.209"/>
					<circle fill="#268C16" cx="614.763" cy="265.215" r="4.209"/>
					<circle fill="#268C16" cx="625.682" cy="265.215" r="4.208"/>
				</g>
				<g>
					<circle fill="#268C16" cx="636.602" cy="265.215" r="4.208"/>
					<circle fill="#268C16" cx="647.521" cy="265.215" r="4.209"/>
					<circle fill="#268C16" cx="658.439" cy="265.215" r="4.208"/>
					<circle fill="#268C16" cx="669.359" cy="265.215" r="4.208"/>
					<circle fill="#268C16" cx="680.278" cy="265.215" r="4.208"/>
				</g>
			</g>
		</g>
		<g>
			<rect x="11" y="156" opacity="0.3" fill="#F2F2F2" width="452" height="113"/>
			<rect x="11" y="33" opacity="0.3" fill="#F2F2F2" width="452" height="113"/>
			<rect x="690" y="156" opacity="0.3" fill="#F2F2F2" width="452" height="113"/>
			<rect x="690" y="33" opacity="0.3" fill="#F2F2F2" width="452" height="113"/>
		</g>
	</g>
</g>
<g id="Layer_6">
</g>
</svg>
