<svg width="488" height="117" viewBox="0 0 488 117" fill="none" xmlns="http://www.w3.org/2000/svg">
<rect width="488" height="117" fill="#0D0D0D"/>
<rect x="83" y="40" width="405" height="37" fill="#242424"/>
<rect x="83" y="80" width="405" height="37" fill="#242424"/>
<rect x="83" width="405" height="37" fill="#242424"/>
<rect width="73" height="117" fill="#D93644"/>
<path d="M102.397 14.368V17.668H106.741V18.436H102.397V22H101.509V13.6H107.269V14.368H102.397ZM111.291 22.06C110.683 22.06 110.135 21.924 109.647 21.652C109.159 21.372 108.775 20.988 108.495 20.5C108.215 20.012 108.075 19.46 108.075 18.844C108.075 18.228 108.215 17.676 108.495 17.188C108.775 16.7 109.159 16.32 109.647 16.048C110.135 15.776 110.683 15.64 111.291 15.64C111.899 15.64 112.447 15.776 112.935 16.048C113.423 16.32 113.803 16.7 114.075 17.188C114.355 17.676 114.495 18.228 114.495 18.844C114.495 19.46 114.355 20.012 114.075 20.5C113.803 20.988 113.423 21.372 112.935 21.652C112.447 21.924 111.899 22.06 111.291 22.06ZM111.291 21.304C111.739 21.304 112.139 21.204 112.491 21.004C112.851 20.796 113.131 20.504 113.331 20.128C113.531 19.752 113.631 19.324 113.631 18.844C113.631 18.364 113.531 17.936 113.331 17.56C113.131 17.184 112.851 16.896 112.491 16.696C112.139 16.488 111.739 16.384 111.291 16.384C110.843 16.384 110.439 16.488 110.079 16.696C109.727 16.896 109.447 17.184 109.239 17.56C109.039 17.936 108.939 18.364 108.939 18.844C108.939 19.324 109.039 19.752 109.239 20.128C109.447 20.504 109.727 20.796 110.079 21.004C110.439 21.204 110.843 21.304 111.291 21.304ZM118.815 22.06C118.207 22.06 117.659 21.924 117.171 21.652C116.683 21.372 116.299 20.988 116.019 20.5C115.739 20.012 115.599 19.46 115.599 18.844C115.599 18.228 115.739 17.676 116.019 17.188C116.299 16.7 116.683 16.32 117.171 16.048C117.659 15.776 118.207 15.64 118.815 15.64C119.423 15.64 119.971 15.776 120.459 16.048C120.947 16.32 121.327 16.7 121.599 17.188C121.879 17.676 122.019 18.228 122.019 18.844C122.019 19.46 121.879 20.012 121.599 20.5C121.327 20.988 120.947 21.372 120.459 21.652C119.971 21.924 119.423 22.06 118.815 22.06ZM118.815 21.304C119.263 21.304 119.663 21.204 120.015 21.004C120.375 20.796 120.655 20.504 120.855 20.128C121.055 19.752 121.155 19.324 121.155 18.844C121.155 18.364 121.055 17.936 120.855 17.56C120.655 17.184 120.375 16.896 120.015 16.696C119.663 16.488 119.263 16.384 118.815 16.384C118.367 16.384 117.963 16.488 117.603 16.696C117.251 16.896 116.971 17.184 116.763 17.56C116.563 17.936 116.463 18.364 116.463 18.844C116.463 19.324 116.563 19.752 116.763 20.128C116.971 20.504 117.251 20.796 117.603 21.004C117.963 21.204 118.367 21.304 118.815 21.304ZM129.518 13.096V22H128.702V20.752C128.446 21.176 128.106 21.5 127.682 21.724C127.266 21.948 126.794 22.06 126.266 22.06C125.674 22.06 125.138 21.924 124.658 21.652C124.178 21.38 123.802 21 123.53 20.512C123.258 20.024 123.122 19.468 123.122 18.844C123.122 18.22 123.258 17.664 123.53 17.176C123.802 16.688 124.178 16.312 124.658 16.048C125.138 15.776 125.674 15.64 126.266 15.64C126.778 15.64 127.238 15.748 127.646 15.964C128.062 16.172 128.402 16.48 128.666 16.888V13.096H129.518ZM126.338 21.304C126.778 21.304 127.174 21.204 127.526 21.004C127.886 20.796 128.166 20.504 128.366 20.128C128.574 19.752 128.678 19.324 128.678 18.844C128.678 18.364 128.574 17.936 128.366 17.56C128.166 17.184 127.886 16.896 127.526 16.696C127.174 16.488 126.778 16.384 126.338 16.384C125.89 16.384 125.486 16.488 125.126 16.696C124.774 16.896 124.494 17.184 124.286 17.56C124.086 17.936 123.986 18.364 123.986 18.844C123.986 19.324 124.086 19.752 124.286 20.128C124.494 20.504 124.774 20.796 125.126 21.004C125.486 21.204 125.89 21.304 126.338 21.304ZM137.24 15.64C138.064 15.64 138.696 15.848 139.136 16.264C139.576 16.672 139.796 17.28 139.796 18.088V22H138.98V21.016C138.788 21.344 138.504 21.6 138.128 21.784C137.76 21.968 137.32 22.06 136.808 22.06C136.104 22.06 135.544 21.892 135.128 21.556C134.712 21.22 134.504 20.776 134.504 20.224C134.504 19.688 134.696 19.256 135.08 18.928C135.472 18.6 136.092 18.436 136.94 18.436H138.944V18.052C138.944 17.508 138.792 17.096 138.488 16.816C138.184 16.528 137.74 16.384 137.156 16.384C136.756 16.384 136.372 16.452 136.004 16.588C135.636 16.716 135.32 16.896 135.056 17.128L134.672 16.492C134.992 16.22 135.376 16.012 135.824 15.868C136.272 15.716 136.744 15.64 137.24 15.64ZM136.94 21.388C137.42 21.388 137.832 21.28 138.176 21.064C138.52 20.84 138.776 20.52 138.944 20.104V19.072H136.964C135.884 19.072 135.344 19.448 135.344 20.2C135.344 20.568 135.484 20.86 135.764 21.076C136.044 21.284 136.436 21.388 136.94 21.388ZM145.326 15.64C146.118 15.64 146.746 15.872 147.21 16.336C147.682 16.792 147.918 17.46 147.918 18.34V22H147.066V18.424C147.066 17.768 146.902 17.268 146.574 16.924C146.246 16.58 145.778 16.408 145.17 16.408C144.49 16.408 143.95 16.612 143.55 17.02C143.158 17.42 142.962 17.976 142.962 18.688V22H142.11V15.688H142.926V16.852C143.158 16.468 143.478 16.172 143.886 15.964C144.302 15.748 144.782 15.64 145.326 15.64ZM156.014 13.096V22H155.198V20.752C154.942 21.176 154.602 21.5 154.178 21.724C153.762 21.948 153.29 22.06 152.762 22.06C152.17 22.06 151.634 21.924 151.154 21.652C150.674 21.38 150.298 21 150.026 20.512C149.754 20.024 149.618 19.468 149.618 18.844C149.618 18.22 149.754 17.664 150.026 17.176C150.298 16.688 150.674 16.312 151.154 16.048C151.634 15.776 152.17 15.64 152.762 15.64C153.274 15.64 153.734 15.748 154.142 15.964C154.558 16.172 154.898 16.48 155.162 16.888V13.096H156.014ZM152.834 21.304C153.274 21.304 153.67 21.204 154.022 21.004C154.382 20.796 154.662 20.504 154.862 20.128C155.07 19.752 155.174 19.324 155.174 18.844C155.174 18.364 155.07 17.936 154.862 17.56C154.662 17.184 154.382 16.896 154.022 16.696C153.67 16.488 153.274 16.384 152.834 16.384C152.386 16.384 151.982 16.488 151.622 16.696C151.27 16.896 150.99 17.184 150.782 17.56C150.582 17.936 150.482 18.364 150.482 18.844C150.482 19.324 150.582 19.752 150.782 20.128C150.99 20.504 151.27 20.796 151.622 21.004C151.982 21.204 152.386 21.304 152.834 21.304ZM166.976 19.756H162.296L161.288 22H160.364L164.204 13.6H165.08L168.92 22H167.984L166.976 19.756ZM166.652 19.036L164.636 14.524L162.62 19.036H166.652ZM175.915 15.688V21.232C175.915 22.304 175.651 23.096 175.123 23.608C174.603 24.128 173.815 24.388 172.759 24.388C172.175 24.388 171.619 24.3 171.091 24.124C170.571 23.956 170.147 23.72 169.819 23.416L170.251 22.768C170.555 23.04 170.923 23.252 171.355 23.404C171.795 23.556 172.255 23.632 172.735 23.632C173.535 23.632 174.123 23.444 174.499 23.068C174.875 22.7 175.063 22.124 175.063 21.34V20.536C174.799 20.936 174.451 21.24 174.019 21.448C173.595 21.656 173.123 21.76 172.603 21.76C172.011 21.76 171.471 21.632 170.983 21.376C170.503 21.112 170.123 20.748 169.843 20.284C169.571 19.812 169.435 19.28 169.435 18.688C169.435 18.096 169.571 17.568 169.843 17.104C170.123 16.64 170.503 16.28 170.983 16.024C171.463 15.768 172.003 15.64 172.603 15.64C173.139 15.64 173.623 15.748 174.055 15.964C174.487 16.18 174.835 16.492 175.099 16.9V15.688H175.915ZM172.687 21.004C173.143 21.004 173.555 20.908 173.923 20.716C174.291 20.516 174.575 20.24 174.775 19.888C174.983 19.536 175.087 19.136 175.087 18.688C175.087 18.24 174.983 17.844 174.775 17.5C174.575 17.148 174.291 16.876 173.923 16.684C173.563 16.484 173.151 16.384 172.687 16.384C172.231 16.384 171.819 16.48 171.451 16.672C171.091 16.864 170.807 17.136 170.599 17.488C170.399 17.84 170.299 18.24 170.299 18.688C170.299 19.136 170.399 19.536 170.599 19.888C170.807 20.24 171.091 20.516 171.451 20.716C171.819 20.908 172.231 21.004 172.687 21.004ZM179.113 16.924C179.313 16.5 179.609 16.18 180.001 15.964C180.401 15.748 180.893 15.64 181.477 15.64V16.468L181.273 16.456C180.609 16.456 180.089 16.66 179.713 17.068C179.337 17.476 179.149 18.048 179.149 18.784V22H178.297V15.688H179.113V16.924ZM183.02 15.688H183.872V22H183.02V15.688ZM183.452 14.308C183.276 14.308 183.128 14.248 183.008 14.128C182.888 14.008 182.828 13.864 182.828 13.696C182.828 13.536 182.888 13.396 183.008 13.276C183.128 13.156 183.276 13.096 183.452 13.096C183.628 13.096 183.776 13.156 183.896 13.276C184.016 13.388 184.076 13.524 184.076 13.684C184.076 13.86 184.016 14.008 183.896 14.128C183.776 14.248 183.628 14.308 183.452 14.308ZM188.859 22.06C188.235 22.06 187.675 21.924 187.179 21.652C186.691 21.38 186.307 21 186.027 20.512C185.747 20.016 185.607 19.46 185.607 18.844C185.607 18.228 185.747 17.676 186.027 17.188C186.307 16.7 186.691 16.32 187.179 16.048C187.675 15.776 188.235 15.64 188.859 15.64C189.403 15.64 189.887 15.748 190.311 15.964C190.743 16.172 191.083 16.48 191.331 16.888L190.695 17.32C190.487 17.008 190.223 16.776 189.903 16.624C189.583 16.464 189.235 16.384 188.859 16.384C188.403 16.384 187.991 16.488 187.623 16.696C187.263 16.896 186.979 17.184 186.771 17.56C186.571 17.936 186.471 18.364 186.471 18.844C186.471 19.332 186.571 19.764 186.771 20.14C186.979 20.508 187.263 20.796 187.623 21.004C187.991 21.204 188.403 21.304 188.859 21.304C189.235 21.304 189.583 21.228 189.903 21.076C190.223 20.924 190.487 20.692 190.695 20.38L191.331 20.812C191.083 21.22 190.743 21.532 190.311 21.748C189.879 21.956 189.395 22.06 188.859 22.06ZM198.692 15.688V22H197.876V20.848C197.652 21.232 197.344 21.532 196.952 21.748C196.56 21.956 196.112 22.06 195.608 22.06C194.784 22.06 194.132 21.832 193.652 21.376C193.18 20.912 192.944 20.236 192.944 19.348V15.688H193.796V19.264C193.796 19.928 193.96 20.432 194.288 20.776C194.616 21.12 195.084 21.292 195.692 21.292C196.356 21.292 196.88 21.092 197.264 20.692C197.648 20.284 197.84 19.72 197.84 19V15.688H198.692ZM201.079 13.096H201.931V22H201.079V13.096ZM207.649 21.616C207.489 21.76 207.289 21.872 207.049 21.952C206.817 22.024 206.573 22.06 206.317 22.06C205.725 22.06 205.269 21.9 204.949 21.58C204.629 21.26 204.469 20.808 204.469 20.224V16.408H203.341V15.688H204.469V14.308H205.321V15.688H207.241V16.408H205.321V20.176C205.321 20.552 205.413 20.84 205.597 21.04C205.789 21.232 206.061 21.328 206.413 21.328C206.589 21.328 206.757 21.3 206.917 21.244C207.085 21.188 207.229 21.108 207.349 21.004L207.649 21.616ZM214.888 15.688V22H214.072V20.848C213.848 21.232 213.54 21.532 213.148 21.748C212.756 21.956 212.308 22.06 211.804 22.06C210.98 22.06 210.328 21.832 209.848 21.376C209.376 20.912 209.14 20.236 209.14 19.348V15.688H209.992V19.264C209.992 19.928 210.156 20.432 210.484 20.776C210.812 21.12 211.28 21.292 211.888 21.292C212.552 21.292 213.076 21.092 213.46 20.692C213.844 20.284 214.036 19.72 214.036 19V15.688H214.888ZM218.09 16.924C218.29 16.5 218.586 16.18 218.978 15.964C219.378 15.748 219.87 15.64 220.454 15.64V16.468L220.25 16.456C219.586 16.456 219.066 16.66 218.69 17.068C218.314 17.476 218.126 18.048 218.126 18.784V22H217.274V15.688H218.09V16.924ZM227.434 19.108H222.154C222.202 19.764 222.454 20.296 222.91 20.704C223.366 21.104 223.942 21.304 224.638 21.304C225.03 21.304 225.39 21.236 225.718 21.1C226.046 20.956 226.33 20.748 226.57 20.476L227.05 21.028C226.77 21.364 226.418 21.62 225.994 21.796C225.578 21.972 225.118 22.06 224.614 22.06C223.966 22.06 223.39 21.924 222.886 21.652C222.39 21.372 222.002 20.988 221.722 20.5C221.442 20.012 221.302 19.46 221.302 18.844C221.302 18.228 221.434 17.676 221.698 17.188C221.97 16.7 222.338 16.32 222.802 16.048C223.274 15.776 223.802 15.64 224.386 15.64C224.97 15.64 225.494 15.776 225.958 16.048C226.422 16.32 226.786 16.7 227.05 17.188C227.314 17.668 227.446 18.22 227.446 18.844L227.434 19.108ZM224.386 16.372C223.778 16.372 223.266 16.568 222.85 16.96C222.442 17.344 222.21 17.848 222.154 18.472H226.63C226.574 17.848 226.338 17.344 225.922 16.96C225.514 16.568 225.002 16.372 224.386 16.372ZM236.173 22.072C235.341 22.072 234.585 21.888 233.905 21.52C233.233 21.144 232.705 20.632 232.321 19.984C231.945 19.336 231.757 18.608 231.757 17.8C231.757 16.992 231.945 16.264 232.321 15.616C232.705 14.968 233.233 14.46 233.905 14.092C234.585 13.716 235.341 13.528 236.173 13.528C237.005 13.528 237.753 13.712 238.417 14.08C239.089 14.448 239.617 14.96 240.001 15.616C240.385 16.264 240.577 16.992 240.577 17.8C240.577 18.608 240.385 19.34 240.001 19.996C239.617 20.644 239.089 21.152 238.417 21.52C237.753 21.888 237.005 22.072 236.173 22.072ZM236.173 21.28C236.837 21.28 237.437 21.132 237.973 20.836C238.509 20.532 238.929 20.116 239.233 19.588C239.537 19.052 239.689 18.456 239.689 17.8C239.689 17.144 239.537 16.552 239.233 16.024C238.929 15.488 238.509 15.072 237.973 14.776C237.437 14.472 236.837 14.32 236.173 14.32C235.509 14.32 234.905 14.472 234.361 14.776C233.825 15.072 233.401 15.488 233.089 16.024C232.785 16.552 232.633 17.144 232.633 17.8C232.633 18.456 232.785 19.052 233.089 19.588C233.401 20.116 233.825 20.532 234.361 20.836C234.905 21.132 235.509 21.28 236.173 21.28ZM243.203 16.924C243.403 16.5 243.699 16.18 244.091 15.964C244.491 15.748 244.983 15.64 245.567 15.64V16.468L245.363 16.456C244.699 16.456 244.179 16.66 243.803 17.068C243.427 17.476 243.239 18.048 243.239 18.784V22H242.387V15.688H243.203V16.924ZM252.895 15.688V21.232C252.895 22.304 252.631 23.096 252.103 23.608C251.583 24.128 250.795 24.388 249.739 24.388C249.155 24.388 248.599 24.3 248.071 24.124C247.551 23.956 247.127 23.72 246.799 23.416L247.231 22.768C247.535 23.04 247.903 23.252 248.335 23.404C248.775 23.556 249.235 23.632 249.715 23.632C250.515 23.632 251.103 23.444 251.479 23.068C251.855 22.7 252.043 22.124 252.043 21.34V20.536C251.779 20.936 251.431 21.24 250.999 21.448C250.575 21.656 250.103 21.76 249.583 21.76C248.991 21.76 248.451 21.632 247.963 21.376C247.483 21.112 247.103 20.748 246.823 20.284C246.551 19.812 246.415 19.28 246.415 18.688C246.415 18.096 246.551 17.568 246.823 17.104C247.103 16.64 247.483 16.28 247.963 16.024C248.443 15.768 248.983 15.64 249.583 15.64C250.119 15.64 250.603 15.748 251.035 15.964C251.467 16.18 251.815 16.492 252.079 16.9V15.688H252.895ZM249.667 21.004C250.123 21.004 250.535 20.908 250.903 20.716C251.271 20.516 251.555 20.24 251.755 19.888C251.963 19.536 252.067 19.136 252.067 18.688C252.067 18.24 251.963 17.844 251.755 17.5C251.555 17.148 251.271 16.876 250.903 16.684C250.543 16.484 250.131 16.384 249.667 16.384C249.211 16.384 248.799 16.48 248.431 16.672C248.071 16.864 247.787 17.136 247.579 17.488C247.379 17.84 247.279 18.24 247.279 18.688C247.279 19.136 247.379 19.536 247.579 19.888C247.787 20.24 248.071 20.516 248.431 20.716C248.799 20.908 249.211 21.004 249.667 21.004ZM257.486 15.64C258.31 15.64 258.942 15.848 259.382 16.264C259.822 16.672 260.042 17.28 260.042 18.088V22H259.226V21.016C259.034 21.344 258.75 21.6 258.374 21.784C258.006 21.968 257.566 22.06 257.054 22.06C256.35 22.06 255.79 21.892 255.374 21.556C254.958 21.22 254.75 20.776 254.75 20.224C254.75 19.688 254.942 19.256 255.326 18.928C255.718 18.6 256.338 18.436 257.186 18.436H259.19V18.052C259.19 17.508 259.038 17.096 258.734 16.816C258.43 16.528 257.986 16.384 257.402 16.384C257.002 16.384 256.618 16.452 256.25 16.588C255.882 16.716 255.566 16.896 255.302 17.128L254.918 16.492C255.238 16.22 255.622 16.012 256.07 15.868C256.518 15.716 256.99 15.64 257.486 15.64ZM257.186 21.388C257.666 21.388 258.078 21.28 258.422 21.064C258.766 20.84 259.022 20.52 259.19 20.104V19.072H257.21C256.13 19.072 255.59 19.448 255.59 20.2C255.59 20.568 255.73 20.86 256.01 21.076C256.29 21.284 256.682 21.388 257.186 21.388ZM265.572 15.64C266.364 15.64 266.992 15.872 267.456 16.336C267.928 16.792 268.164 17.46 268.164 18.34V22H267.312V18.424C267.312 17.768 267.148 17.268 266.82 16.924C266.492 16.58 266.024 16.408 265.416 16.408C264.736 16.408 264.196 16.612 263.796 17.02C263.404 17.42 263.208 17.976 263.208 18.688V22H262.356V15.688H263.172V16.852C263.404 16.468 263.724 16.172 264.132 15.964C264.548 15.748 265.028 15.64 265.572 15.64ZM270.477 15.688H271.329V22H270.477V15.688ZM270.909 14.308C270.733 14.308 270.585 14.248 270.465 14.128C270.345 14.008 270.285 13.864 270.285 13.696C270.285 13.536 270.345 13.396 270.465 13.276C270.585 13.156 270.733 13.096 270.909 13.096C271.085 13.096 271.233 13.156 271.353 13.276C271.473 13.388 271.533 13.524 271.533 13.684C271.533 13.86 271.473 14.008 271.353 14.128C271.233 14.248 271.085 14.308 270.909 14.308ZM278.152 21.292V22H273.016V21.436L276.988 16.408H273.088V15.688H278.08V16.252L274.108 21.292H278.152ZM282.037 15.64C282.861 15.64 283.493 15.848 283.933 16.264C284.373 16.672 284.593 17.28 284.593 18.088V22H283.777V21.016C283.585 21.344 283.301 21.6 282.925 21.784C282.557 21.968 282.117 22.06 281.605 22.06C280.901 22.06 280.341 21.892 279.925 21.556C279.509 21.22 279.301 20.776 279.301 20.224C279.301 19.688 279.493 19.256 279.877 18.928C280.269 18.6 280.889 18.436 281.737 18.436H283.741V18.052C283.741 17.508 283.589 17.096 283.285 16.816C282.981 16.528 282.537 16.384 281.953 16.384C281.553 16.384 281.169 16.452 280.801 16.588C280.433 16.716 280.117 16.896 279.853 17.128L279.469 16.492C279.789 16.22 280.173 16.012 280.621 15.868C281.069 15.716 281.541 15.64 282.037 15.64ZM281.737 21.388C282.217 21.388 282.629 21.28 282.973 21.064C283.317 20.84 283.573 20.52 283.741 20.104V19.072H281.761C280.681 19.072 280.141 19.448 280.141 20.2C280.141 20.568 280.281 20.86 280.561 21.076C280.841 21.284 281.233 21.388 281.737 21.388ZM290.231 21.616C290.071 21.76 289.871 21.872 289.631 21.952C289.399 22.024 289.155 22.06 288.899 22.06C288.307 22.06 287.851 21.9 287.531 21.58C287.211 21.26 287.051 20.808 287.051 20.224V16.408H285.923V15.688H287.051V14.308H287.903V15.688H289.823V16.408H287.903V20.176C287.903 20.552 287.995 20.84 288.179 21.04C288.371 21.232 288.643 21.328 288.995 21.328C289.171 21.328 289.339 21.3 289.499 21.244C289.667 21.188 289.811 21.108 289.931 21.004L290.231 21.616ZM291.782 15.688H292.634V22H291.782V15.688ZM292.214 14.308C292.038 14.308 291.89 14.248 291.77 14.128C291.65 14.008 291.59 13.864 291.59 13.696C291.59 13.536 291.65 13.396 291.77 13.276C291.89 13.156 292.038 13.096 292.214 13.096C292.39 13.096 292.538 13.156 292.658 13.276C292.778 13.388 292.838 13.524 292.838 13.684C292.838 13.86 292.778 14.008 292.658 14.128C292.538 14.248 292.39 14.308 292.214 14.308ZM297.584 22.06C296.976 22.06 296.428 21.924 295.94 21.652C295.452 21.372 295.068 20.988 294.788 20.5C294.508 20.012 294.368 19.46 294.368 18.844C294.368 18.228 294.508 17.676 294.788 17.188C295.068 16.7 295.452 16.32 295.94 16.048C296.428 15.776 296.976 15.64 297.584 15.64C298.192 15.64 298.74 15.776 299.228 16.048C299.716 16.32 300.096 16.7 300.368 17.188C300.648 17.676 300.788 18.228 300.788 18.844C300.788 19.46 300.648 20.012 300.368 20.5C300.096 20.988 299.716 21.372 299.228 21.652C298.74 21.924 298.192 22.06 297.584 22.06ZM297.584 21.304C298.032 21.304 298.432 21.204 298.784 21.004C299.144 20.796 299.424 20.504 299.624 20.128C299.824 19.752 299.924 19.324 299.924 18.844C299.924 18.364 299.824 17.936 299.624 17.56C299.424 17.184 299.144 16.896 298.784 16.696C298.432 16.488 298.032 16.384 297.584 16.384C297.136 16.384 296.732 16.488 296.372 16.696C296.02 16.896 295.74 17.184 295.532 17.56C295.332 17.936 295.232 18.364 295.232 18.844C295.232 19.324 295.332 19.752 295.532 20.128C295.74 20.504 296.02 20.796 296.372 21.004C296.732 21.204 297.136 21.304 297.584 21.304ZM305.744 15.64C306.536 15.64 307.164 15.872 307.628 16.336C308.1 16.792 308.336 17.46 308.336 18.34V22H307.484V18.424C307.484 17.768 307.32 17.268 306.992 16.924C306.664 16.58 306.196 16.408 305.588 16.408C304.908 16.408 304.368 16.612 303.968 17.02C303.576 17.42 303.38 17.976 303.38 18.688V22H302.528V15.688H303.344V16.852C303.576 16.468 303.896 16.172 304.304 15.964C304.72 15.748 305.2 15.64 305.744 15.64ZM315.242 24.328C314.794 23.592 314.45 22.748 314.21 21.796C313.97 20.836 313.85 19.808 313.85 18.712C313.85 17.616 313.97 16.588 314.21 15.628C314.45 14.66 314.794 13.816 315.242 13.096H316.058C315.586 13.904 315.238 14.772 315.014 15.7C314.798 16.628 314.69 17.632 314.69 18.712C314.69 19.792 314.798 20.796 315.014 21.724C315.238 22.652 315.586 23.52 316.058 24.328H315.242ZM318.807 14.368V17.668H323.151V18.436H318.807V22H317.919V13.6H323.679V14.368H318.807ZM330.382 19.756H325.702L324.694 22H323.77L327.61 13.6H328.486L332.326 22H331.39L330.382 19.756ZM330.058 19.036L328.042 14.524L326.026 19.036H330.058ZM337.27 22.072C336.438 22.072 335.682 21.888 335.002 21.52C334.33 21.144 333.802 20.632 333.418 19.984C333.042 19.336 332.854 18.608 332.854 17.8C332.854 16.992 333.042 16.264 333.418 15.616C333.802 14.968 334.33 14.46 335.002 14.092C335.682 13.716 336.438 13.528 337.27 13.528C338.102 13.528 338.85 13.712 339.514 14.08C340.186 14.448 340.714 14.96 341.098 15.616C341.482 16.264 341.674 16.992 341.674 17.8C341.674 18.608 341.482 19.34 341.098 19.996C340.714 20.644 340.186 21.152 339.514 21.52C338.85 21.888 338.102 22.072 337.27 22.072ZM337.27 21.28C337.934 21.28 338.534 21.132 339.07 20.836C339.606 20.532 340.026 20.116 340.33 19.588C340.634 19.052 340.786 18.456 340.786 17.8C340.786 17.144 340.634 16.552 340.33 16.024C340.026 15.488 339.606 15.072 339.07 14.776C338.534 14.472 337.934 14.32 337.27 14.32C336.606 14.32 336.002 14.472 335.458 14.776C334.922 15.072 334.498 15.488 334.186 16.024C333.882 16.552 333.73 17.144 333.73 17.8C333.73 18.456 333.882 19.052 334.186 19.588C334.498 20.116 334.922 20.532 335.458 20.836C336.002 21.132 336.606 21.28 337.27 21.28ZM342.953 24.328C343.425 23.52 343.773 22.656 343.997 21.736C344.221 20.808 344.333 19.8 344.333 18.712C344.333 17.624 344.221 16.62 343.997 15.7C343.773 14.772 343.425 13.904 342.953 13.096H343.769C344.217 13.816 344.561 14.66 344.801 15.628C345.049 16.588 345.173 17.616 345.173 18.712C345.173 19.808 345.053 20.836 344.813 21.796C344.573 22.756 344.225 23.6 343.769 24.328H342.953Z" fill="#F2F2F2"/>
<path d="M28.4611 56.32C26.3144 56.32 24.6411 55.74 23.4411 54.58C22.2411 53.42 21.6411 51.7933 21.6411 49.7V42H26.3611V49.56C26.3611 50.5867 26.5411 51.3333 26.9011 51.8C27.2744 52.2667 27.8078 52.5 28.5011 52.5C29.1944 52.5 29.7211 52.2667 30.0811 51.8C30.4544 51.3333 30.6411 50.5867 30.6411 49.56V42H35.2811V49.7C35.2811 51.7933 34.6811 53.42 33.4811 54.58C32.2811 55.74 30.6078 56.32 28.4611 56.32ZM51.2447 42V56H47.3647L42.0447 49.64V56H37.4447V42H41.3247L46.6447 48.36V42H51.2447ZM12.9369 76.48H11.6569V80H6.93688V66H13.6769C14.9702 66 16.0969 66.2133 17.0569 66.64C18.0169 67.0667 18.7569 67.68 19.2769 68.48C19.7969 69.28 20.0569 70.2133 20.0569 71.28C20.0569 72.28 19.8302 73.1533 19.3769 73.9C18.9235 74.6467 18.2702 75.24 17.4169 75.68L20.3569 80H15.3169L12.9369 76.48ZM15.2969 71.28C15.2969 70.76 15.1369 70.36 14.8169 70.08C14.4969 69.7867 14.0169 69.64 13.3769 69.64H11.6569V72.92H13.3769C14.0169 72.92 14.4969 72.78 14.8169 72.5C15.1369 72.2067 15.2969 71.8 15.2969 71.28ZM33.4792 76.44V80H21.8392V66H33.2192V69.56H26.4792V71.2H32.3992V74.6H26.4792V76.44H33.4792ZM35.2963 66H42.1963C43.7563 66 45.1296 66.2867 46.3163 66.86C47.5163 67.42 48.4429 68.2267 49.0963 69.28C49.7629 70.3333 50.0963 71.5733 50.0963 73C50.0963 74.4267 49.7629 75.6667 49.0963 76.72C48.4429 77.7733 47.5163 78.5867 46.3163 79.16C45.1296 79.72 43.7563 80 42.1963 80H35.2963V66ZM41.9963 76.32C43.0096 76.32 43.8163 76.0333 44.4163 75.46C45.0296 74.8733 45.3363 74.0533 45.3363 73C45.3363 71.9467 45.0296 71.1333 44.4163 70.56C43.8163 69.9733 43.0096 69.68 41.9963 69.68H40.0163V76.32H41.9963ZM51.8197 66H58.7197C60.2797 66 61.653 66.2867 62.8397 66.86C64.0397 67.42 64.9664 68.2267 65.6197 69.28C66.2864 70.3333 66.6197 71.5733 66.6197 73C66.6197 74.4267 66.2864 75.6667 65.6197 76.72C64.9664 77.7733 64.0397 78.5867 62.8397 79.16C61.653 79.72 60.2797 80 58.7197 80H51.8197V66ZM58.5197 76.32C59.533 76.32 60.3397 76.0333 60.9397 75.46C61.553 74.8733 61.8597 74.0533 61.8597 73C61.8597 71.9467 61.553 71.1333 60.9397 70.56C60.3397 69.9733 59.533 69.68 58.5197 69.68H56.5397V76.32H58.5197Z" fill="#F2F2F2"/>
<path d="M104.752 63.072C103.664 63.072 102.816 62.76 102.208 62.136C101.6 61.512 101.296 60.604 101.296 59.412V54.6H102.184V59.376C102.184 60.352 102.404 61.08 102.844 61.56C103.284 62.04 103.92 62.28 104.752 62.28C105.592 62.28 106.232 62.04 106.672 61.56C107.112 61.08 107.332 60.352 107.332 59.376V54.6H108.196V59.412C108.196 60.604 107.892 61.512 107.284 62.136C106.684 62.76 105.84 63.072 104.752 63.072ZM113.908 56.64C114.7 56.64 115.328 56.872 115.792 57.336C116.264 57.792 116.5 58.46 116.5 59.34V63H115.648V59.424C115.648 58.768 115.484 58.268 115.156 57.924C114.828 57.58 114.36 57.408 113.752 57.408C113.072 57.408 112.532 57.612 112.132 58.02C111.74 58.42 111.544 58.976 111.544 59.688V63H110.692V56.688H111.508V57.852C111.74 57.468 112.06 57.172 112.468 56.964C112.884 56.748 113.364 56.64 113.908 56.64ZM118.813 56.688H119.665V63H118.813V56.688ZM119.245 55.308C119.069 55.308 118.921 55.248 118.801 55.128C118.681 55.008 118.621 54.864 118.621 54.696C118.621 54.536 118.681 54.396 118.801 54.276C118.921 54.156 119.069 54.096 119.245 54.096C119.421 54.096 119.569 54.156 119.689 54.276C119.809 54.388 119.869 54.524 119.869 54.684C119.869 54.86 119.809 55.008 119.689 55.128C119.569 55.248 119.421 55.308 119.245 55.308ZM125.36 62.616C125.2 62.76 125 62.872 124.76 62.952C124.528 63.024 124.284 63.06 124.028 63.06C123.436 63.06 122.98 62.9 122.66 62.58C122.34 62.26 122.18 61.808 122.18 61.224V57.408H121.052V56.688H122.18V55.308H123.032V56.688H124.952V57.408H123.032V61.176C123.032 61.552 123.124 61.84 123.308 62.04C123.5 62.232 123.772 62.328 124.124 62.328C124.3 62.328 124.468 62.3 124.628 62.244C124.796 62.188 124.94 62.108 125.06 62.004L125.36 62.616ZM132.184 60.108H126.904C126.952 60.764 127.204 61.296 127.66 61.704C128.116 62.104 128.692 62.304 129.388 62.304C129.78 62.304 130.14 62.236 130.468 62.1C130.796 61.956 131.08 61.748 131.32 61.476L131.8 62.028C131.52 62.364 131.168 62.62 130.744 62.796C130.328 62.972 129.868 63.06 129.364 63.06C128.716 63.06 128.14 62.924 127.636 62.652C127.14 62.372 126.752 61.988 126.472 61.5C126.192 61.012 126.052 60.46 126.052 59.844C126.052 59.228 126.184 58.676 126.448 58.188C126.72 57.7 127.088 57.32 127.552 57.048C128.024 56.776 128.552 56.64 129.136 56.64C129.72 56.64 130.244 56.776 130.708 57.048C131.172 57.32 131.536 57.7 131.8 58.188C132.064 58.668 132.196 59.22 132.196 59.844L132.184 60.108ZM129.136 57.372C128.528 57.372 128.016 57.568 127.6 57.96C127.192 58.344 126.96 58.848 126.904 59.472H131.38C131.324 58.848 131.088 58.344 130.672 57.96C130.264 57.568 129.752 57.372 129.136 57.372ZM139.69 54.096V63H138.874V61.752C138.618 62.176 138.278 62.5 137.854 62.724C137.438 62.948 136.966 63.06 136.438 63.06C135.846 63.06 135.31 62.924 134.83 62.652C134.35 62.38 133.974 62 133.702 61.512C133.43 61.024 133.294 60.468 133.294 59.844C133.294 59.22 133.43 58.664 133.702 58.176C133.974 57.688 134.35 57.312 134.83 57.048C135.31 56.776 135.846 56.64 136.438 56.64C136.95 56.64 137.41 56.748 137.818 56.964C138.234 57.172 138.574 57.48 138.838 57.888V54.096H139.69ZM136.51 62.304C136.95 62.304 137.346 62.204 137.698 62.004C138.058 61.796 138.338 61.504 138.538 61.128C138.746 60.752 138.85 60.324 138.85 59.844C138.85 59.364 138.746 58.936 138.538 58.56C138.338 58.184 138.058 57.896 137.698 57.696C137.346 57.488 136.95 57.384 136.51 57.384C136.062 57.384 135.658 57.488 135.298 57.696C134.946 57.896 134.666 58.184 134.458 58.56C134.258 58.936 134.158 59.364 134.158 59.844C134.158 60.324 134.258 60.752 134.458 61.128C134.666 61.504 134.946 61.796 135.298 62.004C135.658 62.204 136.062 62.304 136.51 62.304ZM152.404 54.6V63H151.672L146.272 56.184V63H145.384V54.6H146.116L151.528 61.416V54.6H152.404ZM157.173 56.64C157.997 56.64 158.629 56.848 159.069 57.264C159.509 57.672 159.729 58.28 159.729 59.088V63H158.913V62.016C158.721 62.344 158.437 62.6 158.061 62.784C157.693 62.968 157.253 63.06 156.741 63.06C156.037 63.06 155.477 62.892 155.061 62.556C154.645 62.22 154.437 61.776 154.437 61.224C154.437 60.688 154.629 60.256 155.013 59.928C155.405 59.6 156.025 59.436 156.873 59.436H158.877V59.052C158.877 58.508 158.725 58.096 158.421 57.816C158.117 57.528 157.673 57.384 157.089 57.384C156.689 57.384 156.305 57.452 155.937 57.588C155.569 57.716 155.253 57.896 154.989 58.128L154.605 57.492C154.925 57.22 155.309 57.012 155.757 56.868C156.205 56.716 156.677 56.64 157.173 56.64ZM156.873 62.388C157.353 62.388 157.765 62.28 158.109 62.064C158.453 61.84 158.709 61.52 158.877 61.104V60.072H156.897C155.817 60.072 155.277 60.448 155.277 61.2C155.277 61.568 155.417 61.86 155.697 62.076C155.977 62.284 156.369 62.388 156.873 62.388ZM165.367 62.616C165.207 62.76 165.007 62.872 164.767 62.952C164.535 63.024 164.291 63.06 164.035 63.06C163.443 63.06 162.987 62.9 162.667 62.58C162.347 62.26 162.187 61.808 162.187 61.224V57.408H161.059V56.688H162.187V55.308H163.039V56.688H164.959V57.408H163.039V61.176C163.039 61.552 163.131 61.84 163.315 62.04C163.507 62.232 163.779 62.328 164.131 62.328C164.307 62.328 164.475 62.3 164.635 62.244C164.803 62.188 164.947 62.108 165.067 62.004L165.367 62.616ZM166.918 56.688H167.77V63H166.918V56.688ZM167.35 55.308C167.174 55.308 167.026 55.248 166.906 55.128C166.786 55.008 166.726 54.864 166.726 54.696C166.726 54.536 166.786 54.396 166.906 54.276C167.026 54.156 167.174 54.096 167.35 54.096C167.526 54.096 167.674 54.156 167.794 54.276C167.914 54.388 167.974 54.524 167.974 54.684C167.974 54.86 167.914 55.008 167.794 55.128C167.674 55.248 167.526 55.308 167.35 55.308ZM172.721 63.06C172.113 63.06 171.565 62.924 171.077 62.652C170.589 62.372 170.205 61.988 169.925 61.5C169.645 61.012 169.505 60.46 169.505 59.844C169.505 59.228 169.645 58.676 169.925 58.188C170.205 57.7 170.589 57.32 171.077 57.048C171.565 56.776 172.113 56.64 172.721 56.64C173.329 56.64 173.877 56.776 174.365 57.048C174.853 57.32 175.233 57.7 175.505 58.188C175.785 58.676 175.925 59.228 175.925 59.844C175.925 60.46 175.785 61.012 175.505 61.5C175.233 61.988 174.853 62.372 174.365 62.652C173.877 62.924 173.329 63.06 172.721 63.06ZM172.721 62.304C173.169 62.304 173.569 62.204 173.921 62.004C174.281 61.796 174.561 61.504 174.761 61.128C174.961 60.752 175.061 60.324 175.061 59.844C175.061 59.364 174.961 58.936 174.761 58.56C174.561 58.184 174.281 57.896 173.921 57.696C173.569 57.488 173.169 57.384 172.721 57.384C172.273 57.384 171.869 57.488 171.509 57.696C171.157 57.896 170.877 58.184 170.669 58.56C170.469 58.936 170.369 59.364 170.369 59.844C170.369 60.324 170.469 60.752 170.669 61.128C170.877 61.504 171.157 61.796 171.509 62.004C171.869 62.204 172.273 62.304 172.721 62.304ZM180.881 56.64C181.673 56.64 182.301 56.872 182.765 57.336C183.237 57.792 183.473 58.46 183.473 59.34V63H182.621V59.424C182.621 58.768 182.457 58.268 182.129 57.924C181.801 57.58 181.333 57.408 180.725 57.408C180.045 57.408 179.505 57.612 179.105 58.02C178.713 58.42 178.517 58.976 178.517 59.688V63H177.665V56.688H178.481V57.852C178.713 57.468 179.033 57.172 179.441 56.964C179.857 56.748 180.337 56.64 180.881 56.64ZM187.478 63.06C186.966 63.06 186.474 62.988 186.002 62.844C185.538 62.692 185.174 62.504 184.91 62.28L185.294 61.608C185.558 61.816 185.89 61.988 186.29 62.124C186.69 62.252 187.106 62.316 187.538 62.316C188.114 62.316 188.538 62.228 188.81 62.052C189.09 61.868 189.23 61.612 189.23 61.284C189.23 61.052 189.154 60.872 189.002 60.744C188.85 60.608 188.658 60.508 188.426 60.444C188.194 60.372 187.886 60.304 187.502 60.24C186.99 60.144 186.578 60.048 186.266 59.952C185.954 59.848 185.686 59.676 185.462 59.436C185.246 59.196 185.138 58.864 185.138 58.44C185.138 57.912 185.358 57.48 185.798 57.144C186.238 56.808 186.85 56.64 187.634 56.64C188.042 56.64 188.45 56.696 188.858 56.808C189.266 56.912 189.602 57.052 189.866 57.228L189.494 57.912C188.974 57.552 188.354 57.372 187.634 57.372C187.09 57.372 186.678 57.468 186.398 57.66C186.126 57.852 185.99 58.104 185.99 58.416C185.99 58.656 186.066 58.848 186.218 58.992C186.378 59.136 186.574 59.244 186.806 59.316C187.038 59.38 187.358 59.448 187.766 59.52C188.27 59.616 188.674 59.712 188.978 59.808C189.282 59.904 189.542 60.068 189.758 60.3C189.974 60.532 190.082 60.852 190.082 61.26C190.082 61.812 189.85 62.252 189.386 62.58C188.93 62.9 188.294 63.06 187.478 63.06ZM194.977 54.6H198.397C199.285 54.6 200.069 54.78 200.749 55.14C201.429 55.492 201.957 55.988 202.333 56.628C202.709 57.26 202.897 57.984 202.897 58.8C202.897 59.616 202.709 60.344 202.333 60.984C201.957 61.616 201.429 62.112 200.749 62.472C200.069 62.824 199.285 63 198.397 63H194.977V54.6ZM198.349 62.232C199.085 62.232 199.729 62.088 200.281 61.8C200.833 61.504 201.261 61.1 201.565 60.588C201.869 60.068 202.021 59.472 202.021 58.8C202.021 58.128 201.869 57.536 201.565 57.024C201.261 56.504 200.833 56.1 200.281 55.812C199.729 55.516 199.085 55.368 198.349 55.368H195.865V62.232H198.349ZM210.207 60.108H204.927C204.975 60.764 205.227 61.296 205.683 61.704C206.139 62.104 206.715 62.304 207.411 62.304C207.803 62.304 208.163 62.236 208.491 62.1C208.819 61.956 209.103 61.748 209.343 61.476L209.823 62.028C209.543 62.364 209.191 62.62 208.767 62.796C208.351 62.972 207.891 63.06 207.387 63.06C206.739 63.06 206.163 62.924 205.659 62.652C205.163 62.372 204.775 61.988 204.495 61.5C204.215 61.012 204.075 60.46 204.075 59.844C204.075 59.228 204.207 58.676 204.471 58.188C204.743 57.7 205.111 57.32 205.575 57.048C206.047 56.776 206.575 56.64 207.159 56.64C207.743 56.64 208.267 56.776 208.731 57.048C209.195 57.32 209.559 57.7 209.823 58.188C210.087 58.668 210.219 59.22 210.219 59.844L210.207 60.108ZM207.159 57.372C206.551 57.372 206.039 57.568 205.623 57.96C205.215 58.344 204.983 58.848 204.927 59.472H209.403C209.347 58.848 209.111 58.344 208.695 57.96C208.287 57.568 207.775 57.372 207.159 57.372ZM217.14 56.688L214.332 63H213.456L210.66 56.688H211.548L213.912 62.064L216.3 56.688H217.14ZM223.661 60.108H218.381C218.429 60.764 218.681 61.296 219.137 61.704C219.593 62.104 220.169 62.304 220.865 62.304C221.257 62.304 221.617 62.236 221.945 62.1C222.273 61.956 222.557 61.748 222.797 61.476L223.277 62.028C222.997 62.364 222.645 62.62 222.221 62.796C221.805 62.972 221.345 63.06 220.841 63.06C220.193 63.06 219.617 62.924 219.113 62.652C218.617 62.372 218.229 61.988 217.949 61.5C217.669 61.012 217.529 60.46 217.529 59.844C217.529 59.228 217.661 58.676 217.925 58.188C218.197 57.7 218.565 57.32 219.029 57.048C219.501 56.776 220.029 56.64 220.613 56.64C221.197 56.64 221.721 56.776 222.185 57.048C222.649 57.32 223.013 57.7 223.277 58.188C223.541 58.668 223.673 59.22 223.673 59.844L223.661 60.108ZM220.613 57.372C220.005 57.372 219.493 57.568 219.077 57.96C218.669 58.344 218.437 58.848 218.381 59.472H222.857C222.801 58.848 222.565 58.344 222.149 57.96C221.741 57.568 221.229 57.372 220.613 57.372ZM225.407 54.096H226.259V63H225.407V54.096ZM231.209 63.06C230.601 63.06 230.053 62.924 229.565 62.652C229.077 62.372 228.693 61.988 228.413 61.5C228.133 61.012 227.993 60.46 227.993 59.844C227.993 59.228 228.133 58.676 228.413 58.188C228.693 57.7 229.077 57.32 229.565 57.048C230.053 56.776 230.601 56.64 231.209 56.64C231.817 56.64 232.365 56.776 232.853 57.048C233.341 57.32 233.721 57.7 233.993 58.188C234.273 58.676 234.413 59.228 234.413 59.844C234.413 60.46 234.273 61.012 233.993 61.5C233.721 61.988 233.341 62.372 232.853 62.652C232.365 62.924 231.817 63.06 231.209 63.06ZM231.209 62.304C231.657 62.304 232.057 62.204 232.409 62.004C232.769 61.796 233.049 61.504 233.249 61.128C233.449 60.752 233.549 60.324 233.549 59.844C233.549 59.364 233.449 58.936 233.249 58.56C233.049 58.184 232.769 57.896 232.409 57.696C232.057 57.488 231.657 57.384 231.209 57.384C230.761 57.384 230.357 57.488 229.997 57.696C229.645 57.896 229.365 58.184 229.157 58.56C228.957 58.936 228.857 59.364 228.857 59.844C228.857 60.324 228.957 60.752 229.157 61.128C229.365 61.504 229.645 61.796 229.997 62.004C230.357 62.204 230.761 62.304 231.209 62.304ZM239.405 56.64C239.997 56.64 240.533 56.776 241.013 57.048C241.493 57.312 241.869 57.688 242.141 58.176C242.413 58.664 242.549 59.22 242.549 59.844C242.549 60.476 242.413 61.036 242.141 61.524C241.869 62.012 241.493 62.392 241.013 62.664C240.541 62.928 240.005 63.06 239.405 63.06C238.893 63.06 238.429 62.956 238.013 62.748C237.605 62.532 237.269 62.22 237.005 61.812V65.328H236.153V56.688H236.969V57.936C237.225 57.52 237.561 57.2 237.977 56.976C238.401 56.752 238.877 56.64 239.405 56.64ZM239.345 62.304C239.785 62.304 240.185 62.204 240.545 62.004C240.905 61.796 241.185 61.504 241.385 61.128C241.593 60.752 241.697 60.324 241.697 59.844C241.697 59.364 241.593 58.94 241.385 58.572C241.185 58.196 240.905 57.904 240.545 57.696C240.185 57.488 239.785 57.384 239.345 57.384C238.897 57.384 238.493 57.488 238.133 57.696C237.781 57.904 237.501 58.196 237.293 58.572C237.093 58.94 236.993 59.364 236.993 59.844C236.993 60.324 237.093 60.752 237.293 61.128C237.501 61.504 237.781 61.796 238.133 62.004C238.493 62.204 238.897 62.304 239.345 62.304ZM252.158 56.64C252.95 56.64 253.57 56.868 254.018 57.324C254.474 57.78 254.702 58.452 254.702 59.34V63H253.85V59.424C253.85 58.768 253.69 58.268 253.37 57.924C253.058 57.58 252.614 57.408 252.038 57.408C251.382 57.408 250.866 57.612 250.49 58.02C250.114 58.42 249.926 58.976 249.926 59.688V63H249.074V59.424C249.074 58.768 248.914 58.268 248.594 57.924C248.282 57.58 247.834 57.408 247.25 57.408C246.602 57.408 246.086 57.612 245.702 58.02C245.326 58.42 245.138 58.976 245.138 59.688V63H244.286V56.688H245.102V57.84C245.326 57.456 245.638 57.16 246.038 56.952C246.438 56.744 246.898 56.64 247.418 56.64C247.946 56.64 248.402 56.752 248.786 56.976C249.178 57.2 249.47 57.532 249.662 57.972C249.894 57.556 250.226 57.232 250.658 57C251.098 56.76 251.598 56.64 252.158 56.64ZM262.532 60.108H257.252C257.3 60.764 257.552 61.296 258.008 61.704C258.464 62.104 259.04 62.304 259.736 62.304C260.128 62.304 260.488 62.236 260.816 62.1C261.144 61.956 261.428 61.748 261.668 61.476L262.148 62.028C261.868 62.364 261.516 62.62 261.092 62.796C260.676 62.972 260.216 63.06 259.712 63.06C259.064 63.06 258.488 62.924 257.984 62.652C257.488 62.372 257.1 61.988 256.82 61.5C256.54 61.012 256.4 60.46 256.4 59.844C256.4 59.228 256.532 58.676 256.796 58.188C257.068 57.7 257.436 57.32 257.9 57.048C258.372 56.776 258.9 56.64 259.484 56.64C260.068 56.64 260.592 56.776 261.056 57.048C261.52 57.32 261.884 57.7 262.148 58.188C262.412 58.668 262.544 59.22 262.544 59.844L262.532 60.108ZM259.484 57.372C258.876 57.372 258.364 57.568 257.948 57.96C257.54 58.344 257.308 58.848 257.252 59.472H261.728C261.672 58.848 261.436 58.344 261.02 57.96C260.612 57.568 260.1 57.372 259.484 57.372ZM267.494 56.64C268.286 56.64 268.914 56.872 269.378 57.336C269.85 57.792 270.086 58.46 270.086 59.34V63H269.234V59.424C269.234 58.768 269.07 58.268 268.742 57.924C268.414 57.58 267.946 57.408 267.338 57.408C266.658 57.408 266.118 57.612 265.718 58.02C265.326 58.42 265.13 58.976 265.13 59.688V63H264.278V56.688H265.094V57.852C265.326 57.468 265.646 57.172 266.054 56.964C266.47 56.748 266.95 56.64 267.494 56.64ZM275.723 62.616C275.563 62.76 275.363 62.872 275.123 62.952C274.891 63.024 274.647 63.06 274.391 63.06C273.799 63.06 273.343 62.9 273.023 62.58C272.703 62.26 272.543 61.808 272.543 61.224V57.408H271.415V56.688H272.543V55.308H273.395V56.688H275.315V57.408H273.395V61.176C273.395 61.552 273.487 61.84 273.671 62.04C273.863 62.232 274.135 62.328 274.487 62.328C274.663 62.328 274.831 62.3 274.991 62.244C275.159 62.188 275.303 62.108 275.423 62.004L275.723 62.616ZM283.739 54.6C284.811 54.6 285.651 54.856 286.259 55.368C286.867 55.88 287.171 56.584 287.171 57.48C287.171 58.376 286.867 59.08 286.259 59.592C285.651 60.096 284.811 60.348 283.739 60.348H281.483V63H280.595V54.6H283.739ZM283.715 59.568C284.547 59.568 285.183 59.388 285.623 59.028C286.063 58.66 286.283 58.144 286.283 57.48C286.283 56.8 286.063 56.28 285.623 55.92C285.183 55.552 284.547 55.368 283.715 55.368H281.483V59.568H283.715ZM289.563 57.924C289.763 57.5 290.059 57.18 290.451 56.964C290.851 56.748 291.343 56.64 291.927 56.64V57.468L291.723 57.456C291.059 57.456 290.539 57.66 290.163 58.068C289.787 58.476 289.599 59.048 289.599 59.784V63H288.747V56.688H289.563V57.924ZM295.991 63.06C295.383 63.06 294.835 62.924 294.347 62.652C293.859 62.372 293.475 61.988 293.195 61.5C292.915 61.012 292.775 60.46 292.775 59.844C292.775 59.228 292.915 58.676 293.195 58.188C293.475 57.7 293.859 57.32 294.347 57.048C294.835 56.776 295.383 56.64 295.991 56.64C296.599 56.64 297.147 56.776 297.635 57.048C298.123 57.32 298.503 57.7 298.775 58.188C299.055 58.676 299.195 59.228 299.195 59.844C299.195 60.46 299.055 61.012 298.775 61.5C298.503 61.988 298.123 62.372 297.635 62.652C297.147 62.924 296.599 63.06 295.991 63.06ZM295.991 62.304C296.439 62.304 296.839 62.204 297.191 62.004C297.551 61.796 297.831 61.504 298.031 61.128C298.231 60.752 298.331 60.324 298.331 59.844C298.331 59.364 298.231 58.936 298.031 58.56C297.831 58.184 297.551 57.896 297.191 57.696C296.839 57.488 296.439 57.384 295.991 57.384C295.543 57.384 295.139 57.488 294.779 57.696C294.427 57.896 294.147 58.184 293.939 58.56C293.739 58.936 293.639 59.364 293.639 59.844C293.639 60.324 293.739 60.752 293.939 61.128C294.147 61.504 294.427 61.796 294.779 62.004C295.139 62.204 295.543 62.304 295.991 62.304ZM306.778 56.688V62.232C306.778 63.304 306.514 64.096 305.986 64.608C305.466 65.128 304.678 65.388 303.622 65.388C303.038 65.388 302.482 65.3 301.954 65.124C301.434 64.956 301.01 64.72 300.682 64.416L301.114 63.768C301.418 64.04 301.786 64.252 302.218 64.404C302.658 64.556 303.118 64.632 303.598 64.632C304.398 64.632 304.986 64.444 305.362 64.068C305.738 63.7 305.926 63.124 305.926 62.34V61.536C305.662 61.936 305.314 62.24 304.882 62.448C304.458 62.656 303.986 62.76 303.466 62.76C302.874 62.76 302.334 62.632 301.846 62.376C301.366 62.112 300.986 61.748 300.706 61.284C300.434 60.812 300.298 60.28 300.298 59.688C300.298 59.096 300.434 58.568 300.706 58.104C300.986 57.64 301.366 57.28 301.846 57.024C302.326 56.768 302.866 56.64 303.466 56.64C304.002 56.64 304.486 56.748 304.918 56.964C305.35 57.18 305.698 57.492 305.962 57.9V56.688H306.778ZM303.55 62.004C304.006 62.004 304.418 61.908 304.786 61.716C305.154 61.516 305.438 61.24 305.638 60.888C305.846 60.536 305.95 60.136 305.95 59.688C305.95 59.24 305.846 58.844 305.638 58.5C305.438 58.148 305.154 57.876 304.786 57.684C304.426 57.484 304.014 57.384 303.55 57.384C303.094 57.384 302.682 57.48 302.314 57.672C301.954 57.864 301.67 58.136 301.462 58.488C301.262 58.84 301.162 59.24 301.162 59.688C301.162 60.136 301.262 60.536 301.462 60.888C301.67 61.24 301.954 61.516 302.314 61.716C302.682 61.908 303.094 62.004 303.55 62.004ZM309.977 57.924C310.177 57.5 310.473 57.18 310.865 56.964C311.265 56.748 311.757 56.64 312.341 56.64V57.468L312.137 57.456C311.473 57.456 310.953 57.66 310.577 58.068C310.201 58.476 310.013 59.048 310.013 59.784V63H309.161V56.688H309.977V57.924ZM316.08 56.64C316.904 56.64 317.536 56.848 317.976 57.264C318.416 57.672 318.636 58.28 318.636 59.088V63H317.82V62.016C317.628 62.344 317.344 62.6 316.968 62.784C316.6 62.968 316.16 63.06 315.648 63.06C314.944 63.06 314.384 62.892 313.968 62.556C313.552 62.22 313.344 61.776 313.344 61.224C313.344 60.688 313.536 60.256 313.92 59.928C314.312 59.6 314.932 59.436 315.78 59.436H317.784V59.052C317.784 58.508 317.632 58.096 317.328 57.816C317.024 57.528 316.58 57.384 315.996 57.384C315.596 57.384 315.212 57.452 314.844 57.588C314.476 57.716 314.16 57.896 313.896 58.128L313.512 57.492C313.832 57.22 314.216 57.012 314.664 56.868C315.112 56.716 315.584 56.64 316.08 56.64ZM315.78 62.388C316.26 62.388 316.672 62.28 317.016 62.064C317.36 61.84 317.616 61.52 317.784 61.104V60.072H315.804C314.724 60.072 314.184 60.448 314.184 61.2C314.184 61.568 314.324 61.86 314.604 62.076C314.884 62.284 315.276 62.388 315.78 62.388ZM328.822 56.64C329.614 56.64 330.234 56.868 330.682 57.324C331.138 57.78 331.366 58.452 331.366 59.34V63H330.514V59.424C330.514 58.768 330.354 58.268 330.034 57.924C329.722 57.58 329.278 57.408 328.702 57.408C328.046 57.408 327.53 57.612 327.154 58.02C326.778 58.42 326.59 58.976 326.59 59.688V63H325.738V59.424C325.738 58.768 325.578 58.268 325.258 57.924C324.946 57.58 324.498 57.408 323.914 57.408C323.266 57.408 322.75 57.612 322.366 58.02C321.99 58.42 321.802 58.976 321.802 59.688V63H320.95V56.688H321.766V57.84C321.99 57.456 322.302 57.16 322.702 56.952C323.102 56.744 323.562 56.64 324.082 56.64C324.61 56.64 325.066 56.752 325.45 56.976C325.842 57.2 326.134 57.532 326.326 57.972C326.558 57.556 326.89 57.232 327.322 57C327.762 56.76 328.262 56.64 328.822 56.64ZM341.548 56.64C342.34 56.64 342.96 56.868 343.408 57.324C343.864 57.78 344.092 58.452 344.092 59.34V63H343.24V59.424C343.24 58.768 343.08 58.268 342.76 57.924C342.448 57.58 342.004 57.408 341.428 57.408C340.772 57.408 340.256 57.612 339.88 58.02C339.504 58.42 339.316 58.976 339.316 59.688V63H338.464V59.424C338.464 58.768 338.304 58.268 337.984 57.924C337.672 57.58 337.224 57.408 336.64 57.408C335.992 57.408 335.476 57.612 335.092 58.02C334.716 58.42 334.528 58.976 334.528 59.688V63H333.676V56.688H334.492V57.84C334.716 57.456 335.028 57.16 335.428 56.952C335.828 56.744 336.288 56.64 336.808 56.64C337.336 56.64 337.792 56.752 338.176 56.976C338.568 57.2 338.86 57.532 339.052 57.972C339.284 57.556 339.616 57.232 340.048 57C340.488 56.76 340.988 56.64 341.548 56.64ZM351.922 60.108H346.642C346.69 60.764 346.942 61.296 347.398 61.704C347.854 62.104 348.43 62.304 349.126 62.304C349.518 62.304 349.878 62.236 350.206 62.1C350.534 61.956 350.818 61.748 351.058 61.476L351.538 62.028C351.258 62.364 350.906 62.62 350.482 62.796C350.066 62.972 349.606 63.06 349.102 63.06C348.454 63.06 347.878 62.924 347.374 62.652C346.878 62.372 346.49 61.988 346.21 61.5C345.93 61.012 345.79 60.46 345.79 59.844C345.79 59.228 345.922 58.676 346.186 58.188C346.458 57.7 346.826 57.32 347.29 57.048C347.762 56.776 348.29 56.64 348.874 56.64C349.458 56.64 349.982 56.776 350.446 57.048C350.91 57.32 351.274 57.7 351.538 58.188C351.802 58.668 351.934 59.22 351.934 59.844L351.922 60.108ZM348.874 57.372C348.266 57.372 347.754 57.568 347.338 57.96C346.93 58.344 346.698 58.848 346.642 59.472H351.118C351.062 58.848 350.826 58.344 350.41 57.96C350.002 57.568 349.49 57.372 348.874 57.372ZM358.261 65.328C357.813 64.592 357.469 63.748 357.229 62.796C356.989 61.836 356.869 60.808 356.869 59.712C356.869 58.616 356.989 57.588 357.229 56.628C357.469 55.66 357.813 54.816 358.261 54.096H359.077C358.605 54.904 358.257 55.772 358.033 56.7C357.817 57.628 357.709 58.632 357.709 59.712C357.709 60.792 357.817 61.796 358.033 62.724C358.257 63.652 358.605 64.52 359.077 65.328H358.261ZM364.322 63.072C363.234 63.072 362.386 62.76 361.778 62.136C361.17 61.512 360.866 60.604 360.866 59.412V54.6H361.754V59.376C361.754 60.352 361.974 61.08 362.414 61.56C362.854 62.04 363.49 62.28 364.322 62.28C365.162 62.28 365.802 62.04 366.242 61.56C366.682 61.08 366.902 60.352 366.902 59.376V54.6H367.766V59.412C367.766 60.604 367.462 61.512 366.854 62.136C366.254 62.76 365.41 63.072 364.322 63.072ZM377.462 54.6V63H376.73L371.33 56.184V63H370.442V54.6H371.174L376.586 61.416V54.6H377.462ZM380.204 54.6H383.624C384.512 54.6 385.296 54.78 385.976 55.14C386.656 55.492 387.184 55.988 387.56 56.628C387.936 57.26 388.124 57.984 388.124 58.8C388.124 59.616 387.936 60.344 387.56 60.984C387.184 61.616 386.656 62.112 385.976 62.472C385.296 62.824 384.512 63 383.624 63H380.204V54.6ZM383.576 62.232C384.312 62.232 384.956 62.088 385.508 61.8C386.06 61.504 386.488 61.1 386.792 60.588C387.096 60.068 387.248 59.472 387.248 58.8C387.248 58.128 387.096 57.536 386.792 57.024C386.488 56.504 386.06 56.1 385.508 55.812C384.956 55.516 384.312 55.368 383.576 55.368H381.092V62.232H383.576ZM393.262 54.6C394.334 54.6 395.174 54.856 395.782 55.368C396.39 55.88 396.694 56.584 396.694 57.48C396.694 58.376 396.39 59.08 395.782 59.592C395.174 60.096 394.334 60.348 393.262 60.348H391.006V63H390.118V54.6H393.262ZM393.238 59.568C394.07 59.568 394.706 59.388 395.146 59.028C395.586 58.66 395.806 58.144 395.806 57.48C395.806 56.8 395.586 56.28 395.146 55.92C394.706 55.552 394.07 55.368 393.238 55.368H391.006V59.568H393.238ZM397.714 65.328C398.186 64.52 398.534 63.656 398.758 62.736C398.982 61.808 399.094 60.8 399.094 59.712C399.094 58.624 398.982 57.62 398.758 56.7C398.534 55.772 398.186 54.904 397.714 54.096H398.53C398.978 54.816 399.322 55.66 399.562 56.628C399.81 57.588 399.934 58.616 399.934 59.712C399.934 60.808 399.814 61.836 399.574 62.796C399.334 63.756 398.986 64.6 398.53 65.328H397.714Z" fill="#F2F2F2"/>
<path d="M104.752 101.072C103.664 101.072 102.816 100.76 102.208 100.136C101.6 99.512 101.296 98.604 101.296 97.412V92.6H102.184V97.376C102.184 98.352 102.404 99.08 102.844 99.56C103.284 100.04 103.92 100.28 104.752 100.28C105.592 100.28 106.232 100.04 106.672 99.56C107.112 99.08 107.332 98.352 107.332 97.376V92.6H108.196V97.412C108.196 98.604 107.892 99.512 107.284 100.136C106.684 100.76 105.84 101.072 104.752 101.072ZM113.908 94.64C114.7 94.64 115.328 94.872 115.792 95.336C116.264 95.792 116.5 96.46 116.5 97.34V101H115.648V97.424C115.648 96.768 115.484 96.268 115.156 95.924C114.828 95.58 114.36 95.408 113.752 95.408C113.072 95.408 112.532 95.612 112.132 96.02C111.74 96.42 111.544 96.976 111.544 97.688V101H110.692V94.688H111.508V95.852C111.74 95.468 112.06 95.172 112.468 94.964C112.884 94.748 113.364 94.64 113.908 94.64ZM118.813 94.688H119.665V101H118.813V94.688ZM119.245 93.308C119.069 93.308 118.921 93.248 118.801 93.128C118.681 93.008 118.621 92.864 118.621 92.696C118.621 92.536 118.681 92.396 118.801 92.276C118.921 92.156 119.069 92.096 119.245 92.096C119.421 92.096 119.569 92.156 119.689 92.276C119.809 92.388 119.869 92.524 119.869 92.684C119.869 92.86 119.809 93.008 119.689 93.128C119.569 93.248 119.421 93.308 119.245 93.308ZM125.36 100.616C125.2 100.76 125 100.872 124.76 100.952C124.528 101.024 124.284 101.06 124.028 101.06C123.436 101.06 122.98 100.9 122.66 100.58C122.34 100.26 122.18 99.808 122.18 99.224V95.408H121.052V94.688H122.18V93.308H123.032V94.688H124.952V95.408H123.032V99.176C123.032 99.552 123.124 99.84 123.308 100.04C123.5 100.232 123.772 100.328 124.124 100.328C124.3 100.328 124.468 100.3 124.628 100.244C124.796 100.188 124.94 100.108 125.06 100.004L125.36 100.616ZM132.184 98.108H126.904C126.952 98.764 127.204 99.296 127.66 99.704C128.116 100.104 128.692 100.304 129.388 100.304C129.78 100.304 130.14 100.236 130.468 100.1C130.796 99.956 131.08 99.748 131.32 99.476L131.8 100.028C131.52 100.364 131.168 100.62 130.744 100.796C130.328 100.972 129.868 101.06 129.364 101.06C128.716 101.06 128.14 100.924 127.636 100.652C127.14 100.372 126.752 99.988 126.472 99.5C126.192 99.012 126.052 98.46 126.052 97.844C126.052 97.228 126.184 96.676 126.448 96.188C126.72 95.7 127.088 95.32 127.552 95.048C128.024 94.776 128.552 94.64 129.136 94.64C129.72 94.64 130.244 94.776 130.708 95.048C131.172 95.32 131.536 95.7 131.8 96.188C132.064 96.668 132.196 97.22 132.196 97.844L132.184 98.108ZM129.136 95.372C128.528 95.372 128.016 95.568 127.6 95.96C127.192 96.344 126.96 96.848 126.904 97.472H131.38C131.324 96.848 131.088 96.344 130.672 95.96C130.264 95.568 129.752 95.372 129.136 95.372ZM139.69 92.096V101H138.874V99.752C138.618 100.176 138.278 100.5 137.854 100.724C137.438 100.948 136.966 101.06 136.438 101.06C135.846 101.06 135.31 100.924 134.83 100.652C134.35 100.38 133.974 100 133.702 99.512C133.43 99.024 133.294 98.468 133.294 97.844C133.294 97.22 133.43 96.664 133.702 96.176C133.974 95.688 134.35 95.312 134.83 95.048C135.31 94.776 135.846 94.64 136.438 94.64C136.95 94.64 137.41 94.748 137.818 94.964C138.234 95.172 138.574 95.48 138.838 95.888V92.096H139.69ZM136.51 100.304C136.95 100.304 137.346 100.204 137.698 100.004C138.058 99.796 138.338 99.504 138.538 99.128C138.746 98.752 138.85 98.324 138.85 97.844C138.85 97.364 138.746 96.936 138.538 96.56C138.338 96.184 138.058 95.896 137.698 95.696C137.346 95.488 136.95 95.384 136.51 95.384C136.062 95.384 135.658 95.488 135.298 95.696C134.946 95.896 134.666 96.184 134.458 96.56C134.258 96.936 134.158 97.364 134.158 97.844C134.158 98.324 134.258 98.752 134.458 99.128C134.666 99.504 134.946 99.796 135.298 100.004C135.658 100.204 136.062 100.304 136.51 100.304ZM152.404 92.6V101H151.672L146.272 94.184V101H145.384V92.6H146.116L151.528 99.416V92.6H152.404ZM157.173 94.64C157.997 94.64 158.629 94.848 159.069 95.264C159.509 95.672 159.729 96.28 159.729 97.088V101H158.913V100.016C158.721 100.344 158.437 100.6 158.061 100.784C157.693 100.968 157.253 101.06 156.741 101.06C156.037 101.06 155.477 100.892 155.061 100.556C154.645 100.22 154.437 99.776 154.437 99.224C154.437 98.688 154.629 98.256 155.013 97.928C155.405 97.6 156.025 97.436 156.873 97.436H158.877V97.052C158.877 96.508 158.725 96.096 158.421 95.816C158.117 95.528 157.673 95.384 157.089 95.384C156.689 95.384 156.305 95.452 155.937 95.588C155.569 95.716 155.253 95.896 154.989 96.128L154.605 95.492C154.925 95.22 155.309 95.012 155.757 94.868C156.205 94.716 156.677 94.64 157.173 94.64ZM156.873 100.388C157.353 100.388 157.765 100.28 158.109 100.064C158.453 99.84 158.709 99.52 158.877 99.104V98.072H156.897C155.817 98.072 155.277 98.448 155.277 99.2C155.277 99.568 155.417 99.86 155.697 100.076C155.977 100.284 156.369 100.388 156.873 100.388ZM165.367 100.616C165.207 100.76 165.007 100.872 164.767 100.952C164.535 101.024 164.291 101.06 164.035 101.06C163.443 101.06 162.987 100.9 162.667 100.58C162.347 100.26 162.187 99.808 162.187 99.224V95.408H161.059V94.688H162.187V93.308H163.039V94.688H164.959V95.408H163.039V99.176C163.039 99.552 163.131 99.84 163.315 100.04C163.507 100.232 163.779 100.328 164.131 100.328C164.307 100.328 164.475 100.3 164.635 100.244C164.803 100.188 164.947 100.108 165.067 100.004L165.367 100.616ZM166.918 94.688H167.77V101H166.918V94.688ZM167.35 93.308C167.174 93.308 167.026 93.248 166.906 93.128C166.786 93.008 166.726 92.864 166.726 92.696C166.726 92.536 166.786 92.396 166.906 92.276C167.026 92.156 167.174 92.096 167.35 92.096C167.526 92.096 167.674 92.156 167.794 92.276C167.914 92.388 167.974 92.524 167.974 92.684C167.974 92.86 167.914 93.008 167.794 93.128C167.674 93.248 167.526 93.308 167.35 93.308ZM172.721 101.06C172.113 101.06 171.565 100.924 171.077 100.652C170.589 100.372 170.205 99.988 169.925 99.5C169.645 99.012 169.505 98.46 169.505 97.844C169.505 97.228 169.645 96.676 169.925 96.188C170.205 95.7 170.589 95.32 171.077 95.048C171.565 94.776 172.113 94.64 172.721 94.64C173.329 94.64 173.877 94.776 174.365 95.048C174.853 95.32 175.233 95.7 175.505 96.188C175.785 96.676 175.925 97.228 175.925 97.844C175.925 98.46 175.785 99.012 175.505 99.5C175.233 99.988 174.853 100.372 174.365 100.652C173.877 100.924 173.329 101.06 172.721 101.06ZM172.721 100.304C173.169 100.304 173.569 100.204 173.921 100.004C174.281 99.796 174.561 99.504 174.761 99.128C174.961 98.752 175.061 98.324 175.061 97.844C175.061 97.364 174.961 96.936 174.761 96.56C174.561 96.184 174.281 95.896 173.921 95.696C173.569 95.488 173.169 95.384 172.721 95.384C172.273 95.384 171.869 95.488 171.509 95.696C171.157 95.896 170.877 96.184 170.669 96.56C170.469 96.936 170.369 97.364 170.369 97.844C170.369 98.324 170.469 98.752 170.669 99.128C170.877 99.504 171.157 99.796 171.509 100.004C171.869 100.204 172.273 100.304 172.721 100.304ZM180.881 94.64C181.673 94.64 182.301 94.872 182.765 95.336C183.237 95.792 183.473 96.46 183.473 97.34V101H182.621V97.424C182.621 96.768 182.457 96.268 182.129 95.924C181.801 95.58 181.333 95.408 180.725 95.408C180.045 95.408 179.505 95.612 179.105 96.02C178.713 96.42 178.517 96.976 178.517 97.688V101H177.665V94.688H178.481V95.852C178.713 95.468 179.033 95.172 179.441 94.964C179.857 94.748 180.337 94.64 180.881 94.64ZM187.478 101.06C186.966 101.06 186.474 100.988 186.002 100.844C185.538 100.692 185.174 100.504 184.91 100.28L185.294 99.608C185.558 99.816 185.89 99.988 186.29 100.124C186.69 100.252 187.106 100.316 187.538 100.316C188.114 100.316 188.538 100.228 188.81 100.052C189.09 99.868 189.23 99.612 189.23 99.284C189.23 99.052 189.154 98.872 189.002 98.744C188.85 98.608 188.658 98.508 188.426 98.444C188.194 98.372 187.886 98.304 187.502 98.24C186.99 98.144 186.578 98.048 186.266 97.952C185.954 97.848 185.686 97.676 185.462 97.436C185.246 97.196 185.138 96.864 185.138 96.44C185.138 95.912 185.358 95.48 185.798 95.144C186.238 94.808 186.85 94.64 187.634 94.64C188.042 94.64 188.45 94.696 188.858 94.808C189.266 94.912 189.602 95.052 189.866 95.228L189.494 95.912C188.974 95.552 188.354 95.372 187.634 95.372C187.09 95.372 186.678 95.468 186.398 95.66C186.126 95.852 185.99 96.104 185.99 96.416C185.99 96.656 186.066 96.848 186.218 96.992C186.378 97.136 186.574 97.244 186.806 97.316C187.038 97.38 187.358 97.448 187.766 97.52C188.27 97.616 188.674 97.712 188.978 97.808C189.282 97.904 189.542 98.068 189.758 98.3C189.974 98.532 190.082 98.852 190.082 99.26C190.082 99.812 189.85 100.252 189.386 100.58C188.93 100.9 188.294 101.06 187.478 101.06ZM200.917 100.232V101H194.977V92.6H200.737V93.368H195.865V96.356H200.209V97.112H195.865V100.232H200.917ZM206.041 94.64C206.833 94.64 207.461 94.872 207.925 95.336C208.397 95.792 208.633 96.46 208.633 97.34V101H207.781V97.424C207.781 96.768 207.617 96.268 207.289 95.924C206.961 95.58 206.493 95.408 205.885 95.408C205.205 95.408 204.665 95.612 204.265 96.02C203.873 96.42 203.677 96.976 203.677 97.688V101H202.825V94.688H203.641V95.852C203.873 95.468 204.193 95.172 204.601 94.964C205.017 94.748 205.497 94.64 206.041 94.64ZM216.133 94.688L213.325 101H212.449L209.653 94.688H210.541L212.905 100.064L215.293 94.688H216.133ZM217.333 94.688H218.185V101H217.333V94.688ZM217.765 93.308C217.589 93.308 217.441 93.248 217.321 93.128C217.201 93.008 217.141 92.864 217.141 92.696C217.141 92.536 217.201 92.396 217.321 92.276C217.441 92.156 217.589 92.096 217.765 92.096C217.941 92.096 218.089 92.156 218.209 92.276C218.329 92.388 218.389 92.524 218.389 92.684C218.389 92.86 218.329 93.008 218.209 93.128C218.089 93.248 217.941 93.308 217.765 93.308ZM221.371 95.924C221.571 95.5 221.867 95.18 222.259 94.964C222.659 94.748 223.151 94.64 223.735 94.64V95.468L223.531 95.456C222.867 95.456 222.347 95.66 221.971 96.068C221.595 96.476 221.407 97.048 221.407 97.784V101H220.555V94.688H221.371V95.924ZM227.799 101.06C227.191 101.06 226.643 100.924 226.155 100.652C225.667 100.372 225.283 99.988 225.003 99.5C224.723 99.012 224.583 98.46 224.583 97.844C224.583 97.228 224.723 96.676 225.003 96.188C225.283 95.7 225.667 95.32 226.155 95.048C226.643 94.776 227.191 94.64 227.799 94.64C228.407 94.64 228.955 94.776 229.443 95.048C229.931 95.32 230.311 95.7 230.583 96.188C230.863 96.676 231.003 97.228 231.003 97.844C231.003 98.46 230.863 99.012 230.583 99.5C230.311 99.988 229.931 100.372 229.443 100.652C228.955 100.924 228.407 101.06 227.799 101.06ZM227.799 100.304C228.247 100.304 228.647 100.204 228.999 100.004C229.359 99.796 229.639 99.504 229.839 99.128C230.039 98.752 230.139 98.324 230.139 97.844C230.139 97.364 230.039 96.936 229.839 96.56C229.639 96.184 229.359 95.896 228.999 95.696C228.647 95.488 228.247 95.384 227.799 95.384C227.351 95.384 226.947 95.488 226.587 95.696C226.235 95.896 225.955 96.184 225.747 96.56C225.547 96.936 225.447 97.364 225.447 97.844C225.447 98.324 225.547 98.752 225.747 99.128C225.955 99.504 226.235 99.796 226.587 100.004C226.947 100.204 227.351 100.304 227.799 100.304ZM235.959 94.64C236.751 94.64 237.379 94.872 237.843 95.336C238.315 95.792 238.551 96.46 238.551 97.34V101H237.699V97.424C237.699 96.768 237.535 96.268 237.207 95.924C236.879 95.58 236.411 95.408 235.803 95.408C235.123 95.408 234.583 95.612 234.183 96.02C233.791 96.42 233.595 96.976 233.595 97.688V101H232.743V94.688H233.559V95.852C233.791 95.468 234.111 95.172 234.519 94.964C234.935 94.748 235.415 94.64 235.959 94.64ZM248.736 94.64C249.528 94.64 250.148 94.868 250.596 95.324C251.052 95.78 251.28 96.452 251.28 97.34V101H250.428V97.424C250.428 96.768 250.268 96.268 249.948 95.924C249.636 95.58 249.192 95.408 248.616 95.408C247.96 95.408 247.444 95.612 247.068 96.02C246.692 96.42 246.504 96.976 246.504 97.688V101H245.652V97.424C245.652 96.768 245.492 96.268 245.172 95.924C244.86 95.58 244.412 95.408 243.828 95.408C243.18 95.408 242.664 95.612 242.28 96.02C241.904 96.42 241.716 96.976 241.716 97.688V101H240.864V94.688H241.68V95.84C241.904 95.456 242.216 95.16 242.616 94.952C243.016 94.744 243.476 94.64 243.996 94.64C244.524 94.64 244.98 94.752 245.364 94.976C245.756 95.2 246.048 95.532 246.24 95.972C246.472 95.556 246.804 95.232 247.236 95C247.676 94.76 248.176 94.64 248.736 94.64ZM259.11 98.108H253.83C253.878 98.764 254.13 99.296 254.586 99.704C255.042 100.104 255.618 100.304 256.314 100.304C256.706 100.304 257.066 100.236 257.394 100.1C257.722 99.956 258.006 99.748 258.246 99.476L258.726 100.028C258.446 100.364 258.094 100.62 257.67 100.796C257.254 100.972 256.794 101.06 256.29 101.06C255.642 101.06 255.066 100.924 254.562 100.652C254.066 100.372 253.678 99.988 253.398 99.5C253.118 99.012 252.978 98.46 252.978 97.844C252.978 97.228 253.11 96.676 253.374 96.188C253.646 95.7 254.014 95.32 254.478 95.048C254.95 94.776 255.478 94.64 256.062 94.64C256.646 94.64 257.17 94.776 257.634 95.048C258.098 95.32 258.462 95.7 258.726 96.188C258.99 96.668 259.122 97.22 259.122 97.844L259.11 98.108ZM256.062 95.372C255.454 95.372 254.942 95.568 254.526 95.96C254.118 96.344 253.886 96.848 253.83 97.472H258.306C258.25 96.848 258.014 96.344 257.598 95.96C257.19 95.568 256.678 95.372 256.062 95.372ZM264.072 94.64C264.864 94.64 265.492 94.872 265.956 95.336C266.428 95.792 266.664 96.46 266.664 97.34V101H265.812V97.424C265.812 96.768 265.648 96.268 265.32 95.924C264.992 95.58 264.524 95.408 263.916 95.408C263.236 95.408 262.696 95.612 262.296 96.02C261.904 96.42 261.708 96.976 261.708 97.688V101H260.856V94.688H261.672V95.852C261.904 95.468 262.224 95.172 262.632 94.964C263.048 94.748 263.528 94.64 264.072 94.64ZM272.301 100.616C272.141 100.76 271.941 100.872 271.701 100.952C271.469 101.024 271.225 101.06 270.969 101.06C270.377 101.06 269.921 100.9 269.601 100.58C269.281 100.26 269.121 99.808 269.121 99.224V95.408H267.993V94.688H269.121V93.308H269.973V94.688H271.893V95.408H269.973V99.176C269.973 99.552 270.065 99.84 270.249 100.04C270.441 100.232 270.713 100.328 271.065 100.328C271.241 100.328 271.409 100.3 271.569 100.244C271.737 100.188 271.881 100.108 272.001 100.004L272.301 100.616ZM280.317 92.6C281.389 92.6 282.229 92.856 282.837 93.368C283.445 93.88 283.749 94.584 283.749 95.48C283.749 96.376 283.445 97.08 282.837 97.592C282.229 98.096 281.389 98.348 280.317 98.348H278.061V101H277.173V92.6H280.317ZM280.293 97.568C281.125 97.568 281.761 97.388 282.201 97.028C282.641 96.66 282.861 96.144 282.861 95.48C282.861 94.8 282.641 94.28 282.201 93.92C281.761 93.552 281.125 93.368 280.293 93.368H278.061V97.568H280.293ZM286.141 95.924C286.341 95.5 286.637 95.18 287.029 94.964C287.429 94.748 287.921 94.64 288.505 94.64V95.468L288.301 95.456C287.637 95.456 287.117 95.66 286.741 96.068C286.365 96.476 286.177 97.048 286.177 97.784V101H285.325V94.688H286.141V95.924ZM292.569 101.06C291.961 101.06 291.413 100.924 290.925 100.652C290.437 100.372 290.053 99.988 289.773 99.5C289.493 99.012 289.353 98.46 289.353 97.844C289.353 97.228 289.493 96.676 289.773 96.188C290.053 95.7 290.437 95.32 290.925 95.048C291.413 94.776 291.961 94.64 292.569 94.64C293.177 94.64 293.725 94.776 294.213 95.048C294.701 95.32 295.081 95.7 295.353 96.188C295.633 96.676 295.773 97.228 295.773 97.844C295.773 98.46 295.633 99.012 295.353 99.5C295.081 99.988 294.701 100.372 294.213 100.652C293.725 100.924 293.177 101.06 292.569 101.06ZM292.569 100.304C293.017 100.304 293.417 100.204 293.769 100.004C294.129 99.796 294.409 99.504 294.609 99.128C294.809 98.752 294.909 98.324 294.909 97.844C294.909 97.364 294.809 96.936 294.609 96.56C294.409 96.184 294.129 95.896 293.769 95.696C293.417 95.488 293.017 95.384 292.569 95.384C292.121 95.384 291.717 95.488 291.357 95.696C291.005 95.896 290.725 96.184 290.517 96.56C290.317 96.936 290.217 97.364 290.217 97.844C290.217 98.324 290.317 98.752 290.517 99.128C290.725 99.504 291.005 99.796 291.357 100.004C291.717 100.204 292.121 100.304 292.569 100.304ZM303.356 94.688V100.232C303.356 101.304 303.092 102.096 302.564 102.608C302.044 103.128 301.256 103.388 300.2 103.388C299.616 103.388 299.06 103.3 298.532 103.124C298.012 102.956 297.588 102.72 297.26 102.416L297.692 101.768C297.996 102.04 298.364 102.252 298.796 102.404C299.236 102.556 299.696 102.632 300.176 102.632C300.976 102.632 301.564 102.444 301.94 102.068C302.316 101.7 302.504 101.124 302.504 100.34V99.536C302.24 99.936 301.892 100.24 301.46 100.448C301.036 100.656 300.564 100.76 300.044 100.76C299.452 100.76 298.912 100.632 298.424 100.376C297.944 100.112 297.564 99.748 297.284 99.284C297.012 98.812 296.876 98.28 296.876 97.688C296.876 97.096 297.012 96.568 297.284 96.104C297.564 95.64 297.944 95.28 298.424 95.024C298.904 94.768 299.444 94.64 300.044 94.64C300.58 94.64 301.064 94.748 301.496 94.964C301.928 95.18 302.276 95.492 302.54 95.9V94.688H303.356ZM300.128 100.004C300.584 100.004 300.996 99.908 301.364 99.716C301.732 99.516 302.016 99.24 302.216 98.888C302.424 98.536 302.528 98.136 302.528 97.688C302.528 97.24 302.424 96.844 302.216 96.5C302.016 96.148 301.732 95.876 301.364 95.684C301.004 95.484 300.592 95.384 300.128 95.384C299.672 95.384 299.26 95.48 298.892 95.672C298.532 95.864 298.248 96.136 298.04 96.488C297.84 96.84 297.74 97.24 297.74 97.688C297.74 98.136 297.84 98.536 298.04 98.888C298.248 99.24 298.532 99.516 298.892 99.716C299.26 99.908 299.672 100.004 300.128 100.004ZM306.555 95.924C306.755 95.5 307.051 95.18 307.443 94.964C307.843 94.748 308.335 94.64 308.919 94.64V95.468L308.715 95.456C308.051 95.456 307.531 95.66 307.155 96.068C306.779 96.476 306.591 97.048 306.591 97.784V101H305.739V94.688H306.555V95.924ZM312.658 94.64C313.482 94.64 314.114 94.848 314.554 95.264C314.994 95.672 315.214 96.28 315.214 97.088V101H314.398V100.016C314.206 100.344 313.922 100.6 313.546 100.784C313.178 100.968 312.738 101.06 312.226 101.06C311.522 101.06 310.962 100.892 310.546 100.556C310.13 100.22 309.922 99.776 309.922 99.224C309.922 98.688 310.114 98.256 310.498 97.928C310.89 97.6 311.51 97.436 312.358 97.436H314.362V97.052C314.362 96.508 314.21 96.096 313.906 95.816C313.602 95.528 313.158 95.384 312.574 95.384C312.174 95.384 311.79 95.452 311.422 95.588C311.054 95.716 310.738 95.896 310.474 96.128L310.09 95.492C310.41 95.22 310.794 95.012 311.242 94.868C311.69 94.716 312.162 94.64 312.658 94.64ZM312.358 100.388C312.838 100.388 313.25 100.28 313.594 100.064C313.938 99.84 314.194 99.52 314.362 99.104V98.072H312.382C311.302 98.072 310.762 98.448 310.762 99.2C310.762 99.568 310.902 99.86 311.182 100.076C311.462 100.284 311.854 100.388 312.358 100.388ZM325.4 94.64C326.192 94.64 326.812 94.868 327.26 95.324C327.716 95.78 327.944 96.452 327.944 97.34V101H327.092V97.424C327.092 96.768 326.932 96.268 326.612 95.924C326.3 95.58 325.856 95.408 325.28 95.408C324.624 95.408 324.108 95.612 323.732 96.02C323.356 96.42 323.168 96.976 323.168 97.688V101H322.316V97.424C322.316 96.768 322.156 96.268 321.836 95.924C321.524 95.58 321.076 95.408 320.492 95.408C319.844 95.408 319.328 95.612 318.944 96.02C318.568 96.42 318.38 96.976 318.38 97.688V101H317.528V94.688H318.344V95.84C318.568 95.456 318.88 95.16 319.28 94.952C319.68 94.744 320.14 94.64 320.66 94.64C321.188 94.64 321.644 94.752 322.028 94.976C322.42 95.2 322.712 95.532 322.904 95.972C323.136 95.556 323.468 95.232 323.9 95C324.34 94.76 324.84 94.64 325.4 94.64ZM338.126 94.64C338.918 94.64 339.538 94.868 339.986 95.324C340.442 95.78 340.67 96.452 340.67 97.34V101H339.818V97.424C339.818 96.768 339.658 96.268 339.338 95.924C339.026 95.58 338.582 95.408 338.006 95.408C337.35 95.408 336.834 95.612 336.458 96.02C336.082 96.42 335.894 96.976 335.894 97.688V101H335.042V97.424C335.042 96.768 334.882 96.268 334.562 95.924C334.25 95.58 333.802 95.408 333.218 95.408C332.57 95.408 332.054 95.612 331.67 96.02C331.294 96.42 331.106 96.976 331.106 97.688V101H330.254V94.688H331.07V95.84C331.294 95.456 331.606 95.16 332.006 94.952C332.406 94.744 332.866 94.64 333.386 94.64C333.914 94.64 334.37 94.752 334.754 94.976C335.146 95.2 335.438 95.532 335.63 95.972C335.862 95.556 336.194 95.232 336.626 95C337.066 94.76 337.566 94.64 338.126 94.64ZM348.5 98.108H343.22C343.268 98.764 343.52 99.296 343.976 99.704C344.432 100.104 345.008 100.304 345.704 100.304C346.096 100.304 346.456 100.236 346.784 100.1C347.112 99.956 347.396 99.748 347.636 99.476L348.116 100.028C347.836 100.364 347.484 100.62 347.06 100.796C346.644 100.972 346.184 101.06 345.68 101.06C345.032 101.06 344.456 100.924 343.952 100.652C343.456 100.372 343.068 99.988 342.788 99.5C342.508 99.012 342.368 98.46 342.368 97.844C342.368 97.228 342.5 96.676 342.764 96.188C343.036 95.7 343.404 95.32 343.868 95.048C344.34 94.776 344.868 94.64 345.452 94.64C346.036 94.64 346.56 94.776 347.024 95.048C347.488 95.32 347.852 95.7 348.116 96.188C348.38 96.668 348.512 97.22 348.512 97.844L348.5 98.108ZM345.452 95.372C344.844 95.372 344.332 95.568 343.916 95.96C343.508 96.344 343.276 96.848 343.22 97.472H347.696C347.64 96.848 347.404 96.344 346.988 95.96C346.58 95.568 346.068 95.372 345.452 95.372ZM354.839 103.328C354.391 102.592 354.047 101.748 353.807 100.796C353.567 99.836 353.447 98.808 353.447 97.712C353.447 96.616 353.567 95.588 353.807 94.628C354.047 93.66 354.391 92.816 354.839 92.096H355.655C355.183 92.904 354.835 93.772 354.611 94.7C354.395 95.628 354.287 96.632 354.287 97.712C354.287 98.792 354.395 99.796 354.611 100.724C354.835 101.652 355.183 102.52 355.655 103.328H354.839ZM360.9 101.072C359.812 101.072 358.964 100.76 358.356 100.136C357.748 99.512 357.444 98.604 357.444 97.412V92.6H358.332V97.376C358.332 98.352 358.552 99.08 358.992 99.56C359.432 100.04 360.068 100.28 360.9 100.28C361.74 100.28 362.38 100.04 362.82 99.56C363.26 99.08 363.48 98.352 363.48 97.376V92.6H364.344V97.412C364.344 98.604 364.04 99.512 363.432 100.136C362.832 100.76 361.988 101.072 360.9 101.072ZM374.04 92.6V101H373.308L367.908 94.184V101H367.02V92.6H367.752L373.164 99.416V92.6H374.04ZM382.722 100.232V101H376.782V92.6H382.542V93.368H377.67V96.356H382.014V97.112H377.67V100.232H382.722ZM387.953 92.6C389.025 92.6 389.865 92.856 390.473 93.368C391.081 93.88 391.385 94.584 391.385 95.48C391.385 96.376 391.081 97.08 390.473 97.592C389.865 98.096 389.025 98.348 387.953 98.348H385.697V101H384.809V92.6H387.953ZM387.929 97.568C388.761 97.568 389.397 97.388 389.837 97.028C390.277 96.66 390.497 96.144 390.497 95.48C390.497 94.8 390.277 94.28 389.837 93.92C389.397 93.552 388.761 93.368 387.929 93.368H385.697V97.568H387.929ZM392.406 103.328C392.878 102.52 393.226 101.656 393.45 100.736C393.674 99.808 393.786 98.8 393.786 97.712C393.786 96.624 393.674 95.62 393.45 94.7C393.226 93.772 392.878 92.904 392.406 92.096H393.222C393.67 92.816 394.014 93.66 394.254 94.628C394.502 95.588 394.626 96.616 394.626 97.712C394.626 98.808 394.506 99.836 394.266 100.796C394.026 101.756 393.678 102.6 393.222 103.328H392.406Z" fill="#F2F2F2"/>
</svg>
