<?xml version="1.0" encoding="utf-8"?>
<!-- Generator: Adobe Illustrator 16.0.0, SVG Export Plug-In . SVG Version: 6.00 Build 0)  -->
<!DOCTYPE svg PUBLIC "-//W3C//DTD SVG 1.1//EN" "http://www.w3.org/Graphics/SVG/1.1/DTD/svg11.dtd">
<svg version="1.1" id="Layer_1" xmlns="http://www.w3.org/2000/svg" xmlns:xlink="http://www.w3.org/1999/xlink" x="0px" y="0px"
	 width="426px" height="357px" viewBox="0 0 426 357" enable-background="new 0 0 426 357" xml:space="preserve">
<rect y="0.5" fill="#0D0D0D" width="426" height="356.5"/>
<line fill="none" stroke="#FFC300" stroke-width="2" x1="0.447" y1="94.105" x2="24.447" y2="106.106"/>
<line fill="none" stroke="#FFC300" stroke-width="2" x1="184.581" y1="66.998" x2="212.581" y2="54.092"/>
<line fill="none" stroke="#FFC300" stroke-width="2" x1="24.28" y1="106.04" x2="48.28" y2="113.04"/>
<line fill="none" stroke="#FFC300" stroke-width="2" x1="212.371" y1="54.071" x2="237.371" y2="64.071"/>
<line fill="none" stroke="#FFC300" stroke-width="2" x1="70.646" y1="112.908" x2="96.646" y2="103.065"/>
<line fill="none" stroke="#FFC300" stroke-width="2" x1="258.37" y1="87.483" x2="283.37" y2="67.223"/>
<line fill="none" stroke="#FFC300" stroke-width="2" x1="48" y1="113" x2="71" y2="113"/>
<line fill="none" stroke="#FFC300" stroke-width="2" x1="236.723" y1="63.308" x2="259.723" y2="87.308"/>
<line fill="none" stroke="#FFC300" stroke-width="2" x1="95.771" y1="103.285" x2="118.162" y2="98.026"/>
<line fill="none" stroke="#FFC300" stroke-width="2" x1="282.68" y1="67.192" x2="306.68" y2="59.053"/>
<line fill="none" stroke="#FFC300" stroke-width="2" x1="117.367" y1="98.292" x2="144.367" y2="76.226"/>
<line fill="none" stroke="#FFC300" stroke-width="2" x1="306.777" y1="58.595" x2="331.148" y2="53.025"/>
<line fill="none" stroke="#FFC300" stroke-width="2" x1="164.608" y1="76.096" x2="185.767" y2="67.08"/>
<line fill="none" stroke="#FFC300" stroke-width="2" x1="353.663" y1="52.251" x2="379.663" y2="75.251"/>
<line fill="none" stroke="#FFC300" stroke-width="2" x1="143" y1="76" x2="166" y2="76"/>
<line fill="none" stroke="#FFC300" stroke-width="2" x1="331" y1="53" x2="355" y2="53"/>
<line fill="none" stroke="#FFC300" stroke-width="2" x1="378.604" y1="74.608" x2="400.632" y2="65.082"/>
<line fill="none" stroke="#FFC300" stroke-width="2" x1="400.203" y1="65.053" x2="424.203" y2="33.396"/>
<line fill="none" stroke="#0C59F2" stroke-width="2" x1="0.447" y1="182.105" x2="24.447" y2="194.105"/>
<line fill="none" stroke="#0C59F2" stroke-width="2" x1="184.581" y1="154.998" x2="212.581" y2="142.092"/>
<line fill="none" stroke="#0C59F2" stroke-width="2" x1="24.28" y1="194.04" x2="48.28" y2="201.04"/>
<line fill="none" stroke="#0C59F2" stroke-width="2" x1="212.371" y1="142.072" x2="237.371" y2="152.072"/>
<line fill="none" stroke="#0C59F2" stroke-width="2" x1="70.646" y1="200.908" x2="96.646" y2="191.064"/>
<line fill="none" stroke="#0C59F2" stroke-width="2" x1="258.37" y1="175.483" x2="283.37" y2="155.223"/>
<line fill="none" stroke="#0C59F2" stroke-width="2" x1="48" y1="201" x2="71" y2="201"/>
<line fill="none" stroke="#0C59F2" stroke-width="2" x1="236.723" y1="151.308" x2="259.723" y2="175.308"/>
<line fill="none" stroke="#0C59F2" stroke-width="2" x1="95.771" y1="191.285" x2="118.162" y2="186.027"/>
<line fill="none" stroke="#0C59F2" stroke-width="2" x1="282.68" y1="155.193" x2="306.68" y2="147.053"/>
<line fill="none" stroke="#0C59F2" stroke-width="2" x1="117.367" y1="186.292" x2="144.367" y2="164.226"/>
<line fill="none" stroke="#0C59F2" stroke-width="2" x1="306.777" y1="146.595" x2="331.148" y2="141.025"/>
<line fill="none" stroke="#0C59F2" stroke-width="2" x1="164.608" y1="164.096" x2="185.767" y2="155.08"/>
<line fill="none" stroke="#0C59F2" stroke-width="2" x1="353.663" y1="140.251" x2="379.663" y2="163.251"/>
<line fill="none" stroke="#0C59F2" stroke-width="2" x1="143" y1="164" x2="166" y2="164"/>
<line fill="none" stroke="#0C59F2" stroke-width="2" x1="331" y1="141" x2="355" y2="141"/>
<line fill="none" stroke="#0C59F2" stroke-width="2" x1="378.604" y1="162.608" x2="400.632" y2="153.082"/>
<line fill="none" stroke="#0C59F2" stroke-width="2" x1="400.203" y1="153.053" x2="424.203" y2="121.396"/>
<line fill="none" stroke="#268C16" stroke-width="2" x1="0.447" y1="249.105" x2="24.447" y2="261.105"/>
<line fill="none" stroke="#268C16" stroke-width="2" x1="184.581" y1="221.998" x2="212.581" y2="209.092"/>
<line fill="none" stroke="#268C16" stroke-width="2" x1="24.28" y1="261.04" x2="48.28" y2="268.04"/>
<line fill="none" stroke="#268C16" stroke-width="2" x1="212.371" y1="209.072" x2="237.371" y2="219.072"/>
<line fill="none" stroke="#268C16" stroke-width="2" x1="70.646" y1="267.908" x2="96.646" y2="258.064"/>
<line fill="none" stroke="#268C16" stroke-width="2" x1="258.37" y1="242.482" x2="283.37" y2="222.223"/>
<line fill="none" stroke="#268C16" stroke-width="2" x1="48" y1="268" x2="71" y2="268"/>
<line fill="none" stroke="#268C16" stroke-width="2" x1="236.723" y1="218.309" x2="259.723" y2="242.309"/>
<line fill="none" stroke="#268C16" stroke-width="2" x1="95.771" y1="258.285" x2="118.162" y2="253.027"/>
<line fill="none" stroke="#268C16" stroke-width="2" x1="282.68" y1="222.193" x2="306.68" y2="214.053"/>
<line fill="none" stroke="#268C16" stroke-width="2" x1="117.367" y1="253.292" x2="144.367" y2="231.227"/>
<line fill="none" stroke="#268C16" stroke-width="2" x1="306.777" y1="213.596" x2="331.148" y2="208.025"/>
<line fill="none" stroke="#268C16" stroke-width="2" x1="164.608" y1="231.096" x2="185.767" y2="222.08"/>
<line fill="none" stroke="#268C16" stroke-width="2" x1="353.663" y1="207.251" x2="379.663" y2="230.251"/>
<line fill="none" stroke="#268C16" stroke-width="2" x1="143" y1="231" x2="166" y2="231"/>
<line fill="none" stroke="#268C16" stroke-width="2" x1="331" y1="208" x2="355" y2="208"/>
<line fill="none" stroke="#268C16" stroke-width="2" x1="378.604" y1="229.607" x2="400.632" y2="220.082"/>
<line fill="none" stroke="#268C16" stroke-width="2" x1="400.203" y1="220.053" x2="424.203" y2="188.396"/>
<g opacity="0.1">
	<line fill="none" stroke="#F2F2F2" x1="23.5" y1="0" x2="23.5" y2="357"/>
	<line fill="none" stroke="#F2F2F2" x1="212.5" y1="0" x2="212.5" y2="357"/>
	<line fill="none" stroke="#F2F2F2" x1="118.5" y1="0" x2="118.5" y2="357"/>
	<line fill="none" stroke="#F2F2F2" x1="307.5" y1="0" x2="307.5" y2="357"/>
	<line fill="none" stroke="#F2F2F2" x1="48.5" y1="0" x2="48.5" y2="357"/>
	<line fill="none" stroke="#F2F2F2" x1="237.5" y1="0" x2="237.5" y2="357"/>
	<line fill="none" stroke="#F2F2F2" x1="143.5" y1="0" x2="143.5" y2="357"/>
	<line fill="none" stroke="#F2F2F2" x1="332.5" y1="0" x2="332.5" y2="357"/>
	<line fill="none" stroke="#F2F2F2" x1="70.5" y1="0" x2="70.5" y2="357"/>
	<line fill="none" stroke="#F2F2F2" x1="259.5" y1="0" x2="259.5" y2="357"/>
	<line fill="none" stroke="#F2F2F2" x1="165.5" y1="0" x2="165.5" y2="357"/>
	<line fill="none" stroke="#F2F2F2" x1="354.5" y1="0" x2="354.5" y2="357"/>
	<line fill="none" stroke="#F2F2F2" x1="400.5" y1="0" x2="400.5" y2="357"/>
	<line fill="none" stroke="#F2F2F2" x1="95.5" y1="0" x2="95.5" y2="357"/>
	<line fill="none" stroke="#F2F2F2" x1="284.5" y1="0" x2="284.5" y2="357"/>
	<line fill="none" stroke="#F2F2F2" x1="190.5" y1="0" x2="190.5" y2="357"/>
	<line fill="none" stroke="#F2F2F2" x1="379.5" y1="0" x2="379.5" y2="357"/>
	<line fill="none" stroke="#F2F2F2" x1="425.5" y1="0" x2="425.5" y2="357"/>
</g>
<g opacity="0.1">
	<line fill="none" stroke="#F2F2F2" x1="425" y1="142.5" x2="0" y2="142.5"/>
	<line fill="none" stroke="#F2F2F2" x1="425" y1="48.5" x2="0" y2="48.5"/>
	<line fill="none" stroke="#F2F2F2" x1="425" y1="237.5" x2="0" y2="237.5"/>
	<line fill="none" stroke="#F2F2F2" x1="425" y1="167.5" x2="0" y2="167.5"/>
	<line fill="none" stroke="#F2F2F2" x1="425" y1="73.5" x2="0" y2="73.5"/>
	<line fill="none" stroke="#F2F2F2" x1="425" y1="262.5" x2="0" y2="262.5"/>
	<line fill="none" stroke="#F2F2F2" x1="425" y1="0.5" x2="0" y2="0.5"/>
	<line fill="none" stroke="#F2F2F2" x1="425" y1="189.5" x2="0" y2="189.5"/>
	<line fill="none" stroke="#F2F2F2" x1="425" y1="95.5" x2="0" y2="95.5"/>
	<line fill="none" stroke="#F2F2F2" x1="425" y1="284.5" x2="0" y2="284.5"/>
	<line fill="none" stroke="#F2F2F2" x1="425" y1="330.5" x2="0" y2="330.5"/>
	<line fill="none" stroke="#F2F2F2" x1="425" y1="25.5" x2="0" y2="25.5"/>
	<line fill="none" stroke="#F2F2F2" x1="425" y1="214.5" x2="0" y2="214.5"/>
	<line fill="none" stroke="#F2F2F2" x1="425" y1="120.5" x2="0" y2="120.5"/>
	<line fill="none" stroke="#F2F2F2" x1="425" y1="309.5" x2="0" y2="309.5"/>
	<line fill="none" stroke="#F2F2F2" x1="425" y1="355.5" x2="0" y2="355.5"/>
</g>
<line fill="none" stroke="#F2F2F2" stroke-width="2" x1="0" y1="0" x2="0" y2="357"/>
<line fill="none" stroke="#D93644" stroke-width="2" stroke-dasharray="10,10" x1="191" y1="0" x2="191" y2="357"/>
<line fill="none" stroke="#F2F2F2" stroke-width="2" x1="0" y1="356" x2="425" y2="356"/>
</svg>
