<?xml version="1.0" encoding="utf-8"?>
<!-- Generator: Adobe Illustrator 16.0.0, SVG Export Plug-In . SVG Version: 6.00 Build 0)  -->
<!DOCTYPE svg PUBLIC "-//W3C//DTD SVG 1.1//EN" "http://www.w3.org/Graphics/SVG/1.1/DTD/svg11.dtd">
<svg version="1.1" xmlns="http://www.w3.org/2000/svg" xmlns:xlink="http://www.w3.org/1999/xlink" x="0px" y="0px" width="1152px"
	 height="300px" viewBox="0 0 1152 300" enable-background="new 0 0 1152 300" xml:space="preserve">
<pattern  x="-5860" width="72" height="72" patternUnits="userSpaceOnUse" id="Grid_1_pica_Lines" viewBox="72.25 -144.25 72 72" overflow="visible">
	<g>
		<polygon fill="none" points="72.25,-144.25 144.25,-144.25 144.25,-72.25 72.25,-72.25 		"/>
		<g>
			<line fill="none" stroke="#231F20" stroke-width="0.3" x1="78.25" y1="-72.5" x2="78.25" y2="0"/>
			<line fill="none" stroke="#231F20" stroke-width="0.3" x1="102.25" y1="-72.5" x2="102.25" y2="0"/>
			<line fill="none" stroke="#231F20" stroke-width="0.3" x1="126.25" y1="-72.5" x2="126.25" y2="0"/>
			<line fill="none" stroke="#231F20" stroke-width="0.3" x1="90.25" y1="-72.5" x2="90.25" y2="0"/>
			<line fill="none" stroke="#231F20" stroke-width="0.3" x1="114.25" y1="-72.5" x2="114.25" y2="0"/>
			<line fill="none" stroke="#231F20" stroke-width="0.3" x1="138.25" y1="-72.5" x2="138.25" y2="0"/>
		</g>
		<g>
			<line fill="none" stroke="#231F20" stroke-width="0.3" x1="144" y1="-78.25" x2="216.5" y2="-78.25"/>
			<line fill="none" stroke="#231F20" stroke-width="0.3" x1="144" y1="-102.25" x2="216.5" y2="-102.25"/>
			<line fill="none" stroke="#231F20" stroke-width="0.3" x1="144" y1="-126.25" x2="216.5" y2="-126.25"/>
			<line fill="none" stroke="#231F20" stroke-width="0.3" x1="144" y1="-90.25" x2="216.5" y2="-90.25"/>
			<line fill="none" stroke="#231F20" stroke-width="0.3" x1="144" y1="-114.25" x2="216.5" y2="-114.25"/>
			<line fill="none" stroke="#231F20" stroke-width="0.3" x1="144" y1="-138.25" x2="216.5" y2="-138.25"/>
		</g>
		<g>
			<line fill="none" stroke="#231F20" stroke-width="0.3" x1="78.25" y1="-144.5" x2="78.25" y2="-72"/>
			<line fill="none" stroke="#231F20" stroke-width="0.3" x1="102.25" y1="-144.5" x2="102.25" y2="-72"/>
			<line fill="none" stroke="#231F20" stroke-width="0.3" x1="126.25" y1="-144.5" x2="126.25" y2="-72"/>
			<line fill="none" stroke="#231F20" stroke-width="0.3" x1="72" y1="-78.25" x2="144.5" y2="-78.25"/>
			<line fill="none" stroke="#231F20" stroke-width="0.3" x1="72" y1="-102.25" x2="144.5" y2="-102.25"/>
			<line fill="none" stroke="#231F20" stroke-width="0.3" x1="72" y1="-126.25" x2="144.5" y2="-126.25"/>
			<line fill="none" stroke="#231F20" stroke-width="0.3" x1="72" y1="-90.25" x2="144.5" y2="-90.25"/>
			<line fill="none" stroke="#231F20" stroke-width="0.3" x1="72" y1="-114.25" x2="144.5" y2="-114.25"/>
			<line fill="none" stroke="#231F20" stroke-width="0.3" x1="72" y1="-138.25" x2="144.5" y2="-138.25"/>
			<line fill="none" stroke="#231F20" stroke-width="0.3" x1="90.25" y1="-144.5" x2="90.25" y2="-72"/>
			<line fill="none" stroke="#231F20" stroke-width="0.3" x1="114.25" y1="-144.5" x2="114.25" y2="-72"/>
			<line fill="none" stroke="#231F20" stroke-width="0.3" x1="138.25" y1="-144.5" x2="138.25" y2="-72"/>
		</g>
		<g>
			<line fill="none" stroke="#231F20" stroke-width="0.3" x1="0" y1="-78.25" x2="72.5" y2="-78.25"/>
			<line fill="none" stroke="#231F20" stroke-width="0.3" x1="0" y1="-102.25" x2="72.5" y2="-102.25"/>
			<line fill="none" stroke="#231F20" stroke-width="0.3" x1="0" y1="-126.25" x2="72.5" y2="-126.25"/>
			<line fill="none" stroke="#231F20" stroke-width="0.3" x1="0" y1="-90.25" x2="72.5" y2="-90.25"/>
			<line fill="none" stroke="#231F20" stroke-width="0.3" x1="0" y1="-114.25" x2="72.5" y2="-114.25"/>
			<line fill="none" stroke="#231F20" stroke-width="0.3" x1="0" y1="-138.25" x2="72.5" y2="-138.25"/>
		</g>
		<g>
			<line fill="none" stroke="#231F20" stroke-width="0.3" x1="78.25" y1="-216.5" x2="78.25" y2="-144"/>
			<line fill="none" stroke="#231F20" stroke-width="0.3" x1="102.25" y1="-216.5" x2="102.25" y2="-144"/>
			<line fill="none" stroke="#231F20" stroke-width="0.3" x1="126.25" y1="-216.5" x2="126.25" y2="-144"/>
			<line fill="none" stroke="#231F20" stroke-width="0.3" x1="90.25" y1="-216.5" x2="90.25" y2="-144"/>
			<line fill="none" stroke="#231F20" stroke-width="0.3" x1="114.25" y1="-216.5" x2="114.25" y2="-144"/>
			<line fill="none" stroke="#231F20" stroke-width="0.3" x1="138.25" y1="-216.5" x2="138.25" y2="-144"/>
		</g>
	</g>
</pattern>
<g id="Layer_1">
	<rect x="10" y="33" fill="#0D0D0D" width="1098" height="236"/>
</g>
<g id="Layer_2">
</g>
<g id="Layer_3" display="none">
</g>
<g id="Layer_4">
</g>
<g id="Layer_5">
	<rect x="22.5" y="37.5" fill="#0D0D0D" stroke="#BDCCD4" stroke-miterlimit="10" width="226" height="226"/>
	<pattern  id="SVGID_1_" xlink:href="#Grid_1_pica_Lines" patternTransform="matrix(1 0 0 1 49 -45)">
	</pattern>
	<rect x="59.5" y="75.5" fill="url(#SVGID_1_)" stroke="#F2F2F2" stroke-miterlimit="10" width="151" height="151"/>
	<g>
		<circle fill="#268C16" cx="69.361" cy="85.344" r="4.207"/>
		<circle fill="#268C16" cx="80.28" cy="85.344" r="4.209"/>
		<circle fill="#268C16" cx="91.199" cy="85.344" r="4.208"/>
		<circle fill="#268C16" cx="102.119" cy="85.344" r="4.208"/>
		<circle fill="#268C16" cx="113.038" cy="85.344" r="4.208"/>
		<circle fill="#268C16" cx="124.361" cy="85.344" r="4.207"/>
		<circle fill="#268C16" cx="135.28" cy="85.344" r="4.209"/>
		<circle fill="#268C16" cx="146.199" cy="85.344" r="4.208"/>
		<circle fill="#268C16" cx="157.119" cy="85.344" r="4.208"/>
		<circle fill="#268C16" cx="168.038" cy="85.344" r="4.208"/>
		<circle fill="#268C16" cx="178.28" cy="85.344" r="4.209"/>
		<circle fill="#268C16" cx="189.199" cy="85.344" r="4.208"/>
		<circle fill="#268C16" cx="200.119" cy="85.344" r="4.208"/>
	</g>
	<g>
		<circle fill="#268C16" cx="69.361" cy="96.344" r="4.207"/>
		<circle fill="#268C16" cx="80.28" cy="96.344" r="4.209"/>
		<circle fill="#268C16" cx="91.199" cy="96.344" r="4.208"/>
		<circle fill="#268C16" cx="102.119" cy="96.344" r="4.208"/>
		<circle fill="#268C16" cx="113.038" cy="96.344" r="4.208"/>
		<circle fill="#268C16" cx="124.361" cy="96.344" r="4.207"/>
		<circle fill="#268C16" cx="135.28" cy="96.344" r="4.209"/>
		<circle fill="#268C16" cx="146.199" cy="96.344" r="4.208"/>
		<circle fill="#268C16" cx="157.119" cy="96.344" r="4.208"/>
		<circle fill="#268C16" cx="168.038" cy="96.344" r="4.208"/>
		<circle fill="#268C16" cx="178.28" cy="96.344" r="4.209"/>
		<circle fill="#268C16" cx="189.199" cy="96.344" r="4.208"/>
		<circle fill="#268C16" cx="200.119" cy="96.344" r="4.208"/>
	</g>
	<g>
		<circle fill="#268C16" cx="69.361" cy="107.344" r="4.207"/>
		<circle fill="#268C16" cx="80.28" cy="107.344" r="4.209"/>
		<circle fill="#268C16" cx="91.199" cy="107.344" r="4.208"/>
		<circle fill="#268C16" cx="102.119" cy="107.344" r="4.208"/>
		<circle fill="#268C16" cx="113.038" cy="107.344" r="4.208"/>
		<circle fill="#268C16" cx="124.361" cy="107.344" r="4.207"/>
		<circle fill="#268C16" cx="135.28" cy="107.344" r="4.209"/>
		<circle fill="#268C16" cx="146.199" cy="107.344" r="4.208"/>
		<circle fill="#268C16" cx="157.119" cy="107.344" r="4.208"/>
		<circle fill="#268C16" cx="168.038" cy="107.344" r="4.208"/>
		<circle fill="#268C16" cx="178.28" cy="107.344" r="4.209"/>
		<circle fill="#268C16" cx="189.199" cy="107.344" r="4.208"/>
		<circle fill="#268C16" cx="200.119" cy="107.344" r="4.208"/>
	</g>
	<g>
		<circle fill="#268C16" cx="69.361" cy="118.344" r="4.207"/>
		<circle fill="#268C16" cx="80.28" cy="118.344" r="4.209"/>
		<circle fill="#268C16" cx="91.199" cy="118.344" r="4.208"/>
		<circle fill="#268C16" cx="102.119" cy="118.344" r="4.208"/>
		<circle fill="#268C16" cx="113.038" cy="118.344" r="4.208"/>
		<circle fill="#268C16" cx="124.361" cy="118.344" r="4.207"/>
		<circle fill="#268C16" cx="135.28" cy="118.344" r="4.209"/>
		<circle fill="#268C16" cx="146.199" cy="118.344" r="4.208"/>
		<circle fill="#268C16" cx="157.119" cy="118.344" r="4.208"/>
		<circle fill="#268C16" cx="168.038" cy="118.344" r="4.208"/>
		<circle fill="#268C16" cx="178.28" cy="118.344" r="4.209"/>
		<circle fill="#268C16" cx="189.199" cy="118.344" r="4.208"/>
		<circle fill="#268C16" cx="200.119" cy="118.344" r="4.208"/>
	</g>
	<g>
		<circle fill="#268C16" cx="69.361" cy="129.344" r="4.207"/>
		<circle fill="#268C16" cx="80.28" cy="129.344" r="4.209"/>
		<circle fill="#268C16" cx="91.199" cy="129.344" r="4.208"/>
		<circle fill="#268C16" cx="102.119" cy="129.344" r="4.208"/>
		<circle fill="#268C16" cx="113.038" cy="129.344" r="4.208"/>
		<circle fill="#268C16" cx="124.361" cy="129.344" r="4.207"/>
		<circle fill="#268C16" cx="135.28" cy="129.344" r="4.209"/>
		<circle fill="#268C16" cx="146.199" cy="129.344" r="4.208"/>
		<circle fill="#268C16" cx="157.119" cy="129.344" r="4.208"/>
		<circle fill="#268C16" cx="168.038" cy="129.344" r="4.208"/>
		<circle fill="#268C16" cx="178.28" cy="129.344" r="4.209"/>
		<circle fill="#268C16" cx="189.199" cy="129.344" r="4.208"/>
		<circle fill="#268C16" cx="200.119" cy="129.344" r="4.208"/>
	</g>
	<g>
		<circle fill="#268C16" cx="69.361" cy="140.344" r="4.207"/>
		<circle fill="#268C16" cx="80.28" cy="140.344" r="4.209"/>
		<circle fill="#268C16" cx="91.199" cy="140.344" r="4.208"/>
		<circle fill="#268C16" cx="102.119" cy="140.344" r="4.208"/>
		<circle fill="#268C16" cx="113.038" cy="140.344" r="4.208"/>
		<circle fill="#268C16" cx="124.361" cy="140.344" r="4.207"/>
		<circle fill="#268C16" cx="135.28" cy="140.344" r="4.209"/>
		<circle fill="#268C16" cx="146.199" cy="140.344" r="4.208"/>
		<circle fill="#268C16" cx="157.119" cy="140.344" r="4.208"/>
		<circle fill="#268C16" cx="168.038" cy="140.344" r="4.208"/>
		<circle fill="#268C16" cx="178.28" cy="140.344" r="4.209"/>
		<circle fill="#268C16" cx="189.199" cy="140.344" r="4.208"/>
		<circle fill="#268C16" cx="200.119" cy="140.344" r="4.208"/>
	</g>
	<g>
		<circle fill="#268C16" cx="69.361" cy="151.344" r="4.207"/>
		<circle fill="#268C16" cx="80.28" cy="151.344" r="4.209"/>
		<circle fill="#268C16" cx="91.199" cy="151.344" r="4.208"/>
		<circle fill="#268C16" cx="102.119" cy="151.344" r="4.208"/>
		<circle fill="#268C16" cx="113.038" cy="151.344" r="4.208"/>
		<circle fill="#268C16" cx="124.361" cy="151.344" r="4.207"/>
		<circle fill="#268C16" cx="135.28" cy="151.344" r="4.209"/>
	</g>
	<g>
		<g>
			<rect x="271" y="89" fill="none" width="240" height="122"/>
		</g>
		<g>
			<g>
				<circle fill="#268C16" cx="283.688" cy="130.046" r="6.753"/>
				<path fill="#268C16" d="M294.457,130.046c0,3.729,3.027,6.754,6.753,6.754c3.731,0,6.759-3.025,6.759-6.754
					c0-3.731-3.027-6.754-6.759-6.754C297.484,123.292,294.457,126.315,294.457,130.046z"/>
				<path fill="#268C16" d="M311.982,130.046c0,3.729,3.025,6.754,6.758,6.754c3.727,0,6.752-3.025,6.752-6.754
					c0-3.731-3.025-6.754-6.752-6.754C315.008,123.292,311.982,126.315,311.982,130.046z"/>
				<path fill="#268C16" d="M329.637,130.046c0,3.729,3.025,6.754,6.758,6.754c3.728,0,6.752-3.025,6.752-6.754
					c0-3.731-3.024-6.754-6.752-6.754C332.662,123.292,329.637,126.315,329.637,130.046z"/>
			</g>
			<line fill="none" stroke="#268C16" stroke-miterlimit="10" x1="283.5" y1="130" x2="283.5" y2="150"/>
			<line fill="none" stroke="#268C16" stroke-miterlimit="10" x1="301.5" y1="130" x2="301.5" y2="150"/>
			<line fill="none" stroke="#268C16" stroke-miterlimit="10" x1="318.5" y1="130" x2="318.5" y2="150"/>
			<line fill="none" stroke="#268C16" stroke-miterlimit="10" x1="337.5" y1="130" x2="337.5" y2="150"/>
			<circle fill="#268C16" cx="354.309" cy="130.046" r="6.753"/>
			<circle fill="#268C16" cx="371.833" cy="130.046" r="6.755"/>
			<path fill="#268C16" d="M382.602,130.046c0,3.729,3.025,6.754,6.758,6.754c3.727,0,6.753-3.025,6.753-6.754
				c0-3.731-3.026-6.754-6.753-6.754C385.627,123.292,382.602,126.315,382.602,130.046z"/>
			<line fill="none" stroke="#268C16" stroke-miterlimit="10" x1="354.5" y1="130" x2="354.5" y2="150"/>
			<line fill="none" stroke="#268C16" stroke-miterlimit="10" x1="370.5" y1="130" x2="370.5" y2="150"/>
			<line fill="none" stroke="#268C16" stroke-miterlimit="10" x1="389.5" y1="130" x2="389.5" y2="150"/>
		</g>
		<g>
			<rect x="511" y="89" fill="none" width="241" height="122"/>
		</g>
		<g>
			<g>
				<circle fill="#268C16" cx="524.439" cy="130.046" r="6.753"/>
				<path fill="#268C16" d="M535.207,130.046c0,3.729,3.026,6.754,6.754,6.754c3.73,0,6.758-3.025,6.758-6.754
					c0-3.731-3.027-6.754-6.758-6.754C538.233,123.292,535.207,126.315,535.207,130.046z"/>
				<path fill="#268C16" d="M552.732,130.046c0,3.729,3.025,6.754,6.757,6.754c3.728,0,6.753-3.025,6.753-6.754
					c0-3.731-3.025-6.754-6.753-6.754C555.758,123.292,552.732,126.315,552.732,130.046z"/>
				<path fill="#268C16" d="M570.389,130.046c0,3.729,3.023,6.754,6.757,6.754c3.728,0,6.751-3.025,6.751-6.754
					c0-3.731-3.023-6.754-6.751-6.754C573.412,123.292,570.389,126.315,570.389,130.046z"/>
			</g>
			<line fill="none" stroke="#268C16" stroke-miterlimit="10" x1="523.5" y1="130" x2="523.5" y2="150"/>
			<line fill="none" stroke="#268C16" stroke-miterlimit="10" x1="542.5" y1="130" x2="542.5" y2="150"/>
			<line fill="none" stroke="#268C16" stroke-miterlimit="10" x1="559.5" y1="130" x2="559.5" y2="150"/>
			<line fill="none" stroke="#268C16" stroke-miterlimit="10" x1="578.5" y1="130" x2="578.5" y2="150"/>
			<circle fill="#268C16" cx="595.058" cy="130.046" r="6.753"/>
			<circle fill="#268C16" cx="612.583" cy="130.046" r="6.755"/>
			<path fill="#268C16" d="M623.354,130.046c0,3.729,3.024,6.754,6.756,6.754c3.727,0,6.753-3.025,6.753-6.754
				c0-3.731-3.026-6.754-6.753-6.754C626.378,123.292,623.354,126.315,623.354,130.046z"/>
			<line fill="none" stroke="#268C16" stroke-miterlimit="10" x1="595.5" y1="130" x2="595.5" y2="150"/>
			<line fill="none" stroke="#268C16" stroke-miterlimit="10" x1="611.5" y1="130" x2="611.5" y2="150"/>
			<line fill="none" stroke="#268C16" stroke-miterlimit="10" x1="629.5" y1="130" x2="629.5" y2="150"/>
		</g>
		<g>
			<rect x="752" y="89" fill="none" width="241" height="122"/>
		</g>
		<g>
			<g>
				<circle fill="#268C16" cx="765.188" cy="130.046" r="6.753"/>
				<circle fill="#268C16" cx="782.714" cy="130.046" r="6.755"/>
				<circle fill="#268C16" cx="800.238" cy="130.046" r="6.755"/>
				<circle fill="#268C16" cx="817.893" cy="130.046" r="6.754"/>
			</g>
			<line fill="none" stroke="#268C16" stroke-miterlimit="10" x1="764.5" y1="130" x2="764.5" y2="150"/>
			<line fill="none" stroke="#268C16" stroke-miterlimit="10" x1="783.5" y1="130" x2="783.5" y2="150"/>
			<line fill="none" stroke="#268C16" stroke-miterlimit="10" x1="800.5" y1="130" x2="800.5" y2="150"/>
			<line fill="none" stroke="#268C16" stroke-miterlimit="10" x1="818.5" y1="130" x2="818.5" y2="150"/>
			<circle fill="#268C16" cx="835.81" cy="130.046" r="6.753"/>
			<circle fill="#268C16" cx="853.333" cy="130.046" r="6.755"/>
			<circle fill="#268C16" cx="870.857" cy="130.046" r="6.754"/>
			<line fill="none" stroke="#268C16" stroke-miterlimit="10" x1="836.5" y1="130" x2="836.5" y2="150"/>
			<line fill="none" stroke="#268C16" stroke-miterlimit="10" x1="852.5" y1="130" x2="852.5" y2="150"/>
			<line fill="none" stroke="#268C16" stroke-miterlimit="10" x1="870.5" y1="130" x2="870.5" y2="150"/>
		</g>
		<g>
			<g>
				<g>
					<g>
						<g>
							<g>
								<rect x="499.398" y="89.369" fill="none" width="24.072" height="20.33"/>
							</g>
							<rect x="509.879" y="104.423" fill-rule="evenodd" clip-rule="evenodd" fill="#231F20" width="2.406" height="3.774"/>
							<rect x="509.879" y="97.655" fill-rule="evenodd" clip-rule="evenodd" fill="#231F20" width="2.406" height="3.774"/>
							<rect x="509.879" y="90.91" fill-rule="evenodd" clip-rule="evenodd" fill="#231F20" width="2.406" height="3.773"/>
						</g>
					</g>
					<g>
						<g>
							<g>
								<rect x="499.398" y="109.699" fill="none" width="24.072" height="20.33"/>
							</g>
							<rect x="509.879" y="124.753" fill-rule="evenodd" clip-rule="evenodd" fill="#231F20" width="2.406" height="3.773"/>
							<rect x="509.879" y="117.985" fill-rule="evenodd" clip-rule="evenodd" fill="#231F20" width="2.406" height="3.773"/>
							<rect x="509.879" y="111.24" fill-rule="evenodd" clip-rule="evenodd" fill="#231F20" width="2.406" height="3.773"/>
						</g>
					</g>
					<g>
						<g>
							<g>
								<rect x="499.398" y="130.029" fill="none" width="24.072" height="20.33"/>
							</g>
							<rect x="509.879" y="145.083" fill-rule="evenodd" clip-rule="evenodd" fill="#231F20" width="2.406" height="3.773"/>
							<rect x="509.879" y="138.315" fill-rule="evenodd" clip-rule="evenodd" fill="#231F20" width="2.406" height="3.773"/>
							<rect x="509.879" y="131.569" fill-rule="evenodd" clip-rule="evenodd" fill="#231F20" width="2.406" height="3.774"/>
						</g>
					</g>
					<g>
						<g>
							<g>
								<rect x="499.398" y="150.359" fill="none" width="24.072" height="20.33"/>
							</g>
							<rect x="509.879" y="165.414" fill-rule="evenodd" clip-rule="evenodd" fill="#231F20" width="2.406" height="3.773"/>
							<rect x="509.879" y="158.646" fill-rule="evenodd" clip-rule="evenodd" fill="#231F20" width="2.406" height="3.773"/>
							<rect x="509.879" y="151.899" fill-rule="evenodd" clip-rule="evenodd" fill="#231F20" width="2.406" height="3.773"/>
						</g>
					</g>
					<g>
						<g>
							<g>
								<rect x="499.398" y="170.689" fill="none" width="24.072" height="20.33"/>
							</g>
							<rect x="509.879" y="185.744" fill-rule="evenodd" clip-rule="evenodd" fill="#231F20" width="2.406" height="3.773"/>
							<rect x="509.879" y="178.976" fill-rule="evenodd" clip-rule="evenodd" fill="#231F20" width="2.406" height="3.773"/>
							<rect x="509.879" y="172.229" fill-rule="evenodd" clip-rule="evenodd" fill="#231F20" width="2.406" height="3.773"/>
						</g>
					</g>
					<g>
						<g>
							<g>
								<rect x="499.398" y="191.019" fill="none" width="24.072" height="20.33"/>
							</g>
							<rect x="509.879" y="206.074" fill-rule="evenodd" clip-rule="evenodd" fill="#231F20" width="2.406" height="3.773"/>
							<rect x="509.879" y="199.306" fill-rule="evenodd" clip-rule="evenodd" fill="#231F20" width="2.406" height="3.773"/>
							<rect x="509.879" y="192.56" fill-rule="evenodd" clip-rule="evenodd" fill="#231F20" width="2.406" height="3.773"/>
						</g>
					</g>
				</g>
			</g>
		</g>
		<g>
			<g>
				<g>
					<g>
						<g>
							<g>
								<rect x="740.149" y="89.369" fill="none" width="24.071" height="20.33"/>
							</g>
							<rect x="750.629" y="104.423" fill-rule="evenodd" clip-rule="evenodd" fill="#231F20" width="2.408" height="3.774"/>
							<rect x="750.629" y="97.655" fill-rule="evenodd" clip-rule="evenodd" fill="#231F20" width="2.408" height="3.774"/>
							<rect x="750.629" y="90.91" fill-rule="evenodd" clip-rule="evenodd" fill="#231F20" width="2.408" height="3.773"/>
						</g>
					</g>
					<g>
						<g>
							<g>
								<rect x="740.149" y="109.699" fill="none" width="24.071" height="20.33"/>
							</g>
							<rect x="750.629" y="124.753" fill-rule="evenodd" clip-rule="evenodd" fill="#231F20" width="2.408" height="3.773"/>
							<rect x="750.629" y="117.985" fill-rule="evenodd" clip-rule="evenodd" fill="#231F20" width="2.408" height="3.773"/>
							<rect x="750.629" y="111.24" fill-rule="evenodd" clip-rule="evenodd" fill="#231F20" width="2.408" height="3.773"/>
						</g>
					</g>
					<g>
						<g>
							<g>
								<rect x="740.149" y="130.029" fill="none" width="24.071" height="20.33"/>
							</g>
							<rect x="750.629" y="145.083" fill-rule="evenodd" clip-rule="evenodd" fill="#231F20" width="2.408" height="3.773"/>
							<rect x="750.629" y="138.315" fill-rule="evenodd" clip-rule="evenodd" fill="#231F20" width="2.408" height="3.773"/>
							<rect x="750.629" y="131.569" fill-rule="evenodd" clip-rule="evenodd" fill="#231F20" width="2.408" height="3.774"/>
						</g>
					</g>
					<g>
						<g>
							<g>
								<rect x="740.149" y="150.359" fill="none" width="24.071" height="20.33"/>
							</g>
							<rect x="750.629" y="165.414" fill-rule="evenodd" clip-rule="evenodd" fill="#231F20" width="2.408" height="3.773"/>
							<rect x="750.629" y="158.646" fill-rule="evenodd" clip-rule="evenodd" fill="#231F20" width="2.408" height="3.773"/>
							<rect x="750.629" y="151.899" fill-rule="evenodd" clip-rule="evenodd" fill="#231F20" width="2.408" height="3.773"/>
						</g>
					</g>
					<g>
						<g>
							<g>
								<rect x="740.149" y="170.689" fill="none" width="24.071" height="20.33"/>
							</g>
							<rect x="750.629" y="185.744" fill-rule="evenodd" clip-rule="evenodd" fill="#231F20" width="2.408" height="3.773"/>
							<rect x="750.629" y="178.976" fill-rule="evenodd" clip-rule="evenodd" fill="#231F20" width="2.408" height="3.773"/>
							<rect x="750.629" y="172.229" fill-rule="evenodd" clip-rule="evenodd" fill="#231F20" width="2.408" height="3.773"/>
						</g>
					</g>
					<g>
						<g>
							<g>
								<rect x="740.149" y="191.019" fill="none" width="24.071" height="20.33"/>
							</g>
							<rect x="750.629" y="206.074" fill-rule="evenodd" clip-rule="evenodd" fill="#231F20" width="2.408" height="3.773"/>
							<rect x="750.629" y="199.306" fill-rule="evenodd" clip-rule="evenodd" fill="#231F20" width="2.408" height="3.773"/>
							<rect x="750.629" y="192.56" fill-rule="evenodd" clip-rule="evenodd" fill="#231F20" width="2.408" height="3.773"/>
						</g>
					</g>
				</g>
			</g>
		</g>
		<g>
			<g>
				<g>
					<g>
						<g>
							<g>
								<rect x="980.898" y="89.369" fill="none" width="24.073" height="20.33"/>
							</g>
							<rect x="991.379" y="104.423" fill-rule="evenodd" clip-rule="evenodd" fill="#231F20" width="2.408" height="3.774"/>
							<rect x="991.379" y="97.655" fill-rule="evenodd" clip-rule="evenodd" fill="#231F20" width="2.408" height="3.774"/>
							<rect x="991.379" y="90.91" fill-rule="evenodd" clip-rule="evenodd" fill="#231F20" width="2.408" height="3.773"/>
						</g>
					</g>
					<g>
						<g>
							<g>
								<rect x="980.898" y="109.699" fill="none" width="24.073" height="20.33"/>
							</g>
							<rect x="991.379" y="124.753" fill-rule="evenodd" clip-rule="evenodd" fill="#231F20" width="2.408" height="3.773"/>
							<rect x="991.379" y="117.985" fill-rule="evenodd" clip-rule="evenodd" fill="#231F20" width="2.408" height="3.773"/>
							<rect x="991.379" y="111.24" fill-rule="evenodd" clip-rule="evenodd" fill="#231F20" width="2.408" height="3.773"/>
						</g>
					</g>
					<g>
						<g>
							<g>
								<rect x="980.898" y="130.029" fill="none" width="24.073" height="20.33"/>
							</g>
							<rect x="991.379" y="145.083" fill-rule="evenodd" clip-rule="evenodd" fill="#231F20" width="2.408" height="3.773"/>
							<rect x="991.379" y="138.315" fill-rule="evenodd" clip-rule="evenodd" fill="#231F20" width="2.408" height="3.773"/>
							<rect x="991.379" y="131.569" fill-rule="evenodd" clip-rule="evenodd" fill="#231F20" width="2.408" height="3.774"/>
						</g>
					</g>
					<g>
						<g>
							<g>
								<rect x="980.898" y="150.359" fill="none" width="24.073" height="20.33"/>
							</g>
							<rect x="991.379" y="165.414" fill-rule="evenodd" clip-rule="evenodd" fill="#231F20" width="2.408" height="3.773"/>
							<rect x="991.379" y="158.646" fill-rule="evenodd" clip-rule="evenodd" fill="#231F20" width="2.408" height="3.773"/>
							<rect x="991.379" y="151.899" fill-rule="evenodd" clip-rule="evenodd" fill="#231F20" width="2.408" height="3.773"/>
						</g>
					</g>
					<g>
						<g>
							<g>
								<rect x="980.898" y="170.689" fill="none" width="24.073" height="20.33"/>
							</g>
							<rect x="991.379" y="185.744" fill-rule="evenodd" clip-rule="evenodd" fill="#231F20" width="2.408" height="3.773"/>
							<rect x="991.379" y="178.976" fill-rule="evenodd" clip-rule="evenodd" fill="#231F20" width="2.408" height="3.773"/>
							<rect x="991.379" y="172.229" fill-rule="evenodd" clip-rule="evenodd" fill="#231F20" width="2.408" height="3.773"/>
						</g>
					</g>
					<g>
						<g>
							<g>
								<rect x="980.898" y="191.019" fill="none" width="24.073" height="20.33"/>
							</g>
							<rect x="991.379" y="206.074" fill-rule="evenodd" clip-rule="evenodd" fill="#231F20" width="2.408" height="3.773"/>
							<rect x="991.379" y="199.306" fill-rule="evenodd" clip-rule="evenodd" fill="#231F20" width="2.408" height="3.773"/>
							<rect x="991.379" y="192.56" fill-rule="evenodd" clip-rule="evenodd" fill="#231F20" width="2.408" height="3.773"/>
						</g>
					</g>
				</g>
			</g>
		</g>
		<line fill="none" stroke="#F2F2F2" stroke-miterlimit="10" x1="270" y1="151.5" x2="1068" y2="151.5"/>
	</g>
</g>
<g id="Layer_6">
</g>
</svg>
