<?xml version="1.0" encoding="utf-8"?>
<!-- Generator: Adobe Illustrator 16.0.0, SVG Export Plug-In . SVG Version: 6.00 Build 0)  -->
<!DOCTYPE svg PUBLIC "-//W3C//DTD SVG 1.1//EN" "http://www.w3.org/Graphics/SVG/1.1/DTD/svg11.dtd">
<svg version="1.1" xmlns="http://www.w3.org/2000/svg" xmlns:xlink="http://www.w3.org/1999/xlink" x="0px" y="0px" width="1152px"
	 height="700px" viewBox="0 0 1152 700" enable-background="new 0 0 1152 700" xml:space="preserve">
<g id="Layer_1">
	<rect y="1" fill="#0D0D0D" width="1152" height="700"/>
</g>
<g id="Layer_2">
	<g id="Layer_2_2_">
		<g>
			<circle fill="#D93644" cx="978.623" cy="248.965" r="3.371"/>
			<circle fill="#0C59F2" cx="985.042" cy="243.303" r="3.372"/>
			<circle fill="#D93644" cx="976.736" cy="241.038" r="3.371"/>
			<circle fill="#0C59F2" cx="982.777" cy="234.241" r="3.371"/>
			<circle fill="#0C59F2" cx="969.563" cy="245.946" r="3.371"/>
			<circle fill="#D93644" cx="968.432" cy="237.639" r="3.37"/>
			<circle fill="#0C59F2" cx="974.471" cy="232.732" r="3.371"/>
			<circle fill="#D93644" cx="990.705" cy="237.639" r="3.371"/>
			<circle fill="#0C59F2" cx="992.215" cy="246.702" r="3.371"/>
			<circle fill="#D93644" cx="986.175" cy="253.118" r="3.371"/>
			<circle fill="#D93644" cx="971.074" cy="253.874" r="3.372"/>
			<circle fill="#0C59F2" cx="978.623" cy="256.516" r="3.371"/>
			<circle fill="none" stroke="#F2F2F2" stroke-width="0.3775" stroke-miterlimit="10" cx="979.928" cy="244.588" r="24.918"/>
			<circle fill="none" stroke="#F2F2F2" stroke-width="0.3775" stroke-miterlimit="10" cx="979.739" cy="244.399" r="34.923"/>
			<circle fill="#268C16" cx="1001.653" cy="256.516" r="3.371"/>
			<circle fill="#268C16" cx="987.309" cy="278.414" r="3.371"/>
			<circle fill="#268C16" cx="979.756" cy="219.518" r="3.371"/>
			<circle fill="#268C16" cx="1008.827" cy="225.936" r="3.372"/>
			<circle fill="#268C16" cx="960.124" cy="259.915" r="3.372"/>
			<circle fill="#268C16" cx="947.289" cy="230.844" r="3.371"/>
		</g>
		<g>
			<circle fill="#D93644" cx="802.623" cy="627.965" r="3.371"/>
			<circle fill="#0C59F2" cx="809.042" cy="622.304" r="3.372"/>
			<circle fill="#D93644" cx="800.736" cy="620.039" r="3.371"/>
			<circle fill="#0C59F2" cx="806.777" cy="613.241" r="3.371"/>
			<circle fill="#0C59F2" cx="793.563" cy="624.946" r="3.371"/>
			<circle fill="#D93644" cx="792.432" cy="616.64" r="3.37"/>
			<circle fill="#0C59F2" cx="798.471" cy="611.732" r="3.371"/>
			<circle fill="#D93644" cx="814.705" cy="616.639" r="3.371"/>
			<circle fill="#0C59F2" cx="816.215" cy="625.701" r="3.371"/>
			<circle fill="#D93644" cx="810.175" cy="632.118" r="3.371"/>
			<circle fill="#D93644" cx="795.074" cy="632.874" r="3.372"/>
			<circle fill="#0C59F2" cx="802.623" cy="635.516" r="3.371"/>
			<circle fill="none" stroke="#F2F2F2" stroke-width="0.3775" stroke-miterlimit="10" cx="803.928" cy="623.588" r="24.918"/>
			<circle fill="none" stroke="#F2F2F2" stroke-width="0.3775" stroke-miterlimit="10" cx="803.739" cy="623.399" r="34.923"/>
			<circle fill="#268C16" cx="825.653" cy="635.516" r="3.371"/>
			<circle fill="#268C16" cx="811.309" cy="657.414" r="3.371"/>
			<circle fill="#268C16" cx="803.756" cy="598.518" r="3.371"/>
			<circle fill="#268C16" cx="832.827" cy="604.937" r="3.372"/>
			<circle fill="#268C16" cx="784.124" cy="638.915" r="3.372"/>
			<circle fill="#268C16" cx="771.289" cy="609.844" r="3.371"/>
		</g>
		<g>
			<circle fill="#D93644" cx="743.623" cy="425.965" r="3.371"/>
			<circle fill="#0C59F2" cx="750.042" cy="420.303" r="3.372"/>
			<circle fill="#D93644" cx="741.736" cy="418.037" r="3.371"/>
			<circle fill="#0C59F2" cx="747.777" cy="411.241" r="3.371"/>
			<circle fill="#0C59F2" cx="734.563" cy="422.946" r="3.371"/>
			<circle fill="#D93644" cx="733.432" cy="414.639" r="3.37"/>
			<circle fill="#0C59F2" cx="739.471" cy="409.732" r="3.371"/>
			<circle fill="#D93644" cx="755.705" cy="414.639" r="3.371"/>
			<circle fill="#0C59F2" cx="757.215" cy="423.701" r="3.371"/>
			<circle fill="#D93644" cx="751.175" cy="430.118" r="3.371"/>
			<circle fill="#D93644" cx="736.074" cy="430.873" r="3.372"/>
			<circle fill="#0C59F2" cx="743.623" cy="433.516" r="3.371"/>
			<circle fill="none" stroke="#F2F2F2" stroke-width="0.3775" stroke-miterlimit="10" cx="744.928" cy="421.588" r="24.918"/>
			<circle fill="none" stroke="#F2F2F2" stroke-width="0.3775" stroke-miterlimit="10" cx="744.739" cy="421.399" r="34.923"/>
			<circle fill="#268C16" cx="766.653" cy="433.516" r="3.371"/>
			<circle fill="#268C16" cx="752.309" cy="455.414" r="3.371"/>
			<circle fill="#268C16" cx="744.756" cy="396.518" r="3.371"/>
			<circle fill="#268C16" cx="773.827" cy="402.937" r="3.372"/>
			<circle fill="#268C16" cx="725.124" cy="436.914" r="3.372"/>
			<circle fill="#268C16" cx="712.289" cy="407.844" r="3.371"/>
		</g>
		<g>
			<circle fill="#D93644" cx="368.623" cy="189.965" r="3.371"/>
			<circle fill="#0C59F2" cx="375.042" cy="184.303" r="3.372"/>
			<circle fill="#D93644" cx="366.736" cy="182.038" r="3.371"/>
			<circle fill="#0C59F2" cx="372.777" cy="175.241" r="3.371"/>
			<circle fill="#0C59F2" cx="359.563" cy="186.946" r="3.371"/>
			<circle fill="#D93644" cx="358.432" cy="178.639" r="3.37"/>
			<circle fill="#0C59F2" cx="364.471" cy="173.732" r="3.371"/>
			<circle fill="#D93644" cx="380.705" cy="178.639" r="3.371"/>
			<circle fill="#0C59F2" cx="382.215" cy="187.702" r="3.371"/>
			<circle fill="#D93644" cx="376.175" cy="194.118" r="3.371"/>
			<circle fill="#D93644" cx="361.074" cy="194.874" r="3.372"/>
			<circle fill="#0C59F2" cx="368.623" cy="197.516" r="3.371"/>
			<circle fill="none" stroke="#F2F2F2" stroke-width="0.3775" stroke-miterlimit="10" cx="369.928" cy="185.588" r="24.918"/>
			<circle fill="none" stroke="#F2F2F2" stroke-width="0.3775" stroke-miterlimit="10" cx="369.739" cy="185.399" r="34.923"/>
			<circle fill="#268C16" cx="391.653" cy="197.516" r="3.371"/>
			<circle fill="#268C16" cx="377.309" cy="219.414" r="3.371"/>
			<circle fill="#268C16" cx="369.756" cy="160.518" r="3.371"/>
			<circle fill="#268C16" cx="398.827" cy="166.936" r="3.372"/>
			<circle fill="#268C16" cx="350.124" cy="200.915" r="3.372"/>
			<circle fill="#268C16" cx="337.289" cy="171.844" r="3.371"/>
		</g>
		<g>
			<circle fill="#D93644" cx="970.623" cy="433.965" r="3.371"/>
			<circle fill="#0C59F2" cx="977.042" cy="428.304" r="3.372"/>
			<circle fill="#D93644" cx="968.736" cy="426.039" r="3.371"/>
			<circle fill="#0C59F2" cx="974.777" cy="419.241" r="3.371"/>
			<circle fill="#0C59F2" cx="961.563" cy="430.946" r="3.371"/>
			<circle fill="#D93644" cx="960.432" cy="422.64" r="3.37"/>
			<circle fill="#0C59F2" cx="966.471" cy="417.732" r="3.371"/>
			<circle fill="#D93644" cx="982.705" cy="422.639" r="3.371"/>
			<circle fill="#0C59F2" cx="984.215" cy="431.701" r="3.371"/>
			<circle fill="#D93644" cx="978.175" cy="438.118" r="3.371"/>
			<circle fill="#D93644" cx="963.074" cy="438.874" r="3.372"/>
			<circle fill="#0C59F2" cx="970.623" cy="441.516" r="3.371"/>
			<circle fill="none" stroke="#F2F2F2" stroke-width="0.3775" stroke-miterlimit="10" cx="971.928" cy="429.588" r="24.918"/>
			<circle fill="none" stroke="#F2F2F2" stroke-width="0.3775" stroke-miterlimit="10" cx="971.739" cy="429.399" r="34.923"/>
			<circle fill="#268C16" cx="993.653" cy="441.516" r="3.371"/>
			<circle fill="#268C16" cx="979.309" cy="463.414" r="3.371"/>
			<circle fill="#268C16" cx="971.756" cy="404.518" r="3.371"/>
			<circle fill="#268C16" cx="1000.827" cy="410.937" r="3.372"/>
			<circle fill="#268C16" cx="952.124" cy="444.915" r="3.372"/>
			<circle fill="#268C16" cx="939.289" cy="415.844" r="3.371"/>
		</g>
		<g>
			<circle fill="#D93644" cx="658.623" cy="645.965" r="3.371"/>
			<circle fill="#0C59F2" cx="665.042" cy="640.304" r="3.372"/>
			<circle fill="#D93644" cx="656.736" cy="638.039" r="3.371"/>
			<circle fill="#0C59F2" cx="662.777" cy="631.241" r="3.371"/>
			<circle fill="#0C59F2" cx="649.563" cy="642.946" r="3.371"/>
			<circle fill="#D93644" cx="648.432" cy="634.64" r="3.37"/>
			<circle fill="#0C59F2" cx="654.471" cy="629.732" r="3.371"/>
			<circle fill="#D93644" cx="670.705" cy="634.639" r="3.371"/>
			<circle fill="#0C59F2" cx="672.215" cy="643.701" r="3.371"/>
			<circle fill="#D93644" cx="666.175" cy="650.118" r="3.371"/>
			<circle fill="#D93644" cx="651.074" cy="650.874" r="3.372"/>
			<circle fill="#0C59F2" cx="658.623" cy="653.516" r="3.371"/>
			<circle fill="none" stroke="#F2F2F2" stroke-width="0.3775" stroke-miterlimit="10" cx="659.928" cy="641.588" r="24.918"/>
			<circle fill="none" stroke="#F2F2F2" stroke-width="0.3775" stroke-miterlimit="10" cx="659.739" cy="641.399" r="34.923"/>
			<circle fill="#268C16" cx="681.653" cy="653.516" r="3.371"/>
			<circle fill="#268C16" cx="667.309" cy="675.414" r="3.371"/>
			<circle fill="#268C16" cx="659.756" cy="616.518" r="3.371"/>
			<circle fill="#268C16" cx="688.827" cy="622.937" r="3.372"/>
			<circle fill="#268C16" cx="640.124" cy="656.915" r="3.372"/>
			<circle fill="#268C16" cx="627.289" cy="627.844" r="3.371"/>
		</g>
		<g>
			<circle fill="#D93644" cx="859.623" cy="520.965" r="3.371"/>
			<circle fill="#0C59F2" cx="866.042" cy="515.304" r="3.372"/>
			<circle fill="#D93644" cx="857.736" cy="513.037" r="3.371"/>
			<circle fill="#0C59F2" cx="863.777" cy="506.241" r="3.371"/>
			<circle fill="#0C59F2" cx="850.563" cy="517.946" r="3.371"/>
			<circle fill="#D93644" cx="849.432" cy="509.64" r="3.37"/>
			<circle fill="#0C59F2" cx="855.471" cy="504.732" r="3.371"/>
			<circle fill="#D93644" cx="871.705" cy="509.639" r="3.371"/>
			<circle fill="#0C59F2" cx="873.215" cy="518.701" r="3.371"/>
			<circle fill="#D93644" cx="867.175" cy="525.118" r="3.371"/>
			<circle fill="#D93644" cx="852.074" cy="525.874" r="3.372"/>
			<circle fill="#0C59F2" cx="859.623" cy="528.516" r="3.371"/>
			<circle fill="none" stroke="#F2F2F2" stroke-width="0.3775" stroke-miterlimit="10" cx="860.928" cy="516.588" r="24.918"/>
			<circle fill="none" stroke="#F2F2F2" stroke-width="0.3775" stroke-miterlimit="10" cx="860.739" cy="516.399" r="34.923"/>
			<circle fill="#268C16" cx="882.653" cy="528.516" r="3.371"/>
			<circle fill="#268C16" cx="868.309" cy="550.414" r="3.371"/>
			<circle fill="#268C16" cx="860.756" cy="491.518" r="3.371"/>
			<circle fill="#268C16" cx="889.827" cy="497.937" r="3.372"/>
			<circle fill="#268C16" cx="841.124" cy="531.915" r="3.372"/>
			<circle fill="#268C16" cx="828.289" cy="502.844" r="3.371"/>
		</g>
		<g>
			<circle fill="#D93644" cx="1105.623" cy="429.966" r="3.371"/>
			<circle fill="#0C59F2" cx="1112.042" cy="424.304" r="3.372"/>
			<circle fill="#D93644" cx="1103.736" cy="422.037" r="3.371"/>
			<circle fill="#0C59F2" cx="1109.777" cy="415.241" r="3.371"/>
			<circle fill="#0C59F2" cx="1096.563" cy="426.946" r="3.371"/>
			<circle fill="#D93644" cx="1095.432" cy="418.64" r="3.37"/>
			<circle fill="#0C59F2" cx="1101.471" cy="413.732" r="3.371"/>
			<circle fill="#D93644" cx="1117.705" cy="418.64" r="3.371"/>
			<circle fill="#0C59F2" cx="1119.215" cy="427.701" r="3.371"/>
			<circle fill="#D93644" cx="1113.175" cy="434.118" r="3.371"/>
			<circle fill="#D93644" cx="1098.074" cy="434.874" r="3.372"/>
			<circle fill="#0C59F2" cx="1105.623" cy="437.517" r="3.371"/>
			<circle fill="none" stroke="#F2F2F2" stroke-width="0.3775" stroke-miterlimit="10" cx="1106.928" cy="425.588" r="24.917"/>
			<circle fill="none" stroke="#F2F2F2" stroke-width="0.3775" stroke-miterlimit="10" cx="1106.739" cy="425.399" r="34.923"/>
			<circle fill="#268C16" cx="1128.653" cy="437.517" r="3.371"/>
			<circle fill="#268C16" cx="1114.309" cy="459.414" r="3.371"/>
			<circle fill="#268C16" cx="1106.756" cy="400.519" r="3.371"/>
			<circle fill="#268C16" cx="1135.827" cy="406.937" r="3.372"/>
			<circle fill="#268C16" cx="1087.124" cy="440.915" r="3.372"/>
			<circle fill="#268C16" cx="1074.289" cy="411.844" r="3.371"/>
		</g>
		<g>
			<circle fill="#D93644" cx="612.623" cy="518.965" r="3.371"/>
			<circle fill="#0C59F2" cx="619.042" cy="513.303" r="3.373"/>
			<circle fill="#D93644" cx="610.736" cy="511.037" r="3.371"/>
			<circle fill="#0C59F2" cx="616.777" cy="504.241" r="3.371"/>
			<circle fill="#0C59F2" cx="603.563" cy="515.946" r="3.371"/>
			<circle fill="#D93644" cx="602.432" cy="507.639" r="3.37"/>
			<circle fill="#0C59F2" cx="608.471" cy="502.732" r="3.371"/>
			<circle fill="#D93644" cx="624.705" cy="507.639" r="3.371"/>
			<circle fill="#0C59F2" cx="626.215" cy="516.701" r="3.371"/>
			<circle fill="#D93644" cx="620.175" cy="523.118" r="3.371"/>
			<circle fill="#D93644" cx="605.074" cy="523.874" r="3.372"/>
			<circle fill="#0C59F2" cx="612.623" cy="526.516" r="3.371"/>
			<circle fill="none" stroke="#F2F2F2" stroke-width="0.3775" stroke-miterlimit="10" cx="613.928" cy="514.588" r="24.918"/>
			<circle fill="none" stroke="#F2F2F2" stroke-width="0.3775" stroke-miterlimit="10" cx="613.739" cy="514.399" r="34.923"/>
			<circle fill="#268C16" cx="635.653" cy="526.516" r="3.371"/>
			<circle fill="#268C16" cx="621.309" cy="548.414" r="3.371"/>
			<circle fill="#268C16" cx="613.756" cy="489.518" r="3.371"/>
			<circle fill="#268C16" cx="642.827" cy="495.936" r="3.372"/>
			<circle fill="#268C16" cx="594.124" cy="529.915" r="3.372"/>
			<circle fill="#268C16" cx="581.289" cy="500.844" r="3.371"/>
		</g>
		<g>
			<circle fill="#D93644" cx="242.623" cy="287.965" r="3.371"/>
			<circle fill="#0C59F2" cx="249.042" cy="282.303" r="3.372"/>
			<circle fill="#D93644" cx="240.736" cy="280.038" r="3.371"/>
			<circle fill="#0C59F2" cx="246.777" cy="273.241" r="3.371"/>
			<circle fill="#0C59F2" cx="233.563" cy="284.946" r="3.371"/>
			<circle fill="#D93644" cx="232.432" cy="276.639" r="3.37"/>
			<circle fill="#0C59F2" cx="238.471" cy="271.732" r="3.371"/>
			<circle fill="#D93644" cx="254.705" cy="276.639" r="3.371"/>
			<circle fill="#0C59F2" cx="256.215" cy="285.702" r="3.371"/>
			<circle fill="#D93644" cx="250.175" cy="292.118" r="3.371"/>
			<circle fill="#D93644" cx="235.074" cy="292.874" r="3.372"/>
			<circle fill="#0C59F2" cx="242.623" cy="295.516" r="3.371"/>
			<circle fill="none" stroke="#F2F2F2" stroke-width="0.3775" stroke-miterlimit="10" cx="243.928" cy="283.588" r="24.918"/>
			<circle fill="none" stroke="#F2F2F2" stroke-width="0.3775" stroke-miterlimit="10" cx="243.739" cy="283.399" r="34.923"/>
			<circle fill="#268C16" cx="265.653" cy="295.516" r="3.371"/>
			<circle fill="#268C16" cx="251.309" cy="317.414" r="3.371"/>
			<circle fill="#268C16" cx="243.756" cy="258.518" r="3.371"/>
			<circle fill="#268C16" cx="272.827" cy="264.936" r="3.372"/>
			<circle fill="#268C16" cx="224.124" cy="298.915" r="3.372"/>
			<circle fill="#268C16" cx="211.289" cy="269.844" r="3.371"/>
		</g>
		<g>
			<circle fill="#D93644" cx="287.623" cy="646.965" r="3.371"/>
			<circle fill="#0C59F2" cx="294.042" cy="641.303" r="3.372"/>
			<circle fill="#D93644" cx="285.736" cy="639.038" r="3.371"/>
			<circle fill="#0C59F2" cx="291.777" cy="632.241" r="3.371"/>
			<circle fill="#0C59F2" cx="278.563" cy="643.946" r="3.371"/>
			<circle fill="#D93644" cx="277.432" cy="635.639" r="3.37"/>
			<circle fill="#0C59F2" cx="283.471" cy="630.732" r="3.371"/>
			<circle fill="#D93644" cx="299.705" cy="635.639" r="3.371"/>
			<circle fill="#0C59F2" cx="301.215" cy="644.701" r="3.371"/>
			<circle fill="#D93644" cx="295.175" cy="651.118" r="3.371"/>
			<circle fill="#D93644" cx="280.074" cy="651.874" r="3.372"/>
			<circle fill="#0C59F2" cx="287.623" cy="654.516" r="3.371"/>
			<circle fill="none" stroke="#F2F2F2" stroke-width="0.3775" stroke-miterlimit="10" cx="288.928" cy="642.588" r="24.918"/>
			<circle fill="none" stroke="#F2F2F2" stroke-width="0.3775" stroke-miterlimit="10" cx="288.739" cy="642.399" r="34.923"/>
			<circle fill="#268C16" cx="310.653" cy="654.516" r="3.371"/>
			<circle fill="#268C16" cx="296.309" cy="676.413" r="3.371"/>
			<circle fill="#268C16" cx="288.756" cy="617.517" r="3.371"/>
			<circle fill="#268C16" cx="317.827" cy="623.936" r="3.372"/>
			<circle fill="#268C16" cx="269.124" cy="657.914" r="3.372"/>
			<circle fill="#268C16" cx="256.289" cy="628.843" r="3.371"/>
		</g>
		<g>
			<circle fill="#D93644" cx="970.623" cy="606.965" r="3.371"/>
			<circle fill="#0C59F2" cx="977.042" cy="601.304" r="3.372"/>
			<circle fill="#D93644" cx="968.736" cy="599.037" r="3.371"/>
			<circle fill="#0C59F2" cx="974.777" cy="592.241" r="3.371"/>
			<circle fill="#0C59F2" cx="961.563" cy="603.946" r="3.371"/>
			<circle fill="#D93644" cx="960.432" cy="595.64" r="3.37"/>
			<circle fill="#0C59F2" cx="966.471" cy="590.732" r="3.371"/>
			<circle fill="#D93644" cx="982.705" cy="595.639" r="3.371"/>
			<circle fill="#0C59F2" cx="984.215" cy="604.701" r="3.371"/>
			<circle fill="#D93644" cx="978.175" cy="611.118" r="3.371"/>
			<circle fill="#D93644" cx="963.074" cy="611.874" r="3.372"/>
			<circle fill="#0C59F2" cx="970.623" cy="614.516" r="3.371"/>
			<circle fill="none" stroke="#F2F2F2" stroke-width="0.3775" stroke-miterlimit="10" cx="971.928" cy="602.588" r="24.918"/>
			<circle fill="none" stroke="#F2F2F2" stroke-width="0.3775" stroke-miterlimit="10" cx="971.739" cy="602.399" r="34.923"/>
			<circle fill="#268C16" cx="993.653" cy="614.516" r="3.371"/>
			<circle fill="#268C16" cx="979.309" cy="636.414" r="3.371"/>
			<circle fill="#268C16" cx="971.756" cy="577.518" r="3.371"/>
			<circle fill="#268C16" cx="1000.827" cy="583.937" r="3.372"/>
			<circle fill="#268C16" cx="952.124" cy="617.915" r="3.372"/>
			<circle fill="#268C16" cx="939.289" cy="588.844" r="3.371"/>
		</g>
		<g>
			<circle fill="#D93644" cx="714.623" cy="277.965" r="3.371"/>
			<circle fill="#0C59F2" cx="721.042" cy="272.303" r="3.372"/>
			<circle fill="#D93644" cx="712.736" cy="270.038" r="3.371"/>
			<circle fill="#0C59F2" cx="718.777" cy="263.241" r="3.371"/>
			<circle fill="#0C59F2" cx="705.563" cy="274.946" r="3.371"/>
			<circle fill="#D93644" cx="704.432" cy="266.639" r="3.37"/>
			<circle fill="#0C59F2" cx="710.471" cy="261.732" r="3.371"/>
			<circle fill="#D93644" cx="726.705" cy="266.639" r="3.371"/>
			<circle fill="#0C59F2" cx="728.215" cy="275.702" r="3.371"/>
			<circle fill="#D93644" cx="722.175" cy="282.118" r="3.371"/>
			<circle fill="#D93644" cx="707.074" cy="282.874" r="3.372"/>
			<circle fill="#0C59F2" cx="714.623" cy="285.516" r="3.371"/>
			<circle fill="none" stroke="#F2F2F2" stroke-width="0.3775" stroke-miterlimit="10" cx="715.928" cy="273.588" r="24.918"/>
			<circle fill="none" stroke="#F2F2F2" stroke-width="0.3775" stroke-miterlimit="10" cx="715.739" cy="273.399" r="34.923"/>
			<circle fill="#268C16" cx="737.653" cy="285.516" r="3.371"/>
			<circle fill="#268C16" cx="723.309" cy="307.414" r="3.371"/>
			<circle fill="#268C16" cx="715.756" cy="248.518" r="3.371"/>
			<circle fill="#268C16" cx="744.827" cy="254.936" r="3.372"/>
			<circle fill="#268C16" cx="696.124" cy="288.915" r="3.372"/>
			<circle fill="#268C16" cx="683.289" cy="259.844" r="3.371"/>
		</g>
		<g>
			<circle fill="#D93644" cx="512.623" cy="420.965" r="3.371"/>
			<circle fill="#0C59F2" cx="519.042" cy="415.303" r="3.372"/>
			<circle fill="#D93644" cx="510.736" cy="413.037" r="3.371"/>
			<circle fill="#0C59F2" cx="516.777" cy="406.241" r="3.371"/>
			<circle fill="#0C59F2" cx="503.563" cy="417.946" r="3.371"/>
			<circle fill="#D93644" cx="502.432" cy="409.639" r="3.37"/>
			<circle fill="#0C59F2" cx="508.471" cy="404.732" r="3.371"/>
			<circle fill="#D93644" cx="524.705" cy="409.639" r="3.371"/>
			<circle fill="#0C59F2" cx="526.215" cy="418.701" r="3.371"/>
			<circle fill="#D93644" cx="520.175" cy="425.118" r="3.371"/>
			<circle fill="#D93644" cx="505.074" cy="425.873" r="3.372"/>
			<circle fill="#0C59F2" cx="512.623" cy="428.516" r="3.371"/>
			<circle fill="none" stroke="#F2F2F2" stroke-width="0.3775" stroke-miterlimit="10" cx="513.928" cy="416.588" r="24.918"/>
			<circle fill="none" stroke="#F2F2F2" stroke-width="0.3775" stroke-miterlimit="10" cx="513.739" cy="416.399" r="34.923"/>
			<circle fill="#268C16" cx="535.653" cy="428.516" r="3.371"/>
			<circle fill="#268C16" cx="521.309" cy="450.413" r="3.371"/>
			<circle fill="#268C16" cx="513.756" cy="391.518" r="3.371"/>
			<circle fill="#268C16" cx="542.827" cy="397.936" r="3.372"/>
			<circle fill="#268C16" cx="494.124" cy="431.914" r="3.372"/>
			<circle fill="#268C16" cx="481.289" cy="402.844" r="3.371"/>
		</g>
		<g>
			<circle fill="#D93644" cx="461.623" cy="612.965" r="3.371"/>
			<circle fill="#0C59F2" cx="468.042" cy="607.303" r="3.372"/>
			<circle fill="#D93644" cx="459.736" cy="605.037" r="3.371"/>
			<circle fill="#0C59F2" cx="465.777" cy="598.241" r="3.371"/>
			<circle fill="#0C59F2" cx="452.563" cy="609.946" r="3.371"/>
			<circle fill="#D93644" cx="451.432" cy="601.639" r="3.37"/>
			<circle fill="#0C59F2" cx="457.471" cy="596.732" r="3.371"/>
			<circle fill="#D93644" cx="473.705" cy="601.639" r="3.371"/>
			<circle fill="#0C59F2" cx="475.215" cy="610.701" r="3.371"/>
			<circle fill="#D93644" cx="469.175" cy="617.118" r="3.371"/>
			<circle fill="#D93644" cx="454.074" cy="617.873" r="3.372"/>
			<circle fill="#0C59F2" cx="461.623" cy="620.516" r="3.371"/>
			<circle fill="none" stroke="#F2F2F2" stroke-width="0.3775" stroke-miterlimit="10" cx="462.928" cy="608.588" r="24.918"/>
			<circle fill="none" stroke="#F2F2F2" stroke-width="0.3775" stroke-miterlimit="10" cx="462.739" cy="608.399" r="34.923"/>
			<circle fill="#268C16" cx="484.653" cy="620.516" r="3.371"/>
			<circle fill="#268C16" cx="470.309" cy="642.413" r="3.371"/>
			<circle fill="#268C16" cx="462.756" cy="583.518" r="3.371"/>
			<circle fill="#268C16" cx="491.827" cy="589.936" r="3.372"/>
			<circle fill="#268C16" cx="443.124" cy="623.914" r="3.372"/>
			<circle fill="#268C16" cx="430.289" cy="594.844" r="3.371"/>
		</g>
		<g>
			<circle fill="#D93644" cx="46.623" cy="624.965" r="3.371"/>
			<circle fill="#0C59F2" cx="53.042" cy="619.303" r="3.372"/>
			<circle fill="#D93644" cx="44.736" cy="617.038" r="3.371"/>
			<circle fill="#0C59F2" cx="50.777" cy="610.241" r="3.371"/>
			<circle fill="#0C59F2" cx="37.563" cy="621.946" r="3.371"/>
			<circle fill="#D93644" cx="36.432" cy="613.639" r="3.37"/>
			<circle fill="#0C59F2" cx="42.471" cy="608.732" r="3.371"/>
			<circle fill="#D93644" cx="58.705" cy="613.639" r="3.371"/>
			<circle fill="#0C59F2" cx="60.215" cy="622.701" r="3.371"/>
			<circle fill="#D93644" cx="54.175" cy="629.118" r="3.371"/>
			<circle fill="#D93644" cx="39.074" cy="629.874" r="3.372"/>
			<circle fill="#0C59F2" cx="46.623" cy="632.516" r="3.371"/>
			<circle fill="none" stroke="#F2F2F2" stroke-width="0.3775" stroke-miterlimit="10" cx="47.928" cy="620.588" r="24.918"/>
			<circle fill="none" stroke="#F2F2F2" stroke-width="0.3775" stroke-miterlimit="10" cx="47.739" cy="620.399" r="34.923"/>
			<circle fill="#268C16" cx="69.653" cy="632.516" r="3.371"/>
			<circle fill="#268C16" cx="55.309" cy="654.413" r="3.371"/>
			<circle fill="#268C16" cx="47.756" cy="595.517" r="3.371"/>
			<circle fill="#268C16" cx="76.827" cy="601.936" r="3.372"/>
			<circle fill="#268C16" cx="28.124" cy="635.914" r="3.372"/>
			<circle fill="#268C16" cx="15.289" cy="606.843" r="3.371"/>
		</g>
		<g>
			<circle fill="#D93644" cx="387.623" cy="515.965" r="3.371"/>
			<circle fill="#0C59F2" cx="394.042" cy="510.303" r="3.372"/>
			<circle fill="#D93644" cx="385.736" cy="508.038" r="3.371"/>
			<circle fill="#0C59F2" cx="391.777" cy="501.241" r="3.371"/>
			<circle fill="#0C59F2" cx="378.563" cy="512.946" r="3.371"/>
			<circle fill="#D93644" cx="377.432" cy="504.639" r="3.37"/>
			<circle fill="#0C59F2" cx="383.471" cy="499.732" r="3.371"/>
			<circle fill="#D93644" cx="399.705" cy="504.639" r="3.371"/>
			<circle fill="#0C59F2" cx="401.215" cy="513.701" r="3.371"/>
			<circle fill="#D93644" cx="395.175" cy="520.118" r="3.371"/>
			<circle fill="#D93644" cx="380.074" cy="520.874" r="3.372"/>
			<circle fill="#0C59F2" cx="387.623" cy="523.516" r="3.371"/>
			<circle fill="none" stroke="#F2F2F2" stroke-width="0.3775" stroke-miterlimit="10" cx="388.928" cy="511.588" r="24.918"/>
			<circle fill="none" stroke="#F2F2F2" stroke-width="0.3775" stroke-miterlimit="10" cx="388.739" cy="511.399" r="34.923"/>
			<circle fill="#268C16" cx="410.653" cy="523.516" r="3.371"/>
			<circle fill="#268C16" cx="396.309" cy="545.413" r="3.371"/>
			<circle fill="#268C16" cx="388.756" cy="486.517" r="3.371"/>
			<circle fill="#268C16" cx="417.827" cy="492.936" r="3.372"/>
			<circle fill="#268C16" cx="369.124" cy="526.914" r="3.372"/>
			<circle fill="#268C16" cx="356.289" cy="497.843" r="3.371"/>
		</g>
		<g>
			<circle fill="#D93644" cx="802.623" cy="149.965" r="3.371"/>
			<circle fill="#0C59F2" cx="809.042" cy="144.303" r="3.372"/>
			<circle fill="#D93644" cx="800.736" cy="142.038" r="3.371"/>
			<circle fill="#0C59F2" cx="806.777" cy="135.241" r="3.371"/>
			<circle fill="#0C59F2" cx="793.563" cy="146.946" r="3.371"/>
			<circle fill="#D93644" cx="792.432" cy="138.639" r="3.37"/>
			<circle fill="#0C59F2" cx="798.471" cy="133.732" r="3.371"/>
			<circle fill="#D93644" cx="814.705" cy="138.639" r="3.371"/>
			<circle fill="#0C59F2" cx="816.215" cy="147.701" r="3.371"/>
			<circle fill="#D93644" cx="810.175" cy="154.118" r="3.371"/>
			<circle fill="#D93644" cx="795.074" cy="154.874" r="3.372"/>
			<circle fill="#0C59F2" cx="802.623" cy="157.516" r="3.371"/>
			<circle fill="none" stroke="#F2F2F2" stroke-width="0.3775" stroke-miterlimit="10" cx="803.928" cy="145.588" r="24.918"/>
			<circle fill="none" stroke="#F2F2F2" stroke-width="0.3775" stroke-miterlimit="10" cx="803.739" cy="145.399" r="34.923"/>
			<circle fill="#268C16" cx="825.653" cy="157.516" r="3.371"/>
			<circle fill="#268C16" cx="811.309" cy="179.414" r="3.371"/>
			<circle fill="#268C16" cx="803.756" cy="120.518" r="3.371"/>
			<circle fill="#268C16" cx="832.827" cy="126.936" r="3.372"/>
			<circle fill="#268C16" cx="784.124" cy="160.915" r="3.372"/>
			<circle fill="#268C16" cx="771.289" cy="131.844" r="3.371"/>
		</g>
		<g>
			<circle fill="#D93644" cx="1073.623" cy="60.965" r="3.371"/>
			<circle fill="#0C59F2" cx="1080.042" cy="55.303" r="3.372"/>
			<circle fill="#D93644" cx="1071.736" cy="53.038" r="3.371"/>
			<circle fill="#0C59F2" cx="1077.777" cy="46.241" r="3.371"/>
			<circle fill="#0C59F2" cx="1064.563" cy="57.946" r="3.371"/>
			<circle fill="#D93644" cx="1063.432" cy="49.639" r="3.37"/>
			<circle fill="#0C59F2" cx="1069.471" cy="44.732" r="3.371"/>
			<circle fill="#D93644" cx="1085.705" cy="49.639" r="3.371"/>
			<circle fill="#0C59F2" cx="1087.215" cy="58.701" r="3.371"/>
			<circle fill="#D93644" cx="1081.175" cy="65.118" r="3.371"/>
			<circle fill="#D93644" cx="1066.074" cy="65.874" r="3.372"/>
			<circle fill="#0C59F2" cx="1073.623" cy="68.516" r="3.371"/>
			<circle fill="none" stroke="#F2F2F2" stroke-width="0.3775" stroke-miterlimit="10" cx="1074.928" cy="56.588" r="24.918"/>
			<circle fill="none" stroke="#F2F2F2" stroke-width="0.3775" stroke-miterlimit="10" cx="1074.739" cy="56.399" r="34.923"/>
			<circle fill="#268C16" cx="1096.653" cy="68.516" r="3.371"/>
			<circle fill="#268C16" cx="1082.309" cy="90.414" r="3.371"/>
			<circle fill="#268C16" cx="1074.756" cy="31.518" r="3.371"/>
			<circle fill="#268C16" cx="1103.827" cy="37.936" r="3.372"/>
			<circle fill="#268C16" cx="1055.124" cy="71.915" r="3.372"/>
			<circle fill="#268C16" cx="1042.289" cy="42.844" r="3.371"/>
		</g>
		<g>
			<circle fill="#D93644" cx="1094.623" cy="639.965" r="3.371"/>
			<circle fill="#0C59F2" cx="1101.042" cy="634.304" r="3.372"/>
			<circle fill="#D93644" cx="1092.736" cy="632.037" r="3.371"/>
			<circle fill="#0C59F2" cx="1098.777" cy="625.241" r="3.371"/>
			<circle fill="#0C59F2" cx="1085.563" cy="636.946" r="3.371"/>
			<circle fill="#D93644" cx="1084.432" cy="628.64" r="3.37"/>
			<circle fill="#0C59F2" cx="1090.471" cy="623.732" r="3.371"/>
			<circle fill="#D93644" cx="1106.705" cy="628.639" r="3.371"/>
			<circle fill="#0C59F2" cx="1108.215" cy="637.701" r="3.371"/>
			<circle fill="#D93644" cx="1102.175" cy="644.118" r="3.371"/>
			<circle fill="#D93644" cx="1087.074" cy="644.874" r="3.372"/>
			<circle fill="#0C59F2" cx="1094.623" cy="647.516" r="3.371"/>
			<circle fill="none" stroke="#F2F2F2" stroke-width="0.3775" stroke-miterlimit="10" cx="1095.928" cy="635.588" r="24.918"/>
			<circle fill="none" stroke="#F2F2F2" stroke-width="0.3775" stroke-miterlimit="10" cx="1095.739" cy="635.399" r="34.923"/>
			<circle fill="#268C16" cx="1117.653" cy="647.516" r="3.371"/>
			<circle fill="#268C16" cx="1103.309" cy="669.414" r="3.371"/>
			<circle fill="#268C16" cx="1095.756" cy="610.518" r="3.371"/>
			<circle fill="#268C16" cx="1124.827" cy="616.937" r="3.372"/>
			<circle fill="#268C16" cx="1076.124" cy="650.915" r="3.372"/>
			<circle fill="#268C16" cx="1063.289" cy="621.844" r="3.371"/>
		</g>
		<g>
			<circle fill="#D93644" cx="213.623" cy="538.965" r="3.371"/>
			<circle fill="#0C59F2" cx="220.042" cy="533.303" r="3.372"/>
			<circle fill="#D93644" cx="211.736" cy="531.038" r="3.371"/>
			<circle fill="#0C59F2" cx="217.777" cy="524.241" r="3.371"/>
			<circle fill="#0C59F2" cx="204.563" cy="535.946" r="3.371"/>
			<circle fill="#D93644" cx="203.432" cy="527.639" r="3.37"/>
			<circle fill="#0C59F2" cx="209.471" cy="522.732" r="3.371"/>
			<circle fill="#D93644" cx="225.705" cy="527.639" r="3.371"/>
			<circle fill="#0C59F2" cx="227.215" cy="536.701" r="3.371"/>
			<circle fill="#D93644" cx="221.175" cy="543.118" r="3.371"/>
			<circle fill="#D93644" cx="206.074" cy="543.874" r="3.372"/>
			<circle fill="#0C59F2" cx="213.623" cy="546.516" r="3.371"/>
			<circle fill="none" stroke="#F2F2F2" stroke-width="0.3775" stroke-miterlimit="10" cx="214.928" cy="534.588" r="24.918"/>
			<circle fill="none" stroke="#F2F2F2" stroke-width="0.3775" stroke-miterlimit="10" cx="214.739" cy="534.399" r="34.923"/>
			<circle fill="#268C16" cx="236.653" cy="546.516" r="3.371"/>
			<circle fill="#268C16" cx="222.309" cy="568.413" r="3.371"/>
			<circle fill="#268C16" cx="214.756" cy="509.517" r="3.371"/>
			<circle fill="#268C16" cx="243.827" cy="515.936" r="3.372"/>
			<circle fill="#268C16" cx="195.124" cy="549.914" r="3.372"/>
			<circle fill="#268C16" cx="182.289" cy="520.843" r="3.371"/>
		</g>
		<g>
			<circle fill="#D93644" cx="127.623" cy="450.965" r="3.371"/>
			<circle fill="#0C59F2" cx="134.042" cy="445.303" r="3.372"/>
			<circle fill="#D93644" cx="125.736" cy="443.038" r="3.371"/>
			<circle fill="#0C59F2" cx="131.777" cy="436.241" r="3.371"/>
			<circle fill="#0C59F2" cx="118.563" cy="447.946" r="3.371"/>
			<circle fill="#D93644" cx="117.432" cy="439.639" r="3.37"/>
			<circle fill="#0C59F2" cx="123.471" cy="434.732" r="3.371"/>
			<circle fill="#D93644" cx="139.705" cy="439.639" r="3.371"/>
			<circle fill="#0C59F2" cx="141.215" cy="448.701" r="3.371"/>
			<circle fill="#D93644" cx="135.175" cy="455.118" r="3.371"/>
			<circle fill="#D93644" cx="120.074" cy="455.874" r="3.372"/>
			<circle fill="#0C59F2" cx="127.623" cy="458.516" r="3.371"/>
			<circle fill="none" stroke="#F2F2F2" stroke-width="0.3775" stroke-miterlimit="10" cx="128.928" cy="446.588" r="24.918"/>
			<circle fill="none" stroke="#F2F2F2" stroke-width="0.3775" stroke-miterlimit="10" cx="128.739" cy="446.399" r="34.923"/>
			<circle fill="#268C16" cx="150.653" cy="458.516" r="3.371"/>
			<circle fill="#268C16" cx="136.309" cy="480.413" r="3.371"/>
			<circle fill="#268C16" cx="128.756" cy="421.517" r="3.371"/>
			<circle fill="#268C16" cx="157.827" cy="427.936" r="3.372"/>
			<circle fill="#268C16" cx="109.124" cy="461.914" r="3.372"/>
			<circle fill="#268C16" cx="96.289" cy="432.843" r="3.371"/>
		</g>
		<g>
			<circle fill="#D93644" cx="577.623" cy="61.965" r="3.371"/>
			<circle fill="#0C59F2" cx="584.042" cy="56.303" r="3.372"/>
			<circle fill="#D93644" cx="575.736" cy="54.038" r="3.371"/>
			<circle fill="#0C59F2" cx="581.777" cy="47.241" r="3.371"/>
			<circle fill="#0C59F2" cx="568.563" cy="58.946" r="3.371"/>
			<circle fill="#D93644" cx="567.432" cy="50.639" r="3.37"/>
			<circle fill="#0C59F2" cx="573.471" cy="45.732" r="3.371"/>
			<circle fill="#D93644" cx="589.705" cy="50.639" r="3.371"/>
			<circle fill="#0C59F2" cx="591.215" cy="59.701" r="3.371"/>
			<circle fill="#D93644" cx="585.175" cy="66.118" r="3.371"/>
			<circle fill="#D93644" cx="570.074" cy="66.874" r="3.372"/>
			<circle fill="#0C59F2" cx="577.623" cy="69.516" r="3.371"/>
			<circle fill="none" stroke="#F2F2F2" stroke-width="0.3775" stroke-miterlimit="10" cx="578.928" cy="57.588" r="24.918"/>
			<circle fill="none" stroke="#F2F2F2" stroke-width="0.3775" stroke-miterlimit="10" cx="578.739" cy="57.399" r="34.923"/>
			<circle fill="#268C16" cx="600.653" cy="69.516" r="3.371"/>
			<circle fill="#268C16" cx="586.309" cy="91.414" r="3.371"/>
			<circle fill="#268C16" cx="578.756" cy="32.518" r="3.371"/>
			<circle fill="#268C16" cx="607.827" cy="38.936" r="3.372"/>
			<circle fill="#268C16" cx="559.124" cy="72.915" r="3.372"/>
			<circle fill="#268C16" cx="546.289" cy="43.844" r="3.371"/>
		</g>
		<g>
			<circle fill="#D93644" cx="305.623" cy="418.965" r="3.371"/>
			<circle fill="#0C59F2" cx="312.042" cy="413.303" r="3.372"/>
			<circle fill="#D93644" cx="303.736" cy="411.038" r="3.371"/>
			<circle fill="#0C59F2" cx="309.777" cy="404.241" r="3.371"/>
			<circle fill="#0C59F2" cx="296.563" cy="415.946" r="3.371"/>
			<circle fill="#D93644" cx="295.432" cy="407.639" r="3.37"/>
			<circle fill="#0C59F2" cx="301.471" cy="402.732" r="3.371"/>
			<circle fill="#D93644" cx="317.705" cy="407.639" r="3.371"/>
			<circle fill="#0C59F2" cx="319.215" cy="416.701" r="3.371"/>
			<circle fill="#D93644" cx="313.175" cy="423.118" r="3.371"/>
			<circle fill="#D93644" cx="298.074" cy="423.874" r="3.372"/>
			<circle fill="#0C59F2" cx="305.623" cy="426.516" r="3.371"/>
			<circle fill="none" stroke="#F2F2F2" stroke-width="0.3775" stroke-miterlimit="10" cx="306.928" cy="414.588" r="24.918"/>
			<circle fill="none" stroke="#F2F2F2" stroke-width="0.3775" stroke-miterlimit="10" cx="306.739" cy="414.399" r="34.923"/>
			<circle fill="#268C16" cx="328.653" cy="426.516" r="3.371"/>
			<circle fill="#268C16" cx="314.309" cy="448.413" r="3.371"/>
			<circle fill="#268C16" cx="306.756" cy="389.517" r="3.371"/>
			<circle fill="#268C16" cx="335.827" cy="395.936" r="3.372"/>
			<circle fill="#268C16" cx="287.124" cy="429.914" r="3.372"/>
			<circle fill="#268C16" cx="274.289" cy="400.843" r="3.371"/>
		</g>
		<g>
			<circle fill="#D93644" cx="57.623" cy="125.965" r="3.371"/>
			<circle fill="#0C59F2" cx="64.042" cy="120.303" r="3.372"/>
			<circle fill="#D93644" cx="55.736" cy="118.038" r="3.371"/>
			<circle fill="#0C59F2" cx="61.777" cy="111.241" r="3.371"/>
			<circle fill="#0C59F2" cx="48.563" cy="122.946" r="3.371"/>
			<circle fill="#D93644" cx="47.432" cy="114.639" r="3.37"/>
			<circle fill="#0C59F2" cx="53.471" cy="109.732" r="3.371"/>
			<circle fill="#D93644" cx="69.705" cy="114.639" r="3.371"/>
			<circle fill="#0C59F2" cx="71.215" cy="123.701" r="3.371"/>
			<circle fill="#D93644" cx="65.175" cy="130.118" r="3.371"/>
			<circle fill="#D93644" cx="50.074" cy="130.874" r="3.372"/>
			<circle fill="#0C59F2" cx="57.623" cy="133.516" r="3.371"/>
			<circle fill="none" stroke="#F2F2F2" stroke-width="0.3775" stroke-miterlimit="10" cx="58.928" cy="121.588" r="24.918"/>
			<circle fill="none" stroke="#F2F2F2" stroke-width="0.3775" stroke-miterlimit="10" cx="58.739" cy="121.399" r="34.923"/>
			<circle fill="#268C16" cx="80.653" cy="133.516" r="3.371"/>
			<circle fill="#268C16" cx="66.309" cy="155.414" r="3.371"/>
			<circle fill="#268C16" cx="58.756" cy="96.518" r="3.371"/>
			<circle fill="#268C16" cx="87.827" cy="102.936" r="3.372"/>
			<circle fill="#268C16" cx="39.124" cy="136.915" r="3.372"/>
			<circle fill="#268C16" cx="26.289" cy="107.844" r="3.371"/>
		</g>
	</g>
	<g>
		<path opacity="0.3" fill="#F2F2F2" d="M124.326,391.912l-0.16-25.521l-12.16,20.479h-8.32l-12.16-19.6v24.641H74.326v-56h15.52
			l18.24,29.84l17.76-29.84h15.521l0.159,56H124.326z"/>
		<path opacity="0.3" fill="#F2F2F2" d="M163.766,389.432c-4.801-2.506-8.561-5.986-11.28-10.439s-4.08-9.48-4.08-15.08
			c0-5.601,1.36-10.627,4.08-15.081c2.72-4.453,6.479-7.933,11.28-10.44c4.8-2.506,10.212-3.76,16.239-3.76
			c6.026,0,11.44,1.253,16.24,3.76c4.8,2.507,8.561,5.987,11.28,10.44c2.72,4.454,4.08,9.48,4.08,15.081
			c0,5.6-1.36,10.627-4.08,15.08s-6.48,7.934-11.28,10.439s-10.214,3.76-16.24,3.76
			C173.978,393.191,168.565,391.938,163.766,389.432z M186.365,376.191c1.893-1.146,3.4-2.772,4.52-4.88
			c1.12-2.106,1.681-4.572,1.681-7.399c0-2.826-0.561-5.293-1.681-7.4c-1.119-2.106-2.627-3.732-4.52-4.88
			c-1.894-1.146-4.014-1.72-6.36-1.72c-2.348,0-4.467,0.574-6.359,1.72c-1.895,1.147-3.4,2.773-4.521,4.88
			c-1.12,2.107-1.68,4.574-1.68,7.4c0,2.827,0.56,5.293,1.68,7.399c1.12,2.107,2.626,3.733,4.521,4.88
			c1.893,1.148,4.012,1.721,6.359,1.721C182.352,377.912,184.472,377.34,186.365,376.191z"/>
		<path opacity="0.3" fill="#F2F2F2" d="M273.685,335.912v56h-15.52l-21.28-25.44v25.44h-18.4v-56h15.521l21.279,25.44v-25.44
			H273.685z"/>
		<path opacity="0.3" fill="#F2F2F2" d="M329.363,377.672v14.24h-46.56v-56h45.52v14.24h-26.96v6.559h23.68v13.601h-23.68v7.36
			H329.363z"/>
		<path opacity="0.3" fill="#F2F2F2" d="M369.522,371.592v20.32h-18.88v-20.561l-21.12-35.44h19.92l11.44,19.36l11.521-19.36h18.239
			L369.522,371.592z"/>
		<path opacity="0.3" fill="#D93644" d="M430.162,389.432c-4.801-2.506-8.561-5.986-11.28-10.439s-4.08-9.48-4.08-15.08
			c0-5.601,1.36-10.627,4.08-15.081c2.72-4.453,6.479-7.933,11.28-10.44c4.8-2.506,10.212-3.76,16.239-3.76
			c6.026,0,11.44,1.253,16.24,3.76c4.8,2.507,8.561,5.987,11.28,10.44c2.72,4.454,4.08,9.48,4.08,15.081
			c0,5.6-1.36,10.627-4.08,15.08s-6.48,7.934-11.28,10.439s-10.214,3.76-16.24,3.76
			C440.374,393.191,434.962,391.938,430.162,389.432z M452.762,376.191c1.893-1.146,3.4-2.772,4.52-4.88
			c1.12-2.106,1.681-4.572,1.681-7.399c0-2.826-0.561-5.293-1.681-7.4c-1.119-2.106-2.627-3.732-4.52-4.88
			c-1.894-1.146-4.014-1.72-6.36-1.72c-2.348,0-4.467,0.574-6.359,1.72c-1.895,1.147-3.4,2.773-4.521,4.88
			c-1.12,2.107-1.68,4.574-1.68,7.4c0,2.827,0.56,5.293,1.68,7.399c1.12,2.107,2.626,3.733,4.521,4.88
			c1.893,1.148,4.012,1.721,6.359,1.721C448.748,377.912,450.868,377.34,452.762,376.191z"/>
		<path opacity="0.3" fill="#D93644" d="M508.881,377.832h-5.12v14.08h-18.88v-56h26.96c5.172,0,9.68,0.854,13.52,2.56
			c3.84,1.708,6.8,4.16,8.88,7.36c2.08,3.2,3.12,6.934,3.12,11.2c0,4-0.907,7.494-2.72,10.48c-1.813,2.987-4.428,5.359-7.84,7.12
			l11.76,17.28H518.4L508.881,377.832z M516.4,352.191c-1.28-1.146-3.2-1.72-5.76-1.72h-6.88v13.12h6.88
			c2.56,0,4.479-0.572,5.76-1.721c1.28-1.146,1.92-2.76,1.92-4.84S517.681,353.34,516.4,352.191z"/>
		<path fill="#F2F2F2" d="M618.479,391.912l-0.159-25.521l-12.16,20.479h-8.32l-12.16-19.6v24.641h-17.199v-56h15.52l18.24,29.84
			l17.76-29.84h15.52l0.16,56H618.479z"/>
		<path fill="#F2F2F2" d="M644.798,335.912h18.881v56h-18.881V335.912z"/>
		<path fill="#F2F2F2" d="M684.957,350.552h-16.399v-14.64h51.68v14.64h-16.4v41.36h-18.88V350.552z"/>
		<path fill="#F2F2F2" d="M725.116,335.912h18.881v56h-18.881V335.912z"/>
		<path fill="#F2F2F2" d="M790.155,362.392h16.4v23.681c-3.308,2.293-7.147,4.053-11.52,5.279c-4.374,1.227-8.668,1.84-12.881,1.84
			c-5.974,0-11.333-1.24-16.08-3.72s-8.467-5.946-11.159-10.399c-2.694-4.453-4.04-9.507-4.04-15.16
			c0-5.652,1.346-10.707,4.04-15.161c2.692-4.452,6.452-7.92,11.279-10.4c4.826-2.48,10.28-3.72,16.36-3.72
			c5.492,0,10.412,0.92,14.76,2.76c4.347,1.84,7.96,4.52,10.84,8.04l-12.08,10.641c-3.52-4.107-7.707-6.161-12.56-6.161
			c-4.16,0-7.468,1.254-9.92,3.76c-2.454,2.508-3.68,5.92-3.68,10.24c0,4.213,1.212,7.6,3.64,10.16c2.426,2.56,5.666,3.84,9.72,3.84
			c2.4,0,4.692-0.453,6.88-1.36V362.392z"/>
		<path fill="#F2F2F2" d="M852.795,382.152h-21.279l-3.761,9.76h-19.199l24.479-56h18.56l24.48,56h-19.52L852.795,382.152z
			 M847.595,368.552l-5.439-14.08l-5.44,14.08H847.595z"/>
		<path fill="#F2F2F2" d="M888.477,350.552h-16.399v-14.64h51.68v14.64h-16.4v41.36h-18.88V350.552z"/>
		<path fill="#F2F2F2" d="M928.636,335.912h18.881v56h-18.881V335.912z"/>
		<path fill="#F2F2F2" d="M969.755,389.432c-4.8-2.506-8.56-5.986-11.279-10.439c-2.721-4.453-4.08-9.48-4.08-15.08
			c0-5.601,1.359-10.627,4.08-15.081c2.72-4.453,6.479-7.933,11.279-10.44c4.801-2.506,10.213-3.76,16.24-3.76
			c6.026,0,11.44,1.253,16.24,3.76c4.8,2.507,8.56,5.987,11.28,10.44c2.72,4.454,4.079,9.48,4.079,15.081
			c0,5.6-1.359,10.627-4.079,15.08c-2.721,4.453-6.48,7.934-11.28,10.439s-10.214,3.76-16.24,3.76
			C979.968,393.191,974.556,391.938,969.755,389.432z M992.355,376.191c1.893-1.146,3.399-2.772,4.52-4.88
			c1.12-2.106,1.681-4.572,1.681-7.399c0-2.826-0.561-5.293-1.681-7.4c-1.12-2.106-2.627-3.732-4.52-4.88
			c-1.894-1.146-4.014-1.72-6.36-1.72c-2.348,0-4.468,0.574-6.36,1.72c-1.894,1.147-3.399,2.773-4.52,4.88
			c-1.12,2.107-1.68,4.574-1.68,7.4c0,2.827,0.56,5.293,1.68,7.399c1.12,2.107,2.626,3.733,4.52,4.88
			c1.893,1.148,4.013,1.721,6.36,1.721C988.342,377.912,990.462,377.34,992.355,376.191z"/>
		<path fill="#F2F2F2" d="M1079.675,335.912v56h-15.52l-21.28-25.44v25.44h-18.4v-56h15.521l21.28,25.44v-25.44H1079.675z"/>
		<path opacity="0.3" fill="#F2F2F2" d="M69.766,372.031v-3.999h342.716v3.999H69.766z"/>
		<path opacity="0.3" fill="#D93644" d="M412.481,372.031v-3.999H539.92v3.999H412.481z"/>
	</g>
	<g>
		<path fill="#F2F2F2" d="M937.789,297.488v4.473h7.098v2.31h-7.098v5.628h-2.73v-14.7h10.731v2.289H937.789z"/>
		<path fill="#F2F2F2" d="M951.082,309.133c-1.204-0.651-2.149-1.554-2.835-2.709c-0.687-1.155-1.029-2.446-1.029-3.875
			c0-1.428,0.343-2.719,1.029-3.875c0.686-1.155,1.631-2.058,2.835-2.709s2.555-0.977,4.053-0.977s2.849,0.326,4.053,0.977
			s2.149,1.551,2.835,2.699c0.687,1.148,1.029,2.443,1.029,3.885c0,1.442-0.343,2.737-1.029,3.885
			c-0.686,1.148-1.631,2.047-2.835,2.698s-2.555,0.977-4.053,0.977S952.286,309.784,951.082,309.133z M957.781,307.054
			c0.783-0.441,1.399-1.057,1.848-1.848s0.672-1.677,0.672-2.657c0-0.979-0.224-1.865-0.672-2.656s-1.064-1.407-1.848-1.848
			c-0.784-0.441-1.667-0.662-2.646-0.662s-1.862,0.221-2.646,0.662c-0.784,0.441-1.4,1.057-1.849,1.848s-0.672,1.677-0.672,2.656
			c0,0.98,0.224,1.866,0.672,2.657s1.064,1.407,1.849,1.848c0.783,0.441,1.666,0.662,2.646,0.662S956.997,307.495,957.781,307.054z"
			/>
		<path fill="#F2F2F2" d="M975.567,309.899l-3.003-4.305c-0.126,0.014-0.314,0.021-0.566,0.021h-3.318v4.284h-2.73v-14.7h6.049
			c1.273,0,2.383,0.21,3.328,0.63c0.945,0.42,1.669,1.022,2.174,1.806c0.504,0.784,0.756,1.715,0.756,2.793
			c0,1.106-0.27,2.058-0.809,2.856c-0.539,0.798-1.313,1.394-2.32,1.785l3.381,4.83H975.567z M974.581,298.266
			c-0.616-0.504-1.52-0.756-2.709-0.756h-3.192v5.859h3.192c1.189,0,2.093-0.255,2.709-0.767c0.615-0.511,0.924-1.235,0.924-2.174
			C975.505,299.491,975.196,298.77,974.581,298.266z"/>
		<path fill="#F2F2F2" d="M992.325,307.61v2.289H981.3v-14.7h10.731v2.289h-8.001v3.822h7.098v2.247h-7.098v4.053H992.325z"/>
		<path fill="#F2F2F2" d="M996.641,309.626c-1.057-0.322-1.894-0.749-2.509-1.281l0.944-2.121c0.603,0.476,1.341,0.864,2.216,1.166
			c0.875,0.301,1.754,0.451,2.636,0.451c1.092,0,1.907-0.175,2.446-0.525c0.539-0.35,0.809-0.812,0.809-1.386
			c0-0.42-0.15-0.766-0.451-1.039c-0.302-0.273-0.683-0.486-1.145-0.641c-0.463-0.154-1.093-0.329-1.891-0.525
			c-1.12-0.266-2.026-0.532-2.72-0.798c-0.692-0.266-1.288-0.682-1.784-1.25c-0.497-0.567-0.746-1.333-0.746-2.299
			c0-0.812,0.221-1.55,0.662-2.215c0.44-0.665,1.105-1.193,1.994-1.585c0.89-0.392,1.978-0.588,3.266-0.588
			c0.896,0,1.778,0.112,2.646,0.336c0.868,0.224,1.617,0.546,2.247,0.966l-0.861,2.121c-0.644-0.378-1.316-0.665-2.016-0.861
			c-0.7-0.196-1.379-0.294-2.037-0.294c-1.078,0-1.88,0.182-2.404,0.546c-0.525,0.364-0.788,0.847-0.788,1.449
			c0,0.42,0.15,0.763,0.452,1.029c0.301,0.266,0.682,0.476,1.145,0.63c0.462,0.154,1.092,0.329,1.89,0.525
			c1.092,0.252,1.987,0.514,2.688,0.788c0.7,0.273,1.299,0.689,1.796,1.25s0.745,1.316,0.745,2.268c0,0.813-0.22,1.547-0.661,2.205
			c-0.441,0.658-1.109,1.183-2.006,1.575c-0.896,0.392-1.987,0.588-3.275,0.588C998.794,310.109,997.698,309.948,996.641,309.626z"
			/>
		<path fill="#F2F2F2" d="M1011.352,297.509h-4.872v-2.31h12.474v2.31h-4.872v12.39h-2.729V297.509z"/>
		<path fill="#F2F2F2" d="M1022.135,309.626c-1.057-0.322-1.894-0.749-2.509-1.281l0.944-2.121c0.603,0.476,1.341,0.864,2.216,1.166
			c0.875,0.301,1.754,0.451,2.636,0.451c1.092,0,1.907-0.175,2.446-0.525c0.539-0.35,0.809-0.812,0.809-1.386
			c0-0.42-0.15-0.766-0.451-1.039c-0.302-0.273-0.683-0.486-1.145-0.641c-0.463-0.154-1.093-0.329-1.891-0.525
			c-1.12-0.266-2.026-0.532-2.72-0.798c-0.692-0.266-1.288-0.682-1.784-1.25c-0.497-0.567-0.746-1.333-0.746-2.299
			c0-0.812,0.221-1.55,0.662-2.215c0.44-0.665,1.105-1.193,1.994-1.585c0.89-0.392,1.978-0.588,3.266-0.588
			c0.896,0,1.778,0.112,2.646,0.336c0.868,0.224,1.617,0.546,2.247,0.966l-0.861,2.121c-0.644-0.378-1.316-0.665-2.016-0.861
			c-0.7-0.196-1.379-0.294-2.037-0.294c-1.078,0-1.88,0.182-2.404,0.546c-0.525,0.364-0.788,0.847-0.788,1.449
			c0,0.42,0.15,0.763,0.452,1.029c0.301,0.266,0.682,0.476,1.145,0.63c0.462,0.154,1.092,0.329,1.89,0.525
			c1.092,0.252,1.987,0.514,2.688,0.788c0.7,0.273,1.299,0.689,1.796,1.25s0.745,1.316,0.745,2.268c0,0.813-0.22,1.547-0.661,2.205
			c-0.441,0.658-1.109,1.183-2.006,1.575c-0.896,0.392-1.987,0.588-3.275,0.588C1024.288,310.109,1023.192,309.948,1022.135,309.626
			z"/>
		<path fill="#F2F2F2" d="M1049.403,306.498h-7.35l-1.449,3.402h-2.814l6.615-14.7h2.688l6.636,14.7h-2.856L1049.403,306.498z
			 M1048.501,304.355l-2.772-6.426l-2.751,6.426H1048.501z"/>
		<path fill="#F2F2F2" d="M1065.216,309.899l-3.003-4.305c-0.126,0.014-0.314,0.021-0.566,0.021h-3.318v4.284h-2.73v-14.7h6.049
			c1.273,0,2.383,0.21,3.328,0.63c0.945,0.42,1.669,1.022,2.174,1.806c0.504,0.784,0.756,1.715,0.756,2.793
			c0,1.106-0.27,2.058-0.809,2.856c-0.539,0.798-1.313,1.394-2.32,1.785l3.381,4.83H1065.216z M1064.229,298.266
			c-0.616-0.504-1.52-0.756-2.709-0.756h-3.192v5.859h3.192c1.189,0,2.093-0.255,2.709-0.767c0.615-0.511,0.924-1.235,0.924-2.174
			C1065.153,299.491,1064.845,298.77,1064.229,298.266z"/>
		<path fill="#F2F2F2" d="M1081.974,307.61v2.289h-11.025v-14.7h10.731v2.289h-8.001v3.822h7.098v2.247h-7.098v4.053H1081.974z"/>
	</g>
</g>
</svg>
