<?xml version="1.0" encoding="utf-8"?>
<!-- Generator: Adobe Illustrator 16.0.0, SVG Export Plug-In . SVG Version: 6.00 Build 0)  -->
<!DOCTYPE svg PUBLIC "-//W3C//DTD SVG 1.1//EN" "http://www.w3.org/Graphics/SVG/1.1/DTD/svg11.dtd">
<svg version="1.1" xmlns="http://www.w3.org/2000/svg" xmlns:xlink="http://www.w3.org/1999/xlink" x="0px" y="0px" width="1152px"
	 height="700px" viewBox="0 0 1152 700" enable-background="new 0 0 1152 700" xml:space="preserve">
<g id="Layer_1">
	<rect y="1" fill="#0D0D0D" width="1152" height="700"/>
</g>
<g id="Layer_2">
	<g id="Layer_2_1_">
		<g>
			<circle fill="#D93644" cx="174.957" cy="422.295" r="3.371"/>
			<circle fill="#0C59F2" cx="168.538" cy="427.957" r="3.372"/>
			<circle fill="#D93644" cx="176.844" cy="430.223" r="3.371"/>
			<circle fill="#0C59F2" cx="170.803" cy="437.019" r="3.371"/>
			<circle fill="#0C59F2" cx="184.018" cy="425.314" r="3.371"/>
			<circle fill="#D93644" cx="185.149" cy="433.621" r="3.37"/>
			<circle fill="#0C59F2" cx="179.109" cy="438.528" r="3.371"/>
			<circle fill="#D93644" cx="162.875" cy="433.621" r="3.371"/>
			<circle fill="#0C59F2" cx="161.365" cy="424.559" r="3.371"/>
			<circle fill="#D93644" cx="167.405" cy="418.142" r="3.371"/>
			<circle fill="#D93644" cx="182.506" cy="417.387" r="3.372"/>
			<circle fill="#0C59F2" cx="174.957" cy="414.744" r="3.371"/>
			<circle fill="none" stroke="#F2F2F2" stroke-width="0.3775" stroke-miterlimit="10" cx="173.652" cy="426.672" r="24.918"/>
			<circle fill="none" stroke="#F2F2F2" stroke-width="0.3775" stroke-miterlimit="10" cx="173.841" cy="426.861" r="34.923"/>
			<circle fill="#268C16" cx="151.927" cy="414.744" r="3.371"/>
			<circle fill="#268C16" cx="166.272" cy="392.847" r="3.371"/>
			<circle fill="#268C16" cx="173.824" cy="451.742" r="3.371"/>
			<circle fill="#268C16" cx="144.753" cy="445.324" r="3.372"/>
			<circle fill="#268C16" cx="193.456" cy="411.346" r="3.372"/>
			<circle fill="#268C16" cx="206.291" cy="440.416" r="3.371"/>
		</g>
		<g>
			<circle fill="#D93644" cx="350.957" cy="73.295" r="3.371"/>
			<circle fill="#0C59F2" cx="344.538" cy="78.957" r="3.372"/>
			<circle fill="#D93644" cx="352.844" cy="81.222" r="3.371"/>
			<circle fill="#0C59F2" cx="346.803" cy="88.019" r="3.371"/>
			<circle fill="#0C59F2" cx="360.018" cy="76.314" r="3.371"/>
			<circle fill="#D93644" cx="361.149" cy="84.621" r="3.37"/>
			<circle fill="#0C59F2" cx="355.109" cy="89.528" r="3.371"/>
			<circle fill="#D93644" cx="338.875" cy="84.621" r="3.371"/>
			<circle fill="#0C59F2" cx="337.365" cy="75.559" r="3.371"/>
			<circle fill="#D93644" cx="343.405" cy="69.142" r="3.371"/>
			<circle fill="#D93644" cx="358.506" cy="68.386" r="3.372"/>
			<circle fill="#0C59F2" cx="350.957" cy="65.744" r="3.371"/>
			<circle fill="none" stroke="#F2F2F2" stroke-width="0.3775" stroke-miterlimit="10" cx="349.652" cy="77.672" r="24.918"/>
			<circle fill="none" stroke="#F2F2F2" stroke-width="0.3775" stroke-miterlimit="10" cx="349.841" cy="77.861" r="34.923"/>
			<circle fill="#268C16" cx="327.927" cy="65.744" r="3.371"/>
			<circle fill="#268C16" cx="342.272" cy="43.847" r="3.371"/>
			<circle fill="#268C16" cx="349.824" cy="102.742" r="3.371"/>
			<circle fill="#268C16" cx="320.753" cy="96.324" r="3.372"/>
			<circle fill="#268C16" cx="369.456" cy="62.346" r="3.372"/>
			<circle fill="#268C16" cx="382.291" cy="91.417" r="3.371"/>
		</g>
		<g>
			<circle fill="#D93644" cx="409.957" cy="275.295" r="3.371"/>
			<circle fill="#0C59F2" cx="403.538" cy="280.957" r="3.372"/>
			<circle fill="#D93644" cx="411.844" cy="283.223" r="3.371"/>
			<circle fill="#0C59F2" cx="405.803" cy="290.019" r="3.371"/>
			<circle fill="#0C59F2" cx="419.018" cy="278.314" r="3.371"/>
			<circle fill="#D93644" cx="420.149" cy="286.621" r="3.37"/>
			<circle fill="#0C59F2" cx="414.109" cy="291.528" r="3.371"/>
			<circle fill="#D93644" cx="397.875" cy="286.621" r="3.371"/>
			<circle fill="#0C59F2" cx="396.365" cy="277.559" r="3.371"/>
			<circle fill="#D93644" cx="402.405" cy="271.142" r="3.371"/>
			<circle fill="#D93644" cx="417.506" cy="270.387" r="3.372"/>
			<circle fill="#0C59F2" cx="409.957" cy="267.744" r="3.371"/>
			<circle fill="none" stroke="#F2F2F2" stroke-width="0.3775" stroke-miterlimit="10" cx="408.652" cy="279.672" r="24.918"/>
			<circle fill="none" stroke="#F2F2F2" stroke-width="0.3775" stroke-miterlimit="10" cx="408.841" cy="279.861" r="34.923"/>
			<circle fill="#268C16" cx="386.927" cy="267.744" r="3.371"/>
			<circle fill="#268C16" cx="401.272" cy="245.847" r="3.371"/>
			<circle fill="#268C16" cx="408.824" cy="304.742" r="3.371"/>
			<circle fill="#268C16" cx="379.753" cy="298.324" r="3.372"/>
			<circle fill="#268C16" cx="428.456" cy="264.346" r="3.372"/>
			<circle fill="#268C16" cx="441.291" cy="293.416" r="3.371"/>
		</g>
		<g>
			<circle fill="#D93644" cx="784.957" cy="511.295" r="3.371"/>
			<circle fill="#0C59F2" cx="778.538" cy="516.957" r="3.372"/>
			<circle fill="#D93644" cx="786.844" cy="519.223" r="3.371"/>
			<circle fill="#0C59F2" cx="780.803" cy="526.019" r="3.371"/>
			<circle fill="#0C59F2" cx="794.018" cy="514.314" r="3.371"/>
			<circle fill="#D93644" cx="795.148" cy="522.621" r="3.37"/>
			<circle fill="#0C59F2" cx="789.109" cy="527.528" r="3.371"/>
			<circle fill="#D93644" cx="772.875" cy="522.621" r="3.371"/>
			<circle fill="#0C59F2" cx="771.365" cy="513.559" r="3.371"/>
			<circle fill="#D93644" cx="777.405" cy="507.142" r="3.371"/>
			<circle fill="#D93644" cx="792.506" cy="506.387" r="3.372"/>
			<circle fill="#0C59F2" cx="784.957" cy="503.744" r="3.371"/>
			<circle fill="none" stroke="#F2F2F2" stroke-width="0.3775" stroke-miterlimit="10" cx="783.652" cy="515.672" r="24.918"/>
			<circle fill="none" stroke="#F2F2F2" stroke-width="0.3775" stroke-miterlimit="10" cx="783.841" cy="515.861" r="34.923"/>
			<circle fill="#268C16" cx="761.927" cy="503.744" r="3.371"/>
			<circle fill="#268C16" cx="776.271" cy="481.847" r="3.371"/>
			<circle fill="#268C16" cx="783.824" cy="540.742" r="3.371"/>
			<circle fill="#268C16" cx="754.753" cy="534.324" r="3.372"/>
			<circle fill="#268C16" cx="803.456" cy="500.346" r="3.372"/>
			<circle fill="#268C16" cx="816.291" cy="529.416" r="3.371"/>
		</g>
		<g>
			<circle fill="#D93644" cx="182.957" cy="267.295" r="3.371"/>
			<circle fill="#0C59F2" cx="176.538" cy="272.957" r="3.372"/>
			<circle fill="#D93644" cx="184.844" cy="275.222" r="3.371"/>
			<circle fill="#0C59F2" cx="178.803" cy="282.019" r="3.371"/>
			<circle fill="#0C59F2" cx="192.018" cy="270.314" r="3.371"/>
			<circle fill="#D93644" cx="193.149" cy="278.621" r="3.37"/>
			<circle fill="#0C59F2" cx="187.109" cy="283.528" r="3.371"/>
			<circle fill="#D93644" cx="170.875" cy="278.621" r="3.371"/>
			<circle fill="#0C59F2" cx="169.365" cy="269.559" r="3.371"/>
			<circle fill="#D93644" cx="175.405" cy="263.142" r="3.371"/>
			<circle fill="#D93644" cx="190.506" cy="262.386" r="3.372"/>
			<circle fill="#0C59F2" cx="182.957" cy="259.744" r="3.371"/>
			<circle fill="none" stroke="#F2F2F2" stroke-width="0.3775" stroke-miterlimit="10" cx="181.652" cy="271.672" r="24.918"/>
			<circle fill="none" stroke="#F2F2F2" stroke-width="0.3775" stroke-miterlimit="10" cx="181.841" cy="271.861" r="34.923"/>
			<circle fill="#268C16" cx="159.927" cy="259.744" r="3.371"/>
			<circle fill="#268C16" cx="174.272" cy="237.847" r="3.371"/>
			<circle fill="#268C16" cx="181.824" cy="296.743" r="3.371"/>
			<circle fill="#268C16" cx="152.753" cy="290.324" r="3.372"/>
			<circle fill="#268C16" cx="201.456" cy="256.346" r="3.372"/>
			<circle fill="#268C16" cx="214.291" cy="285.417" r="3.371"/>
		</g>
		<g>
			<circle fill="#D93644" cx="494.957" cy="55.295" r="3.371"/>
			<circle fill="#0C59F2" cx="488.538" cy="60.957" r="3.372"/>
			<circle fill="#D93644" cx="496.844" cy="63.222" r="3.371"/>
			<circle fill="#0C59F2" cx="490.803" cy="70.019" r="3.371"/>
			<circle fill="#0C59F2" cx="504.018" cy="58.314" r="3.371"/>
			<circle fill="#D93644" cx="505.149" cy="66.621" r="3.37"/>
			<circle fill="#0C59F2" cx="499.109" cy="71.528" r="3.371"/>
			<circle fill="#D93644" cx="482.875" cy="66.621" r="3.371"/>
			<circle fill="#0C59F2" cx="481.365" cy="57.559" r="3.371"/>
			<circle fill="#D93644" cx="487.405" cy="51.142" r="3.371"/>
			<circle fill="#D93644" cx="502.506" cy="50.386" r="3.372"/>
			<circle fill="#0C59F2" cx="494.957" cy="47.744" r="3.371"/>
			<circle fill="none" stroke="#F2F2F2" stroke-width="0.3775" stroke-miterlimit="10" cx="493.652" cy="59.672" r="24.918"/>
			<circle fill="none" stroke="#F2F2F2" stroke-width="0.3775" stroke-miterlimit="10" cx="493.841" cy="59.861" r="34.923"/>
			<circle fill="#268C16" cx="471.927" cy="47.744" r="3.371"/>
			<circle fill="#268C16" cx="486.272" cy="25.847" r="3.371"/>
			<circle fill="#268C16" cx="493.824" cy="84.743" r="3.371"/>
			<circle fill="#268C16" cx="464.753" cy="78.324" r="3.372"/>
			<circle fill="#268C16" cx="513.456" cy="44.346" r="3.372"/>
			<circle fill="#268C16" cx="526.291" cy="73.417" r="3.371"/>
		</g>
		<g>
			<circle fill="#D93644" cx="293.957" cy="180.295" r="3.371"/>
			<circle fill="#0C59F2" cx="287.538" cy="185.957" r="3.372"/>
			<circle fill="#D93644" cx="295.844" cy="188.223" r="3.371"/>
			<circle fill="#0C59F2" cx="289.803" cy="195.019" r="3.371"/>
			<circle fill="#0C59F2" cx="303.018" cy="183.314" r="3.371"/>
			<circle fill="#D93644" cx="304.149" cy="191.621" r="3.37"/>
			<circle fill="#0C59F2" cx="298.109" cy="196.528" r="3.371"/>
			<circle fill="#D93644" cx="281.875" cy="191.621" r="3.371"/>
			<circle fill="#0C59F2" cx="280.365" cy="182.559" r="3.371"/>
			<circle fill="#D93644" cx="286.405" cy="176.142" r="3.371"/>
			<circle fill="#D93644" cx="301.506" cy="175.387" r="3.372"/>
			<circle fill="#0C59F2" cx="293.957" cy="172.744" r="3.371"/>
			<circle fill="none" stroke="#F2F2F2" stroke-width="0.3775" stroke-miterlimit="10" cx="292.652" cy="184.672" r="24.918"/>
			<circle fill="none" stroke="#F2F2F2" stroke-width="0.3775" stroke-miterlimit="10" cx="292.841" cy="184.861" r="34.923"/>
			<circle fill="#268C16" cx="270.927" cy="172.744" r="3.371"/>
			<circle fill="#268C16" cx="285.272" cy="150.847" r="3.371"/>
			<circle fill="#268C16" cx="292.824" cy="209.742" r="3.371"/>
			<circle fill="#268C16" cx="263.753" cy="203.324" r="3.372"/>
			<circle fill="#268C16" cx="312.456" cy="169.346" r="3.372"/>
			<circle fill="#268C16" cx="325.291" cy="198.416" r="3.371"/>
		</g>
		<g>
			<circle fill="#D93644" cx="47.957" cy="271.295" r="3.371"/>
			<circle fill="#0C59F2" cx="41.538" cy="276.957" r="3.372"/>
			<circle fill="#D93644" cx="49.844" cy="279.223" r="3.371"/>
			<circle fill="#0C59F2" cx="43.803" cy="286.019" r="3.371"/>
			<circle fill="#0C59F2" cx="57.018" cy="274.314" r="3.371"/>
			<circle fill="#D93644" cx="58.149" cy="282.621" r="3.37"/>
			<circle fill="#0C59F2" cx="52.109" cy="287.528" r="3.371"/>
			<circle fill="#D93644" cx="35.875" cy="282.621" r="3.371"/>
			<circle fill="#0C59F2" cx="34.365" cy="273.559" r="3.371"/>
			<circle fill="#D93644" cx="40.405" cy="267.142" r="3.371"/>
			<circle fill="#D93644" cx="55.506" cy="266.387" r="3.372"/>
			<circle fill="#0C59F2" cx="47.957" cy="263.744" r="3.371"/>
			<circle fill="none" stroke="#F2F2F2" stroke-width="0.3775" stroke-miterlimit="10" cx="46.652" cy="275.672" r="24.918"/>
			<circle fill="none" stroke="#F2F2F2" stroke-width="0.3775" stroke-miterlimit="10" cx="46.841" cy="275.861" r="34.923"/>
			<circle fill="#268C16" cx="24.927" cy="263.744" r="3.371"/>
			<circle fill="#268C16" cx="39.272" cy="241.847" r="3.371"/>
			<circle fill="#268C16" cx="46.824" cy="300.742" r="3.371"/>
			<circle fill="#268C16" cx="17.753" cy="294.324" r="3.372"/>
			<circle fill="#268C16" cx="66.456" cy="260.346" r="3.372"/>
			<circle fill="#268C16" cx="79.291" cy="289.416" r="3.371"/>
		</g>
		<g>
			<circle fill="#D93644" cx="540.957" cy="182.295" r="3.371"/>
			<circle fill="#0C59F2" cx="534.538" cy="187.957" r="3.372"/>
			<circle fill="#D93644" cx="542.844" cy="190.223" r="3.371"/>
			<circle fill="#0C59F2" cx="536.803" cy="197.019" r="3.371"/>
			<circle fill="#0C59F2" cx="550.018" cy="185.314" r="3.371"/>
			<circle fill="#D93644" cx="551.149" cy="193.621" r="3.37"/>
			<circle fill="#0C59F2" cx="545.109" cy="198.528" r="3.371"/>
			<circle fill="#D93644" cx="528.875" cy="193.621" r="3.371"/>
			<circle fill="#0C59F2" cx="527.365" cy="184.559" r="3.371"/>
			<circle fill="#D93644" cx="533.405" cy="178.142" r="3.371"/>
			<circle fill="#D93644" cx="548.506" cy="177.387" r="3.372"/>
			<circle fill="#0C59F2" cx="540.957" cy="174.744" r="3.371"/>
			<circle fill="none" stroke="#F2F2F2" stroke-width="0.3775" stroke-miterlimit="10" cx="539.652" cy="186.672" r="24.918"/>
			<circle fill="none" stroke="#F2F2F2" stroke-width="0.3775" stroke-miterlimit="10" cx="539.841" cy="186.861" r="34.923"/>
			<circle fill="#268C16" cx="517.927" cy="174.744" r="3.371"/>
			<circle fill="#268C16" cx="532.272" cy="152.847" r="3.371"/>
			<circle fill="#268C16" cx="539.824" cy="211.742" r="3.371"/>
			<circle fill="#268C16" cx="510.753" cy="205.324" r="3.372"/>
			<circle fill="#268C16" cx="559.456" cy="171.346" r="3.372"/>
			<circle fill="#268C16" cx="572.291" cy="200.416" r="3.371"/>
		</g>
		<g>
			<circle fill="#D93644" cx="910.957" cy="413.295" r="3.371"/>
			<circle fill="#0C59F2" cx="904.538" cy="418.957" r="3.372"/>
			<circle fill="#D93644" cx="912.844" cy="421.223" r="3.371"/>
			<circle fill="#0C59F2" cx="906.803" cy="428.019" r="3.371"/>
			<circle fill="#0C59F2" cx="920.018" cy="416.314" r="3.371"/>
			<circle fill="#D93644" cx="921.148" cy="424.621" r="3.37"/>
			<circle fill="#0C59F2" cx="915.109" cy="429.528" r="3.371"/>
			<circle fill="#D93644" cx="898.875" cy="424.621" r="3.371"/>
			<circle fill="#0C59F2" cx="897.365" cy="415.559" r="3.371"/>
			<circle fill="#D93644" cx="903.405" cy="409.142" r="3.371"/>
			<circle fill="#D93644" cx="918.506" cy="408.387" r="3.372"/>
			<circle fill="#0C59F2" cx="910.957" cy="405.744" r="3.371"/>
			<circle fill="none" stroke="#F2F2F2" stroke-width="0.3775" stroke-miterlimit="10" cx="909.652" cy="417.672" r="24.918"/>
			<circle fill="none" stroke="#F2F2F2" stroke-width="0.3775" stroke-miterlimit="10" cx="909.841" cy="417.861" r="34.923"/>
			<circle fill="#268C16" cx="887.927" cy="405.744" r="3.371"/>
			<circle fill="#268C16" cx="902.271" cy="383.847" r="3.371"/>
			<circle fill="#268C16" cx="909.824" cy="442.742" r="3.371"/>
			<circle fill="#268C16" cx="880.753" cy="436.324" r="3.372"/>
			<circle fill="#268C16" cx="929.456" cy="402.346" r="3.372"/>
			<circle fill="#268C16" cx="942.291" cy="431.416" r="3.371"/>
		</g>
		<g>
			<circle fill="#D93644" cx="865.957" cy="54.295" r="3.371"/>
			<circle fill="#0C59F2" cx="859.538" cy="59.957" r="3.372"/>
			<circle fill="#D93644" cx="867.844" cy="62.222" r="3.371"/>
			<circle fill="#0C59F2" cx="861.803" cy="69.019" r="3.371"/>
			<circle fill="#0C59F2" cx="875.018" cy="57.314" r="3.371"/>
			<circle fill="#D93644" cx="876.148" cy="65.621" r="3.37"/>
			<circle fill="#0C59F2" cx="870.109" cy="70.528" r="3.371"/>
			<circle fill="#D93644" cx="853.875" cy="65.621" r="3.371"/>
			<circle fill="#0C59F2" cx="852.365" cy="56.559" r="3.371"/>
			<circle fill="#D93644" cx="858.405" cy="50.142" r="3.371"/>
			<circle fill="#D93644" cx="873.506" cy="49.386" r="3.372"/>
			<circle fill="#0C59F2" cx="865.957" cy="46.744" r="3.371"/>
			<circle fill="none" stroke="#F2F2F2" stroke-width="0.3775" stroke-miterlimit="10" cx="864.652" cy="58.672" r="24.918"/>
			<circle fill="none" stroke="#F2F2F2" stroke-width="0.3775" stroke-miterlimit="10" cx="864.841" cy="58.861" r="34.923"/>
			<circle fill="#268C16" cx="842.927" cy="46.744" r="3.371"/>
			<circle fill="#268C16" cx="857.271" cy="24.847" r="3.371"/>
			<circle fill="#268C16" cx="864.824" cy="83.743" r="3.371"/>
			<circle fill="#268C16" cx="835.753" cy="77.324" r="3.372"/>
			<circle fill="#268C16" cx="884.456" cy="43.346" r="3.372"/>
			<circle fill="#268C16" cx="897.291" cy="72.417" r="3.371"/>
		</g>
		<g>
			<circle fill="#D93644" cx="182.957" cy="94.295" r="3.371"/>
			<circle fill="#0C59F2" cx="176.538" cy="99.957" r="3.372"/>
			<circle fill="#D93644" cx="184.844" cy="102.223" r="3.371"/>
			<circle fill="#0C59F2" cx="178.803" cy="109.019" r="3.371"/>
			<circle fill="#0C59F2" cx="192.018" cy="97.314" r="3.371"/>
			<circle fill="#D93644" cx="193.149" cy="105.621" r="3.37"/>
			<circle fill="#0C59F2" cx="187.109" cy="110.528" r="3.371"/>
			<circle fill="#D93644" cx="170.875" cy="105.621" r="3.371"/>
			<circle fill="#0C59F2" cx="169.365" cy="96.559" r="3.371"/>
			<circle fill="#D93644" cx="175.405" cy="90.142" r="3.371"/>
			<circle fill="#D93644" cx="190.506" cy="89.387" r="3.372"/>
			<circle fill="#0C59F2" cx="182.957" cy="86.744" r="3.371"/>
			<circle fill="none" stroke="#F2F2F2" stroke-width="0.3775" stroke-miterlimit="10" cx="181.652" cy="98.672" r="24.918"/>
			<circle fill="none" stroke="#F2F2F2" stroke-width="0.3775" stroke-miterlimit="10" cx="181.841" cy="98.861" r="34.923"/>
			<circle fill="#268C16" cx="159.927" cy="86.744" r="3.371"/>
			<circle fill="#268C16" cx="174.272" cy="64.847" r="3.371"/>
			<circle fill="#268C16" cx="181.824" cy="123.742" r="3.371"/>
			<circle fill="#268C16" cx="152.753" cy="117.324" r="3.372"/>
			<circle fill="#268C16" cx="201.456" cy="83.346" r="3.372"/>
			<circle fill="#268C16" cx="214.291" cy="112.416" r="3.371"/>
		</g>
		<g>
			<circle fill="#D93644" cx="438.957" cy="423.295" r="3.371"/>
			<circle fill="#0C59F2" cx="432.538" cy="428.957" r="3.372"/>
			<circle fill="#D93644" cx="440.844" cy="431.223" r="3.371"/>
			<circle fill="#0C59F2" cx="434.803" cy="438.019" r="3.371"/>
			<circle fill="#0C59F2" cx="448.018" cy="426.314" r="3.371"/>
			<circle fill="#D93644" cx="449.149" cy="434.621" r="3.37"/>
			<circle fill="#0C59F2" cx="443.109" cy="439.528" r="3.371"/>
			<circle fill="#D93644" cx="426.875" cy="434.621" r="3.371"/>
			<circle fill="#0C59F2" cx="425.365" cy="425.559" r="3.371"/>
			<circle fill="#D93644" cx="431.405" cy="419.142" r="3.371"/>
			<circle fill="#D93644" cx="446.506" cy="418.387" r="3.372"/>
			<circle fill="#0C59F2" cx="438.957" cy="415.744" r="3.371"/>
			<circle fill="none" stroke="#F2F2F2" stroke-width="0.3775" stroke-miterlimit="10" cx="437.652" cy="427.672" r="24.918"/>
			<circle fill="none" stroke="#F2F2F2" stroke-width="0.3775" stroke-miterlimit="10" cx="437.841" cy="427.861" r="34.923"/>
			<circle fill="#268C16" cx="415.927" cy="415.744" r="3.371"/>
			<circle fill="#268C16" cx="430.272" cy="393.847" r="3.371"/>
			<circle fill="#268C16" cx="437.824" cy="452.742" r="3.371"/>
			<circle fill="#268C16" cx="408.753" cy="446.324" r="3.372"/>
			<circle fill="#268C16" cx="457.456" cy="412.346" r="3.372"/>
			<circle fill="#268C16" cx="470.291" cy="441.416" r="3.371"/>
		</g>
		<g>
			<circle fill="#D93644" cx="640.957" cy="280.295" r="3.371"/>
			<circle fill="#0C59F2" cx="634.538" cy="285.957" r="3.372"/>
			<circle fill="#D93644" cx="642.844" cy="288.223" r="3.371"/>
			<circle fill="#0C59F2" cx="636.803" cy="295.019" r="3.371"/>
			<circle fill="#0C59F2" cx="650.018" cy="283.314" r="3.371"/>
			<circle fill="#D93644" cx="651.148" cy="291.621" r="3.37"/>
			<circle fill="#0C59F2" cx="645.109" cy="296.528" r="3.371"/>
			<circle fill="#D93644" cx="628.875" cy="291.621" r="3.371"/>
			<circle fill="#0C59F2" cx="627.365" cy="282.559" r="3.371"/>
			<circle fill="#D93644" cx="633.405" cy="276.142" r="3.371"/>
			<circle fill="#D93644" cx="648.506" cy="275.387" r="3.372"/>
			<circle fill="#0C59F2" cx="640.957" cy="272.744" r="3.371"/>
			<circle fill="none" stroke="#F2F2F2" stroke-width="0.3775" stroke-miterlimit="10" cx="639.652" cy="284.672" r="24.918"/>
			<circle fill="none" stroke="#F2F2F2" stroke-width="0.3775" stroke-miterlimit="10" cx="639.841" cy="284.861" r="34.923"/>
			<circle fill="#268C16" cx="617.927" cy="272.744" r="3.371"/>
			<circle fill="#268C16" cx="632.271" cy="250.847" r="3.371"/>
			<circle fill="#268C16" cx="639.824" cy="309.742" r="3.371"/>
			<circle fill="#268C16" cx="610.753" cy="303.324" r="3.372"/>
			<circle fill="#268C16" cx="659.456" cy="269.346" r="3.372"/>
			<circle fill="#268C16" cx="672.291" cy="298.416" r="3.371"/>
		</g>
		<g>
			<circle fill="#D93644" cx="691.957" cy="88.295" r="3.371"/>
			<circle fill="#0C59F2" cx="685.538" cy="93.957" r="3.372"/>
			<circle fill="#D93644" cx="693.844" cy="96.223" r="3.371"/>
			<circle fill="#0C59F2" cx="687.803" cy="103.019" r="3.371"/>
			<circle fill="#0C59F2" cx="701.018" cy="91.314" r="3.371"/>
			<circle fill="#D93644" cx="702.148" cy="99.621" r="3.37"/>
			<circle fill="#0C59F2" cx="696.109" cy="104.528" r="3.371"/>
			<circle fill="#D93644" cx="679.875" cy="99.621" r="3.371"/>
			<circle fill="#0C59F2" cx="678.365" cy="90.559" r="3.371"/>
			<circle fill="#D93644" cx="684.405" cy="84.142" r="3.371"/>
			<circle fill="#D93644" cx="699.506" cy="83.387" r="3.372"/>
			<circle fill="#0C59F2" cx="691.957" cy="80.744" r="3.371"/>
			<circle fill="none" stroke="#F2F2F2" stroke-width="0.3775" stroke-miterlimit="10" cx="690.652" cy="92.672" r="24.918"/>
			<circle fill="none" stroke="#F2F2F2" stroke-width="0.3775" stroke-miterlimit="10" cx="690.841" cy="92.861" r="34.923"/>
			<circle fill="#268C16" cx="668.927" cy="80.744" r="3.371"/>
			<circle fill="#268C16" cx="683.271" cy="58.847" r="3.371"/>
			<circle fill="#268C16" cx="690.824" cy="117.742" r="3.371"/>
			<circle fill="#268C16" cx="661.753" cy="111.324" r="3.372"/>
			<circle fill="#268C16" cx="710.456" cy="77.346" r="3.372"/>
			<circle fill="#268C16" cx="723.291" cy="106.416" r="3.371"/>
		</g>
		<g>
			<circle fill="#D93644" cx="1106.957" cy="76.295" r="3.371"/>
			<circle fill="#0C59F2" cx="1100.538" cy="81.957" r="3.372"/>
			<circle fill="#D93644" cx="1108.844" cy="84.222" r="3.371"/>
			<circle fill="#0C59F2" cx="1102.803" cy="91.019" r="3.371"/>
			<circle fill="#0C59F2" cx="1116.018" cy="79.314" r="3.371"/>
			<circle fill="#D93644" cx="1117.148" cy="87.621" r="3.37"/>
			<circle fill="#0C59F2" cx="1111.109" cy="92.528" r="3.371"/>
			<circle fill="#D93644" cx="1094.875" cy="87.621" r="3.371"/>
			<circle fill="#0C59F2" cx="1093.365" cy="78.559" r="3.371"/>
			<circle fill="#D93644" cx="1099.405" cy="72.142" r="3.371"/>
			<circle fill="#D93644" cx="1114.506" cy="71.386" r="3.372"/>
			<circle fill="#0C59F2" cx="1106.957" cy="68.744" r="3.371"/>
			<circle fill="none" stroke="#F2F2F2" stroke-width="0.3775" stroke-miterlimit="10" cx="1105.652" cy="80.672" r="24.918"/>
			<circle fill="none" stroke="#F2F2F2" stroke-width="0.3775" stroke-miterlimit="10" cx="1105.841" cy="80.861" r="34.923"/>
			<circle fill="#268C16" cx="1083.927" cy="68.744" r="3.371"/>
			<circle fill="#268C16" cx="1098.271" cy="46.847" r="3.371"/>
			<circle fill="#268C16" cx="1105.824" cy="105.743" r="3.371"/>
			<circle fill="#268C16" cx="1076.753" cy="99.324" r="3.372"/>
			<circle fill="#268C16" cx="1125.456" cy="65.346" r="3.372"/>
			<circle fill="#268C16" cx="1138.291" cy="94.417" r="3.371"/>
		</g>
		<g>
			<circle fill="#D93644" cx="765.957" cy="185.295" r="3.371"/>
			<circle fill="#0C59F2" cx="759.538" cy="190.957" r="3.372"/>
			<circle fill="#D93644" cx="767.844" cy="193.222" r="3.371"/>
			<circle fill="#0C59F2" cx="761.803" cy="200.019" r="3.371"/>
			<circle fill="#0C59F2" cx="775.018" cy="188.314" r="3.371"/>
			<circle fill="#D93644" cx="776.148" cy="196.621" r="3.37"/>
			<circle fill="#0C59F2" cx="770.109" cy="201.528" r="3.371"/>
			<circle fill="#D93644" cx="753.875" cy="196.621" r="3.371"/>
			<circle fill="#0C59F2" cx="752.365" cy="187.559" r="3.371"/>
			<circle fill="#D93644" cx="758.405" cy="181.142" r="3.371"/>
			<circle fill="#D93644" cx="773.506" cy="180.386" r="3.372"/>
			<circle fill="#0C59F2" cx="765.957" cy="177.744" r="3.371"/>
			<circle fill="none" stroke="#F2F2F2" stroke-width="0.3775" stroke-miterlimit="10" cx="764.652" cy="189.672" r="24.918"/>
			<circle fill="none" stroke="#F2F2F2" stroke-width="0.3775" stroke-miterlimit="10" cx="764.841" cy="189.861" r="34.923"/>
			<circle fill="#268C16" cx="742.927" cy="177.744" r="3.371"/>
			<circle fill="#268C16" cx="757.271" cy="155.847" r="3.371"/>
			<circle fill="#268C16" cx="764.824" cy="214.743" r="3.371"/>
			<circle fill="#268C16" cx="735.753" cy="208.324" r="3.372"/>
			<circle fill="#268C16" cx="784.456" cy="174.346" r="3.372"/>
			<circle fill="#268C16" cx="797.291" cy="203.417" r="3.371"/>
		</g>
		<g>
			<circle fill="#D93644" cx="350.957" cy="551.295" r="3.371"/>
			<circle fill="#0C59F2" cx="344.538" cy="556.957" r="3.372"/>
			<circle fill="#D93644" cx="352.844" cy="559.223" r="3.371"/>
			<circle fill="#0C59F2" cx="346.803" cy="566.019" r="3.371"/>
			<circle fill="#0C59F2" cx="360.018" cy="554.314" r="3.371"/>
			<circle fill="#D93644" cx="361.149" cy="562.621" r="3.37"/>
			<circle fill="#0C59F2" cx="355.109" cy="567.528" r="3.371"/>
			<circle fill="#D93644" cx="338.875" cy="562.621" r="3.371"/>
			<circle fill="#0C59F2" cx="337.365" cy="553.559" r="3.371"/>
			<circle fill="#D93644" cx="343.405" cy="547.142" r="3.371"/>
			<circle fill="#D93644" cx="358.506" cy="546.387" r="3.372"/>
			<circle fill="#0C59F2" cx="350.957" cy="543.744" r="3.371"/>
			<circle fill="none" stroke="#F2F2F2" stroke-width="0.3775" stroke-miterlimit="10" cx="349.652" cy="555.672" r="24.918"/>
			<circle fill="none" stroke="#F2F2F2" stroke-width="0.3775" stroke-miterlimit="10" cx="349.841" cy="555.861" r="34.923"/>
			<circle fill="#268C16" cx="327.927" cy="543.744" r="3.371"/>
			<circle fill="#268C16" cx="342.272" cy="521.847" r="3.371"/>
			<circle fill="#268C16" cx="349.824" cy="580.742" r="3.371"/>
			<circle fill="#268C16" cx="320.753" cy="574.324" r="3.372"/>
			<circle fill="#268C16" cx="369.456" cy="540.346" r="3.372"/>
			<circle fill="#268C16" cx="382.291" cy="569.416" r="3.371"/>
		</g>
		<g>
			<circle fill="#D93644" cx="79.957" cy="640.295" r="3.371"/>
			<circle fill="#0C59F2" cx="73.538" cy="645.957" r="3.372"/>
			<circle fill="#D93644" cx="81.844" cy="648.223" r="3.371"/>
			<circle fill="#0C59F2" cx="75.803" cy="655.019" r="3.371"/>
			<circle fill="#0C59F2" cx="89.018" cy="643.314" r="3.371"/>
			<circle fill="#D93644" cx="90.149" cy="651.621" r="3.37"/>
			<circle fill="#0C59F2" cx="84.109" cy="656.528" r="3.371"/>
			<circle fill="#D93644" cx="67.875" cy="651.621" r="3.371"/>
			<circle fill="#0C59F2" cx="66.365" cy="642.559" r="3.371"/>
			<circle fill="#D93644" cx="72.405" cy="636.142" r="3.371"/>
			<circle fill="#D93644" cx="87.506" cy="635.387" r="3.372"/>
			<circle fill="#0C59F2" cx="79.957" cy="632.744" r="3.371"/>
			<circle fill="none" stroke="#F2F2F2" stroke-width="0.3775" stroke-miterlimit="10" cx="78.652" cy="644.672" r="24.918"/>
			<circle fill="none" stroke="#F2F2F2" stroke-width="0.3775" stroke-miterlimit="10" cx="78.841" cy="644.861" r="34.923"/>
			<circle fill="#268C16" cx="56.927" cy="632.744" r="3.371"/>
			<circle fill="#268C16" cx="71.272" cy="610.847" r="3.371"/>
			<circle fill="#268C16" cx="78.824" cy="669.742" r="3.371"/>
			<circle fill="#268C16" cx="49.753" cy="663.324" r="3.372"/>
			<circle fill="#268C16" cx="98.456" cy="629.346" r="3.372"/>
			<circle fill="#268C16" cx="111.291" cy="658.416" r="3.371"/>
		</g>
		<g>
			<circle fill="#D93644" cx="58.957" cy="61.295" r="3.371"/>
			<circle fill="#0C59F2" cx="52.538" cy="66.957" r="3.372"/>
			<circle fill="#D93644" cx="60.844" cy="69.223" r="3.371"/>
			<circle fill="#0C59F2" cx="54.803" cy="76.019" r="3.371"/>
			<circle fill="#0C59F2" cx="68.018" cy="64.314" r="3.371"/>
			<circle fill="#D93644" cx="69.149" cy="72.621" r="3.37"/>
			<circle fill="#0C59F2" cx="63.109" cy="77.528" r="3.371"/>
			<circle fill="#D93644" cx="46.875" cy="72.621" r="3.371"/>
			<circle fill="#0C59F2" cx="45.365" cy="63.559" r="3.371"/>
			<circle fill="#D93644" cx="51.405" cy="57.142" r="3.371"/>
			<circle fill="#D93644" cx="66.506" cy="56.387" r="3.372"/>
			<circle fill="#0C59F2" cx="58.957" cy="53.744" r="3.371"/>
			<circle fill="none" stroke="#F2F2F2" stroke-width="0.3775" stroke-miterlimit="10" cx="57.652" cy="65.672" r="24.918"/>
			<circle fill="none" stroke="#F2F2F2" stroke-width="0.3775" stroke-miterlimit="10" cx="57.841" cy="65.861" r="34.923"/>
			<circle fill="#268C16" cx="35.927" cy="53.744" r="3.371"/>
			<circle fill="#268C16" cx="50.272" cy="31.847" r="3.371"/>
			<circle fill="#268C16" cx="57.824" cy="90.742" r="3.371"/>
			<circle fill="#268C16" cx="28.753" cy="84.324" r="3.372"/>
			<circle fill="#268C16" cx="77.456" cy="50.346" r="3.372"/>
			<circle fill="#268C16" cx="90.291" cy="79.416" r="3.371"/>
		</g>
		<g>
			<circle fill="#D93644" cx="939.957" cy="162.295" r="3.371"/>
			<circle fill="#0C59F2" cx="933.538" cy="167.957" r="3.372"/>
			<circle fill="#D93644" cx="941.844" cy="170.222" r="3.371"/>
			<circle fill="#0C59F2" cx="935.803" cy="177.019" r="3.371"/>
			<circle fill="#0C59F2" cx="949.018" cy="165.314" r="3.371"/>
			<circle fill="#D93644" cx="950.148" cy="173.621" r="3.37"/>
			<circle fill="#0C59F2" cx="944.109" cy="178.528" r="3.371"/>
			<circle fill="#D93644" cx="927.875" cy="173.621" r="3.371"/>
			<circle fill="#0C59F2" cx="926.365" cy="164.559" r="3.371"/>
			<circle fill="#D93644" cx="932.405" cy="158.142" r="3.371"/>
			<circle fill="#D93644" cx="947.506" cy="157.386" r="3.372"/>
			<circle fill="#0C59F2" cx="939.957" cy="154.744" r="3.371"/>
			<circle fill="none" stroke="#F2F2F2" stroke-width="0.3775" stroke-miterlimit="10" cx="938.652" cy="166.672" r="24.918"/>
			<circle fill="none" stroke="#F2F2F2" stroke-width="0.3775" stroke-miterlimit="10" cx="938.841" cy="166.861" r="34.923"/>
			<circle fill="#268C16" cx="916.927" cy="154.744" r="3.371"/>
			<circle fill="#268C16" cx="931.271" cy="132.847" r="3.371"/>
			<circle fill="#268C16" cx="938.824" cy="191.743" r="3.371"/>
			<circle fill="#268C16" cx="909.753" cy="185.324" r="3.372"/>
			<circle fill="#268C16" cx="958.456" cy="151.346" r="3.372"/>
			<circle fill="#268C16" cx="971.291" cy="180.417" r="3.371"/>
		</g>
		<g>
			<circle fill="#D93644" cx="1025.957" cy="250.295" r="3.371"/>
			<circle fill="#0C59F2" cx="1019.538" cy="255.957" r="3.372"/>
			<circle fill="#D93644" cx="1027.844" cy="258.222" r="3.371"/>
			<circle fill="#0C59F2" cx="1021.803" cy="265.019" r="3.371"/>
			<circle fill="#0C59F2" cx="1035.018" cy="253.314" r="3.371"/>
			<circle fill="#D93644" cx="1036.148" cy="261.621" r="3.37"/>
			<circle fill="#0C59F2" cx="1030.109" cy="266.528" r="3.371"/>
			<circle fill="#D93644" cx="1013.875" cy="261.621" r="3.371"/>
			<circle fill="#0C59F2" cx="1012.365" cy="252.559" r="3.371"/>
			<circle fill="#D93644" cx="1018.405" cy="246.142" r="3.371"/>
			<circle fill="#D93644" cx="1033.506" cy="245.386" r="3.372"/>
			<circle fill="#0C59F2" cx="1025.957" cy="242.744" r="3.371"/>
			<circle fill="none" stroke="#F2F2F2" stroke-width="0.3775" stroke-miterlimit="10" cx="1024.652" cy="254.672" r="24.918"/>
			<circle fill="none" stroke="#F2F2F2" stroke-width="0.3775" stroke-miterlimit="10" cx="1024.841" cy="254.861" r="34.923"/>
			<circle fill="#268C16" cx="1002.927" cy="242.744" r="3.371"/>
			<circle fill="#268C16" cx="1017.271" cy="220.847" r="3.371"/>
			<circle fill="#268C16" cx="1024.824" cy="279.743" r="3.371"/>
			<circle fill="#268C16" cx="995.753" cy="273.324" r="3.372"/>
			<circle fill="#268C16" cx="1044.456" cy="239.346" r="3.372"/>
			<circle fill="#268C16" cx="1057.291" cy="268.417" r="3.371"/>
		</g>
		<g>
			<circle fill="#D93644" cx="575.957" cy="639.295" r="3.371"/>
			<circle fill="#0C59F2" cx="569.538" cy="644.957" r="3.372"/>
			<circle fill="#D93644" cx="577.844" cy="647.223" r="3.371"/>
			<circle fill="#0C59F2" cx="571.803" cy="654.019" r="3.371"/>
			<circle fill="#0C59F2" cx="585.018" cy="642.314" r="3.371"/>
			<circle fill="#D93644" cx="586.148" cy="650.621" r="3.37"/>
			<circle fill="#0C59F2" cx="580.109" cy="655.528" r="3.371"/>
			<circle fill="#D93644" cx="563.875" cy="650.621" r="3.371"/>
			<circle fill="#0C59F2" cx="562.365" cy="641.559" r="3.371"/>
			<circle fill="#D93644" cx="568.405" cy="635.142" r="3.371"/>
			<circle fill="#D93644" cx="583.506" cy="634.387" r="3.372"/>
			<circle fill="#0C59F2" cx="575.957" cy="631.744" r="3.371"/>
			<circle fill="none" stroke="#F2F2F2" stroke-width="0.3775" stroke-miterlimit="10" cx="574.652" cy="643.672" r="24.918"/>
			<circle fill="none" stroke="#F2F2F2" stroke-width="0.3775" stroke-miterlimit="10" cx="574.841" cy="643.861" r="34.923"/>
			<circle fill="#268C16" cx="552.927" cy="631.744" r="3.371"/>
			<circle fill="#268C16" cx="567.272" cy="609.847" r="3.371"/>
			<circle fill="#268C16" cx="574.824" cy="668.742" r="3.371"/>
			<circle fill="#268C16" cx="545.753" cy="662.324" r="3.372"/>
			<circle fill="#268C16" cx="594.456" cy="628.346" r="3.372"/>
			<circle fill="#268C16" cx="607.291" cy="657.416" r="3.371"/>
		</g>
		<g>
			<circle fill="#D93644" cx="847.957" cy="282.295" r="3.371"/>
			<circle fill="#0C59F2" cx="841.538" cy="287.957" r="3.372"/>
			<circle fill="#D93644" cx="849.844" cy="290.222" r="3.371"/>
			<circle fill="#0C59F2" cx="843.803" cy="297.019" r="3.371"/>
			<circle fill="#0C59F2" cx="857.018" cy="285.314" r="3.371"/>
			<circle fill="#D93644" cx="858.148" cy="293.621" r="3.37"/>
			<circle fill="#0C59F2" cx="852.109" cy="298.528" r="3.371"/>
			<circle fill="#D93644" cx="835.875" cy="293.621" r="3.371"/>
			<circle fill="#0C59F2" cx="834.365" cy="284.559" r="3.371"/>
			<circle fill="#D93644" cx="840.405" cy="278.142" r="3.371"/>
			<circle fill="#D93644" cx="855.506" cy="277.386" r="3.372"/>
			<circle fill="#0C59F2" cx="847.957" cy="274.744" r="3.371"/>
			<circle fill="none" stroke="#F2F2F2" stroke-width="0.3775" stroke-miterlimit="10" cx="846.652" cy="286.672" r="24.918"/>
			<circle fill="none" stroke="#F2F2F2" stroke-width="0.3775" stroke-miterlimit="10" cx="846.841" cy="286.861" r="34.923"/>
			<circle fill="#268C16" cx="824.927" cy="274.744" r="3.371"/>
			<circle fill="#268C16" cx="839.271" cy="252.847" r="3.371"/>
			<circle fill="#268C16" cx="846.824" cy="311.743" r="3.371"/>
			<circle fill="#268C16" cx="817.753" cy="305.324" r="3.372"/>
			<circle fill="#268C16" cx="866.456" cy="271.346" r="3.372"/>
			<circle fill="#268C16" cx="879.291" cy="300.417" r="3.371"/>
		</g>
		<g>
			<circle fill="#D93644" cx="1095.957" cy="575.295" r="3.371"/>
			<circle fill="#0C59F2" cx="1089.538" cy="580.957" r="3.372"/>
			<circle fill="#D93644" cx="1097.844" cy="583.223" r="3.371"/>
			<circle fill="#0C59F2" cx="1091.803" cy="590.019" r="3.371"/>
			<circle fill="#0C59F2" cx="1105.018" cy="578.314" r="3.371"/>
			<circle fill="#D93644" cx="1106.148" cy="586.621" r="3.37"/>
			<circle fill="#0C59F2" cx="1100.109" cy="591.528" r="3.371"/>
			<circle fill="#D93644" cx="1083.875" cy="586.621" r="3.371"/>
			<circle fill="#0C59F2" cx="1082.365" cy="577.559" r="3.371"/>
			<circle fill="#D93644" cx="1088.405" cy="571.142" r="3.371"/>
			<circle fill="#D93644" cx="1103.506" cy="570.387" r="3.372"/>
			<circle fill="#0C59F2" cx="1095.957" cy="567.744" r="3.371"/>
			<circle fill="none" stroke="#F2F2F2" stroke-width="0.3775" stroke-miterlimit="10" cx="1094.652" cy="579.672" r="24.918"/>
			<circle fill="none" stroke="#F2F2F2" stroke-width="0.3775" stroke-miterlimit="10" cx="1094.841" cy="579.861" r="34.923"/>
			<circle fill="#268C16" cx="1072.927" cy="567.744" r="3.371"/>
			<circle fill="#268C16" cx="1087.271" cy="545.847" r="3.371"/>
			<circle fill="#268C16" cx="1094.824" cy="604.742" r="3.371"/>
			<circle fill="#268C16" cx="1065.753" cy="598.324" r="3.372"/>
			<circle fill="#268C16" cx="1114.456" cy="564.346" r="3.372"/>
			<circle fill="#268C16" cx="1127.291" cy="593.416" r="3.371"/>
		</g>
	</g>
	<g>
		<path fill="#F2F2F2" d="M125.521,392.421l-0.16-25.521l-12.16,20.48h-8.32l-12.16-19.6v24.64h-17.2v-56h15.52l18.24,29.84
			l17.76-29.84h15.52l0.16,56H125.521z"/>
		<path fill="#F2F2F2" d="M164.96,389.941c-4.8-2.507-8.56-5.986-11.28-10.44c-2.72-4.452-4.08-9.479-4.08-15.08
			s1.36-10.626,4.08-15.08c2.72-4.453,6.48-7.933,11.28-10.44c4.8-2.506,10.212-3.76,16.24-3.76c6.026,0,11.44,1.253,16.24,3.76
			c4.8,2.507,8.56,5.987,11.28,10.44c2.72,4.454,4.08,9.479,4.08,15.08s-1.36,10.628-4.08,15.08c-2.72,4.454-6.48,7.934-11.28,10.44
			c-4.8,2.506-10.214,3.76-16.24,3.76C175.173,393.701,169.76,392.447,164.96,389.941z M187.56,376.701
			c1.893-1.146,3.4-2.773,4.52-4.881c1.12-2.105,1.68-4.572,1.68-7.399c0-2.826-0.56-5.292-1.68-7.399
			c-1.12-2.107-2.627-3.732-4.52-4.881c-1.894-1.146-4.014-1.72-6.36-1.72c-2.348,0-4.467,0.574-6.36,1.72
			c-1.894,1.148-3.4,2.773-4.52,4.881s-1.68,4.573-1.68,7.399c0,2.827,0.56,5.294,1.68,7.399c1.12,2.107,2.626,3.734,4.52,4.881
			c1.893,1.147,4.012,1.72,6.36,1.72C183.546,378.421,185.667,377.849,187.56,376.701z"/>
		<path fill="#F2F2F2" d="M274.879,336.421v56h-15.52l-21.28-25.44v25.44h-18.4v-56h15.52l21.28,25.44v-25.44H274.879z"/>
		<path fill="#F2F2F2" d="M330.559,378.181v14.24h-46.56v-56h45.52v14.24h-26.96v6.56h23.68v13.6h-23.68v7.36H330.559z"/>
		<path fill="#F2F2F2" d="M370.718,372.102v20.319h-18.88v-20.56l-21.12-35.44h19.92l11.44,19.36l11.52-19.36h18.24L370.718,372.102
			z"/>
		<path fill="#D93644" d="M431.357,389.941c-4.8-2.507-8.56-5.986-11.28-10.44c-2.72-4.452-4.08-9.479-4.08-15.08
			s1.36-10.626,4.08-15.08c2.72-4.453,6.48-7.933,11.28-10.44c4.8-2.506,10.212-3.76,16.24-3.76c6.026,0,11.44,1.253,16.24,3.76
			c4.8,2.507,8.56,5.987,11.28,10.44c2.72,4.454,4.08,9.479,4.08,15.08s-1.36,10.628-4.08,15.08c-2.72,4.454-6.48,7.934-11.28,10.44
			c-4.8,2.506-10.214,3.76-16.24,3.76C441.569,393.701,436.157,392.447,431.357,389.941z M453.957,376.701
			c1.893-1.146,3.4-2.773,4.52-4.881c1.12-2.105,1.68-4.572,1.68-7.399c0-2.826-0.56-5.292-1.68-7.399
			c-1.12-2.107-2.627-3.732-4.52-4.881c-1.894-1.146-4.014-1.72-6.36-1.72c-2.348,0-4.467,0.574-6.36,1.72
			c-1.894,1.148-3.4,2.773-4.52,4.881s-1.68,4.573-1.68,7.399c0,2.827,0.56,5.294,1.68,7.399c1.12,2.107,2.626,3.734,4.52,4.881
			c1.893,1.147,4.012,1.72,6.36,1.72C449.943,378.421,452.063,377.849,453.957,376.701z"/>
		<path fill="#D93644" d="M510.076,378.341h-5.12v14.08h-18.88v-56h26.96c5.172,0,9.68,0.854,13.52,2.56
			c3.84,1.708,6.8,4.16,8.88,7.36c2.08,3.2,3.12,6.934,3.12,11.2c0,4-0.908,7.494-2.72,10.48c-1.813,2.986-4.427,5.359-7.84,7.119
			l11.76,17.28h-20.16L510.076,378.341z M517.596,352.701c-1.28-1.146-3.2-1.72-5.76-1.72h-6.88v13.121h6.88
			c2.56,0,4.48-0.573,5.76-1.721c1.28-1.146,1.92-2.76,1.92-4.84S518.875,353.849,517.596,352.701z"/>
		<path fill="#F2F2F2" d="M619.674,392.421l-0.159-25.521l-12.16,20.48h-8.32l-12.16-19.6v24.64h-17.2v-56h15.52l18.239,29.84
			l17.761-29.84h15.52l0.16,56H619.674z"/>
		<path fill="#F2F2F2" d="M645.993,336.421h18.881v56h-18.881V336.421z"/>
		<path fill="#F2F2F2" d="M686.152,351.061h-16.399v-14.64h51.68v14.64h-16.4v41.36h-18.88V351.061z"/>
		<path fill="#F2F2F2" d="M726.312,336.421h18.881v56h-18.881V336.421z"/>
		<path fill="#F2F2F2" d="M791.351,362.9h16.4v23.681c-3.308,2.294-7.147,4.054-11.52,5.28c-4.374,1.226-8.668,1.84-12.881,1.84
			c-5.974,0-11.333-1.24-16.08-3.721c-4.747-2.479-8.467-5.945-11.159-10.399c-2.694-4.452-4.04-9.507-4.04-15.16
			c0-5.652,1.346-10.706,4.04-15.16c2.692-4.452,6.452-7.92,11.279-10.4c4.826-2.48,10.28-3.72,16.36-3.72
			c5.492,0,10.412,0.92,14.76,2.76c4.347,1.84,7.96,4.52,10.84,8.04l-12.08,10.64c-3.52-4.106-7.707-6.16-12.56-6.16
			c-4.16,0-7.468,1.254-9.92,3.76c-2.454,2.508-3.68,5.921-3.68,10.24c0,4.214,1.212,7.601,3.64,10.16
			c2.426,2.56,5.666,3.84,9.72,3.84c2.4,0,4.692-0.452,6.88-1.36V362.9z"/>
		<path fill="#F2F2F2" d="M853.99,382.661h-21.279l-3.761,9.76h-19.199l24.479-56h18.56l24.48,56h-19.52L853.99,382.661z
			 M848.79,369.061l-5.439-14.08l-5.44,14.08H848.79z"/>
		<path fill="#F2F2F2" d="M889.672,351.061h-16.399v-14.64h51.68v14.64h-16.4v41.36h-18.88V351.061z"/>
		<path fill="#F2F2F2" d="M929.831,336.421h18.881v56h-18.881V336.421z"/>
		<path fill="#F2F2F2" d="M970.95,389.941c-4.8-2.507-8.56-5.986-11.279-10.44c-2.721-4.452-4.08-9.479-4.08-15.08
			s1.359-10.626,4.08-15.08c2.72-4.453,6.479-7.933,11.279-10.44c4.801-2.506,10.213-3.76,16.24-3.76
			c6.026,0,11.44,1.253,16.24,3.76c4.8,2.507,8.56,5.987,11.28,10.44c2.72,4.454,4.079,9.479,4.079,15.08s-1.359,10.628-4.079,15.08
			c-2.721,4.454-6.48,7.934-11.28,10.44c-4.8,2.506-10.214,3.76-16.24,3.76C981.163,393.701,975.751,392.447,970.95,389.941z
			 M993.551,376.701c1.893-1.146,3.399-2.773,4.52-4.881c1.12-2.105,1.681-4.572,1.681-7.399c0-2.826-0.561-5.292-1.681-7.399
			s-2.627-3.732-4.52-4.881c-1.894-1.146-4.014-1.72-6.36-1.72c-2.348,0-4.468,0.574-6.36,1.72c-1.894,1.148-3.399,2.773-4.52,4.881
			s-1.68,4.573-1.68,7.399c0,2.827,0.56,5.294,1.68,7.399c1.12,2.107,2.626,3.734,4.52,4.881c1.893,1.147,4.013,1.72,6.36,1.72
			C989.537,378.421,991.657,377.849,993.551,376.701z"/>
		<path fill="#F2F2F2" d="M1080.87,336.421v56h-15.52l-21.28-25.44v25.44h-18.4v-56h15.521l21.28,25.44v-25.44H1080.87z"/>
	</g>
	<g>
		<path fill="#D93644" d="M945.788,307.007h-7.35l-1.449,3.402h-2.814l6.615-14.7h2.688l6.636,14.7h-2.856L945.788,307.007z
			 M944.886,304.865l-2.772-6.426l-2.751,6.426H944.886z"/>
		<path fill="#D93644" d="M961.601,310.409l-3.003-4.305c-0.126,0.014-0.314,0.021-0.566,0.021h-3.318v4.284h-2.73v-14.7h6.049
			c1.273,0,2.383,0.21,3.328,0.63c0.945,0.42,1.669,1.022,2.174,1.806c0.504,0.784,0.756,1.715,0.756,2.793
			c0,1.106-0.27,2.058-0.809,2.856c-0.539,0.798-1.313,1.394-2.32,1.785l3.381,4.83H961.601z M960.614,298.775
			c-0.616-0.504-1.52-0.756-2.709-0.756h-3.192v5.859h3.192c1.189,0,2.093-0.255,2.709-0.767c0.615-0.511,0.924-1.235,0.924-2.174
			C961.538,300,961.229,299.279,960.614,298.775z"/>
		<path fill="#D93644" d="M978.358,308.12v2.289h-11.025v-14.7h10.731v2.289h-8.001v3.822h7.098v2.247h-7.098v4.053H978.358z"/>
		<path fill="#F2F2F2" d="M989.93,297.998v4.473h7.098v2.31h-7.098v5.628h-2.73v-14.7h10.731v2.289H989.93z"/>
		<path fill="#F2F2F2" d="M1003.223,309.642c-1.204-0.651-2.149-1.554-2.835-2.709c-0.687-1.155-1.029-2.446-1.029-3.875
			c0-1.428,0.343-2.719,1.029-3.875c0.686-1.155,1.631-2.058,2.835-2.709s2.555-0.977,4.053-0.977s2.849,0.326,4.053,0.977
			s2.149,1.551,2.835,2.699c0.687,1.148,1.029,2.443,1.029,3.885c0,1.442-0.343,2.737-1.029,3.885
			c-0.686,1.148-1.631,2.047-2.835,2.698s-2.555,0.977-4.053,0.977S1004.427,310.293,1003.223,309.642z M1009.922,307.563
			c0.783-0.441,1.399-1.057,1.848-1.848s0.672-1.677,0.672-2.657c0-0.979-0.224-1.865-0.672-2.656s-1.064-1.407-1.848-1.848
			c-0.784-0.441-1.667-0.662-2.646-0.662s-1.862,0.221-2.646,0.662c-0.784,0.441-1.4,1.057-1.849,1.848s-0.672,1.677-0.672,2.656
			c0,0.98,0.224,1.866,0.672,2.657s1.064,1.407,1.849,1.848c0.783,0.441,1.666,0.662,2.646,0.662S1009.138,308.004,1009.922,307.563
			z"/>
		<path fill="#F2F2F2" d="M1027.708,310.409l-3.003-4.305c-0.126,0.014-0.314,0.021-0.566,0.021h-3.318v4.284h-2.73v-14.7h6.049
			c1.273,0,2.383,0.21,3.328,0.63c0.945,0.42,1.669,1.022,2.174,1.806c0.504,0.784,0.756,1.715,0.756,2.793
			c0,1.106-0.27,2.058-0.809,2.856c-0.539,0.798-1.313,1.394-2.32,1.785l3.381,4.83H1027.708z M1026.722,298.775
			c-0.616-0.504-1.52-0.756-2.709-0.756h-3.192v5.859h3.192c1.189,0,2.093-0.255,2.709-0.767c0.615-0.511,0.924-1.235,0.924-2.174
			C1027.646,300,1027.337,299.279,1026.722,298.775z"/>
		<path fill="#F2F2F2" d="M1044.466,308.12v2.289h-11.025v-14.7h10.731v2.289h-8.001v3.822h7.098v2.247h-7.098v4.053H1044.466z"/>
		<path fill="#F2F2F2" d="M1048.781,310.136c-1.057-0.322-1.894-0.749-2.509-1.281l0.944-2.121c0.603,0.476,1.341,0.864,2.216,1.166
			c0.875,0.301,1.754,0.451,2.636,0.451c1.092,0,1.907-0.175,2.446-0.525c0.539-0.35,0.809-0.812,0.809-1.386
			c0-0.42-0.15-0.766-0.451-1.039c-0.302-0.273-0.683-0.486-1.145-0.641c-0.463-0.154-1.093-0.329-1.891-0.525
			c-1.12-0.266-2.026-0.532-2.72-0.798c-0.692-0.266-1.288-0.682-1.784-1.25c-0.497-0.567-0.746-1.333-0.746-2.299
			c0-0.812,0.221-1.55,0.662-2.215c0.44-0.665,1.105-1.193,1.994-1.585c0.89-0.392,1.978-0.588,3.266-0.588
			c0.896,0,1.778,0.112,2.646,0.336c0.868,0.224,1.617,0.546,2.247,0.966l-0.861,2.121c-0.644-0.378-1.316-0.665-2.016-0.861
			c-0.7-0.196-1.379-0.294-2.037-0.294c-1.078,0-1.88,0.182-2.404,0.546c-0.525,0.364-0.788,0.847-0.788,1.449
			c0,0.42,0.15,0.763,0.452,1.029c0.301,0.266,0.682,0.476,1.145,0.63c0.462,0.154,1.092,0.329,1.89,0.525
			c1.092,0.252,1.987,0.514,2.688,0.788c0.7,0.273,1.299,0.689,1.796,1.25s0.745,1.316,0.745,2.268c0,0.813-0.22,1.547-0.661,2.205
			c-0.441,0.658-1.109,1.183-2.006,1.575c-0.896,0.392-1.987,0.588-3.275,0.588C1050.935,310.619,1049.839,310.458,1048.781,310.136
			z"/>
		<path fill="#F2F2F2" d="M1063.492,298.019h-4.872v-2.31h12.474v2.31h-4.872v12.39h-2.729V298.019z"/>
		<path fill="#F2F2F2" d="M1074.275,310.136c-1.057-0.322-1.894-0.749-2.509-1.281l0.944-2.121c0.603,0.476,1.341,0.864,2.216,1.166
			c0.875,0.301,1.754,0.451,2.636,0.451c1.092,0,1.907-0.175,2.446-0.525c0.539-0.35,0.809-0.812,0.809-1.386
			c0-0.42-0.15-0.766-0.451-1.039c-0.302-0.273-0.683-0.486-1.145-0.641c-0.463-0.154-1.093-0.329-1.891-0.525
			c-1.12-0.266-2.026-0.532-2.72-0.798c-0.692-0.266-1.288-0.682-1.784-1.25c-0.497-0.567-0.746-1.333-0.746-2.299
			c0-0.812,0.221-1.55,0.662-2.215c0.44-0.665,1.105-1.193,1.994-1.585c0.89-0.392,1.978-0.588,3.266-0.588
			c0.896,0,1.778,0.112,2.646,0.336c0.868,0.224,1.617,0.546,2.247,0.966l-0.861,2.121c-0.644-0.378-1.316-0.665-2.016-0.861
			c-0.7-0.196-1.379-0.294-2.037-0.294c-1.078,0-1.88,0.182-2.404,0.546c-0.525,0.364-0.788,0.847-0.788,1.449
			c0,0.42,0.15,0.763,0.452,1.029c0.301,0.266,0.682,0.476,1.145,0.63c0.462,0.154,1.092,0.329,1.89,0.525
			c1.092,0.252,1.987,0.514,2.688,0.788c0.7,0.273,1.299,0.689,1.796,1.25s0.745,1.316,0.745,2.268c0,0.813-0.22,1.547-0.661,2.205
			c-0.441,0.658-1.109,1.183-2.006,1.575c-0.896,0.392-1.987,0.588-3.275,0.588C1076.429,310.619,1075.333,310.458,1074.275,310.136
			z"/>
	</g>
</g>
</svg>
