<?xml version="1.0" encoding="utf-8"?>
<!-- Generator: Adobe Illustrator 16.0.0, SVG Export Plug-In . SVG Version: 6.00 Build 0)  -->
<!DOCTYPE svg PUBLIC "-//W3C//DTD SVG 1.1//EN" "http://www.w3.org/Graphics/SVG/1.1/DTD/svg11.dtd">
<svg version="1.1" xmlns="http://www.w3.org/2000/svg" xmlns:xlink="http://www.w3.org/1999/xlink" x="0px" y="0px"
	 width="49.425px" height="105.488px" viewBox="0 0 49.425 105.488" enable-background="new 0 0 49.425 105.488"
	 xml:space="preserve">
<g id="Layer_1">
	<rect fill="#0D0D0D" width="49" height="105"/>
</g>
<g id="Layer_2">
	<g>
		<path fill-rule="evenodd" clip-rule="evenodd" fill="#F2F2F2" d="M35.885,36.802c-0.162,0-0.271,0-0.473,0
			c0,0.709,0,1.399,0,2.089c0.004,3.248,0.01,6.496,0.014,9.744c0.002,2.936,0.004,5.872,0.002,8.809
			c-0.007,9.488-0.014,18.976-0.021,28.465c-0.002,2.58,0.009,5.16-0.009,7.74c-0.011,1.82-0.627,3.394-2.054,4.577
			c-2.471,2.046-6.119,1.129-7.522-1.874c-0.402-0.863-0.577-1.771-0.577-2.722c0.002-7.234,0.002-14.471,0.002-21.705
			c0-3.22,0.001-6.439,0.001-9.66c0-0.071,0.015-0.146-0.005-0.212c-0.034-0.118-0.088-0.23-0.133-0.347
			c-0.044,0.116-0.128,0.232-0.128,0.348c-0.006,3.56-0.006,7.121-0.005,10.682c0,6.979,0.007,13.959-0.003,20.939
			c-0.003,2.191-0.864,3.954-2.798,5.061c-2.436,1.394-5.52,0.271-6.771-2.406c-0.424-0.904-0.582-1.862-0.582-2.851
			c0.001-8.1,0.011-16.2,0.011-24.3c0-8.199-0.01-16.398-0.014-24.598c-0.002-2.384,0-4.768-0.002-7.15c0-0.196,0-0.394,0-0.618
			c-0.148-0.012-0.27-0.022-0.388-0.032c-0.025,0.059-0.058,0.095-0.058,0.133c-0.008,0.213-0.014,0.425-0.014,0.638
			c-0.001,6.128,0,12.256-0.003,18.385c-0.002,0.879,0.036,1.762-0.042,2.635c-0.155,1.774-1.665,3.195-3.442,3.212
			c-1.978,0.016-3.694-1.45-3.741-3.327c-0.056-2.267-0.028-4.538-0.03-6.809c-0.003-3.956,0-7.914-0.003-11.873
			c-0.004-3.045-0.021-6.091-0.014-9.136c0.002-0.563,0.038-1.14,0.158-1.689c0.241-1.1,0.996-1.679,2.13-1.711
			c0.581-0.017,1.163-0.004,1.743-0.004c8.428,0.002,16.854,0.005,25.279,0.007c1.206,0.001,2.414-0.009,3.619-0.008
			c1.573,0.002,2.602,0.823,2.898,2.378c0.133,0.69,0.224,1.4,0.224,2.103c0.016,8.767,0.012,17.534,0.009,26.302
			c0,1.972-1.232,3.43-3.143,3.74c-1.934,0.313-3.926-1.235-4.095-3.189c-0.016-0.21-0.022-0.423-0.022-0.637
			c-0.002-5.872-0.002-11.745,0-17.617C35.885,39.154,35.885,37.994,35.885,36.802z M15.848,65.324c0.014,0,0.027,0,0.042,0
			c0,1.873,0,3.745,0,5.618c-0.002,7.547-0.004,15.096-0.011,22.642c-0.002,1.063,0.231,2.051,0.835,2.938
			c1.497,2.197,4.384,2.37,6.113,0.356c0.793-0.924,1.112-2.013,1.112-3.22c-0.005-10.627-0.003-21.254-0.003-31.88
			c0-0.186,0-0.37,0.003-0.554c0.007-0.357,0.199-0.552,0.551-0.57c0.325-0.016,0.652-0.012,0.978-0.008
			c0.686,0.008,0.817,0.141,0.817,0.824c0.002,3.149,0.002,6.3,0.002,9.447c0,7.548-0.003,15.096,0.004,22.643
			c0,0.409,0.037,0.821,0.101,1.226c0.286,1.771,1.795,3.276,3.457,3.47c2.034,0.234,4.007-1.204,4.342-3.348
			c0.208-1.348,0.179-2.737,0.198-4.107c0.023-1.784-0.021-3.566-0.02-5.35c0.006-8.298,0.015-16.596,0.022-24.894
			c0.006-7.219,0.013-14.438,0.021-21.657c0.001-0.878,0-1.757,0.014-2.634c0.007-0.322,0.208-0.481,0.528-0.485
			c0.355-0.005,0.71,0.003,1.063-0.018c0.757-0.044,0.908,0.09,0.908,0.847c-0.001,5.49-0.003,10.981-0.003,16.472
			c0,1.674,0.007,3.348,0,5.021c-0.007,0.869,0.324,1.574,1.007,2.098c0.826,0.636,1.744,0.734,2.685,0.293
			c1.011-0.474,1.482-1.326,1.495-2.426c0.016-1.361,0.005-2.723,0.005-4.085c0-7.519,0.003-15.038-0.011-22.556
			c-0.001-0.56-0.097-1.128-0.224-1.675c-0.251-1.065-0.814-1.482-1.914-1.488c-1.064-0.007-2.129-0.002-3.191-0.002
			c-8.187,0-16.371,0-24.559,0c-0.923,0-1.844-0.009-2.765,0.01c-0.731,0.014-1.092,0.289-1.211,0.998
			c-0.096,0.555-0.121,1.126-0.121,1.692c-0.002,2.579,0.028,5.157,0.029,7.737c0.005,6.484-0.001,12.968,0.002,19.45
			c0.001,1.264,0.876,2.325,2.076,2.552c1.234,0.232,2.459-0.383,2.867-1.578c0.201-0.582,0.206-1.25,0.207-1.879
			c0.013-6.881,0.008-13.762,0.008-20.643c0-0.085-0.005-0.169,0.001-0.254c0.026-0.387,0.214-0.603,0.62-0.6
			c0.354,0.003,0.708-0.001,1.063-0.001c0.771,0,0.867,0.092,0.867,0.85c-0.004,2.837-0.01,5.674-0.012,8.511
			C15.847,51.847,15.848,58.586,15.848,65.324z"/>
		<path fill-rule="evenodd" clip-rule="evenodd" fill="#F2F2F2" d="M15.029,16.223c0.215-5.674,5.067-9.992,10.641-9.615
			c5.756,0.389,9.751,5.36,9.351,10.721c-0.409,5.497-5.085,9.489-10.372,9.283C18.966,26.392,14.795,21.562,15.029,16.223z
			 M34.017,16.535c-0.104-5.311-4.457-9.035-9.188-8.906c-5.052,0.14-8.913,4.262-8.757,9.321c0.15,4.855,4.317,8.857,9.398,8.616
			C30.065,25.35,34.016,21.548,34.017,16.535z"/>
		<path fill-rule="evenodd" clip-rule="evenodd" fill="#0D0D0D" d="M15.848,65.324c0-6.737-0.001-13.477,0-20.215
			c0.002-2.837,0.008-5.674,0.012-8.511c0-0.758-0.097-0.85-0.867-0.85c-0.354,0-0.709,0.004-1.063,0.001
			c-0.406-0.003-0.594,0.213-0.62,0.6c-0.006,0.085-0.001,0.169-0.001,0.254c0,6.881,0.005,13.762-0.008,20.643
			c-0.001,0.629-0.006,1.297-0.207,1.879c-0.408,1.195-1.633,1.811-2.867,1.578c-1.2-0.227-2.075-1.288-2.076-2.552
			c-0.003-6.482,0.003-12.966-0.002-19.45c-0.001-2.58-0.031-5.158-0.029-7.737c0-0.566,0.025-1.138,0.121-1.692
			c0.119-0.709,0.479-0.984,1.211-0.998c0.921-0.019,1.842-0.01,2.765-0.01c8.188,0,16.372,0,24.559,0
			c1.063,0,2.127-0.005,3.191,0.002c1.1,0.006,1.663,0.423,1.914,1.488c0.127,0.547,0.223,1.115,0.224,1.675
			c0.014,7.518,0.011,15.037,0.011,22.556c0,1.362,0.011,2.724-0.005,4.085c-0.013,1.1-0.484,1.952-1.495,2.426
			c-0.94,0.441-1.858,0.343-2.685-0.293c-0.683-0.523-1.014-1.229-1.007-2.098c0.007-1.674,0-3.348,0-5.021
			c0-5.49,0.002-10.981,0.003-16.472c0-0.757-0.151-0.891-0.908-0.847c-0.354,0.021-0.708,0.013-1.063,0.018
			c-0.32,0.004-0.521,0.163-0.528,0.485c-0.014,0.877-0.013,1.756-0.014,2.634c-0.008,7.219-0.015,14.438-0.021,21.657
			c-0.008,8.298-0.017,16.596-0.022,24.894c-0.001,1.783,0.043,3.565,0.02,5.35c-0.02,1.37,0.01,2.76-0.198,4.107
			c-0.335,2.144-2.308,3.582-4.342,3.348c-1.662-0.193-3.171-1.699-3.457-3.47c-0.063-0.404-0.101-0.816-0.101-1.226
			c-0.007-7.547-0.004-15.095-0.004-22.643c0-3.147,0-6.298-0.002-9.447c0-0.684-0.132-0.816-0.817-0.824
			c-0.325-0.004-0.652-0.008-0.978,0.008c-0.352,0.019-0.544,0.213-0.551,0.57c-0.003,0.184-0.003,0.368-0.003,0.554
			c0,10.626-0.002,21.253,0.003,31.88c0,1.207-0.319,2.296-1.112,3.22c-1.729,2.014-4.616,1.841-6.113-0.356
			c-0.604-0.888-0.837-1.876-0.835-2.938c0.007-7.546,0.009-15.095,0.011-22.642c0-1.873,0-3.745,0-5.618
			C15.875,65.324,15.861,65.324,15.848,65.324z"/>
		<path fill-rule="evenodd" clip-rule="evenodd" fill="#0D0D0D" d="M34.017,16.535c-0.001,5.014-3.951,8.815-8.546,9.031
			c-5.081,0.241-9.248-3.761-9.398-8.616c-0.156-5.06,3.705-9.182,8.757-9.321C29.56,7.5,33.913,11.224,34.017,16.535z"/>
	</g>
</g>
</svg>
