<?xml version="1.0" encoding="utf-8"?>
<!-- Generator: Adobe Illustrator 16.0.0, SVG Export Plug-In . SVG Version: 6.00 Build 0)  -->
<!DOCTYPE svg PUBLIC "-//W3C//DTD SVG 1.1//EN" "http://www.w3.org/Graphics/SVG/1.1/DTD/svg11.dtd">
<svg version="1.1" xmlns="http://www.w3.org/2000/svg" xmlns:xlink="http://www.w3.org/1999/xlink" x="0px" y="0px" width="1152px"
	 height="300px" viewBox="0 0 1152 300" enable-background="new 0 0 1152 300" xml:space="preserve">
<pattern  x="-4688" width="72" height="72" patternUnits="userSpaceOnUse" id="Grid_1_pica_Lines" viewBox="72.25 -144.25 72 72" overflow="visible">
	<g>
		<polygon fill="none" points="72.25,-144.25 144.25,-144.25 144.25,-72.25 72.25,-72.25 		"/>
		<g>
			<line fill="none" stroke="#231F20" stroke-width="0.3" x1="78.25" y1="-72.5" x2="78.25" y2="0"/>
			<line fill="none" stroke="#231F20" stroke-width="0.3" x1="102.25" y1="-72.5" x2="102.25" y2="0"/>
			<line fill="none" stroke="#231F20" stroke-width="0.3" x1="126.25" y1="-72.5" x2="126.25" y2="0"/>
			<line fill="none" stroke="#231F20" stroke-width="0.3" x1="90.25" y1="-72.5" x2="90.25" y2="0"/>
			<line fill="none" stroke="#231F20" stroke-width="0.3" x1="114.25" y1="-72.5" x2="114.25" y2="0"/>
			<line fill="none" stroke="#231F20" stroke-width="0.3" x1="138.25" y1="-72.5" x2="138.25" y2="0"/>
		</g>
		<g>
			<line fill="none" stroke="#231F20" stroke-width="0.3" x1="144" y1="-78.25" x2="216.5" y2="-78.25"/>
			<line fill="none" stroke="#231F20" stroke-width="0.3" x1="144" y1="-102.25" x2="216.5" y2="-102.25"/>
			<line fill="none" stroke="#231F20" stroke-width="0.3" x1="144" y1="-126.25" x2="216.5" y2="-126.25"/>
			<line fill="none" stroke="#231F20" stroke-width="0.3" x1="144" y1="-90.25" x2="216.5" y2="-90.25"/>
			<line fill="none" stroke="#231F20" stroke-width="0.3" x1="144" y1="-114.25" x2="216.5" y2="-114.25"/>
			<line fill="none" stroke="#231F20" stroke-width="0.3" x1="144" y1="-138.25" x2="216.5" y2="-138.25"/>
		</g>
		<g>
			<line fill="none" stroke="#231F20" stroke-width="0.3" x1="78.25" y1="-144.5" x2="78.25" y2="-72"/>
			<line fill="none" stroke="#231F20" stroke-width="0.3" x1="102.25" y1="-144.5" x2="102.25" y2="-72"/>
			<line fill="none" stroke="#231F20" stroke-width="0.3" x1="126.25" y1="-144.5" x2="126.25" y2="-72"/>
			<line fill="none" stroke="#231F20" stroke-width="0.3" x1="72" y1="-78.25" x2="144.5" y2="-78.25"/>
			<line fill="none" stroke="#231F20" stroke-width="0.3" x1="72" y1="-102.25" x2="144.5" y2="-102.25"/>
			<line fill="none" stroke="#231F20" stroke-width="0.3" x1="72" y1="-126.25" x2="144.5" y2="-126.25"/>
			<line fill="none" stroke="#231F20" stroke-width="0.3" x1="72" y1="-90.25" x2="144.5" y2="-90.25"/>
			<line fill="none" stroke="#231F20" stroke-width="0.3" x1="72" y1="-114.25" x2="144.5" y2="-114.25"/>
			<line fill="none" stroke="#231F20" stroke-width="0.3" x1="72" y1="-138.25" x2="144.5" y2="-138.25"/>
			<line fill="none" stroke="#231F20" stroke-width="0.3" x1="90.25" y1="-144.5" x2="90.25" y2="-72"/>
			<line fill="none" stroke="#231F20" stroke-width="0.3" x1="114.25" y1="-144.5" x2="114.25" y2="-72"/>
			<line fill="none" stroke="#231F20" stroke-width="0.3" x1="138.25" y1="-144.5" x2="138.25" y2="-72"/>
		</g>
		<g>
			<line fill="none" stroke="#231F20" stroke-width="0.3" x1="0" y1="-78.25" x2="72.5" y2="-78.25"/>
			<line fill="none" stroke="#231F20" stroke-width="0.3" x1="0" y1="-102.25" x2="72.5" y2="-102.25"/>
			<line fill="none" stroke="#231F20" stroke-width="0.3" x1="0" y1="-126.25" x2="72.5" y2="-126.25"/>
			<line fill="none" stroke="#231F20" stroke-width="0.3" x1="0" y1="-90.25" x2="72.5" y2="-90.25"/>
			<line fill="none" stroke="#231F20" stroke-width="0.3" x1="0" y1="-114.25" x2="72.5" y2="-114.25"/>
			<line fill="none" stroke="#231F20" stroke-width="0.3" x1="0" y1="-138.25" x2="72.5" y2="-138.25"/>
		</g>
		<g>
			<line fill="none" stroke="#231F20" stroke-width="0.3" x1="78.25" y1="-216.5" x2="78.25" y2="-144"/>
			<line fill="none" stroke="#231F20" stroke-width="0.3" x1="102.25" y1="-216.5" x2="102.25" y2="-144"/>
			<line fill="none" stroke="#231F20" stroke-width="0.3" x1="126.25" y1="-216.5" x2="126.25" y2="-144"/>
			<line fill="none" stroke="#231F20" stroke-width="0.3" x1="90.25" y1="-216.5" x2="90.25" y2="-144"/>
			<line fill="none" stroke="#231F20" stroke-width="0.3" x1="114.25" y1="-216.5" x2="114.25" y2="-144"/>
			<line fill="none" stroke="#231F20" stroke-width="0.3" x1="138.25" y1="-216.5" x2="138.25" y2="-144"/>
		</g>
	</g>
</pattern>
<g id="Layer_1">
	<rect x="10" y="33" fill="#0D0D0D" width="1098" height="236"/>
</g>
<g id="Layer_2">
</g>
<g id="Layer_3" display="none">
</g>
<g id="Layer_4">
</g>
<g id="Layer_5">
	<rect x="22.5" y="38.5" fill="#0D0D0D" stroke="#BDCCD4" stroke-miterlimit="10" width="226" height="226"/>
	<pattern  id="SVGID_1_" xlink:href="#Grid_1_pica_Lines" patternTransform="matrix(1 0 0 1 30 -44)">
	</pattern>
	<rect x="60.5" y="76.5" fill="url(#SVGID_1_)" stroke="#F2F2F2" stroke-miterlimit="10" width="151" height="151"/>
	<rect x="125.5" y="146.5" fill="none" stroke="#F2F2F2" stroke-miterlimit="10" width="16" height="16"/>
	<g>
		<circle fill="#268C16" cx="70.361" cy="86.344" r="4.207"/>
		<circle fill="#268C16" cx="81.28" cy="86.344" r="4.209"/>
		<circle fill="#268C16" cx="92.199" cy="86.344" r="4.208"/>
		<circle fill="#268C16" cx="103.119" cy="86.344" r="4.208"/>
		<circle fill="#268C16" cx="114.038" cy="86.344" r="4.208"/>
		<circle fill="#268C16" cx="125.361" cy="86.344" r="4.207"/>
		<circle fill="#268C16" cx="136.28" cy="86.344" r="4.209"/>
		<circle fill="#268C16" cx="147.199" cy="86.344" r="4.208"/>
		<circle fill="#268C16" cx="158.119" cy="86.344" r="4.208"/>
		<circle fill="#268C16" cx="169.038" cy="86.344" r="4.208"/>
		<circle fill="#268C16" cx="179.28" cy="86.344" r="4.209"/>
		<circle fill="#268C16" cx="190.199" cy="86.344" r="4.208"/>
		<circle fill="#268C16" cx="201.119" cy="86.344" r="4.208"/>
	</g>
	<circle fill="#268C16" cx="70.361" cy="97.344" r="4.207"/>
	<circle fill="#268C16" cx="81.28" cy="97.344" r="4.209"/>
	<circle fill="#268C16" cx="92.199" cy="97.344" r="4.208"/>
	<circle fill="#268C16" cx="103.119" cy="97.344" r="4.208"/>
	<circle fill="#268C16" cx="114.038" cy="97.344" r="4.208"/>
	<circle fill="#268C16" cx="125.361" cy="97.344" r="4.207"/>
	<circle opacity="0.55" fill="#268C16" cx="136.28" cy="97.344" r="4.209"/>
	<circle opacity="0.55" fill="#268C16" cx="147.199" cy="97.344" r="4.208"/>
	<circle opacity="0.55" fill="#268C16" cx="158.119" cy="97.344" r="4.208"/>
	<circle opacity="0.55" fill="#268C16" cx="169.038" cy="97.344" r="4.208"/>
	<circle opacity="0.55" fill="#268C16" cx="179.28" cy="97.344" r="4.209"/>
	<circle opacity="0.55" fill="#268C16" cx="190.199" cy="97.344" r="4.208"/>
	<circle opacity="0.55" fill="#268C16" cx="201.119" cy="97.344" r="4.208"/>
	<g opacity="0.55">
		<circle fill="#268C16" cx="70.361" cy="108.344" r="4.207"/>
		<circle fill="#268C16" cx="81.28" cy="108.344" r="4.209"/>
		<circle fill="#268C16" cx="92.199" cy="108.344" r="4.208"/>
		<circle fill="#268C16" cx="103.119" cy="108.344" r="4.208"/>
		<circle fill="#268C16" cx="114.038" cy="108.344" r="4.208"/>
		<circle fill="#268C16" cx="125.361" cy="108.344" r="4.207"/>
		<circle fill="#268C16" cx="136.28" cy="108.344" r="4.209"/>
		<circle fill="#268C16" cx="147.199" cy="108.344" r="4.208"/>
		<circle fill="#268C16" cx="158.119" cy="108.344" r="4.208"/>
		<circle fill="#268C16" cx="169.038" cy="108.344" r="4.208"/>
		<circle fill="#268C16" cx="179.28" cy="108.344" r="4.209"/>
		<circle fill="#268C16" cx="190.199" cy="108.344" r="4.208"/>
		<circle fill="#268C16" cx="201.119" cy="108.344" r="4.208"/>
	</g>
	<g opacity="0.55">
		<circle fill="#268C16" cx="70.361" cy="119.344" r="4.207"/>
		<circle fill="#268C16" cx="81.28" cy="119.344" r="4.209"/>
		<circle fill="#268C16" cx="92.199" cy="119.344" r="4.208"/>
		<circle fill="#268C16" cx="103.119" cy="119.344" r="4.208"/>
		<circle fill="#268C16" cx="114.038" cy="119.344" r="4.208"/>
		<circle fill="#268C16" cx="125.361" cy="119.344" r="4.207"/>
		<circle fill="#268C16" cx="136.28" cy="119.344" r="4.209"/>
		<circle fill="#268C16" cx="147.199" cy="119.344" r="4.208"/>
		<circle fill="#268C16" cx="158.119" cy="119.344" r="4.208"/>
		<circle fill="#268C16" cx="169.038" cy="119.344" r="4.208"/>
		<circle fill="#268C16" cx="179.28" cy="119.344" r="4.209"/>
		<circle fill="#268C16" cx="190.199" cy="119.344" r="4.208"/>
	</g>
	<g>
		<g>
			<rect x="273" y="88" fill="none" width="249" height="126"/>
		</g>
		<g>
			<g>
				<circle fill="#268C16" cx="286.292" cy="130.556" r="6.987"/>
				<path fill="#268C16" d="M297.434,130.556c0,3.858,3.132,6.989,6.988,6.989c3.859,0,6.99-3.13,6.99-6.989
					c0-3.86-3.131-6.988-6.99-6.988C300.565,123.567,297.434,126.696,297.434,130.556z"/>
				<path fill="#268C16" d="M315.564,130.556c0,3.858,3.128,6.989,6.99,6.989c3.855,0,6.986-3.13,6.986-6.989
					c0-3.86-3.131-6.988-6.986-6.988C318.692,123.567,315.564,126.696,315.564,130.556z"/>
				<path fill="#268C16" d="M333.828,130.556c0,3.858,3.131,6.989,6.992,6.989c3.854,0,6.986-3.13,6.986-6.989
					c0-3.86-3.132-6.988-6.986-6.988C336.959,123.567,333.828,126.696,333.828,130.556z"/>
			</g>
			<line fill="none" stroke="#268C16" stroke-miterlimit="10" x1="285.5" y1="131" x2="285.5" y2="152"/>
			<line fill="none" stroke="#268C16" stroke-miterlimit="10" x1="304.5" y1="131" x2="304.5" y2="152"/>
			<line fill="none" stroke="#268C16" stroke-miterlimit="10" x1="321.5" y1="131" x2="321.5" y2="152"/>
			<line fill="none" stroke="#268C16" stroke-miterlimit="10" x1="340.5" y1="131" x2="340.5" y2="152"/>
		</g>
		<g>
			<rect x="522" y="88" fill="none" width="249" height="126"/>
		</g>
		<g>
			<g>
				<path fill="#268C16" d="M528.381,130.556c0,3.858,3.125,6.989,6.986,6.989s6.986-3.13,6.986-6.989
					c0-3.86-3.125-6.988-6.986-6.988S528.381,126.696,528.381,130.556z"/>
				<circle fill="#268C16" cx="553.497" cy="130.556" r="6.989"/>
				<path fill="#268C16" d="M564.641,130.556c0,3.858,3.129,6.989,6.99,6.989c3.855,0,6.984-3.13,6.984-6.989
					c0-3.86-3.129-6.988-6.984-6.988C567.77,123.567,564.641,126.696,564.641,130.556z"/>
				<path fill="#268C16" d="M582.906,130.556c0,3.858,3.128,6.989,6.99,6.989c3.856,0,6.984-3.13,6.984-6.989
					c0-3.86-3.128-6.988-6.984-6.988C586.034,123.567,582.906,126.696,582.906,130.556z"/>
			</g>
			<line fill="none" stroke="#268C16" stroke-miterlimit="10" x1="534.5" y1="131" x2="534.5" y2="152"/>
			<line fill="none" stroke="#268C16" stroke-miterlimit="10" x1="553.5" y1="131" x2="553.5" y2="152"/>
			<line fill="none" stroke="#268C16" stroke-miterlimit="10" x1="571.5" y1="131" x2="571.5" y2="152"/>
			<line fill="none" stroke="#268C16" stroke-miterlimit="10" x1="589.5" y1="131" x2="589.5" y2="152"/>
		</g>
		<g>
			<g>
				<circle fill="#268C16" cx="784.443" cy="130.556" r="6.986"/>
				<circle fill="#268C16" cx="802.573" cy="130.556" r="6.989"/>
				<path fill="#268C16" d="M813.717,130.556c0,3.858,3.129,6.989,6.989,6.989c3.855,0,6.986-3.13,6.986-6.989
					c0-3.86-3.131-6.988-6.986-6.988C816.846,123.567,813.717,126.696,813.717,130.556z"/>
				<circle fill="#268C16" cx="838.969" cy="130.556" r="6.988"/>
			</g>
			<line fill="none" stroke="#268C16" stroke-miterlimit="10" x1="784.5" y1="131" x2="784.5" y2="152"/>
			<line fill="none" stroke="#268C16" stroke-miterlimit="10" x1="803.5" y1="131" x2="803.5" y2="152"/>
			<line fill="none" stroke="#268C16" stroke-miterlimit="10" x1="820.5" y1="131" x2="820.5" y2="152"/>
			<line fill="none" stroke="#268C16" stroke-miterlimit="10" x1="838.5" y1="131" x2="838.5" y2="152"/>
		</g>
		<g>
			<g>
				<g>
					<g>
						<g>
							<g>
								<rect x="509.461" y="88.472" fill="none" width="24.906" height="21.033"/>
							</g>
							<rect x="520.305" y="104.047" fill-rule="evenodd" clip-rule="evenodd" fill="#231F20" width="2.49" height="3.904"/>
							<rect x="520.305" y="97.044" fill-rule="evenodd" clip-rule="evenodd" fill="#231F20" width="2.49" height="3.904"/>
							<rect x="520.305" y="90.065" fill-rule="evenodd" clip-rule="evenodd" fill="#231F20" width="2.49" height="3.904"/>
						</g>
					</g>
					<g>
						<g>
							<g>
								<rect x="509.461" y="109.505" fill="none" width="24.906" height="21.033"/>
							</g>
							<rect x="520.305" y="125.08" fill-rule="evenodd" clip-rule="evenodd" fill="#231F20" width="2.49" height="3.904"/>
							<rect x="520.305" y="118.078" fill-rule="evenodd" clip-rule="evenodd" fill="#231F20" width="2.49" height="3.904"/>
							<rect x="520.305" y="111.098" fill-rule="evenodd" clip-rule="evenodd" fill="#231F20" width="2.49" height="3.904"/>
						</g>
					</g>
					<g>
						<g>
							<g>
								<rect x="509.461" y="130.538" fill="none" width="24.906" height="21.033"/>
							</g>
							<rect x="520.305" y="146.113" fill-rule="evenodd" clip-rule="evenodd" fill="#231F20" width="2.49" height="3.904"/>
							<rect x="520.305" y="139.111" fill-rule="evenodd" clip-rule="evenodd" fill="#231F20" width="2.49" height="3.904"/>
							<rect x="520.305" y="132.131" fill-rule="evenodd" clip-rule="evenodd" fill="#231F20" width="2.49" height="3.904"/>
						</g>
					</g>
					<g>
						<g>
							<g>
								<rect x="509.461" y="151.571" fill="none" width="24.906" height="21.033"/>
							</g>
							<rect x="520.305" y="167.146" fill-rule="evenodd" clip-rule="evenodd" fill="#231F20" width="2.49" height="3.904"/>
							<rect x="520.305" y="160.144" fill-rule="evenodd" clip-rule="evenodd" fill="#231F20" width="2.49" height="3.904"/>
							<rect x="520.305" y="153.165" fill-rule="evenodd" clip-rule="evenodd" fill="#231F20" width="2.49" height="3.904"/>
						</g>
					</g>
					<g>
						<g>
							<g>
								<rect x="509.461" y="172.604" fill="none" width="24.906" height="21.033"/>
							</g>
							<rect x="520.305" y="188.179" fill-rule="evenodd" clip-rule="evenodd" fill="#231F20" width="2.49" height="3.904"/>
							<rect x="520.305" y="181.177" fill-rule="evenodd" clip-rule="evenodd" fill="#231F20" width="2.49" height="3.904"/>
							<rect x="520.305" y="174.197" fill-rule="evenodd" clip-rule="evenodd" fill="#231F20" width="2.49" height="3.904"/>
						</g>
					</g>
					<g>
						<g>
							<g>
								<rect x="509.461" y="193.637" fill="none" width="24.906" height="21.033"/>
							</g>
							<rect x="520.305" y="209.212" fill-rule="evenodd" clip-rule="evenodd" fill="#231F20" width="2.49" height="3.904"/>
							<rect x="520.305" y="202.21" fill-rule="evenodd" clip-rule="evenodd" fill="#231F20" width="2.49" height="3.904"/>
							<rect x="520.305" y="195.23" fill-rule="evenodd" clip-rule="evenodd" fill="#231F20" width="2.49" height="3.904"/>
						</g>
					</g>
				</g>
			</g>
		</g>
		<g>
			<g>
				<g>
					<g>
						<g>
							<g>
								<rect x="758.537" y="88.472" fill="none" width="24.904" height="21.033"/>
							</g>
							<rect x="769.379" y="104.047" fill-rule="evenodd" clip-rule="evenodd" fill="#231F20" width="2.491" height="3.904"/>
							<rect x="769.379" y="97.044" fill-rule="evenodd" clip-rule="evenodd" fill="#231F20" width="2.491" height="3.904"/>
							<rect x="769.379" y="90.065" fill-rule="evenodd" clip-rule="evenodd" fill="#231F20" width="2.491" height="3.904"/>
						</g>
					</g>
					<g>
						<g>
							<g>
								<rect x="758.537" y="109.505" fill="none" width="24.904" height="21.033"/>
							</g>
							<rect x="769.379" y="125.08" fill-rule="evenodd" clip-rule="evenodd" fill="#231F20" width="2.491" height="3.904"/>
							<rect x="769.379" y="118.078" fill-rule="evenodd" clip-rule="evenodd" fill="#231F20" width="2.491" height="3.904"/>
							<rect x="769.379" y="111.098" fill-rule="evenodd" clip-rule="evenodd" fill="#231F20" width="2.491" height="3.904"/>
						</g>
					</g>
					<g>
						<g>
							<g>
								<rect x="758.537" y="130.538" fill="none" width="24.904" height="21.033"/>
							</g>
							<rect x="769.379" y="146.113" fill-rule="evenodd" clip-rule="evenodd" fill="#231F20" width="2.491" height="3.904"/>
							<rect x="769.379" y="139.111" fill-rule="evenodd" clip-rule="evenodd" fill="#231F20" width="2.491" height="3.904"/>
							<rect x="769.379" y="132.131" fill-rule="evenodd" clip-rule="evenodd" fill="#231F20" width="2.491" height="3.904"/>
						</g>
					</g>
					<g>
						<g>
							<g>
								<rect x="758.537" y="151.571" fill="none" width="24.904" height="21.033"/>
							</g>
							<rect x="769.379" y="167.146" fill-rule="evenodd" clip-rule="evenodd" fill="#231F20" width="2.491" height="3.904"/>
							<rect x="769.379" y="160.144" fill-rule="evenodd" clip-rule="evenodd" fill="#231F20" width="2.491" height="3.904"/>
							<rect x="769.379" y="153.165" fill-rule="evenodd" clip-rule="evenodd" fill="#231F20" width="2.491" height="3.904"/>
						</g>
					</g>
					<g>
						<g>
							<g>
								<rect x="758.537" y="172.604" fill="none" width="24.904" height="21.033"/>
							</g>
							<rect x="769.379" y="188.179" fill-rule="evenodd" clip-rule="evenodd" fill="#231F20" width="2.491" height="3.904"/>
							<rect x="769.379" y="181.177" fill-rule="evenodd" clip-rule="evenodd" fill="#231F20" width="2.491" height="3.904"/>
							<rect x="769.379" y="174.197" fill-rule="evenodd" clip-rule="evenodd" fill="#231F20" width="2.491" height="3.904"/>
						</g>
					</g>
					<g>
						<g>
							<g>
								<rect x="758.537" y="193.637" fill="none" width="24.904" height="21.033"/>
							</g>
							<rect x="769.379" y="209.212" fill-rule="evenodd" clip-rule="evenodd" fill="#231F20" width="2.491" height="3.904"/>
							<rect x="769.379" y="202.21" fill-rule="evenodd" clip-rule="evenodd" fill="#231F20" width="2.491" height="3.904"/>
							<rect x="769.379" y="195.23" fill-rule="evenodd" clip-rule="evenodd" fill="#231F20" width="2.491" height="3.904"/>
						</g>
					</g>
				</g>
			</g>
		</g>
		<line fill="none" stroke="#F2F2F2" stroke-miterlimit="10" x1="272" y1="152.5" x2="1070" y2="152.5"/>
	</g>
</g>
<g id="Layer_6">
</g>
</svg>
