<svg xmlns="http://www.w3.org/2000/svg" viewBox="0 0 775.42 60.25"><defs><style>.cls-1{fill:#fff;}</style></defs><g id="Layer_2" data-name="Layer 2"><g id="Layer_1-2" data-name="Layer 1"><path class="cls-1" d="M172.55,1.8l20.73,34.64V7.85L188,1.8h18.58L201.2,7.85V51.56l5.33,6H182.68L160.88,22V51.56l5.33,6H147.63l5.33-6V7.85l-5.58-6Z"/><path class="cls-1" d="M254.81,1.8l18.65,48.75,5.69,7.05H245.67l3.68-6-2.31-7-17.39-.07-1.91,7.06,3.67,6H214.27l5.32-6L231.48,7.85l-5.33-6ZM231.34,37.2l13.54-.12-7.49-22Z"/><path class="cls-1" d="M379.81,1.8l18.65,48.75,5.69,7.05H370.67l3.67-6-2.31-7-17.38-.07-1.91,7.06,3.67,6H339.27l5.32-6L356.48,7.85l-5.33-6ZM356.34,37.2l13.53-.12-7.49-22Z"/><path class="cls-1" d="M540,1.8l20.73,34.64V7.85l-5.33-6H574l-5.33,6.05V51.56l5.33,6H550.14L528.34,22V51.56l5.33,6H515.09l5.33-6V7.85l-5.59-6Z"/><path class="cls-1" d="M622.55,1.8,641.2,50.55l5.69,7.05H613.41l3.67-6-2.31-7-17.38-.07-1.91,7.06,3.67,6H582l5.32-6L599.22,7.85l-5.33-6ZM599.08,37.2l13.53-.12-7.49-22Z"/><path class="cls-1" d="M698.09,14.38S690.83,8,680.92,8c-4.64,0-8.66,1.83-8.66,4.91,0,5.05,10.62,6.52,19.3,11.34C699.42,28.62,704,32.83,704,40.58c0,11-13.06,17.47-25.83,17.47C668,58.05,661.5,55,661.5,55l-6,5.28v-18s9.67,8,19.29,8c4.47,0,10.71-2.12,10.71-5.79,0-4.2-8.36-5.87-17.39-9.47-6.68-2.66-12.92-7.62-12.92-15.85,0-12.48,10.42-17.91,21.43-17.91C683.2,1.17,692,3.6,692,3.6L698.09,0Z"/><path class="cls-1" d="M751.08,1.8l18.65,48.75,5.69,7.05H741.93l3.68-6-2.31-7-17.39-.07L724,51.56l3.67,6H710.54l5.31-6,11.9-43.71-5.33-6ZM727.6,37.2l13.54-.12-7.49-22Z"/><text/><path class="cls-1" d="M329.34,58.33l-3.95-.62h0l-4.11.6c-11.65,1.68-19.91-1.14-19.91-1.14a31.88,31.88,0,0,1-10.64-6c-8.86-7.71-9.36-17.9-9.36-21.41,0-18,15.32-27.93,32-27.93a35.53,35.53,0,0,1,10.68,1.44l8-.72-4.61,11.3a13.48,13.48,0,0,0-7.65-5.68A13.67,13.67,0,0,0,311,9c-9.57,3.93-10,17.45-10.11,19.46h0s0,.19,0,.38c-.23,10.81,3.91,16.41,3.91,16.41a16.86,16.86,0,0,0,9,6.62,17.36,17.36,0,0,0,9.14.16,17.72,17.72,0,0,0,9.9-7Z"/><path class="cls-1" d="M451.09,31.76a1.24,1.24,0,0,1-1.41,1.4h-7.26v22.6a1.41,1.41,0,0,1-2.82,0V33.16h-7.26a1.36,1.36,0,0,1-1-.44,1.19,1.19,0,0,1-.4-.85v-.11a1.74,1.74,0,0,1,.31-.87,1.32,1.32,0,0,1,1.1-.54h17.34a1.34,1.34,0,0,1,1,.42A1.42,1.42,0,0,1,451.09,31.76Z"/><path class="cls-1" d="M458.08,43.93a13.59,13.59,0,0,1,1.79-6.81,13.25,13.25,0,0,1,4.86-5,13.3,13.3,0,0,1,13.43,0,13.4,13.4,0,0,1,4.86,5,13.92,13.92,0,0,1,0,13.62,13.4,13.4,0,0,1-4.86,5,13.24,13.24,0,0,1-13.43,0,13.25,13.25,0,0,1-4.86-5A13.53,13.53,0,0,1,458.08,43.93Zm4.24-5.41a11.05,11.05,0,0,0,0,10.84,10.54,10.54,0,0,0,3.84,3.92,10.36,10.36,0,0,0,10.57,0,10.54,10.54,0,0,0,3.84-3.92,11.05,11.05,0,0,0,0-10.84,10.45,10.45,0,0,0-3.84-3.94,10.42,10.42,0,0,0-10.57,0A10.45,10.45,0,0,0,462.32,38.52Z"/><path class="cls-1" d="M2.81,56.31h0a1.54,1.54,0,0,1-.49,1.06,1.29,1.29,0,0,1-1,.42,1.19,1.19,0,0,1-1-.4,1.47,1.47,0,0,1-.38-1v-24a1.56,1.56,0,0,1,.38-1,1.33,1.33,0,0,1,1-.47H15.94a1.4,1.4,0,0,1,1.4,1.41,1.52,1.52,0,0,1-.39,1,1.28,1.28,0,0,1-1,.45H2.81v9.16h11a1.34,1.34,0,0,1,1,.4,1.44,1.44,0,0,1,.44,1,1.29,1.29,0,0,1-.42,1,1.4,1.4,0,0,1-1,.4h-11Z"/><path class="cls-1" d="M40.82,45.72H35.1V56.31c-.22.85-.69,1.27-1.41,1.27a1.29,1.29,0,0,1-1.41-1.27v-24a1.61,1.61,0,0,1,.38-1,1.38,1.38,0,0,1,1-.44H45a7.44,7.44,0,0,1,7.45,7.45,7.55,7.55,0,0,1-2.16,5.25A7,7,0,0,1,45,45.72h-.56l7.78,10.1a1.55,1.55,0,0,1,.28.87,1.33,1.33,0,0,1-.56,1.12,1.36,1.36,0,0,1-2-.26ZM35.1,42.91H45a4.62,4.62,0,0,0,3.28-1.34,4.59,4.59,0,0,0,0-6.52A4.47,4.47,0,0,0,45,33.72H35.1Z"/><path class="cls-1" d="M62.74,44.49a13.53,13.53,0,0,1,1.78-6.81,13.35,13.35,0,0,1,4.87-5,13.24,13.24,0,0,1,13.43,0,13.64,13.64,0,0,1,6.64,11.78,13.58,13.58,0,0,1-1.78,6.81,13.4,13.4,0,0,1-4.86,5,13.3,13.3,0,0,1-13.43,0,13.35,13.35,0,0,1-4.87-5A13.58,13.58,0,0,1,62.74,44.49ZM67,39.07a10.9,10.9,0,0,0-1.42,5.43A10.77,10.77,0,0,0,67,49.91a10.6,10.6,0,0,0,3.85,3.93,10.42,10.42,0,0,0,10.57,0,10.65,10.65,0,0,0,3.84-3.93,10.77,10.77,0,0,0,1.42-5.41,10.9,10.9,0,0,0-1.42-5.43,10.65,10.65,0,0,0-3.84-3.93,10.42,10.42,0,0,0-10.57,0A10.6,10.6,0,0,0,67,39.07Z"/><path class="cls-1" d="M100.53,31.14a1.46,1.46,0,0,1,.5.61l8.78,20.93,8.79-20.91a1.43,1.43,0,0,1,.52-.63,1.39,1.39,0,0,1,.84-.23,1.4,1.4,0,0,1,1.34,1.4v24a1.55,1.55,0,0,1-1.2,1.48.4.4,0,0,1-.21-.07,2.13,2.13,0,0,0-1-.4c-.28,0-.42-.34-.42-1v-17L111.1,56.85a1.38,1.38,0,0,1-2.57,0L101.14,39.3v17a1.38,1.38,0,0,1-.42,1,1.3,1.3,0,0,1-1,.4,1.34,1.34,0,0,1-1-.4,1.38,1.38,0,0,1-.42-1v-24a1.47,1.47,0,0,1,.4-1,1.48,1.48,0,0,1,1.8-.16Z"/></g></g></svg>