<?xml version="1.0" encoding="UTF-8"?>
<svg width="146px" height="269px" viewBox="0 0 146 269" version="1.1" xmlns="http://www.w3.org/2000/svg" xmlns:xlink="http://www.w3.org/1999/xlink">
    <!-- Generator: Sketch 59.1 (86144) - https://sketch.com -->
    <title>Group 2</title>
    <desc>Created with Sketch.</desc>
    <g id="Page-1" stroke="none" stroke-width="1" fill="none" fill-rule="evenodd">
        <g id="4.0" transform="translate(-1014.000000, -423.000000)">
            <g id="Group-2" transform="translate(1087.000000, 557.500000) rotate(90.000000) translate(-1087.000000, -557.500000) translate(958.000000, 485.000000)">
                <line x1="-71" y1="74" x2="73" y2="72" id="Line" stroke="#FFFAF0" stroke-width="10" transform="translate(1.000000, 73.000000) rotate(90.000000) translate(-1.000000, -73.000000) "></line>
                <line x1="133" y1="73" x2="277" y2="71" id="Line-Copy-7" stroke="#FF6347" stroke-width="30" transform="translate(205.000000, 72.000000) rotate(90.000000) translate(-205.000000, -72.000000) "></line>
                <line x1="185" y1="73" x2="329" y2="71" id="Line-Copy-16" stroke="#FFFAF0" stroke-width="10" transform="translate(257.000000, 72.000000) rotate(90.000000) translate(-257.000000, -72.000000) "></line>
                <line x1="-4" y1="73" x2="140" y2="71" id="Line-Copy-5" stroke="#FFFAF0" stroke-width="10" transform="translate(68.000000, 72.000000) rotate(90.000000) translate(-68.000000, -72.000000) "></line>
                <line x1="155" y1="73" x2="299" y2="71" id="Line-Copy-14" stroke="#FFFAF0" stroke-width="10" transform="translate(227.000000, 72.000000) rotate(90.000000) translate(-227.000000, -72.000000) "></line>
                <line x1="92" y1="73" x2="236" y2="71" id="Line-Copy-8" stroke="#FFFAF0" stroke-width="10" transform="translate(164.000000, 72.000000) rotate(90.000000) translate(-164.000000, -72.000000) "></line>
                <line x1="10" y1="73" x2="154" y2="71" id="Line-Copy-6" stroke="#FFFAF0" stroke-width="10" transform="translate(82.000000, 72.000000) rotate(90.000000) translate(-82.000000, -72.000000) "></line>
                <line x1="105" y1="73" x2="249" y2="71" id="Line-Copy-9" stroke="#FFFAF0" stroke-width="10" transform="translate(177.000000, 72.000000) rotate(90.000000) translate(-177.000000, -72.000000) "></line>
                <line x1="-42" y1="73" x2="102" y2="71" id="Line-Copy-2" stroke="#FFFAF0" stroke-width="20" transform="translate(30.000000, 72.000000) rotate(90.000000) translate(-30.000000, -72.000000) "></line>
                <line x1="52" y1="73" x2="196" y2="71" id="Line-Copy-10" stroke="#FFFAF0" stroke-width="20" transform="translate(124.000000, 72.000000) rotate(90.000000) translate(-124.000000, -72.000000) "></line>
                <line x1="-57" y1="73" x2="87" y2="71" id="Line-Copy" stroke="#FFFAF0" stroke-width="3" transform="translate(15.000000, 72.000000) rotate(90.000000) translate(-15.000000, -72.000000) "></line>
                <line x1="39" y1="73" x2="183" y2="71" id="Line-Copy-11" stroke="#FFFAF0" stroke-width="3" transform="translate(111.000000, 72.000000) rotate(90.000000) translate(-111.000000, -72.000000) "></line>
                <line x1="-18" y1="73" x2="126" y2="71" id="Line-Copy-4" stroke="#FFFAF0" stroke-width="3" transform="translate(54.000000, 72.000000) rotate(90.000000) translate(-54.000000, -72.000000) "></line>
                <line x1="77" y1="73" x2="221" y2="71" id="Line-Copy-12" stroke="#FFFAF0" stroke-width="3" transform="translate(149.000000, 72.000000) rotate(90.000000) translate(-149.000000, -72.000000) "></line>
                <line x1="168" y1="73" x2="312" y2="71" id="Line-Copy-15" stroke="#FFFAF0" stroke-width="3" transform="translate(240.000000, 72.000000) rotate(90.000000) translate(-240.000000, -72.000000) "></line>
                <line x1="-24" y1="73" x2="120" y2="71" id="Line-Copy-3" stroke="#FFFAF0" stroke-width="2" transform="translate(48.000000, 72.000000) rotate(90.000000) translate(-48.000000, -72.000000) "></line>
                <line x1="71" y1="73" x2="215" y2="71" id="Line-Copy-13" stroke="#FFFAF0" stroke-width="2" transform="translate(143.000000, 72.000000) rotate(90.000000) translate(-143.000000, -72.000000) "></line>
            </g>
        </g>
    </g>
</svg>