<?xml version="1.0" encoding="UTF-8"?>
<svg width="189px" height="153px" viewBox="0 0 189 153" version="1.1" xmlns="http://www.w3.org/2000/svg" xmlns:xlink="http://www.w3.org/1999/xlink">
    <!-- Generator: Sketch 59.1 (86144) - https://sketch.com -->
    <title>Group 2</title>
    <desc>Created with Sketch.</desc>
    <g id="Page-1" stroke="none" stroke-width="1" fill="none" fill-rule="evenodd">
        <g id="3.0" transform="translate(-889.000000, -520.000000)">
            <g id="Group-2" transform="translate(980.000000, 597.000000) rotate(90.000000) translate(-980.000000, -597.000000) translate(905.000000, 500.000000)">
                <polygon id="Path-2" stroke="#FFFAF0" stroke-width="2" fill="#FFFAF0" points="27.0001062 161.5 23.375021 147.605109 29.4207169 135.595883 29.4207169 126.407649 17.4342792 118.451515 17.4342792 111.469057 7.84013126 111.469057 0.5 104.123139 7.84013126 96.7772197 7.84013126 89.3679452 0.5 82.0220264 7.84013126 82.0220264 20.2513836 69.6009879 7.84013126 57.1799495 17.4342792 57.1799495 23.375021 57.1799495 23.375021 50.0240975 14.9603585 50.0240975 14.9603585 43.5018019 18.5854437 39.8738583 9.52273058 30.8039993 9.52273058 19.5300313 23.6332417 5.40839426 42.4533649 5.40839426 47.357892 0.5 58.8162267 0.5 58.8162267 10.3167885 64.9335581 10.3167885 69.8380852 5.40839426 77.9012344 5.40839426 95.2170138 22.737827 106.973552 22.737827 115.644769 22.737827 122.165258 16.2121968 133.853492 16.2121968 149.5 31.8710416 149.5 66.2298014 141.823349 73.9125054 141.823349 89.3679452 130.833976 100.365983 130.833976 111.469057 145.760798 126.407649 145.760798 142.364932 135.995891 142.364932 129.232175 135.595883 80.6250461 135.595883 69.8380852 146.391349 58.8162267 146.391349 47.357892 146.391349 36.0869755 157.671152 31.77469 157.671152"></polygon>
                <line x1="79.5" y1="167.922018" x2="79.5" y2="84.5" id="Line-2" stroke="#FF7154" stroke-width="2" stroke-linecap="square"></line>
                <text id="Ivory-Coast" font-family="Courier-Bold, Courier" font-size="12" font-weight="bold" line-spacing="25" fill="#FF7154">
                    <tspan x="40.3935547" y="180">Ivory Coast</tspan>
                </text>
                <g id="Group" transform="translate(71.500000, 75.500000)" fill="#FF7154">
                    <polygon id="Rectangle" transform="translate(8.000000, 8.000000) rotate(45.000000) translate(-8.000000, -8.000000) " points="-0.761904762 6.0952381 16.7619048 6.0952381 16.7619048 9.9047619 -0.761904762 9.9047619"></polygon>
                    <polygon id="Rectangle" transform="translate(8.000000, 8.000000) scale(-1, 1) rotate(45.000000) translate(-8.000000, -8.000000) " points="-0.761904762 6.0952381 16.7619048 6.0952381 16.7619048 9.9047619 -0.761904762 9.9047619"></polygon>
                </g>
            </g>
        </g>
    </g>
</svg>