<svg xmlns="http://www.w3.org/2000/svg" viewBox="0 0 119.8 65.98"><defs><style>.cls-1{fill:#fff;}</style></defs><title>Asset 7</title><g id="Layer_2" data-name="Layer 2"><g id="图层_1" data-name="图层 1"><path class="cls-1" d="M58,40.66l-.25-.16a1.68,1.68,0,0,1-.21-.18,1.1,1.1,0,0,0-.5-.31,3.11,3.11,0,0,1-.79-.36l-.44-.23a4.84,4.84,0,0,0-2-.52h-.21a9.37,9.37,0,0,1-1.5-.1,3.74,3.74,0,0,0-1,0,24.45,24.45,0,0,0-3.36.51l-.62.16c-.27.08-.55.15-.82.21l-.67.16a8.14,8.14,0,0,1-1.29.24l-.08,0h0a.25.25,0,0,1-.14,0,.22.22,0,0,1,0-.12c0-.12,0-.25,0-.37s0-.36,0-.54c0-.33.05-.66.06-1a8.52,8.52,0,0,1,.11-1.33,4.1,4.1,0,0,0,0-1l0-.35a5,5,0,0,1,.11-1.14c0-.26.08-.53.1-.81,0,0,0-.07,0-.08a1.75,1.75,0,0,0,.57-.1,1.29,1.29,0,0,1,.42-.1h1.74a3.6,3.6,0,0,0,1.34-.2,1.85,1.85,0,0,0,1-.85c.12-.24.18-.42.11-.58a.47.47,0,0,0-.25-.25c.17-.16.17-.28.13-.64a.19.19,0,0,0,0-.08c0-.1,0-.15,0-.17a.73.73,0,0,0,.14-.93,1.51,1.51,0,0,0,.41-.38,1.34,1.34,0,0,1,.26-.27.31.31,0,0,0,.13-.31.33.33,0,0,0-.26-.25.73.73,0,0,1-.26-.14.86.86,0,0,0-.2-.13c-.16-.09-.18-.15-.12-.34a.8.8,0,0,0,0-.64.75.75,0,0,0-.57-.26l-.19,0a1.48,1.48,0,0,0-1,.07,1.17,1.17,0,0,1-1.16,0c-.15-.07-.35-.11-.46,0s-.24.14-.46.11h-.62A2.13,2.13,0,0,1,44,26.82a1,1,0,0,0-1.06.16.5.5,0,0,1-.35.12,5.47,5.47,0,0,0-.81,0,5.09,5.09,0,0,1-.78,0,19.17,19.17,0,0,0-3.5,0c-.43,0-.87.05-1.29.06h-.34c-.32,0-.64.05-1,.09l-.57.07c-.41,0-.85.08-1.28.08a4,4,0,0,0-.62.08l-.44.06a10.25,10.25,0,0,0-2.39.53,15.59,15.59,0,0,1-2.13.49c-.45.07-.56,0-.73-.48a.15.15,0,0,0-.12-.11.18.18,0,0,0-.2.06l-.05,0v.07a1.71,1.71,0,0,0,.25.78v0a1.27,1.27,0,0,0,.13.19c0,.05.11.14.1.17s0,.05-.16.12a.19.19,0,0,0-.08.22,1,1,0,0,1,0,.35,1.1,1.1,0,0,0,0,.5,2.11,2.11,0,0,0,1.09,1.09l.14.08a3.72,3.72,0,0,0,1.65.52l.4,0c.66.05,1.33.09,2,.2,1.06.18,2.15.27,3.2.36l1.6.15a8.08,8.08,0,0,0,1,0,6.5,6.5,0,0,1,1.09,0,6.05,6.05,0,0,0,.94.05,4.38,4.38,0,0,1,1.09.09h.05c.22.05.23.07.23.16a4.36,4.36,0,0,0,.05.72,3,3,0,0,1,0,.85l0,.14a5.6,5.6,0,0,0,0,.6c0,.39,0,.77,0,1.16s0,.9,0,1.35a10.61,10.61,0,0,1,0,1.26c0,.44,0,.89,0,1.35,0,.13,0,.19-.22.22a7.15,7.15,0,0,0-1,.2c-.91.27-1.83.57-2.71.86l-.3.1c-.81.26-1.64.53-2.44.86l-.2.09c6.78-2.8,6.11-2.39-1.77.71l-2.13,1c.13-.15,7.26-8,7.38-8.21a.71.71,0,0,0,.12-.18l.13-.2c.17-.31,0-.47-.07-.54s-7.3,7.08-7.4,7.14l-.09.05L29,43.57c-.31.18-.61.38-.9.57l-.68.45a11.1,11.1,0,0,0-1.11.79c-.23.19-.48.37-.72.55l-.54.36a11.59,11.59,0,0,0-1.1.78.44.44,0,0,1-.44.13,13.59,13.59,0,0,0-1.35-.29l-.63-.12a1.05,1.05,0,0,0-1,.4.78.78,0,0,0,0,1,1,1,0,0,1,.26.75c0,.17,0,.35,0,.53s0,.48,0,.71a2.43,2.43,0,0,1-.14,1l0,.09a2,2,0,0,0-.18,1.1.53.53,0,0,1-.05.4,1.27,1.27,0,0,0-.14.35c-.08.36-.16.73-.23,1.09s-.11.52-.17.78a1.15,1.15,0,0,0,.1.71.67.67,0,0,0,.51.44.59.59,0,0,0,.48-.2v0l-.06.17a3.06,3.06,0,0,0-.15.54.92.92,0,0,0,.46,1,1.15,1.15,0,0,0,.48.14.87.87,0,0,0,.62-.35l.05-.06c.07-.08.1-.1.15-.1h0a4,4,0,0,0,1.12-.2c.23-.06.47-.12.7-.16a.61.61,0,0,0,.34-.17,1,1,0,0,1,.68-.33.68.68,0,0,0,.42-.23,1.59,1.59,0,0,1,.48-.31,5.32,5.32,0,0,0,.65-.39,4.38,4.38,0,0,1,.75-.43.7.7,0,0,0,.25-.21,2.6,2.6,0,0,1,1.24-1,1.13,1.13,0,0,0,.36-.24A7.41,7.41,0,0,1,31,52.59l.28-.15a4.61,4.61,0,0,0,1-.58,4.63,4.63,0,0,1,.95-.55,5.63,5.63,0,0,0,.83-.46l.13-.06a.62.62,0,0,0,.35-.28h.05a.69.69,0,0,0,.47-.1l.11-.06a5.82,5.82,0,0,0,.83-.41,5.9,5.9,0,0,1,1.12-.5,7.16,7.16,0,0,0,1.4-.6c.84-.46,1.76-.91,2.8-1.37l.17-.08a1.32,1.32,0,0,1,0,.18,18.47,18.47,0,0,1,.21,1.86,2.45,2.45,0,0,0,0,.27,2,2,0,0,1,0,.74,2.11,2.11,0,0,0,.52,2,1,1,0,0,1,.22.35,6.16,6.16,0,0,0,.33.74,5.11,5.11,0,0,1,.29.63,2,2,0,0,0,.84.93l.25.18.06-.18a2.09,2.09,0,0,0,.14-.83v-.5c0-.66,0-1.34,0-2a19.76,19.76,0,0,0-.14-2.57c0-.13,0-.26,0-.39s0-.25,0-.38l-.06-.6c0-.34-.08-.68-.1-1a1,1,0,0,1,.5-1,.61.61,0,0,0,.36-.54c0-.32.19-.5.45-.7a3.55,3.55,0,0,1,.54-.34,4.38,4.38,0,0,0,.6-.39,4.9,4.9,0,0,1,1-.61l.22-.11a19.69,19.69,0,0,1,1.84-.75l.07,0a6.7,6.7,0,0,1,2.72-.51h0c.87,0,.87,0,1.27.81a.9.9,0,0,0,.73.54.42.42,0,0,1,.37.27,1.88,1.88,0,0,0,.14.24.78.78,0,0,1,.11.18,3.09,3.09,0,0,0,.89,1.15.77.77,0,0,1,.18.18.89.89,0,0,0,.72.53l.21.06a1.71,1.71,0,0,0,.89.12.67.67,0,0,0,.59-.36c.07-.14.18-.4.33-.46a1,1,0,0,0,.56-.88,6.46,6.46,0,0,1,.24-.86,1.54,1.54,0,0,0-.31-1.58A4.91,4.91,0,0,0,58,40.66ZM52.19,41l-.65.11-.72.12-.14,0a4.27,4.27,0,0,0,.83-.28.62.62,0,0,1,.23,0,1.49,1.49,0,0,1,.36.05Z"/><path class="cls-1" d="M61.64,7.71c.26-.68-.89-2-1.15-2.59a2.7,2.7,0,0,1-.15-.38c-.06-.34-.14-1.4-.54-1.61a11.84,11.84,0,0,1-1.07-.66l-.57-.37L57.93,2c-.1-.05-.53-.55-.61-.62A3.63,3.63,0,0,0,55.77.58,2.3,2.3,0,0,1,55.4.42a2.73,2.73,0,0,0-2-.34l-.11,0-.19,0a.61.61,0,0,1-.53,0,.62.62,0,0,0-.75.08.24.24,0,0,1-.27.06.43.43,0,0,0-.38.06c-.11.09-.23.08-.44,0a.94.94,0,0,0-.94.31.68.68,0,0,1-.48.24c-.59.07-1.35.18-2.11.35S43.78,2.72,43,3s-1.3.45-1.94.68l-1.13.42-.15,0a13,13,0,0,0-1.56.63c-.62.32-1.26.62-1.88.9l-1.1.51L34,6.76l-1.12.55c-.3.14-.58.31-.85.47l-.49.28-1.06.57-1.45.8c-.89.5-1.7,1-2.46,1.4l-.77.41c-.31.15-.62.31-.92.49-1.34.82-2,1.08-1.47.81-.27.14-.29.13-.48-.08l0,0a.27.27,0,0,0-.31-.13.46.46,0,0,0-.3.41.4.4,0,0,0,0,.2.14.14,0,0,1,0,.06c0,.09.08.31-.05.43a1.23,1.23,0,0,0-.3.44l-.11.21a.45.45,0,0,0-.1.36.44.44,0,0,0,.29.22.65.65,0,0,1,.41.43,1.38,1.38,0,0,0,.7.74.77.77,0,0,0,.67.08.82.82,0,0,0,.48-.47.61.61,0,0,1,.16-.26l.39-.27c.28-.19-1-1.12-.73-1.3.45-.28.92-.55,1.37-.81l.47-.27c.5-.28,2-.65,2.55-.94l.49-.28.62-.37c.53-.31,1.08-.64,1.64-.9,1.23-.58,2.4-1.19,3.38-1.7,1.16-.62,2.7-1.3,4.3-2l.11,0c.81-.32,1.64-.66,2.48-1l.08,0A54.32,54.32,0,0,1,47.13,4,8.81,8.81,0,0,1,50,3.94c.21,0,.41.39.51.51a6.52,6.52,0,0,1-.1,1.28,5.11,5.11,0,0,1-1.05,2c-.39.57-.9.69-1.39,1.16-.17.17-.35.33-.52.51A24.47,24.47,0,0,1,44,12.3l-.32.2a4.31,4.31,0,0,0-.56.39,13.74,13.74,0,0,1-1.84,1.28c-.3.18-.61.37-.91.57s-.76.49-1.14.71-1,.63-1.54,1l-.39.26-.29.2a1.78,1.78,0,0,1-1.34.34,5.82,5.82,0,0,0-1.18-.1.86.86,0,0,0-.89.9,3,3,0,0,0,.14,1c.08.21.14.43,0,.57a1.35,1.35,0,0,0-.25.6,1,1,0,0,1,0,.17,1.41,1.41,0,0,0,.25,1.21c.11.17.23.32.34.47a7,7,0,0,1,.45.66l.08.15a1.65,1.65,0,0,0,.24.39l.24.3c.18.22.36.45.57.67a.69.69,0,0,0,.51.26.59.59,0,0,0,.4-.32l.21-.31c.16-.25.33-.51.47-.77a1,1,0,0,1,.92-.52l.34,0A12.28,12.28,0,0,0,41,22.26a4.27,4.27,0,0,1,.64-.11,2.57,2.57,0,0,0,1.27-.38H43l.92-.14.5-.08a3.64,3.64,0,0,1,1.09.06,5.78,5.78,0,0,0,.6.08c.11,0,.12.05.12.07s0,0,0,.05l-.07.06a.76.76,0,0,1-.34.23c-.36.13-.71.29-1,.44a13.2,13.2,0,0,1-1.36.53,9.21,9.21,0,0,0-1.27.52l-.14.07a11.26,11.26,0,0,1-1.11.49c-.47.16-.93.37-1.38.57l-.58.25-.09,0,0,.38.17-.09c.14-.08.26,0,.44.05a.81.81,0,0,0,.52.09l0,0a1.76,1.76,0,0,0,1.34.63,2.85,2.85,0,0,0,.4,0,2.12,2.12,0,0,0,.38-.13,1.53,1.53,0,0,1,.39-.11A5.85,5.85,0,0,0,44,25.36l.3-.12c.56-.22,1.12-.47,1.66-.71s.91-.41,1.38-.59l0,0a4.89,4.89,0,0,1,1.7-.46.57.57,0,0,0,.53-.41l.12-.32A2.45,2.45,0,0,1,50.1,22a.51.51,0,0,0,.09-.48,1.6,1.6,0,0,1-.06-.4.66.66,0,0,0-.36-.57,1.72,1.72,0,0,1-.33-.22l-.27-.18A1.2,1.2,0,0,0,48,19.92a1.66,1.66,0,0,1-1.34.06,2.52,2.52,0,0,0-.63-.1,13.48,13.48,0,0,1-1.42-.05l-.61,0a10,10,0,0,0-1.37.06h-.13a18.16,18.16,0,0,1-4.17.1,3,3,0,0,1-1.55-.58.32.32,0,0,1,.21-.17,3.48,3.48,0,0,0,1.15-.54l.2-.13,1.66-1c.16-.1.31-.21.46-.32a4.82,4.82,0,0,1,.65-.42c.26-.13.52-.29.77-.44a5.09,5.09,0,0,1,.5-.3c.48-.28.93-.6,1.37-.91l.65-.45.91-.61c.77-.51,1.56-1,2.32-1.59l.15-.11a2.05,2.05,0,0,1,.65-.38,1.06,1.06,0,0,0,.48-.33l.1-.11c.06-.06.11-.12.17-.17.25-.28.47-.51.87-.4a.28.28,0,0,0,.23,0h0c.36-.1,10.12-1.88,10.15-2,.18-.59,1.33-.61,1.21-1.07A.36.36,0,0,1,61.64,7.71Z"/><path class="cls-1" d="M18.59,40.8a.48.48,0,0,0-.08-.47.22.22,0,0,0-.19-.08.32.32,0,0,0-.25.16l0,0a2.51,2.51,0,0,1-.62.42L17,41a3,3,0,0,0-.83.47,5.57,5.57,0,0,1-.93.62l-.15.09c-.19.11-.38.2-.58.3s-.42.22-.63.35a10,10,0,0,1-1.65.73l-1.53.51-.28.09a.74.74,0,0,1-.83-.12,1.1,1.1,0,0,0-.71-.32c-.1,0-.14,0-.17-.06a.87.87,0,0,0-.5-.29h0A5.5,5.5,0,0,1,7.34,43L7.16,43a24.29,24.29,0,0,0-2.85-1.1,12.06,12.06,0,0,1-2.19-1,4.91,4.91,0,0,1-.72-.52.24.24,0,0,1-.07-.32c0-.13.09-.26.13-.39s.08-.27.13-.4a25.38,25.38,0,0,1,1.1-2.33l0,0c.59-1.11,1.2-2.26,1.88-3.29S6.12,31.37,7,30.14c.35-.48.74-.93,1.12-1.37l.48-.56.44-.51c.21-.24.43-.49.64-.75s.38-.44.57-.65a9.39,9.39,0,0,0,.63-.74,6.24,6.24,0,0,1,.68-.68,4.48,4.48,0,0,0,.91-1,.17.17,0,0,1,.06-.06l.1-.08.18-.19a2.56,2.56,0,0,0,.57-.75,6.23,6.23,0,0,0,.39-1.35c0-.13.06-.26.08-.38l0-.18h-.58a.89.89,0,0,1,0-.15v0a.77.77,0,0,0-.1-.59l-.1-.15-.12.12a1.47,1.47,0,0,1-.53.37.89.89,0,0,0-.3.24,5,5,0,0,1-.73.68,2.92,2.92,0,0,0-.57.55l-.54.66c-.33.42-.67.86-1,1.25l0,0A34.37,34.37,0,0,0,7,26.63c-.12.18-.25.35-.38.52s-.39.49-.57.76-.39.6-.58.91-.53.85-.82,1.25a29.76,29.76,0,0,0-1.76,2.87l-.42.74c-.35.61-.66,1.26-1,1.9-.09.18-.18.36-.26.54A14.23,14.23,0,0,0,.29,39a1,1,0,0,1-.14.34.58.58,0,0,0-.14.53v.11c.06.7.12,1.42.11,2.12a7.55,7.55,0,0,0,.14,1.5.62.62,0,0,0,.38.54,4.83,4.83,0,0,1,.82.41l.51.27c.32.15.64.33,1,.51A14.73,14.73,0,0,0,4.24,46h0a2.72,2.72,0,0,1,.54.27l.52.34a5.85,5.85,0,0,1,.75.51,1.11,1.11,0,0,1,.44.59,2.81,2.81,0,0,0,1.85,2.06,1.2,1.2,0,0,1,.54.39l.17.21a1.55,1.55,0,0,0,.55.53,2.36,2.36,0,0,1,.71.63,3.12,3.12,0,0,0,.88.73,1.22,1.22,0,0,1,.5.44,1.3,1.3,0,0,0,1.26.62,2.5,2.5,0,0,1,.4,0h0a.24.24,0,0,0,.16-.08,1.35,1.35,0,0,1,.53-.31l.26-.11a.51.51,0,0,0,.31-.32,5.63,5.63,0,0,1,.44-.93l.2-.36a1,1,0,0,0,.1-.48,10.06,10.06,0,0,0-.19-2.07,1.15,1.15,0,0,1,0-.37,1.58,1.58,0,0,0-.17-1.07c-.12-.19-.22-.39-.32-.59s-.11-.22-.17-.33c-.2-.4-.2-.4,0-.74l.11-.13,0,0c.34-.38.72-.73,1.09-1.07a11.65,11.65,0,0,0,1.38-1.42c.15-.18.31-.34.48-.51a4.83,4.83,0,0,0,.58-.61.94.94,0,0,1,.09-.12.71.71,0,0,0,.2-.74.08.08,0,0,1,0,0A.56.56,0,0,0,18.59,40.8Z"/><path class="cls-1" d="M5.93,10.86a.63.63,0,0,0,.4.63s.06.09.08.21A2.88,2.88,0,0,0,7,12.9a3.7,3.7,0,0,0,.37.42,3,3,0,0,1,.43.51,21.23,21.23,0,0,0,1.81,2.34c.1.11.2.2.31.3a2,2,0,0,1,.46.54,5.3,5.3,0,0,0,.28.47,3.91,3.91,0,0,1,.37.7.41.41,0,0,0,.36.3l.29,0c.21,0,.43,0,.64,0a2.14,2.14,0,0,0,.85-.16.49.49,0,0,1,.14,0,.38.38,0,0,0,.37-.17,2,2,0,0,1,.2-.25,1.37,1.37,0,0,0,.31-.49,2.84,2.84,0,0,1,.28-.65c.07-.14.14-.28.2-.43l.07-.13a.74.74,0,0,0,.14-.34,6.85,6.85,0,0,0,0-2.35,5.52,5.52,0,0,1-.1-1.78c0-.1,0-.2.05-.31l0-.15h0a.43.43,0,0,0-.26-.47,2.32,2.32,0,0,1-.55-.35A1.72,1.72,0,0,0,12.94,10s-.11,0-.14-.06a3.3,3.3,0,0,0-1-.29l-.7-.12c-.47-.09-1-.17-1.45-.23a1.25,1.25,0,0,1-.32-.08,1.45,1.45,0,0,0-.55-.09,9.73,9.73,0,0,0-1.49.26c-.31.09-.44.1-.62-.1a.42.42,0,0,0-.76.2l0,.12a1.24,1.24,0,0,0,0,.87A.88.88,0,0,1,5.93,10.86Z"/><path class="cls-1" d="M112.87,64.74c-.17-.19-.4.55-.54.53h-.12l-.15.72L111,65.76c-.12,0-.26-.8-.41-.8s-.36-.71-.53-.63l-.09,0a.74.74,0,0,1,.1-.38,1.32,1.32,0,0,0,0-1.43.15.15,0,0,0,0-.06c-.08-.41-.31-.47-.44-.47h0c.2-.22.23-.41.1-.79a1.92,1.92,0,0,1-.09-1.13.89.89,0,0,0,0-.47.36.36,0,0,1,0-.11,8.74,8.74,0,0,1,.06-1.54c.11-.9.2-8.78.17-9.6,0-.23,0-.36.11-.47a.67.67,0,0,0,.12-.59l0-.08a.55.55,0,0,1,0-.21,6.23,6.23,0,0,0,0-1.14,4.77,4.77,0,0,1,0-1,1.19,1.19,0,0,0,0-.46,8.25,8.25,0,0,1-.14-1.06,7.69,7.69,0,0,0-.18-1.25l0-.14a3,3,0,0,0-.15-.48,1.3,1.3,0,0,1-.08-.27l.11,0h0a.31.31,0,0,0,.23-.14.43.43,0,0,0,.19.37.33.33,0,0,0,.21.07h0a.41.41,0,0,0,.22-.07.51.51,0,0,0,.18-.53.9.9,0,0,0,0-.19l0-.06a.24.24,0,0,0-.07-.12h0a.75.75,0,0,0,.15-.58,2.65,2.65,0,0,0-.15-.69,2,2,0,0,1,0-.78,4.71,4.71,0,0,0,0-.53c0-.51,0-1,0-1.54,0-.28,0-.56,0-.84v0c0-.19,0-.23.06-.27a.84.84,0,0,0,.31-.64v-.07c0-.29.08-.58.13-.87.1-.65.2-1.31.25-2l0-.49c0-.35,0-.71.09-1.06a10.41,10.41,0,0,0,0-1.36c0-.21,0-.41,0-.61v0a.51.51,0,0,0-.08-.34,1.58,1.58,0,0,1-.17-.8c0-.1,0-.19,0-.29,0-.43,0-.88-.07-1.31s0-.71,0-1.06c0-.52,0-1.07,0-1.6s0-1.36-.06-2c0-.1,0-.21,0-.31a2.54,2.54,0,0,1,0-.61.72.72,0,0,0-.22-.56c-.17-.13-.27-.24-.16-.58a.3.3,0,0,0-.1-.33.32.32,0,0,0-.19-.07.33.33,0,0,0-.14,0l-.33.2-.13.09h0a2.53,2.53,0,0,0,0-.27,13.83,13.83,0,0,1-.06-2.92,3.31,3.31,0,0,0-.12-1c0-.07,0-.14,0-.21a5.74,5.74,0,0,1-.15-1.33,2.91,2.91,0,0,0,0-.52,2.16,2.16,0,0,1,0-.62.56.56,0,0,1,.16-.38A1.76,1.76,0,0,0,110,10c0-.1,0-.17,0-.24s0-.1,0-.15c0-.2.08-.22.11-.23a.77.77,0,0,0,.48-.73.82.82,0,0,1,0-.24h0l.13,0,.31-.05a1.67,1.67,0,0,1,.29,0,.29.29,0,0,1,.19.06.48.48,0,0,0,.29.1.42.42,0,0,0,.28-.1s.1,0,.21-.05a.82.82,0,0,0,.26,0l.12,0a1.08,1.08,0,0,1,.27.07l.21.07.19.06a6.16,6.16,0,0,1,1.1.36,2.68,2.68,0,0,0,.52.18,2.11,2.11,0,0,1,.55.22.79.79,0,0,0,.45.12,1,1,0,0,1,.64.28,1.62,1.62,0,0,0,.71.26,2.11,2.11,0,0,1,.29.06c.32.11.65.2,1,.29l.6.17.06,0s0,.07-.07.14a1,1,0,0,0,0,1.15.51.51,0,0,1,.11.36.9.9,0,0,0,.29.68.59.59,0,0,1,.18.55.5.5,0,0,0,0,.24,2,2,0,0,1-.13,1.13c0,.18-.1.35-.14.54a1.11,1.11,0,0,1-.2.39,4.15,4.15,0,0,0-.52,1l0,.08a.69.69,0,0,1-.28.31c-.39.28-.8.56-1.31.86a.84.84,0,0,0-.46.91,21.72,21.72,0,0,0,.4,2.77c.07.34.12.71.16,1.06a.78.78,0,0,0,.16.42s0,0,0,.13l.16,1.74a.25.25,0,0,1,0,.06.53.53,0,0,0,0,.65,1.37,1.37,0,0,1,0,.16,1.09,1.09,0,0,0,.16.74,1.27,1.27,0,0,1,0,1.08,1.72,1.72,0,0,0,0,1,3.26,3.26,0,0,1,.14.95v.27A3,3,0,0,0,118,30.8a1.27,1.27,0,0,1,0,.41c0,.19,0,2,.06,2.22h0a.44.44,0,0,0,.23.38c.06,0,.07.11.07.38v1.15a.24.24,0,0,1,0,.12h0a.8.8,0,0,0-.55.7,1.77,1.77,0,0,1,0,.2,1.07,1.07,0,0,0,0,.77l0,.05c0,.06,0,.12,0,.17l0,.11a1,1,0,0,0,0,.54.29.29,0,0,1-.05.31.78.78,0,0,0-.12.41V39l-.16.1-.11.06-.06.05a.29.29,0,0,0-.1.4c.07.12,0,.24-.07.48,0,.08,0,.14-.07.21l-.15.39a5.63,5.63,0,0,0-.24.76,1.18,1.18,0,0,0-.36-.06c-.3,0-.7.15-.82.88-.1.55-.15,1.09-.2,1.69,0,.36,0,.72,0,1.07s0,2.13,0,2.44v0c0,.45-.07.92-.12,1.37s-.13,1.18-.18,1.78v0a2,2,0,0,1,0,.27c-.11.43-.18-.73-.28,2.48a28.35,28.35,0,0,1-.26,4l-.06.23a6.8,6.8,0,0,0-.18.92v.08a1,1,0,0,0,0,.49A3,3,0,0,1,114,60.3a.86.86,0,0,0-.07-.1.31.31,0,0,0-.23-.11h0a.32.32,0,0,0-.23.19.61.61,0,0,0,.09.71.3.3,0,0,0,.22.1h0A.26.26,0,0,0,114,61a.31.31,0,0,1,0,.1v.1a1.67,1.67,0,0,0,0,1.41.58.58,0,0,1,0,.24l0,0a.31.31,0,0,0-.13,0,.29.29,0,0,0-.25.13.68.68,0,0,0-.1.54.28.28,0,0,1,0,.08,1,1,0,0,0,0,.17.24.24,0,0,0-.09-.06.25.25,0,0,0-.14,0,.42.42,0,0,0-.15,0,.3.3,0,0,0-.15.24l0,.25c0,.19,0,.38,0,.56Zm-2.63-20.61a.49.49,0,0,0,0,.11v0a.59.59,0,0,0,.18.62.31.31,0,0,0,.19.06h.1a.3.3,0,0,0,.19-.22.68.68,0,0,0-.07-.57.54.54,0,0,0,.15-.48.17.17,0,0,0,0-.07c0-.08,0-.13-.06-.19-.09-.27-.25-.33-.37-.33a.41.41,0,0,0-.26.1.54.54,0,0,0-.17.61.61.61,0,0,0,.05.12l0,.05A.55.55,0,0,0,110.24,44.13Zm-1.12-4-.16,0,0-.09a2.06,2.06,0,0,1-.06-.55.79.79,0,0,1,.08-.26,3.87,3.87,0,0,0,.15.63l0,.12a.67.67,0,0,1,0,.17Z"/><path class="cls-1" d="M73.75,50.92a3.6,3.6,0,0,0-.62-.45,3.23,3.23,0,0,1-.43-.29,1.34,1.34,0,0,0-.5-.3.65.65,0,0,0-.19,0,.76.76,0,0,0-.33.1,1.29,1.29,0,0,0-.52-1.08.45.45,0,0,1-.22-.41.13.13,0,0,1,0-.06.56.56,0,0,0-.22-.5.31.31,0,0,0-.34,0l-.06,0c0-.12,0-.23-.07-.35v0a.6.6,0,0,0-.21-.41,1,1,0,0,1-.28-.52,2.39,2.39,0,0,0-.18-.44,1.31,1.31,0,0,1,0-.2.8.8,0,0,0,0-.45,1.13,1.13,0,0,0-.17-.24.43.43,0,0,1-.12-.2,1.78,1.78,0,0,0-.14-.37.82.82,0,0,1-.11-.38.46.46,0,0,0-.21-.41c-.14-.07-.16-.21-.14-.6v-.24c0-1-.68-1.12-1-1.12h-.06l0-.07a1.26,1.26,0,0,1,.24-.19l.11-.08a.3.3,0,0,0,.11-.34,2,2,0,0,0-.51-.77.73.73,0,0,0-.43-.28,3.13,3.13,0,0,0,0-.5A2.31,2.31,0,0,1,68,38.25a1.32,1.32,0,0,0,.4-1c-.06-.72-.11-1.48-.13-2.24,0-.29,0-.58,0-.86a11.24,11.24,0,0,1,0-1.74,3.2,3.2,0,0,0,0-.7,2.56,2.56,0,0,1,0-.55v-.17a3,3,0,0,1,.08-.68,1,1,0,0,0,0-.51,3,3,0,0,1-.09-.92c0-.17,0-.35,0-.53,0-.53-.07-.92-.47-.92-.19,0-.35.11-.7.36a6.2,6.2,0,0,1-1.12.57l-.34.15-.71.31c-.51.22-1,.44-1.55.72l-.11.06a11.74,11.74,0,0,1-1.95.89,10.76,10.76,0,0,1-1.55.4h-.2L59,30.69c-.45-.14-.9-.27-1.34-.42a.47.47,0,0,1-.25-.19,3.46,3.46,0,0,0-.81-.81c-.13-.1-.12-.34,0-.58a.91.91,0,0,1,.51-.48,3.22,3.22,0,0,0,1.34-.92,2.67,2.67,0,0,1,.62-.47l.13-.08.95-.63c.42-.29.86-.58,1.29-.84l.92-.57.58-.37c.5-.3,1-.65,1.66-1.1l.67-.46c.32-.21.65-.43,1-.67s.53-.35.82-.53l.58-.36a.76.76,0,0,0,.44-.95c-.07-.44-.09-.9-.12-1.36a11.8,11.8,0,0,0-.18-1.78,2,2,0,0,1,0-.44,2.09,2.09,0,0,1,0-.25v-.08a1.38,1.38,0,0,1,.39-.25L68.4,16l0,0a.69.69,0,0,1,.14.12l.09.09a4.78,4.78,0,0,1,.51.57,4.52,4.52,0,0,0,.5.58,4.06,4.06,0,0,1,.51.67l.2.3a1,1,0,0,0,.77.48l.15,0a.41.41,0,0,0,.3.28l.15,0a.84.84,0,0,0,.3-.06l.07,0h0a1.57,1.57,0,0,1,.25-.05s.06,0,.09.07a.44.44,0,0,0,.29.21l.09,0c0,.05,0,.1,0,.14a.5.5,0,0,0,.24.51c.07.06.09.09.09.1h0a.63.63,0,0,1-.14.22c-.11.14-.23.29-.15.48a.76.76,0,0,1,0,.28.87.87,0,0,0,.27.81h0a0,0,0,0,0,0,0l0,0c0,.08.06.11,0,.18a.86.86,0,0,0-.27,1,1.12,1.12,0,0,1-.33,1.11,6.45,6.45,0,0,1-1.58,1.18l0,0a1.25,1.25,0,0,0-.66,1.36,12.77,12.77,0,0,1,.31,2.3,17.54,17.54,0,0,0,.22,2.43,2.77,2.77,0,0,1,0,.42,3.42,3.42,0,0,0,0,.44c.11.74.2,1.47.3,2.21s.17,1.32.27,2c0,.39.13.76.2,1.13s.1.48.14.72c.08.44.35.51.5.51a.7.7,0,0,0,.27-.06,5.07,5.07,0,0,0,1.83-1.3l.13-.15a1.5,1.5,0,0,1,.2-.22,8.67,8.67,0,0,0,1-.86,8.94,8.94,0,0,1,.72-.67,1.42,1.42,0,0,0,.29-.31,21.61,21.61,0,0,1,1.65-1.9l.1-.11a2.36,2.36,0,0,0,.45-.6.93.93,0,0,1,.41-.44,1.47,1.47,0,0,0,.65-.85.76.76,0,0,1,.14-.3,12,12,0,0,0,1.28-1.59c.19-.27.38-.53.58-.79.88-1.13,1.69-2.34,2.45-3.47l.2-.27c0-.07.11-.14.16-.22l0,0a.64.64,0,0,0,.17-.41.53.53,0,0,1,.11-.31h0a1.81,1.81,0,0,1-.19,1c0,.09-.07.18-.1.27a5.38,5.38,0,0,0-.22.83.32.32,0,0,0-.25-.14h0a.29.29,0,0,0-.25.15l-.26.4c-.18.29-.36.57-.52.87s-.4.67-.6,1-.37.57-.54.87c-.37.65-.77,1.3-1.14,1.91l-.76,1.19-.35.55,0,0a.63.63,0,0,0-.12.26,2.16,2.16,0,0,1-.39.81,3.58,3.58,0,0,0-.42.8,3.76,3.76,0,0,0-.69,1.1l-.2.39,0,0a2.28,2.28,0,0,0-.3.76,1.44,1.44,0,0,1-.28.66,1.27,1.27,0,0,0-.34,1.08c0,.13,0,.14-.05.2a1.9,1.9,0,0,0-.56.91.79.79,0,0,1-.23.31.61.61,0,0,0-.12.81l.06.1-.11.13a2.87,2.87,0,0,1-.29.31,2.61,2.61,0,0,0-.95,2.28.93.93,0,0,0-.09,1v0s0,.08,0,.11a5,5,0,0,0,0,1.28,4.32,4.32,0,0,1,0,1.08c0,.24,0,.48,0,.73a.9.9,0,0,1,0,.16.58.58,0,0,0-.05.14l0,.13a2.37,2.37,0,0,0-.18.93.35.35,0,0,1,0,.18A12.65,12.65,0,0,0,73.75,50.92ZM69.1,19a.35.35,0,0,0-.25.14.45.45,0,0,0-.1.36.49.49,0,0,0,.48.49l.15,0a.45.45,0,0,0,.32-.46.27.27,0,0,0,0-.12.58.58,0,0,0-.51-.4Z"/><path class="cls-1" d="M101.26,40.38l-.07,0a.9.9,0,0,0-.38-.11.57.57,0,0,0-.28.08.63.63,0,0,0-.4-.51.66.66,0,0,0,0-.7.32.32,0,0,0-.27-.16h0a.29.29,0,0,0-.27.16l-.06.09a.6.6,0,0,0-.07.62.53.53,0,0,0,.09.11l0,0a.53.53,0,0,0-.3-.14c0-.05,0-.1,0-.13V39.6c0-.17-.1-.62-.54-.62h0a1.45,1.45,0,0,0-.19-.45,1.15,1.15,0,0,1-.1-.23.47.47,0,0,0-.45-.37.51.51,0,0,0-.26.07,6.77,6.77,0,0,0-.51-.55l-.23-.22a.38.38,0,0,0-.12-.1c0-.41.08-1.13.13-1.75l0-.54a.31.31,0,0,0-.16-.29c.1-1.59.26-3.65.32-3.88a.54.54,0,0,0,0-.31,3.18,3.18,0,0,1,0-1.12c0-.19,0-.38,0-.56s0-.36,0-.54a10.81,10.81,0,0,1,0-1.14,10.06,10.06,0,0,0,0-1.23c0-.35,0-.68,0-1a1.47,1.47,0,0,0-.07-.5.87.87,0,0,1,0-.31.47.47,0,0,0-.13-.34.39.39,0,0,0-.27-.11.48.48,0,0,0-.36.16l-.08.07a7.8,7.8,0,0,0-.83.88,10.9,10.9,0,0,1-1.52,1.68,1.07,1.07,0,0,0-.28.49l0,.11a3.29,3.29,0,0,1-.34.84.65.65,0,0,0-.1.34c0,1-.36,6.55-.61,7.43a1.07,1.07,0,0,1-.63.79h0a.48.48,0,0,0-.18,0,.41.41,0,0,0-.34.19.92.92,0,0,1-.14.14,1.12,1.12,0,0,0-.3.34.4.4,0,0,0-.26-.09l-.11,0a.49.49,0,0,0-.35.34l0,.05a1.5,1.5,0,0,0-.11.34.46.46,0,0,1-.12.28.41.41,0,0,0-.14.34.58.58,0,0,0-.3.09.52.52,0,0,0-.17-.12h0a.34.34,0,0,0,.15-.19.38.38,0,0,0-.23-.49l-.12,0a.36.36,0,0,0-.36.35.35.35,0,0,0,.1.31h-.06a.61.61,0,0,0-.25-.06.58.58,0,0,0-.47.26.43.43,0,0,0-.41-.38l-.14,0-.07-.09a.48.48,0,0,0-.36-.2.32.32,0,0,0-.19,0,1.1,1.1,0,0,0-.47-.52l-.21-.13.06-.08a.55.55,0,0,0,0-.57c-.15-.36-.3-3.55-.37-4.91,0-.61,0-1.05-.06-1.2a2.76,2.76,0,0,1,0-.76,6.22,6.22,0,0,0,.07-1.2v-.6c0-.17,0-.34,0-.51a8.44,8.44,0,0,1,0-1,3.89,3.89,0,0,0,0-1.18,1.51,1.51,0,0,1,.2-.93,1.28,1.28,0,0,0,.23-.77v0a1.42,1.42,0,0,1,.14-.8.78.78,0,0,0,.06-.48,4.16,4.16,0,0,1,.07-1.73,1,1,0,0,1,.49-.67l.11-.06a3.37,3.37,0,0,0,.69-.52,1.1,1.1,0,0,1,.31-.19l.13-.06a2.29,2.29,0,0,0,.71,1.57,5.85,5.85,0,0,1,.48.59c.12.17.24.34.38.51a21.88,21.88,0,0,0,2.1,2,5.21,5.21,0,0,1,1,1.06,1.65,1.65,0,0,1,.16.35,2.44,2.44,0,0,0,.1.24.31.31,0,0,0,.21.18h.06a.3.3,0,0,0,.21-.08l.32-.31,1.22-1.17a.56.56,0,0,0,.21-.37,1.73,1.73,0,0,1,.11-.4,1.68,1.68,0,0,0,.12-.38,2.38,2.38,0,0,1,.63-1.08l.13-.15a1.55,1.55,0,0,1,.39-.32,1.71,1.71,0,0,0,.68-.66,1.36,1.36,0,0,0,.79-.84,1.49,1.49,0,0,1,1-.78,4.85,4.85,0,0,1,1.61-.26,5.36,5.36,0,0,1,1,.08,3.25,3.25,0,0,1,1.6.68,3.36,3.36,0,0,0,1.52.59l.11,0a2,2,0,0,1,.5.19c.13.06.16.1.16.12a1.53,1.53,0,0,0,.9,1.08l0,0a1,1,0,0,1,.49,1v.1a1,1,0,0,0,.15.59.28.28,0,0,1,0,.13s0,0,0,.06a.6.6,0,0,0,0,.3,2.25,2.25,0,0,1-.51,1.69l-.24.41a1.55,1.55,0,0,1-.76.76.73.73,0,0,0-.38.34,4.57,4.57,0,0,1-.54.81,4,4,0,0,0-.73,1.22s0,0,0,0a.4.4,0,0,0,.11.55l0,.14a3,3,0,0,0-.09.92v.21c0,.41-.5,4.67-.67,5.2a.5.5,0,0,0-.13.52.42.42,0,0,0,.41.26h0s0,.11,0,.15a.94.94,0,0,1,0,.31,1,1,0,0,0,0,.8,1.09,1.09,0,0,1,.07.24,1.56,1.56,0,0,1,0,.29l-.2,0a.77.77,0,0,0-.58.24.36.36,0,0,1-.22.13h-.06a1,1,0,0,0-.21,0c-.15,0-.42.07-.5.52l0,.16c-.42,0-.49.46-.51.63v0c0,.2,0,.23-.12.28s-.09.07-.1.07Z"/></g></g></svg>