<?xml version="1.0" encoding="utf-8"?>
<!-- Generator: Adobe Illustrator 24.1.0, SVG Export Plug-In . SVG Version: 6.00 Build 0)  -->
<svg version="1.1" id="Layer_1" xmlns="http://www.w3.org/2000/svg" xmlns:xlink="http://www.w3.org/1999/xlink" x="0px" y="0px"
	 viewBox="0 0 800 500" style="enable-background:new 0 0 800 500;" xml:space="preserve">
<style type="text/css">
	.st0{fill:#59B1D9;}
	.st1{fill:#1C4C61;}
	.st2{fill:#3C8A9E;}
	.st3{fill:#2D657D;}
	.st4{fill:#458BAB;}
	.st5{fill:#FFFFFF;}
	.st6{font-family:'Montserrat-Regular';}
	.st7{font-size:26.4px;}
	.st8{font-size:22.88px;}
	.st9{font-size:20.02px;}
	.st10{font-size:24.2px;}
	.st11{font-family:'Montserrat-Medium';}
	.st12{fill:none;stroke:#2D657D;stroke-width:5;stroke-miterlimit:10;}
	.st13{fill:#2D657D;stroke:#2D657D;stroke-miterlimit:10;}
	.st14{fill:#3C8A9E;stroke:#3C8A9E;stroke-width:5;stroke-miterlimit:10;}
	.st15{fill:#3C8A9E;stroke:#3C8A9E;stroke-miterlimit:10;}
	.st16{fill:#2D657D;stroke:#5D7172;stroke-miterlimit:10;}
	.st17{fill:none;stroke:#1C4C61;stroke-width:5;stroke-miterlimit:10;}
	.st18{fill:#1C4C61;stroke:#1C4C61;stroke-miterlimit:10;}
	.st19{fill:none;stroke:#458BAB;stroke-width:5;stroke-miterlimit:10;}
	.st20{fill:#458BAB;stroke:#458BAB;stroke-miterlimit:10;}
	.st21{fill:none;stroke:#3C8A9E;stroke-width:5;stroke-miterlimit:10;}
	.st22{font-size:19.8px;}
	.st23{fill:none;}
	.st24{font-family:'Montserrat-Bold';}
	.st25{font-size:14.3px;}
	.st26{font-size:12.1535px;}
</style>
<path class="st0" d="M764.7,472.8H342.1c-6.6,0-12-5.4-12-12v-37.4c0-6.6,5.4-12,12-12h422.6c6.6,0,12,5.4,12,12v37.4
	C776.7,467.4,771.3,472.8,764.7,472.8z"/>
<path class="st1" d="M764.7,85H342.1c-6.6,0-12-5.4-12-12V35.6c0-6.6,5.4-12,12-12h422.6c6.6,0,12,5.4,12,12V73
	C776.7,79.6,771.3,85,764.7,85z"/>
<ellipse class="st2" cx="207.1" cy="248.8" rx="72.2" ry="29.7"/>
<ellipse class="st3" cx="207.1" cy="155.4" rx="72.2" ry="29.7"/>
<ellipse class="st4" cx="207.1" cy="342.1" rx="72.2" ry="29.7"/>
<text transform="matrix(1 0 0 1 449.9135 61.855)" class="st5 st6 st7">Totally Foreign</text>
<text transform="matrix(1 0 0 1 142.0273 163.9355)" class="st5 st6 st8">Paraphrase</text>
<text transform="matrix(1 0 0 1 151.5264 255.1455)" class="st5 st6 st9">Attributive</text>
<text transform="matrix(1 0 0 1 147.9863 346.626)" class="st5 st6 st9">Productive</text>
<text transform="matrix(0.9808 0 0 1 439.0576 448.3555)" class="st5 st6 st10">Fully Incorporated</text>
<text transform="matrix(1 0 0 1 23.2207 163.9355)" class="st11 st8">Stage 1</text>
<text transform="matrix(1 0 0 1 23.2207 255.1455)" class="st11 st8">Stage 2</text>
<text transform="matrix(1 0 0 1 23.2207 346.626)" class="st11 st8">Stage 3</text>
<g>
	<g>
		<line class="st12" x1="207.1" y1="205.8" x2="207.1" y2="185.1"/>
		<g>
			<path class="st13" d="M207.1,219.1c2.3-6.2,6.3-14,10.5-18.8l-10.5,3.8l-10.5-3.8C200.9,205.1,204.8,212.8,207.1,219.1z"/>
		</g>
	</g>
</g>
<g>
	<g>
		<line class="st14" x1="207.1" y1="299.1" x2="207.1" y2="278.4"/>
		<g>
			<path class="st15" d="M207.1,312.4c2.3-6.2,6.3-14,10.5-18.8l-10.5,3.8l-10.5-3.8C200.9,298.4,204.8,306.1,207.1,312.4z"/>
		</g>
	</g>
</g>
<path class="st16" d="M764.7,181.5H342.1c-6.6,0-12-5.4-12-12v-37.4c0-6.6,5.4-12,12-12h422.6c6.6,0,12,5.4,12,12v37.4
	C776.7,176.1,771.3,181.5,764.7,181.5z"/>
<path class="st2" d="M764.7,280.9H342.1c-6.6,0-12-5.4-12-12v-37.4c0-6.6,5.4-12,12-12h422.6c6.6,0,12,5.4,12,12v37.4
	C776.7,275.5,771.3,280.9,764.7,280.9z"/>
<path class="st4" d="M764.7,376.8H342.1c-6.6,0-12-5.4-12-12v-37.4c0-6.6,5.4-12,12-12h422.6c6.6,0,12,5.4,12,12v37.4
	C776.7,371.4,771.3,376.8,764.7,376.8z"/>
<g>
	<g>
		<line class="st17" x1="553.4" y1="106.3" x2="553.4" y2="85"/>
		<g>
			<path class="st18" d="M553.4,120.1c2.3-6.4,6.3-14.5,10.5-19.5l-10.5,3.9l-10.5-3.9C547.1,105.6,551.1,113.7,553.4,120.1z"/>
		</g>
	</g>
</g>
<g>
	<g>
		<line class="st12" x1="553.4" y1="204.8" x2="553.4" y2="181.2"/>
		<g>
			<path class="st3" d="M553.4,219.5c2.3-6.9,6.3-15.6,10.5-20.9l-10.5,4.2l-10.5-4.2C547.1,203.9,551.1,212.6,553.4,219.5z"/>
		</g>
	</g>
</g>
<g>
	<g>
		<line class="st19" x1="553.4" y1="301.4" x2="553.4" y2="278.5"/>
		<g>
			<path class="st20" d="M553.4,316c2.3-6.9,6.3-15.5,10.5-20.8l-10.5,4.2l-10.5-4.2C547.1,300.5,551.1,309.2,553.4,316z"/>
		</g>
	</g>
</g>
<g>
	<g>
		<line class="st21" x1="553.4" y1="397" x2="553.4" y2="373.9"/>
		<g>
			<path class="st2" d="M553.4,411.8c2.3-6.9,6.3-15.6,10.5-21l-10.5,4.2l-10.5-4.2C547.1,396.2,551.1,404.8,553.4,411.8z"/>
		</g>
	</g>
</g>
<text transform="matrix(1 0 0 1 340.1577 145.0291)" class="st5 st6 st22">“</text>
<rect x="347.5" y="128.2" class="st23" width="192.4" height="22"/>
<text transform="matrix(1 0 0 1 347.48 145.0291)" class="st5 st24 st22">Jiu-jitsu (wrestling)</text>
<text transform="matrix(1 0 0 1 537.9578 145.0291)" class="st5 st6 st22">   is also taught, but not </text>
<text transform="matrix(1 0 0 1 340.1577 168.829)" class="st5 st6 st22">much practised by gentlemen.”</text>
<text transform="matrix(1.1766 0 0 1 346.9751 245.6875)" class="st5 st6 st22">“Their gymnasium is often visited by </text>
<text transform="matrix(1.1766 0 0 1 346.9751 269.4873)" class="st5 st24 st22">ju-jitsu wrestlers</text>
<text transform="matrix(1.1766 0 0 1 551.5859 269.4873)" class="st5 st6 st22">.”</text>
<text transform="matrix(1.1766 0 0 1 540.7598 269.4873)" class="st5 st6 st22">.</text>
<rect x="343.9" y="324.7" class="st23" width="400.5" height="53.1"/>
<text transform="matrix(1 0 0 1 343.9219 339.4071)" class="st5 st6 st22">“‘Revenge?’..‘I shall merely practise </text>
<text transform="matrix(1 0 0 1 343.9219 363.2071)" class="st5 st24 st22">Moral Jiu-jitsu</text>
<text transform="matrix(1 0 0 1 484.0219 363.2071)" class="st5 st6 st22">..”</text>
<text transform="matrix(1 0 0 1 657.207 171.8643)" class="st5 st6 st25">1875 Japan Mail</text>
<text transform="matrix(1.1766 0 0 1 646.8525 270.7002)" class="st5 st6 st26">1905 Daily Chron.</text>
<rect x="586.7" y="352.5" class="st23" width="177.7" height="15.7"/>
<text transform="matrix(1 0 0 1 586.7402 363.0654)" class="st5 st6 st25">1928 F. ROMER Numbers </text>
</svg>
