<?xml version="1.0" encoding="utf-8"?>
<!-- Generator: Adobe Illustrator 16.0.0, SVG Export Plug-In . SVG Version: 6.00 Build 0)  -->
<!DOCTYPE svg PUBLIC "-//W3C//DTD SVG 1.1//EN" "http://www.w3.org/Graphics/SVG/1.1/DTD/svg11.dtd">
<svg version="1.1" xmlns="http://www.w3.org/2000/svg" xmlns:xlink="http://www.w3.org/1999/xlink" x="0px" y="0px" width="1152px"
	 height="700px" viewBox="0 0 1152 700" enable-background="new 0 0 1152 700" xml:space="preserve">
<g id="Layer_1">
	<rect x="-1" y="1" fill="#0D0D0D" width="1153" height="700"/>
</g>
<g id="Layer_2">
	<g>
		<circle fill="#D93644" cx="256.957" cy="130.295" r="3.371"/>
		<circle fill="#0C59F2" cx="250.538" cy="135.957" r="3.372"/>
		<circle fill="#D93644" cx="258.844" cy="138.222" r="3.371"/>
		<circle fill="#0C59F2" cx="252.803" cy="145.019" r="3.371"/>
		<circle fill="#0C59F2" cx="266.018" cy="133.314" r="3.371"/>
		<circle fill="#D93644" cx="267.149" cy="141.621" r="3.37"/>
		<circle fill="#0C59F2" cx="261.109" cy="146.528" r="3.371"/>
		<circle fill="#D93644" cx="244.875" cy="141.621" r="3.371"/>
		<circle fill="#0C59F2" cx="243.365" cy="132.559" r="3.371"/>
		<circle fill="#D93644" cx="249.405" cy="126.142" r="3.371"/>
		<circle fill="#D93644" cx="264.506" cy="125.386" r="3.372"/>
		<circle fill="#0C59F2" cx="256.957" cy="122.744" r="3.371"/>
		<circle fill="none" stroke="#F2F2F2" stroke-width="0.3775" stroke-miterlimit="10" cx="255.652" cy="134.672" r="24.918"/>
		<circle fill="none" stroke="#F2F2F2" stroke-width="0.3775" stroke-miterlimit="10" cx="255.841" cy="134.861" r="34.923"/>
		<circle fill="#268C16" cx="233.927" cy="122.744" r="3.371"/>
		<circle fill="#268C16" cx="248.272" cy="100.847" r="3.371"/>
		<circle fill="#268C16" cx="255.824" cy="159.743" r="3.371"/>
		<circle fill="#268C16" cx="226.753" cy="153.324" r="3.372"/>
		<circle fill="#268C16" cx="275.456" cy="119.346" r="3.372"/>
		<circle fill="#268C16" cx="288.291" cy="148.417" r="3.371"/>
	</g>
	<g>
		<circle fill="#D93644" cx="363.957" cy="62.295" r="3.371"/>
		<circle fill="#0C59F2" cx="357.538" cy="67.957" r="3.372"/>
		<circle fill="#D93644" cx="365.844" cy="70.222" r="3.371"/>
		<circle fill="#0C59F2" cx="359.803" cy="77.019" r="3.371"/>
		<circle fill="#0C59F2" cx="373.018" cy="65.314" r="3.371"/>
		<circle fill="#D93644" cx="374.149" cy="73.621" r="3.37"/>
		<circle fill="#0C59F2" cx="368.109" cy="78.528" r="3.371"/>
		<circle fill="#D93644" cx="351.875" cy="73.621" r="3.371"/>
		<circle fill="#0C59F2" cx="350.365" cy="64.559" r="3.371"/>
		<circle fill="#D93644" cx="356.405" cy="58.142" r="3.371"/>
		<circle fill="#D93644" cx="371.506" cy="57.386" r="3.372"/>
		<circle fill="#0C59F2" cx="363.957" cy="54.744" r="3.371"/>
		<circle fill="none" stroke="#F2F2F2" stroke-width="0.3775" stroke-miterlimit="10" cx="362.652" cy="66.672" r="24.918"/>
		<circle fill="none" stroke="#F2F2F2" stroke-width="0.3775" stroke-miterlimit="10" cx="362.841" cy="66.861" r="34.923"/>
		<circle fill="#268C16" cx="340.927" cy="54.744" r="3.371"/>
		<circle fill="#268C16" cx="355.272" cy="32.847" r="3.371"/>
		<circle fill="#268C16" cx="362.824" cy="91.743" r="3.371"/>
		<circle fill="#268C16" cx="333.753" cy="85.324" r="3.372"/>
		<circle fill="#268C16" cx="382.456" cy="51.346" r="3.372"/>
		<circle fill="#268C16" cx="395.291" cy="80.417" r="3.371"/>
	</g>
	<g>
		<circle fill="#D93644" cx="358.957" cy="233.295" r="3.371"/>
		<circle fill="#0C59F2" cx="352.538" cy="238.957" r="3.372"/>
		<circle fill="#D93644" cx="360.844" cy="241.222" r="3.371"/>
		<circle fill="#0C59F2" cx="354.803" cy="248.019" r="3.371"/>
		<circle fill="#0C59F2" cx="368.018" cy="236.314" r="3.371"/>
		<circle fill="#D93644" cx="369.149" cy="244.621" r="3.37"/>
		<circle fill="#0C59F2" cx="363.109" cy="249.528" r="3.371"/>
		<circle fill="#D93644" cx="346.875" cy="244.621" r="3.371"/>
		<circle fill="#0C59F2" cx="345.365" cy="235.559" r="3.371"/>
		<circle fill="#D93644" cx="351.405" cy="229.142" r="3.371"/>
		<circle fill="#D93644" cx="366.506" cy="228.386" r="3.372"/>
		<circle fill="#0C59F2" cx="358.957" cy="225.744" r="3.371"/>
		<circle fill="none" stroke="#F2F2F2" stroke-width="0.3775" stroke-miterlimit="10" cx="357.652" cy="237.672" r="24.918"/>
		<circle fill="none" stroke="#F2F2F2" stroke-width="0.3775" stroke-miterlimit="10" cx="357.841" cy="237.861" r="34.923"/>
		<circle fill="#268C16" cx="335.927" cy="225.744" r="3.371"/>
		<circle fill="#268C16" cx="350.272" cy="203.847" r="3.371"/>
		<circle fill="#268C16" cx="357.824" cy="262.743" r="3.371"/>
		<circle fill="#268C16" cx="328.753" cy="256.324" r="3.372"/>
		<circle fill="#268C16" cx="377.456" cy="222.346" r="3.372"/>
		<circle fill="#268C16" cx="390.291" cy="251.417" r="3.371"/>
	</g>
	<g>
		<circle fill="#D93644" cx="840.957" cy="131.295" r="3.371"/>
		<circle fill="#0C59F2" cx="834.538" cy="136.957" r="3.372"/>
		<circle fill="#D93644" cx="842.844" cy="139.222" r="3.371"/>
		<circle fill="#0C59F2" cx="836.803" cy="146.019" r="3.371"/>
		<circle fill="#0C59F2" cx="850.018" cy="134.314" r="3.371"/>
		<circle fill="#D93644" cx="851.149" cy="142.621" r="3.37"/>
		<circle fill="#0C59F2" cx="845.109" cy="147.528" r="3.371"/>
		<circle fill="#D93644" cx="828.875" cy="142.621" r="3.371"/>
		<circle fill="#0C59F2" cx="827.365" cy="133.559" r="3.371"/>
		<circle fill="#D93644" cx="833.405" cy="127.142" r="3.371"/>
		<circle fill="#D93644" cx="848.506" cy="126.386" r="3.371"/>
		<circle fill="#0C59F2" cx="840.957" cy="123.744" r="3.371"/>
		<circle fill="none" stroke="#F2F2F2" stroke-width="0.3775" stroke-miterlimit="10" cx="839.652" cy="135.672" r="24.918"/>
		<circle fill="none" stroke="#F2F2F2" stroke-width="0.3775" stroke-miterlimit="10" cx="839.841" cy="135.861" r="34.923"/>
		<circle fill="#268C16" cx="817.927" cy="123.744" r="3.371"/>
		<circle fill="#268C16" cx="832.272" cy="101.847" r="3.371"/>
		<circle fill="#268C16" cx="839.824" cy="160.743" r="3.371"/>
		<circle fill="#268C16" cx="810.753" cy="154.324" r="3.372"/>
		<circle fill="#268C16" cx="859.456" cy="120.346" r="3.372"/>
		<circle fill="#268C16" cx="872.291" cy="149.417" r="3.371"/>
	</g>
	<g>
		<circle fill="#D93644" cx="741.957" cy="610.295" r="3.371"/>
		<circle fill="#0C59F2" cx="735.538" cy="615.957" r="3.372"/>
		<circle fill="#D93644" cx="743.844" cy="618.223" r="3.371"/>
		<circle fill="#0C59F2" cx="737.803" cy="625.019" r="3.371"/>
		<circle fill="#0C59F2" cx="751.018" cy="613.314" r="3.371"/>
		<circle fill="#D93644" cx="752.149" cy="621.621" r="3.37"/>
		<circle fill="#0C59F2" cx="746.109" cy="626.528" r="3.371"/>
		<circle fill="#D93644" cx="729.875" cy="621.621" r="3.371"/>
		<circle fill="#0C59F2" cx="728.365" cy="612.559" r="3.371"/>
		<circle fill="#D93644" cx="734.405" cy="606.142" r="3.371"/>
		<circle fill="#D93644" cx="749.506" cy="605.387" r="3.372"/>
		<circle fill="#0C59F2" cx="741.957" cy="602.744" r="3.371"/>
		<circle fill="none" stroke="#F2F2F2" stroke-width="0.3775" stroke-miterlimit="10" cx="740.652" cy="614.672" r="24.918"/>
		<circle fill="none" stroke="#F2F2F2" stroke-width="0.3775" stroke-miterlimit="10" cx="740.841" cy="614.861" r="34.923"/>
		<circle fill="#268C16" cx="718.927" cy="602.744" r="3.371"/>
		<circle fill="#268C16" cx="733.272" cy="580.847" r="3.371"/>
		<circle fill="#268C16" cx="740.824" cy="639.742" r="3.371"/>
		<circle fill="#268C16" cx="711.753" cy="633.324" r="3.372"/>
		<circle fill="#268C16" cx="760.456" cy="599.346" r="3.372"/>
		<circle fill="#268C16" cx="773.291" cy="628.416" r="3.371"/>
	</g>
	<g>
		<circle fill="#D93644" cx="1052.957" cy="194.295" r="3.371"/>
		<circle fill="#0C59F2" cx="1046.537" cy="199.957" r="3.371"/>
		<circle fill="#D93644" cx="1054.844" cy="202.222" r="3.371"/>
		<circle fill="#0C59F2" cx="1048.803" cy="209.019" r="3.371"/>
		<circle fill="#0C59F2" cx="1062.018" cy="197.314" r="3.371"/>
		<circle fill="#D93644" cx="1063.149" cy="205.621" r="3.37"/>
		<circle fill="#0C59F2" cx="1057.108" cy="210.528" r="3.37"/>
		<circle fill="#D93644" cx="1040.874" cy="205.621" r="3.37"/>
		<circle fill="#0C59F2" cx="1039.365" cy="196.559" r="3.371"/>
		<circle fill="#D93644" cx="1045.405" cy="190.142" r="3.371"/>
		<circle fill="#D93644" cx="1060.506" cy="189.386" r="3.371"/>
		<circle fill="#0C59F2" cx="1052.957" cy="186.744" r="3.371"/>
		<circle fill="none" stroke="#F2F2F2" stroke-width="0.3775" stroke-miterlimit="10" cx="1051.652" cy="198.672" r="24.918"/>
		<circle fill="none" stroke="#F2F2F2" stroke-width="0.3775" stroke-miterlimit="10" cx="1051.841" cy="198.861" r="34.922"/>
		<circle fill="#268C16" cx="1029.926" cy="186.744" r="3.371"/>
		<circle fill="#268C16" cx="1044.272" cy="164.847" r="3.371"/>
		<circle fill="#268C16" cx="1051.824" cy="223.743" r="3.371"/>
		<circle fill="#268C16" cx="1022.753" cy="217.324" r="3.372"/>
		<circle fill="#268C16" cx="1071.456" cy="183.346" r="3.372"/>
		<circle fill="#268C16" cx="1084.291" cy="212.417" r="3.371"/>
	</g>
	<g>
		<circle fill="#D93644" cx="1047.957" cy="627.295" r="3.371"/>
		<circle fill="#0C59F2" cx="1041.537" cy="632.957" r="3.371"/>
		<circle fill="#D93644" cx="1049.844" cy="635.223" r="3.371"/>
		<circle fill="#0C59F2" cx="1043.803" cy="642.019" r="3.371"/>
		<circle fill="#0C59F2" cx="1057.018" cy="630.314" r="3.371"/>
		<circle fill="#D93644" cx="1058.149" cy="638.621" r="3.37"/>
		<circle fill="#0C59F2" cx="1052.108" cy="643.528" r="3.37"/>
		<circle fill="#D93644" cx="1035.874" cy="638.621" r="3.37"/>
		<path fill="#0C59F2" d="M1037.736,629.559c0,1.863-1.51,3.373-3.373,3.373c-1.859,0-3.369-1.51-3.369-3.373
			c0-1.86,1.51-3.369,3.369-3.369C1036.227,626.189,1037.736,627.698,1037.736,629.559z"/>
		<circle fill="#D93644" cx="1040.405" cy="623.142" r="3.371"/>
		<circle fill="#D93644" cx="1055.506" cy="622.387" r="3.371"/>
		<circle fill="#0C59F2" cx="1047.957" cy="619.744" r="3.371"/>
		<circle fill="none" stroke="#F2F2F2" stroke-width="0.3775" stroke-miterlimit="10" cx="1046.652" cy="631.672" r="24.918"/>
		<circle fill="none" stroke="#F2F2F2" stroke-width="0.3775" stroke-miterlimit="10" cx="1046.841" cy="631.861" r="34.922"/>
		<circle fill="#268C16" cx="1024.926" cy="619.744" r="3.371"/>
		<circle fill="#268C16" cx="1039.272" cy="597.847" r="3.371"/>
		<circle fill="#268C16" cx="1046.824" cy="656.742" r="3.371"/>
		<circle fill="#268C16" cx="1017.753" cy="650.324" r="3.372"/>
		<circle fill="#268C16" cx="1066.456" cy="616.346" r="3.372"/>
		<circle fill="#268C16" cx="1079.291" cy="645.416" r="3.371"/>
	</g>
	<g>
		<circle fill="#D93644" cx="53.957" cy="468.295" r="3.371"/>
		<circle fill="#0C59F2" cx="47.538" cy="473.957" r="3.372"/>
		<circle fill="#D93644" cx="55.844" cy="476.223" r="3.371"/>
		<circle fill="#0C59F2" cx="49.803" cy="483.019" r="3.371"/>
		<circle fill="#0C59F2" cx="63.018" cy="471.314" r="3.371"/>
		<circle fill="#D93644" cx="64.149" cy="479.621" r="3.37"/>
		<circle fill="#0C59F2" cx="58.109" cy="484.528" r="3.371"/>
		<circle fill="#D93644" cx="41.875" cy="479.621" r="3.371"/>
		<circle fill="#0C59F2" cx="40.365" cy="470.559" r="3.371"/>
		<circle fill="#D93644" cx="46.405" cy="464.142" r="3.371"/>
		<circle fill="#D93644" cx="61.506" cy="463.387" r="3.372"/>
		<circle fill="#0C59F2" cx="53.957" cy="460.744" r="3.371"/>
		<circle fill="none" stroke="#F2F2F2" stroke-width="0.3775" stroke-miterlimit="10" cx="52.652" cy="472.672" r="24.918"/>
		<circle fill="none" stroke="#F2F2F2" stroke-width="0.3775" stroke-miterlimit="10" cx="52.841" cy="472.861" r="34.923"/>
		<circle fill="#268C16" cx="30.927" cy="460.744" r="3.371"/>
		<circle fill="#268C16" cx="45.272" cy="438.847" r="3.371"/>
		<circle fill="#268C16" cx="52.824" cy="497.742" r="3.371"/>
		<circle fill="#268C16" cx="23.753" cy="491.324" r="3.372"/>
		<circle fill="#268C16" cx="72.456" cy="457.346" r="3.372"/>
		<circle fill="#268C16" cx="85.291" cy="486.416" r="3.371"/>
	</g>
	<g>
		<circle fill="#D93644" cx="176.957" cy="49.295" r="3.371"/>
		<circle fill="#0C59F2" cx="170.538" cy="54.957" r="3.372"/>
		<circle fill="#D93644" cx="178.844" cy="57.222" r="3.371"/>
		<circle fill="#0C59F2" cx="172.803" cy="64.019" r="3.371"/>
		<circle fill="#0C59F2" cx="186.018" cy="52.314" r="3.371"/>
		<circle fill="#D93644" cx="187.149" cy="60.621" r="3.37"/>
		<circle fill="#0C59F2" cx="181.109" cy="65.528" r="3.371"/>
		<circle fill="#D93644" cx="164.875" cy="60.621" r="3.371"/>
		<circle fill="#0C59F2" cx="163.365" cy="51.559" r="3.371"/>
		<circle fill="#D93644" cx="169.405" cy="45.142" r="3.371"/>
		<circle fill="#D93644" cx="184.506" cy="44.386" r="3.372"/>
		<circle fill="#0C59F2" cx="176.957" cy="41.744" r="3.371"/>
		<circle fill="none" stroke="#F2F2F2" stroke-width="0.3775" stroke-miterlimit="10" cx="175.652" cy="53.672" r="24.918"/>
		<circle fill="none" stroke="#F2F2F2" stroke-width="0.3775" stroke-miterlimit="10" cx="175.841" cy="53.861" r="34.923"/>
		<circle fill="#268C16" cx="153.927" cy="41.744" r="3.371"/>
		<circle fill="#268C16" cx="168.272" cy="19.847" r="3.371"/>
		<circle fill="#268C16" cx="175.824" cy="78.743" r="3.371"/>
		<circle fill="#268C16" cx="146.753" cy="72.324" r="3.372"/>
		<circle fill="#268C16" cx="195.456" cy="38.346" r="3.372"/>
		<circle fill="#268C16" cx="208.291" cy="67.417" r="3.371"/>
	</g>
	<g>
		<circle fill="#D93644" cx="137.957" cy="207.295" r="3.371"/>
		<circle fill="#0C59F2" cx="131.538" cy="212.957" r="3.372"/>
		<circle fill="#D93644" cx="139.844" cy="215.222" r="3.371"/>
		<circle fill="#0C59F2" cx="133.803" cy="222.019" r="3.371"/>
		<circle fill="#0C59F2" cx="147.018" cy="210.314" r="3.371"/>
		<circle fill="#D93644" cx="148.149" cy="218.621" r="3.37"/>
		<circle fill="#0C59F2" cx="142.109" cy="223.528" r="3.371"/>
		<circle fill="#D93644" cx="125.875" cy="218.621" r="3.371"/>
		<circle fill="#0C59F2" cx="124.365" cy="209.559" r="3.371"/>
		<circle fill="#D93644" cx="130.405" cy="203.142" r="3.371"/>
		<circle fill="#D93644" cx="145.506" cy="202.386" r="3.372"/>
		<circle fill="#0C59F2" cx="137.957" cy="199.744" r="3.371"/>
		<circle fill="none" stroke="#F2F2F2" stroke-width="0.3775" stroke-miterlimit="10" cx="136.652" cy="211.672" r="24.918"/>
		<circle fill="none" stroke="#F2F2F2" stroke-width="0.3775" stroke-miterlimit="10" cx="136.841" cy="211.861" r="34.923"/>
		<circle fill="#268C16" cx="114.927" cy="199.744" r="3.371"/>
		<circle fill="#268C16" cx="129.272" cy="177.847" r="3.371"/>
		<circle fill="#268C16" cx="136.824" cy="236.743" r="3.371"/>
		<circle fill="#268C16" cx="107.753" cy="230.324" r="3.372"/>
		<circle fill="#268C16" cx="156.456" cy="196.346" r="3.372"/>
		<circle fill="#268C16" cx="169.291" cy="225.417" r="3.371"/>
	</g>
	<g>
		<circle fill="#D93644" cx="58.957" cy="289.295" r="3.371"/>
		<circle fill="#0C59F2" cx="52.538" cy="294.957" r="3.372"/>
		<circle fill="#D93644" cx="60.844" cy="297.222" r="3.371"/>
		<circle fill="#0C59F2" cx="54.803" cy="304.019" r="3.371"/>
		<circle fill="#0C59F2" cx="68.018" cy="292.314" r="3.371"/>
		<circle fill="#D93644" cx="69.149" cy="300.621" r="3.37"/>
		<circle fill="#0C59F2" cx="63.109" cy="305.528" r="3.371"/>
		<circle fill="#D93644" cx="46.875" cy="300.621" r="3.371"/>
		<circle fill="#0C59F2" cx="45.365" cy="291.559" r="3.371"/>
		<circle fill="#D93644" cx="51.405" cy="285.142" r="3.371"/>
		<circle fill="#D93644" cx="66.506" cy="284.386" r="3.372"/>
		<circle fill="#0C59F2" cx="58.957" cy="281.744" r="3.371"/>
		<circle fill="none" stroke="#F2F2F2" stroke-width="0.3775" stroke-miterlimit="10" cx="57.652" cy="293.672" r="24.918"/>
		<circle fill="none" stroke="#F2F2F2" stroke-width="0.3775" stroke-miterlimit="10" cx="57.841" cy="293.861" r="34.923"/>
		<circle fill="#268C16" cx="35.927" cy="281.744" r="3.371"/>
		<circle fill="#268C16" cx="50.272" cy="259.847" r="3.371"/>
		<circle fill="#268C16" cx="57.824" cy="318.743" r="3.371"/>
		<circle fill="#268C16" cx="28.753" cy="312.324" r="3.372"/>
		<circle fill="#268C16" cx="77.456" cy="278.346" r="3.372"/>
		<circle fill="#268C16" cx="90.291" cy="307.417" r="3.371"/>
	</g>
	<g>
		<circle fill="#D93644" cx="233.957" cy="289.295" r="3.371"/>
		<circle fill="#0C59F2" cx="227.538" cy="294.957" r="3.372"/>
		<circle fill="#D93644" cx="235.844" cy="297.222" r="3.371"/>
		<circle fill="#0C59F2" cx="229.803" cy="304.019" r="3.371"/>
		<circle fill="#0C59F2" cx="243.018" cy="292.314" r="3.371"/>
		<circle fill="#D93644" cx="244.149" cy="300.621" r="3.37"/>
		<circle fill="#0C59F2" cx="238.109" cy="305.528" r="3.371"/>
		<circle fill="#D93644" cx="221.875" cy="300.621" r="3.371"/>
		<circle fill="#0C59F2" cx="220.365" cy="291.559" r="3.371"/>
		<circle fill="#D93644" cx="226.405" cy="285.142" r="3.371"/>
		<circle fill="#D93644" cx="241.506" cy="284.386" r="3.372"/>
		<circle fill="#0C59F2" cx="233.957" cy="281.744" r="3.371"/>
		<circle fill="none" stroke="#F2F2F2" stroke-width="0.3775" stroke-miterlimit="10" cx="232.652" cy="293.672" r="24.918"/>
		<circle fill="none" stroke="#F2F2F2" stroke-width="0.3775" stroke-miterlimit="10" cx="232.841" cy="293.861" r="34.923"/>
		<circle fill="#268C16" cx="210.927" cy="281.744" r="3.371"/>
		<circle fill="#268C16" cx="225.272" cy="259.847" r="3.371"/>
		<circle fill="#268C16" cx="232.824" cy="318.743" r="3.371"/>
		<circle fill="#268C16" cx="203.753" cy="312.324" r="3.372"/>
		<circle fill="#268C16" cx="252.456" cy="278.346" r="3.372"/>
		<circle fill="#268C16" cx="265.291" cy="307.417" r="3.371"/>
	</g>
	<g>
		<circle fill="#D93644" cx="660.957" cy="189.295" r="3.371"/>
		<circle fill="#0C59F2" cx="654.538" cy="194.957" r="3.372"/>
		<circle fill="#D93644" cx="662.844" cy="197.222" r="3.371"/>
		<circle fill="#0C59F2" cx="656.803" cy="204.019" r="3.371"/>
		<circle fill="#0C59F2" cx="670.018" cy="192.314" r="3.371"/>
		<circle fill="#D93644" cx="671.149" cy="200.621" r="3.37"/>
		<circle fill="#0C59F2" cx="665.109" cy="205.528" r="3.371"/>
		<circle fill="#D93644" cx="648.875" cy="200.621" r="3.371"/>
		<circle fill="#0C59F2" cx="647.365" cy="191.559" r="3.371"/>
		<circle fill="#D93644" cx="653.405" cy="185.142" r="3.371"/>
		<circle fill="#D93644" cx="668.506" cy="184.386" r="3.372"/>
		<circle fill="#0C59F2" cx="660.957" cy="181.744" r="3.371"/>
		<circle fill="none" stroke="#F2F2F2" stroke-width="0.3775" stroke-miterlimit="10" cx="659.652" cy="193.672" r="24.918"/>
		<circle fill="none" stroke="#F2F2F2" stroke-width="0.3775" stroke-miterlimit="10" cx="659.841" cy="193.861" r="34.923"/>
		<circle fill="#268C16" cx="637.927" cy="181.744" r="3.371"/>
		<circle fill="#268C16" cx="652.272" cy="159.847" r="3.371"/>
		<circle fill="#268C16" cx="659.824" cy="218.743" r="3.371"/>
		<circle fill="#268C16" cx="630.753" cy="212.324" r="3.372"/>
		<circle fill="#268C16" cx="679.456" cy="178.346" r="3.372"/>
		<circle fill="#268C16" cx="692.291" cy="207.417" r="3.371"/>
	</g>
	<g>
		<circle fill="#D93644" cx="596.957" cy="507.295" r="3.371"/>
		<circle fill="#0C59F2" cx="590.538" cy="512.957" r="3.372"/>
		<circle fill="#D93644" cx="598.844" cy="515.223" r="3.371"/>
		<circle fill="#0C59F2" cx="592.803" cy="522.019" r="3.371"/>
		<circle fill="#0C59F2" cx="606.018" cy="510.314" r="3.371"/>
		<circle fill="#D93644" cx="607.149" cy="518.621" r="3.37"/>
		<circle fill="#0C59F2" cx="601.109" cy="523.528" r="3.371"/>
		<circle fill="#D93644" cx="584.875" cy="518.621" r="3.371"/>
		<circle fill="#0C59F2" cx="583.365" cy="509.559" r="3.371"/>
		<circle fill="#D93644" cx="589.405" cy="503.142" r="3.371"/>
		<circle fill="#D93644" cx="604.506" cy="502.387" r="3.372"/>
		<circle fill="#0C59F2" cx="596.957" cy="499.744" r="3.371"/>
		<circle fill="none" stroke="#F2F2F2" stroke-width="0.3775" stroke-miterlimit="10" cx="595.652" cy="511.672" r="24.918"/>
		<circle fill="none" stroke="#F2F2F2" stroke-width="0.3775" stroke-miterlimit="10" cx="595.841" cy="511.861" r="34.923"/>
		<circle fill="#268C16" cx="573.927" cy="499.744" r="3.371"/>
		<circle fill="#268C16" cx="588.272" cy="477.847" r="3.371"/>
		<circle fill="#268C16" cx="595.824" cy="536.742" r="3.371"/>
		<circle fill="#268C16" cx="566.753" cy="530.324" r="3.372"/>
		<circle fill="#268C16" cx="615.456" cy="496.346" r="3.372"/>
		<circle fill="#268C16" cx="628.291" cy="525.416" r="3.371"/>
	</g>
	<g>
		<circle fill="#D93644" cx="875.957" cy="489.295" r="3.371"/>
		<circle fill="#0C59F2" cx="869.537" cy="494.957" r="3.371"/>
		<circle fill="#D93644" cx="877.844" cy="497.223" r="3.371"/>
		<circle fill="#0C59F2" cx="871.803" cy="504.019" r="3.371"/>
		<circle fill="#0C59F2" cx="885.018" cy="492.314" r="3.371"/>
		<circle fill="#D93644" cx="886.149" cy="500.621" r="3.37"/>
		<circle fill="#0C59F2" cx="880.108" cy="505.528" r="3.37"/>
		<circle fill="#D93644" cx="863.874" cy="500.621" r="3.37"/>
		<path fill="#0C59F2" d="M865.736,491.559c0,1.863-1.51,3.373-3.373,3.373c-1.859,0-3.369-1.51-3.369-3.373
			c0-1.86,1.51-3.369,3.369-3.369C864.227,488.189,865.736,489.698,865.736,491.559z"/>
		<circle fill="#D93644" cx="868.405" cy="485.142" r="3.371"/>
		<circle fill="#D93644" cx="883.506" cy="484.387" r="3.371"/>
		<circle fill="#0C59F2" cx="875.957" cy="481.744" r="3.371"/>
		<circle fill="none" stroke="#F2F2F2" stroke-width="0.3775" stroke-miterlimit="10" cx="874.652" cy="493.672" r="24.918"/>
		<circle fill="none" stroke="#F2F2F2" stroke-width="0.3775" stroke-miterlimit="10" cx="874.841" cy="493.861" r="34.923"/>
		<circle fill="#268C16" cx="852.926" cy="481.744" r="3.371"/>
		<circle fill="#268C16" cx="867.272" cy="459.847" r="3.371"/>
		<circle fill="#268C16" cx="874.824" cy="518.742" r="3.371"/>
		<circle fill="#268C16" cx="845.753" cy="512.324" r="3.372"/>
		<circle fill="#268C16" cx="894.456" cy="478.346" r="3.372"/>
		<circle fill="#268C16" cx="907.291" cy="507.416" r="3.371"/>
	</g>
	<g>
		<circle fill="#D93644" cx="163.957" cy="545.295" r="3.371"/>
		<circle fill="#0C59F2" cx="157.538" cy="550.957" r="3.372"/>
		<circle fill="#D93644" cx="165.844" cy="553.223" r="3.371"/>
		<circle fill="#0C59F2" cx="159.803" cy="560.019" r="3.371"/>
		<circle fill="#0C59F2" cx="173.018" cy="548.314" r="3.371"/>
		<circle fill="#D93644" cx="174.149" cy="556.621" r="3.37"/>
		<circle fill="#0C59F2" cx="168.109" cy="561.528" r="3.371"/>
		<circle fill="#D93644" cx="151.875" cy="556.621" r="3.371"/>
		<circle fill="#0C59F2" cx="150.365" cy="547.559" r="3.371"/>
		<circle fill="#D93644" cx="156.405" cy="541.142" r="3.371"/>
		<circle fill="#D93644" cx="171.506" cy="540.387" r="3.372"/>
		<circle fill="#0C59F2" cx="163.957" cy="537.744" r="3.371"/>
		<circle fill="none" stroke="#F2F2F2" stroke-width="0.3775" stroke-miterlimit="10" cx="162.652" cy="549.672" r="24.918"/>
		<circle fill="none" stroke="#F2F2F2" stroke-width="0.3775" stroke-miterlimit="10" cx="162.841" cy="549.861" r="34.923"/>
		<circle fill="#268C16" cx="140.927" cy="537.744" r="3.371"/>
		<circle fill="#268C16" cx="155.272" cy="515.847" r="3.371"/>
		<circle fill="#268C16" cx="162.824" cy="574.742" r="3.371"/>
		<circle fill="#268C16" cx="133.753" cy="568.324" r="3.372"/>
		<circle fill="#268C16" cx="182.456" cy="534.346" r="3.372"/>
		<circle fill="#268C16" cx="195.291" cy="563.416" r="3.371"/>
	</g>
	<g>
		<circle fill="#D93644" cx="252.957" cy="635.295" r="3.371"/>
		<circle fill="#0C59F2" cx="246.538" cy="640.957" r="3.372"/>
		<circle fill="#D93644" cx="254.844" cy="643.223" r="3.371"/>
		<circle fill="#0C59F2" cx="248.803" cy="650.019" r="3.371"/>
		<circle fill="#0C59F2" cx="262.018" cy="638.314" r="3.371"/>
		<circle fill="#D93644" cx="263.149" cy="646.621" r="3.37"/>
		<circle fill="#0C59F2" cx="257.109" cy="651.528" r="3.371"/>
		<circle fill="#D93644" cx="240.875" cy="646.621" r="3.371"/>
		<circle fill="#0C59F2" cx="239.365" cy="637.559" r="3.371"/>
		<circle fill="#D93644" cx="245.405" cy="631.142" r="3.371"/>
		<circle fill="#D93644" cx="260.506" cy="630.387" r="3.372"/>
		<circle fill="#0C59F2" cx="252.957" cy="627.744" r="3.371"/>
		<circle fill="none" stroke="#F2F2F2" stroke-width="0.3775" stroke-miterlimit="10" cx="251.652" cy="639.672" r="24.918"/>
		<circle fill="none" stroke="#F2F2F2" stroke-width="0.3775" stroke-miterlimit="10" cx="251.841" cy="639.861" r="34.923"/>
		<circle fill="#268C16" cx="229.927" cy="627.744" r="3.371"/>
		<circle fill="#268C16" cx="244.272" cy="605.847" r="3.371"/>
		<circle fill="#268C16" cx="251.824" cy="664.742" r="3.371"/>
		<circle fill="#268C16" cx="222.753" cy="658.324" r="3.372"/>
		<circle fill="#268C16" cx="271.456" cy="624.346" r="3.372"/>
		<circle fill="#268C16" cx="284.291" cy="653.416" r="3.371"/>
	</g>
	<g>
		<circle fill="#D93644" cx="374.957" cy="544.295" r="3.371"/>
		<circle fill="#0C59F2" cx="368.538" cy="549.957" r="3.372"/>
		<circle fill="#D93644" cx="376.844" cy="552.223" r="3.371"/>
		<circle fill="#0C59F2" cx="370.803" cy="559.019" r="3.371"/>
		<circle fill="#0C59F2" cx="384.018" cy="547.314" r="3.371"/>
		<circle fill="#D93644" cx="385.149" cy="555.621" r="3.37"/>
		<circle fill="#0C59F2" cx="379.109" cy="560.528" r="3.371"/>
		<circle fill="#D93644" cx="362.875" cy="555.621" r="3.371"/>
		<circle fill="#0C59F2" cx="361.365" cy="546.559" r="3.371"/>
		<circle fill="#D93644" cx="367.405" cy="540.142" r="3.371"/>
		<circle fill="#D93644" cx="382.506" cy="539.387" r="3.372"/>
		<circle fill="#0C59F2" cx="374.957" cy="536.744" r="3.371"/>
		<circle fill="none" stroke="#F2F2F2" stroke-width="0.3775" stroke-miterlimit="10" cx="373.652" cy="548.672" r="24.918"/>
		<circle fill="none" stroke="#F2F2F2" stroke-width="0.3775" stroke-miterlimit="10" cx="373.841" cy="548.861" r="34.923"/>
		<circle fill="#268C16" cx="351.927" cy="536.744" r="3.371"/>
		<circle fill="#268C16" cx="366.272" cy="514.847" r="3.371"/>
		<circle fill="#268C16" cx="373.824" cy="573.742" r="3.371"/>
		<circle fill="#268C16" cx="344.753" cy="567.324" r="3.372"/>
		<circle fill="#268C16" cx="393.456" cy="533.346" r="3.372"/>
		<circle fill="#268C16" cx="406.291" cy="562.416" r="3.371"/>
	</g>
	<g>
		<circle fill="#D93644" cx="252.957" cy="465.295" r="3.371"/>
		<circle fill="#0C59F2" cx="246.538" cy="470.957" r="3.372"/>
		<circle fill="#D93644" cx="254.844" cy="473.223" r="3.371"/>
		<circle fill="#0C59F2" cx="248.803" cy="480.019" r="3.371"/>
		<circle fill="#0C59F2" cx="262.018" cy="468.314" r="3.371"/>
		<circle fill="#D93644" cx="263.149" cy="476.621" r="3.37"/>
		<circle fill="#0C59F2" cx="257.109" cy="481.528" r="3.371"/>
		<circle fill="#D93644" cx="240.875" cy="476.621" r="3.371"/>
		<circle fill="#0C59F2" cx="239.365" cy="467.559" r="3.371"/>
		<circle fill="#D93644" cx="245.405" cy="461.142" r="3.371"/>
		<circle fill="#D93644" cx="260.506" cy="460.387" r="3.372"/>
		<circle fill="#0C59F2" cx="252.957" cy="457.744" r="3.371"/>
		<circle fill="none" stroke="#F2F2F2" stroke-width="0.3775" stroke-miterlimit="10" cx="251.652" cy="469.672" r="24.918"/>
		<circle fill="none" stroke="#F2F2F2" stroke-width="0.3775" stroke-miterlimit="10" cx="251.841" cy="469.861" r="34.923"/>
		<circle fill="#268C16" cx="229.927" cy="457.744" r="3.371"/>
		<circle fill="#268C16" cx="244.272" cy="435.847" r="3.371"/>
		<circle fill="#268C16" cx="251.824" cy="494.742" r="3.371"/>
		<circle fill="#268C16" cx="222.753" cy="488.324" r="3.372"/>
		<circle fill="#268C16" cx="271.456" cy="454.346" r="3.372"/>
		<circle fill="#268C16" cx="284.291" cy="483.416" r="3.371"/>
	</g>
	<g>
		<circle fill="#D93644" cx="354.957" cy="390.295" r="3.371"/>
		<circle fill="#0C59F2" cx="348.538" cy="395.957" r="3.372"/>
		<circle fill="#D93644" cx="356.844" cy="398.223" r="3.371"/>
		<circle fill="#0C59F2" cx="350.803" cy="405.019" r="3.371"/>
		<circle fill="#0C59F2" cx="364.018" cy="393.314" r="3.371"/>
		<circle fill="#D93644" cx="365.149" cy="401.621" r="3.37"/>
		<circle fill="#0C59F2" cx="359.109" cy="406.528" r="3.371"/>
		<circle fill="#D93644" cx="342.875" cy="401.621" r="3.371"/>
		<circle fill="#0C59F2" cx="341.365" cy="392.559" r="3.371"/>
		<circle fill="#D93644" cx="347.405" cy="386.142" r="3.371"/>
		<circle fill="#D93644" cx="362.506" cy="385.387" r="3.372"/>
		<circle fill="#0C59F2" cx="354.957" cy="382.744" r="3.371"/>
		<circle fill="none" stroke="#F2F2F2" stroke-width="0.3775" stroke-miterlimit="10" cx="353.652" cy="394.672" r="24.918"/>
		<circle fill="none" stroke="#F2F2F2" stroke-width="0.3775" stroke-miterlimit="10" cx="353.841" cy="394.861" r="34.923"/>
		<circle fill="#268C16" cx="331.927" cy="382.744" r="3.371"/>
		<circle fill="#268C16" cx="346.272" cy="360.847" r="3.371"/>
		<circle fill="#268C16" cx="353.824" cy="419.742" r="3.371"/>
		<circle fill="#268C16" cx="324.753" cy="413.324" r="3.372"/>
		<circle fill="#268C16" cx="373.456" cy="379.346" r="3.372"/>
		<circle fill="#268C16" cx="386.291" cy="408.416" r="3.371"/>
	</g>
	<g>
		<circle fill="#D93644" cx="161.957" cy="384.295" r="3.371"/>
		<circle fill="#0C59F2" cx="155.538" cy="389.957" r="3.372"/>
		<circle fill="#D93644" cx="163.844" cy="392.223" r="3.371"/>
		<circle fill="#0C59F2" cx="157.803" cy="399.019" r="3.371"/>
		<circle fill="#0C59F2" cx="171.018" cy="387.314" r="3.371"/>
		<circle fill="#D93644" cx="172.149" cy="395.621" r="3.37"/>
		<circle fill="#0C59F2" cx="166.109" cy="400.528" r="3.371"/>
		<circle fill="#D93644" cx="149.875" cy="395.621" r="3.371"/>
		<circle fill="#0C59F2" cx="148.365" cy="386.559" r="3.371"/>
		<circle fill="#D93644" cx="154.405" cy="380.142" r="3.371"/>
		<circle fill="#D93644" cx="169.506" cy="379.387" r="3.372"/>
		<circle fill="#0C59F2" cx="161.957" cy="376.744" r="3.371"/>
		<circle fill="none" stroke="#F2F2F2" stroke-width="0.3775" stroke-miterlimit="10" cx="160.652" cy="388.672" r="24.918"/>
		<circle fill="none" stroke="#F2F2F2" stroke-width="0.3775" stroke-miterlimit="10" cx="160.841" cy="388.861" r="34.923"/>
		<circle fill="#268C16" cx="138.927" cy="376.744" r="3.371"/>
		<circle fill="#268C16" cx="153.272" cy="354.847" r="3.371"/>
		<circle fill="#268C16" cx="160.824" cy="413.742" r="3.371"/>
		<circle fill="#268C16" cx="131.753" cy="407.324" r="3.372"/>
		<circle fill="#268C16" cx="180.456" cy="373.346" r="3.372"/>
		<circle fill="#268C16" cx="193.291" cy="402.416" r="3.371"/>
	</g>
	<g>
		<circle fill="#D93644" cx="66.957" cy="647.295" r="3.371"/>
		<circle fill="#0C59F2" cx="60.538" cy="652.957" r="3.372"/>
		<circle fill="#D93644" cx="68.844" cy="655.223" r="3.371"/>
		<circle fill="#0C59F2" cx="62.803" cy="662.019" r="3.371"/>
		<circle fill="#0C59F2" cx="76.018" cy="650.314" r="3.371"/>
		<circle fill="#D93644" cx="77.149" cy="658.621" r="3.37"/>
		<circle fill="#0C59F2" cx="71.109" cy="663.528" r="3.371"/>
		<circle fill="#D93644" cx="54.875" cy="658.621" r="3.371"/>
		<circle fill="#0C59F2" cx="53.365" cy="649.559" r="3.371"/>
		<circle fill="#D93644" cx="59.405" cy="643.142" r="3.371"/>
		<circle fill="#D93644" cx="74.506" cy="642.387" r="3.372"/>
		<circle fill="#0C59F2" cx="66.957" cy="639.744" r="3.371"/>
		<circle fill="none" stroke="#F2F2F2" stroke-width="0.3775" stroke-miterlimit="10" cx="65.652" cy="651.672" r="24.918"/>
		<circle fill="none" stroke="#F2F2F2" stroke-width="0.3775" stroke-miterlimit="10" cx="65.841" cy="651.861" r="34.923"/>
		<circle fill="#268C16" cx="43.927" cy="639.744" r="3.371"/>
		<circle fill="#268C16" cx="58.272" cy="617.847" r="3.371"/>
		<circle fill="#268C16" cx="65.824" cy="676.742" r="3.371"/>
		<circle fill="#268C16" cx="36.753" cy="670.324" r="3.372"/>
		<circle fill="#268C16" cx="85.456" cy="636.346" r="3.372"/>
		<circle fill="#268C16" cx="98.291" cy="665.416" r="3.371"/>
	</g>
	<g>
		<circle fill="#D93644" cx="34.957" cy="107.295" r="3.371"/>
		<circle fill="#0C59F2" cx="28.538" cy="112.957" r="3.372"/>
		<circle fill="#D93644" cx="36.844" cy="115.223" r="3.371"/>
		<circle fill="#0C59F2" cx="30.803" cy="122.019" r="3.371"/>
		<circle fill="#0C59F2" cx="44.018" cy="110.314" r="3.371"/>
		<circle fill="#D93644" cx="45.149" cy="118.621" r="3.37"/>
		<circle fill="#0C59F2" cx="39.109" cy="123.528" r="3.371"/>
		<circle fill="#D93644" cx="22.875" cy="118.621" r="3.371"/>
		<circle fill="#0C59F2" cx="21.365" cy="109.559" r="3.371"/>
		<circle fill="#D93644" cx="27.405" cy="103.142" r="3.371"/>
		<circle fill="#D93644" cx="42.506" cy="102.387" r="3.372"/>
		<circle fill="#0C59F2" cx="34.957" cy="99.744" r="3.371"/>
		<circle fill="none" stroke="#F2F2F2" stroke-width="0.3775" stroke-miterlimit="10" cx="33.652" cy="111.672" r="24.918"/>
		<circle fill="none" stroke="#F2F2F2" stroke-width="0.3775" stroke-miterlimit="10" cx="33.841" cy="111.861" r="34.923"/>
		<circle fill="#268C16" cx="11.927" cy="99.744" r="3.371"/>
		<circle fill="#268C16" cx="26.272" cy="77.847" r="3.371"/>
		<circle fill="#268C16" cx="33.824" cy="136.742" r="3.371"/>
		<circle fill="#268C16" cx="4.753" cy="130.324" r="3.372"/>
		<circle fill="#268C16" cx="53.456" cy="96.346" r="3.372"/>
		<circle fill="#268C16" cx="66.291" cy="125.416" r="3.371"/>
	</g>
</g>
</svg>
